<svg width="160" height="24" viewBox="0 0 160 24" fill="none" xmlns="http://www.w3.org/2000/svg">
<path d="M22 9.66966C21.9368 9.48674 21.822 9.32608 21.6693 9.20716C21.5167 9.08823 21.3328 9.01615 21.14 8.99966L15.45 8.16966L12.9 2.99966C12.8181 2.83059 12.6902 2.688 12.5311 2.58823C12.3719 2.48846 12.1878 2.43555 12 2.43555C11.8121 2.43555 11.6281 2.48846 11.4689 2.58823C11.3097 2.688 11.1819 2.83059 11.1 2.99966L8.54998 8.15966L2.85998 8.99966C2.6749 9.02596 2.5009 9.10362 2.35773 9.22381C2.21455 9.34401 2.10794 9.50193 2.04998 9.67966C1.99692 9.85333 1.99216 10.0382 2.03621 10.2143C2.08025 10.3905 2.17144 10.5514 2.29998 10.6797L6.42998 14.6797L5.42998 20.3597C5.39428 20.5471 5.41297 20.7409 5.48385 20.9181C5.55473 21.0953 5.67483 21.2485 5.82998 21.3597C5.98119 21.4678 6.15955 21.5316 6.34503 21.5439C6.5305 21.5563 6.71575 21.5167 6.87998 21.4297L12 18.7597L17.1 21.4397C17.2403 21.5188 17.3988 21.5602 17.56 21.5597C17.7718 21.5604 17.9784 21.4939 18.15 21.3697C18.3051 21.2585 18.4252 21.1053 18.4961 20.9281C18.567 20.7509 18.5857 20.5571 18.55 20.3697L17.55 14.6897L21.68 10.6897C21.8244 10.5673 21.9311 10.4066 21.9877 10.226C22.0444 10.0455 22.0486 9.85253 22 9.66966ZM15.85 13.6697C15.7327 13.7831 15.645 13.9235 15.5944 14.0786C15.5439 14.2338 15.532 14.3989 15.56 14.5597L16.28 18.7497L12.52 16.7497C12.3753 16.6726 12.2139 16.6323 12.05 16.6323C11.8861 16.6323 11.7247 16.6726 11.58 16.7497L7.81998 18.7497L8.53998 14.5597C8.56791 14.3989 8.55609 14.2338 8.50554 14.0786C8.45499 13.9235 8.36725 13.7831 8.24998 13.6697L5.24998 10.6697L9.45998 10.0597C9.62198 10.0371 9.77598 9.9752 9.90848 9.87931C10.041 9.78342 10.1479 9.65649 10.22 9.50966L12 5.69966L13.88 9.51966C13.952 9.66649 14.059 9.79342 14.1915 9.88931C14.324 9.9852 14.478 10.0471 14.64 10.0697L18.85 10.6797L15.85 13.6697Z" fill="black"/>
<path d="M56 9.66966C55.9368 9.48674 55.822 9.32608 55.6693 9.20716C55.5167 9.08823 55.3328 9.01615 55.14 8.99966L49.45 8.16966L46.9 2.99966C46.8181 2.83059 46.6902 2.688 46.5311 2.58823C46.3719 2.48846 46.1878 2.43555 46 2.43555C45.8121 2.43555 45.6281 2.48846 45.4689 2.58823C45.3097 2.688 45.1819 2.83059 45.1 2.99966L42.55 8.15966L36.86 8.99966C36.6749 9.02596 36.5009 9.10362 36.3577 9.22381C36.2146 9.34401 36.1079 9.50193 36.05 9.67966C35.9969 9.85333 35.9922 10.0382 36.0362 10.2143C36.0802 10.3905 36.1714 10.5514 36.3 10.6797L40.43 14.6797L39.43 20.3597C39.3943 20.5471 39.413 20.7409 39.4838 20.9181C39.5547 21.0953 39.6748 21.2485 39.83 21.3597C39.9812 21.4678 40.1596 21.5316 40.345 21.5439C40.5305 21.5563 40.7157 21.5167 40.88 21.4297L46 18.7597L51.1 21.4397C51.2403 21.5188 51.3988 21.5602 51.56 21.5597C51.7718 21.5604 51.9784 21.4939 52.15 21.3697C52.3051 21.2585 52.4252 21.1053 52.4961 20.9281C52.567 20.7509 52.5857 20.5571 52.55 20.3697L51.55 14.6897L55.68 10.6897C55.8244 10.5673 55.9311 10.4066 55.9877 10.226C56.0444 10.0455 56.0486 9.85253 56 9.66966ZM49.85 13.6697C49.7327 13.7831 49.645 13.9235 49.5944 14.0786C49.5439 14.2338 49.532 14.3989 49.56 14.5597L50.28 18.7497L46.52 16.7497C46.3753 16.6726 46.2139 16.6323 46.05 16.6323C45.8861 16.6323 45.7247 16.6726 45.58 16.7497L41.82 18.7497L42.54 14.5597C42.5679 14.3989 42.5561 14.2338 42.5055 14.0786C42.455 13.9235 42.3673 13.7831 42.25 13.6697L39.25 10.6697L43.46 10.0597C43.622 10.0371 43.776 9.9752 43.9085 9.87931C44.041 9.78342 44.1479 9.65649 44.22 9.50966L46 5.69966L47.88 9.51966C47.952 9.66649 48.059 9.79342 48.1915 9.88931C48.324 9.9852 48.478 10.0471 48.64 10.0697L52.85 10.6797L49.85 13.6697Z" fill="black"/>
<path d="M90 9.66966C89.9368 9.48674 89.822 9.32608 89.6693 9.20716C89.5167 9.08823 89.3328 9.01615 89.14 8.99966L83.45 8.16966L80.9 2.99966C80.8181 2.83059 80.6902 2.688 80.5311 2.58823C80.3719 2.48846 80.1878 2.43555 80 2.43555C79.8121 2.43555 79.6281 2.48846 79.4689 2.58823C79.3097 2.688 79.1819 2.83059 79.1 2.99966L76.55 8.15966L70.86 8.99966C70.6749 9.02596 70.5009 9.10362 70.3577 9.22381C70.2146 9.34401 70.1079 9.50193 70.05 9.67966C69.9969 9.85333 69.9922 10.0382 70.0362 10.2143C70.0802 10.3905 70.1714 10.5514 70.3 10.6797L74.43 14.6797L73.43 20.3597C73.3943 20.5471 73.413 20.7409 73.4838 20.9181C73.5547 21.0953 73.6748 21.2485 73.83 21.3597C73.9812 21.4678 74.1596 21.5316 74.345 21.5439C74.5305 21.5563 74.7157 21.5167 74.88 21.4297L80 18.7597L85.1 21.4397C85.2403 21.5188 85.3988 21.5602 85.56 21.5597C85.7718 21.5604 85.9784 21.4939 86.15 21.3697C86.3051 21.2585 86.4252 21.1053 86.4961 20.9281C86.567 20.7509 86.5857 20.5571 86.55 20.3697L85.55 14.6897L89.68 10.6897C89.8244 10.5673 89.9311 10.4066 89.9877 10.226C90.0444 10.0455 90.0486 9.85253 90 9.66966ZM83.85 13.6697C83.7327 13.7831 83.645 13.9235 83.5944 14.0786C83.5439 14.2338 83.532 14.3989 83.56 14.5597L84.28 18.7497L80.52 16.7497C80.3753 16.6726 80.2139 16.6323 80.05 16.6323C79.8861 16.6323 79.7247 16.6726 79.58 16.7497L75.82 18.7497L76.54 14.5597C76.5679 14.3989 76.5561 14.2338 76.5055 14.0786C76.455 13.9235 76.3673 13.7831 76.25 13.6697L73.25 10.6697L77.46 10.0597C77.622 10.0371 77.776 9.9752 77.9085 9.87931C78.041 9.78342 78.1479 9.65649 78.22 9.50966L80 5.69966L81.88 9.51966C81.952 9.66649 82.059 9.79342 82.1915 9.88931C82.324 9.9852 82.478 10.0471 82.64 10.0697L86.85 10.6797L83.85 13.6697Z" fill="black"/>
<path d="M124 9.66966C123.937 9.48674 123.822 9.32608 123.669 9.20716C123.517 9.08823 123.333 9.01615 123.14 8.99966L117.45 8.16966L114.9 2.99966C114.818 2.83059 114.69 2.688 114.531 2.58823C114.372 2.48846 114.188 2.43555 114 2.43555C113.812 2.43555 113.628 2.48846 113.469 2.58823C113.31 2.688 113.182 2.83059 113.1 2.99966L110.55 8.15966L104.86 8.99966C104.675 9.02596 104.501 9.10362 104.358 9.22381C104.215 9.34401 104.108 9.50193 104.05 9.67966C103.997 9.85333 103.992 10.0382 104.036 10.2143C104.08 10.3905 104.171 10.5514 104.3 10.6797L108.43 14.6797L107.43 20.3597C107.394 20.5471 107.413 20.7409 107.484 20.9181C107.555 21.0953 107.675 21.2485 107.83 21.3597C107.981 21.4678 108.16 21.5316 108.345 21.5439C108.53 21.5563 108.716 21.5167 108.88 21.4297L114 18.7597L119.1 21.4397C119.24 21.5188 119.399 21.5602 119.56 21.5597C119.772 21.5604 119.978 21.4939 120.15 21.3697C120.305 21.2585 120.425 21.1053 120.496 20.9281C120.567 20.7509 120.586 20.5571 120.55 20.3697L119.55 14.6897L123.68 10.6897C123.824 10.5673 123.931 10.4066 123.988 10.226C124.044 10.0455 124.049 9.85253 124 9.66966ZM117.85 13.6697C117.733 13.7831 117.645 13.9235 117.594 14.0786C117.544 14.2338 117.532 14.3989 117.56 14.5597L118.28 18.7497L114.52 16.7497C114.375 16.6726 114.214 16.6323 114.05 16.6323C113.886 16.6323 113.725 16.6726 113.58 16.7497L109.82 18.7497L110.54 14.5597C110.568 14.3989 110.556 14.2338 110.506 14.0786C110.455 13.9235 110.367 13.7831 110.25 13.6697L107.25 10.6697L111.46 10.0597C111.622 10.0371 111.776 9.9752 111.908 9.87931C112.041 9.78342 112.148 9.65649 112.22 9.50966L114 5.69966L115.88 9.51966C115.952 9.66649 116.059 9.79342 116.191 9.88931C116.324 9.9852 116.478 10.0471 116.64 10.0697L120.85 10.6797L117.85 13.6697Z" fill="black"/>
<path d="M158 9.66966C157.937 9.48674 157.822 9.32608 157.669 9.20716C157.517 9.08823 157.333 9.01615 157.14 8.99966L151.45 8.16966L148.9 2.99966C148.818 2.83059 148.69 2.688 148.531 2.58823C148.372 2.48846 148.188 2.43555 148 2.43555C147.812 2.43555 147.628 2.48846 147.469 2.58823C147.31 2.688 147.182 2.83059 147.1 2.99966L144.55 8.15966L138.86 8.99966C138.675 9.02596 138.501 9.10362 138.358 9.22381C138.215 9.34401 138.108 9.50193 138.05 9.67966C137.997 9.85333 137.992 10.0382 138.036 10.2143C138.08 10.3905 138.171 10.5514 138.3 10.6797L142.43 14.6797L141.43 20.3597C141.394 20.5471 141.413 20.7409 141.484 20.9181C141.555 21.0953 141.675 21.2485 141.83 21.3597C141.981 21.4678 142.16 21.5316 142.345 21.5439C142.53 21.5563 142.716 21.5167 142.88 21.4297L148 18.7597L153.1 21.4397C153.24 21.5188 153.399 21.5602 153.56 21.5597C153.772 21.5604 153.978 21.4939 154.15 21.3697C154.305 21.2585 154.425 21.1053 154.496 20.9281C154.567 20.7509 154.586 20.5571 154.55 20.3697L153.55 14.6897L157.68 10.6897C157.824 10.5673 157.931 10.4066 157.988 10.226C158.044 10.0455 158.049 9.85253 158 9.66966ZM151.85 13.6697C151.733 13.7831 151.645 13.9235 151.594 14.0786C151.544 14.2338 151.532 14.3989 151.56 14.5597L152.28 18.7497L148.52 16.7497C148.375 16.6726 148.214 16.6323 148.05 16.6323C147.886 16.6323 147.725 16.6726 147.58 16.7497L143.82 18.7497L144.54 14.5597C144.568 14.3989 144.556 14.2338 144.506 14.0786C144.455 13.9235 144.367 13.7831 144.25 13.6697L141.25 10.6697L145.46 10.0597C145.622 10.0371 145.776 9.9752 145.908 9.87931C146.041 9.78342 146.148 9.65649 146.22 9.50966L148 5.69966L149.88 9.51966C149.952 9.66649 150.059 9.79342 150.191 9.88931C150.324 9.9852 150.478 10.0471 150.64 10.0697L154.85 10.6797L151.85 13.6697Z" fill="#0F2F60"/>
<path d="M24 9.0219L18.0313 15.2409L19.5339 23.8686L12.0626 19.8394L4.67479 24L6.05218 15.3285L0 9.24088L8.26435 7.88321L11.9374 0L15.6939 7.83942L24 9.0219Z" fill="#FDB913"/>
<path d="M58 8.64598L52.0313 14.6058L53.5339 22.8741L46.0626 19.0128L38.6748 23L40.0522 14.6898L34 8.85584L42.2643 7.55474L45.9374 0L49.6939 7.51277L58 8.64598Z" fill="#FDB913"/>
<path d="M92 8.64598L86.0313 14.6058L87.5339 22.8741L80.0626 19.0128L72.6748 23L74.0522 14.6898L68 8.85584L76.2643 7.55474L79.9374 0L83.6939 7.51277L92 8.64598Z" fill="#FDB913"/>
<path d="M126 8.64598L120.031 14.6058L121.534 22.8741L114.063 19.0128L106.675 23L108.052 14.6898L102 8.85584L110.264 7.55474L113.937 0L117.694 7.51277L126 8.64598Z" fill="#FDB913"/>
</svg>
