<svg width="42" height="42" viewBox="0 0 42 42" fill="none" xmlns="http://www.w3.org/2000/svg">
<path fill-rule="evenodd" clip-rule="evenodd" d="M12.0187 31.9161C12.0187 31.9161 12.558 31.1111 13.3439 30.5135C13.664 30.27 14.0247 30.0587 14.4178 29.9676C14.963 29.8415 15.5648 29.9587 16.187 30.5422C17.3592 31.6342 18.0334 32.3528 18.7021 32.599C19.1383 32.7594 19.5761 32.748 20.1265 32.5156C20.5698 32.3286 21.0972 31.9916 21.7799 31.4817C21.8856 31.4047 21.9089 31.2566 21.832 31.1509C21.755 31.0453 21.6069 31.0219 21.5013 31.0988C20.8496 31.5611 20.35 31.8689 19.9302 32.0341C19.5278 32.1924 19.2114 32.2076 18.8984 32.0841C18.2802 31.8402 17.6848 31.1356 16.6141 30.0936C15.8011 29.3082 14.9916 29.1627 14.2696 29.3321C13.7846 29.4458 13.3343 29.706 12.9539 30.025C12.1202 30.7238 11.612 31.6736 11.612 31.6736C11.5451 31.7859 11.5819 31.9314 11.6942 31.9982C11.8064 32.0651 11.9519 32.0283 12.0187 31.9161Z" fill="#0F2F60"/>
<path fill-rule="evenodd" clip-rule="evenodd" d="M9.11871 8.99201C9.11871 8.0872 8.75927 7.21951 8.11952 6.57976C7.47977 5.93985 6.61208 5.58057 5.70727 5.58057C5.70664 5.58057 5.70601 5.58057 5.70554 5.58057C4.80073 5.58057 3.93305 5.93985 3.29314 6.57976C2.65338 7.21951 2.29395 8.0872 2.29395 8.99201V18.0801C2.29395 19.0061 2.66188 19.8942 3.31673 20.5491C3.97159 21.2039 4.85972 21.5719 5.78577 21.5719H8.79105C8.97195 21.5719 9.11871 21.4251 9.11871 21.2442V8.99201Z" fill="#0F2F60"/>
<path fill-rule="evenodd" clip-rule="evenodd" d="M11.4112 13.1138H26.8807C27.0614 13.1138 27.2083 12.9671 27.2083 12.7862C27.2083 12.6053 27.0614 12.4585 26.8807 12.4585H11.4112C11.2303 12.4585 11.0835 12.6053 11.0835 12.7862C11.0835 12.9671 11.2303 13.1138 11.4112 13.1138Z" fill="#0F2F60"/>
<path fill-rule="evenodd" clip-rule="evenodd" d="M11.4112 16.7165H24.7544C24.9353 16.7165 25.0821 16.5696 25.0821 16.3887C25.0821 16.2078 24.9353 16.061 24.7544 16.061H11.4112C11.2303 16.061 11.0835 16.2078 11.0835 16.3887C11.0835 16.5696 11.2303 16.7165 11.4112 16.7165Z" fill="#0F2F60"/>
<path fill-rule="evenodd" clip-rule="evenodd" d="M11.4112 20.3191H22.2956C22.4763 20.3191 22.6233 20.1721 22.6233 19.9912C22.6233 19.8103 22.4763 19.6636 22.2956 19.6636H11.4112C11.2303 19.6636 11.0835 19.8103 11.0835 19.9912C11.0835 20.1721 11.2303 20.3191 11.4112 20.3191Z" fill="#0F2F60"/>
<path fill-rule="evenodd" clip-rule="evenodd" d="M11.4112 23.9216H21.038C21.2189 23.9216 21.3656 23.7747 21.3656 23.5938C21.3656 23.413 21.2189 23.2661 21.038 23.2661H11.4112C11.2303 23.2661 11.0835 23.413 11.0835 23.5938C11.0835 23.7747 11.2303 23.9216 11.4112 23.9216Z" fill="#0F2F60"/>
<path fill-rule="evenodd" clip-rule="evenodd" d="M31.5463 17.4365C31.5456 17.4371 31.5448 17.4378 31.544 17.4384C29.2551 19.2279 27.0025 21.105 24.8877 23.2404C24.0644 24.0719 23.2605 24.9405 22.4885 25.8609C21.3779 27.1852 20.3358 28.6112 19.3394 30.1425C19.1257 30.4521 19.2007 30.8775 19.5089 31.095C19.817 31.3126 20.2433 31.2407 20.4634 30.9353C21.5355 29.5328 22.6648 28.254 23.8122 27.0391C24.6077 26.1967 25.4106 25.3871 26.2301 24.6113C27.2809 23.6165 28.354 22.6753 29.4411 21.7683C30.5509 20.8424 31.6722 19.9486 32.8092 19.0847C32.8095 19.0844 32.81 19.0841 32.8103 19.0838C33.2649 18.7349 33.3508 18.0827 33.002 17.6281C32.6531 17.1737 32.0009 17.0878 31.5463 17.4365Z" fill="#0F2F60"/>
<path fill-rule="evenodd" clip-rule="evenodd" d="M32.9181 11.9784C33.1685 12.3984 33.6186 13.2804 33.5483 14.0966C33.5017 14.6373 33.3302 15.2512 32.9312 15.8818C32.8874 15.9606 32.788 15.9893 32.7092 15.9455C32.6302 15.9018 32.6018 15.8024 32.6455 15.7236C32.9343 15.1219 33.0141 14.5602 33.0115 14.0749C33.0081 13.3905 32.5697 12.6249 32.3332 12.2613C31.4212 12.72 30.4955 13.2689 29.6025 13.925C29.5314 13.9772 29.4843 14.056 29.4721 14.1433C29.3689 14.876 29.1921 15.7727 28.8902 16.6926C28.8801 16.2567 28.8672 15.7538 28.8513 15.215C28.8477 15.0875 28.77 14.9736 28.6525 14.9234C28.5352 14.8732 28.3992 14.8959 28.3044 14.9814C28.1062 15.1601 27.911 15.3453 27.7194 15.5369C27.0013 16.2548 26.2453 16.9561 25.5403 17.6911C25.8607 18.0794 26.3227 18.7319 26.3686 19.3114C26.4004 19.7115 26.3461 20.1872 26.1179 20.7249C26.0892 20.8103 25.9967 20.8566 25.9112 20.8279C25.8258 20.7993 25.7797 20.7066 25.8083 20.6212C25.9302 20.1337 25.9058 19.7248 25.8368 19.3864C25.7554 18.9873 25.3811 18.4932 25.0982 18.1654C24.3136 19.0337 23.6219 19.962 23.1603 21.0282C22.6287 22.2556 22.2035 23.4661 21.8694 24.5532C21.8693 24.5533 21.8693 24.5537 21.8691 24.5538C21.7529 24.935 21.7187 25.3284 21.7612 25.7109C21.8359 25.6202 21.911 25.5297 21.9865 25.4399C22.7701 24.5054 23.5861 23.6235 24.4221 22.7793C26.5566 20.6237 28.8299 18.7284 31.1404 16.9221C31.1428 16.9202 31.1451 16.9185 31.1475 16.9166C31.889 16.3476 32.953 16.4878 33.522 17.2293C34.0911 17.9708 33.9509 19.0348 33.2094 19.6038C33.2082 19.6047 33.2071 19.6057 33.2058 19.6066C32.0767 20.4647 30.9633 21.3522 29.8611 22.2717C28.7843 23.17 27.7216 24.102 26.6809 25.0874C25.87 25.8549 25.0757 26.6559 24.2887 27.4893C24.0916 27.6978 23.8952 27.9085 23.6995 28.1211C24.2603 28.311 24.8766 28.3269 25.4633 28.1477C25.4635 28.1476 25.4636 28.1476 25.4638 28.1476C26.5511 27.8138 27.7617 27.3886 28.9891 26.857C29.2941 26.7249 29.5878 26.5742 29.8719 26.4081C29.8076 26.097 29.554 25.1278 28.8746 24.9859C28.481 24.9037 27.9634 24.9351 27.2731 25.2104C27.1916 25.2486 27.0943 25.2135 27.056 25.1319C27.0176 25.0503 27.0529 24.953 27.1345 24.9147C28.1292 24.377 28.8545 24.3745 29.3627 24.5483C30.007 24.7688 30.3248 25.6021 30.4503 26.041C31.4637 25.3473 32.3638 24.4681 33.2428 23.5659C33.325 23.4816 33.3557 23.3596 33.323 23.2465C33.2903 23.1332 33.1994 23.0462 33.0848 23.0187C32.1621 22.7964 31.281 22.6643 30.6215 22.5798C31.8654 22.126 33.241 22.1976 34.2363 22.352C34.34 22.3681 34.445 22.3336 34.519 22.2591C35.0115 21.7631 35.4609 21.2432 35.871 20.7093C35.6394 20.5206 35.0466 20.0685 34.5515 19.9565C34.1904 19.8748 33.7774 19.8497 33.3529 20.0339C33.2733 20.076 33.1743 20.0457 33.1322 19.9659C33.09 19.8863 33.1204 19.7874 33.2001 19.7452C33.6798 19.4416 34.1864 19.3804 34.6381 19.4264C35.2721 19.491 35.9934 19.989 36.2572 20.1863C37.0261 19.1039 37.6416 17.9798 38.133 16.895C38.1731 16.8066 38.1719 16.7048 38.1297 16.6174C38.0874 16.5299 38.0086 16.4657 37.9144 16.442C37.5768 16.3572 37.2795 16.2875 37.0399 16.2281C37.5018 15.9185 37.9973 15.7543 38.4684 15.6761C38.584 15.6569 38.6806 15.5773 38.7216 15.4675C39.1338 14.3645 39.4194 13.3483 39.6145 12.5193C39.6151 12.5166 39.6158 12.5138 39.6162 12.5111C39.7388 11.9224 39.5565 11.3114 39.1311 10.8862C38.7058 10.461 38.0949 10.2787 37.5062 10.4012C37.5033 10.4019 37.5007 10.4025 37.498 10.4031C36.2723 10.6913 34.6385 11.1777 32.9181 11.9784Z" fill="#0F2F60"/>
<path fill-rule="evenodd" clip-rule="evenodd" d="M29.8283 26.4708V32.8749C29.8283 34.8033 28.265 36.3666 26.3365 36.3666C21.4769 36.3666 16.8146 36.3666 11.955 36.3666C11.0289 36.3666 10.1408 35.9986 9.48596 35.3439C8.8311 34.6891 8.46317 33.8009 8.46317 32.8749V8.992C8.46333 8.26102 8.17295 7.56007 7.65605 7.04317C7.13915 6.52627 6.43805 6.23589 5.70721 6.23589C5.52616 6.23589 5.37939 6.08913 5.37939 5.90823C5.37939 5.72717 5.52616 5.58057 5.70721 5.58057H26.3365C27.2627 5.58057 28.1508 5.94834 28.8056 6.6032C29.4603 7.25805 29.8283 8.14618 29.8283 9.07223V13.7212C29.746 13.7795 29.6642 13.8385 29.5829 13.8983C29.5045 13.9557 29.4528 14.0424 29.4393 14.1385C29.3913 14.4794 29.3274 14.8558 29.2423 15.2535L29.1728 15.5196V9.07223C29.1728 8.32 28.8741 7.59861 28.3421 7.06661C27.8102 6.53477 27.0888 6.23589 26.3365 6.23589H7.71771C7.85944 6.3394 7.99393 6.45407 8.11946 6.57976C8.75921 7.21951 9.11865 8.0872 9.11865 8.992V32.8749C9.11865 33.6271 9.41753 34.3485 9.94937 34.8804C10.4814 35.4124 11.2028 35.7111 11.955 35.7111H26.3365C27.903 35.7111 29.1728 34.4413 29.1728 32.8749L29.1726 26.8104C29.3969 26.7067 29.6151 26.5931 29.8283 26.4708Z" fill="#0F2F60"/>
</svg>
