<svg width="193" height="250" viewBox="0 0 193 250" fill="none" xmlns="http://www.w3.org/2000/svg">
<path d="M87.482 249.105L81.7916 232.245L66.0149 237.483C65.2017 237.753 64.376 237.881 63.5633 237.881C60.3355 237.881 57.3253 235.857 56.2445 232.653L0 66.0174L6.19769 63.9596L34.1573 146.796L58.0392 217.552L59.502 221.885C60.5827 225.088 63.5925 227.113 66.8208 227.113C67.633 227.113 68.4597 226.985 69.2724 226.714L187.706 187.399L189.435 192.524C190.104 194.504 189.027 196.647 187.03 197.31L86.1528 230.798L91.8431 247.657L88.6289 245.317L87.482 249.105Z" fill="#E3E3E3"/>
<path d="M190.396 186.855L69.3811 227.384C65.338 228.737 60.9634 226.556 59.6107 222.511L3.36621 54.3989L131.701 11.4197C133.699 10.7505 135.86 11.8282 136.529 13.8271L192.802 182.026C193.47 184.024 192.393 186.186 190.396 186.855Z" fill="#2E225A"/>
<path d="M185.919 174.888L58.1821 217.686L1.38858 47.8609C0.489767 45.1738 1.93825 42.2649 4.62286 41.366L127.498 0.197235C129.487 -0.468048 131.638 0.603943 132.303 2.59439L188.314 170.08C188.98 172.069 187.907 174.223 185.919 174.888Z" fill="#462B8C"/>
<path d="M105.823 163.826L133.529 154.74L133.184 153.727L105.477 162.814" fill="#FAB70A"/>
<path d="M102.448 170.559L140.262 158.087L139.925 157.093L102.111 169.565" fill="#FAB70A"/>
<path d="M103.58 175.046L142.506 161.535L142.159 160.459L103.232 173.97" fill="#FAB70A"/>
<path d="M110.31 177.291L138.017 168.204L137.672 167.192L109.965 176.278" fill="#FAB70A"/>
<path d="M183.551 185.011L70.6208 221.958C68.3809 222.69 65.958 221.509 65.2084 219.321L63.9592 215.674L184.717 176.169L186.061 180.092C186.758 182.127 185.634 184.329 183.551 185.011Z" fill="#D7F1FC"/>
<path d="M1.3806 48.0098C0.508827 45.2461 1.91333 42.2543 4.5176 41.3297C1.91374 42.2543 0.508827 45.2461 1.3806 48.0098Z" fill="#25468C"/>
<path d="M58.7176 217.686L3.67944 54.5274L1.39108 47.7433C0.483833 45.0543 1.94591 42.1434 4.65571 41.2439L13.9673 38.1512L72.936 212.963L64.2906 215.834L64.291 215.835L58.7176 217.686Z" fill="#372A77"/>
<path d="M130.597 61.9992L131.112 61.8285L120.503 30.3192L119.988 30.4898C119.286 30.7241 118.575 30.8343 117.875 30.8343C115.096 30.8332 112.501 29.0862 111.57 26.32L111.398 25.8082L46.0552 47.5504L46.2274 48.0622C46.4625 48.7597 46.5732 49.4669 46.5732 50.1622C46.5728 52.9263 44.8155 55.5047 42.0326 56.43L41.5176 56.6006L52.3001 88.6217L52.8151 88.4511C53.5165 88.2178 54.2276 88.1077 54.9268 88.1077C57.7071 88.1077 60.3011 89.8547 61.2315 92.6209L61.4038 93.1338L126.747 71.3905L126.574 70.8776C126.34 70.1812 126.229 69.474 126.229 68.7787C126.229 66.0157 127.987 63.4363 130.77 62.512L131.285 62.3403L131.112 61.8285L130.597 61.9992L130.425 61.4873C127.188 62.5649 125.143 65.5622 125.143 68.7787C125.143 69.5885 125.272 70.4123 125.545 71.221L126.06 71.0493L125.888 70.5375L61.5744 91.9386L61.7467 92.4493L62.2617 92.2787C61.1772 89.0611 58.1628 87.0269 54.9268 87.028C54.1122 87.028 53.2836 87.1565 52.4702 87.4275L52.6425 87.9393L53.1576 87.7676L42.7199 56.7701L42.2049 56.9417L42.3772 57.4535C45.6139 56.3749 47.6602 53.3787 47.6593 50.1622C47.6597 49.3524 47.53 48.5286 47.2575 47.7199L46.7425 47.8916L46.9148 48.4023L111.228 27.0034L111.056 26.4916L110.541 26.6622C111.625 29.8798 114.64 31.914 117.875 31.914C118.69 31.914 119.519 31.7844 120.332 31.5145L120.16 31.0016L119.645 31.1733L130.083 62.1708L130.597 61.9992Z" fill="#FAB70A"/>
<path d="M93.1554 49.9949L90.2888 41.4312L91.3258 41.084L92.7479 45.3324L92.8483 45.2988L95.2732 39.7627L96.628 39.3092L94.3252 44.3767L99.4945 47.8729L98.2401 48.2928L93.9303 45.3086L93.263 46.8712L94.1924 49.6477L93.1554 49.9949Z" fill="#FAB70A"/>
<path d="M89.509 44.6685L88.472 45.0157C88.3108 44.7379 88.1158 44.5118 87.8869 44.3373C87.6608 44.1619 87.4133 44.0339 87.1446 43.9534C86.8777 43.8691 86.6001 43.8318 86.312 43.8415C86.0238 43.8511 85.7375 43.9036 85.4532 43.9987C84.9347 44.1723 84.5088 44.4605 84.1756 44.8635C83.8452 45.2655 83.6413 45.7631 83.5639 46.3563C83.4894 46.9485 83.5762 47.6154 83.8244 48.357C84.0726 49.0985 84.4048 49.6832 84.8208 50.1113C85.2397 50.5384 85.7021 50.8129 86.2079 50.935C86.7166 51.0562 87.2302 51.03 87.7487 50.8564C88.033 50.7612 88.2931 50.6307 88.5291 50.465C88.765 50.2992 88.9646 50.1037 89.1279 49.8786C89.2931 49.6497 89.4132 49.3971 89.4881 49.1209C89.5649 48.841 89.5845 48.5431 89.5469 48.227L90.584 47.8799C90.6524 48.3437 90.6413 48.783 90.5508 49.1977C90.4602 49.6124 90.3022 49.9924 90.0767 50.3375C89.8503 50.6799 89.5671 50.9777 89.2272 51.231C88.8901 51.4834 88.5055 51.6819 88.0734 51.8265C87.343 52.071 86.6338 52.11 85.9457 51.9435C85.2575 51.7771 84.6403 51.4195 84.0939 50.8708C83.5475 50.322 83.1232 49.5961 82.8209 48.6929C82.5185 47.7897 82.4203 46.9545 82.5263 46.1875C82.6322 45.4204 82.9098 44.7633 83.359 44.2161C83.8083 43.6689 84.3981 43.2731 85.1285 43.0286C85.5605 42.884 85.9871 42.8109 86.4083 42.8095C86.8322 42.8071 87.238 42.8758 87.6258 43.0157C88.0127 43.1528 88.3672 43.3597 88.6892 43.6363C89.0102 43.9101 89.2835 44.2542 89.509 44.6685Z" fill="#FAB70A"/>
<path d="M77.3849 55.274L76.2977 55.6379L76.5756 46.0217L77.6461 45.6633L83.6571 53.1745L82.5699 53.5384L77.5978 47.1861L77.5309 47.2085L77.3849 55.274ZM76.6666 51.7944L81.0488 50.3276L81.3567 51.2475L76.9745 52.7144L76.6666 51.7944Z" fill="#FAB70A"/>
<path d="M69.3753 57.9553L66.5088 49.3916L69.5027 48.3894C70.0993 48.1897 70.6258 48.1282 71.0824 48.2048C71.538 48.2786 71.9184 48.4566 72.2237 48.7388C72.528 49.0182 72.7502 49.367 72.8901 49.7852C73.0133 50.1531 73.0495 50.4789 72.9987 50.7625C72.9508 51.0452 72.8442 51.2917 72.679 51.502C72.5165 51.7113 72.3239 51.8905 72.101 52.0395L72.1289 52.1232C72.3966 52.0522 72.6908 52.056 73.0116 52.1346C73.3324 52.2132 73.6343 52.3788 73.9172 52.6313C74.2002 52.8838 74.4172 53.2358 74.5684 53.6874C74.7121 54.1167 74.7437 54.5355 74.6634 54.9437C74.583 55.3519 74.366 55.7268 74.0122 56.0684C73.6584 56.41 73.1443 56.6937 72.4696 56.9195L69.3753 57.9553ZM70.1044 56.6883L72.1617 55.9996C72.8391 55.7729 73.2761 55.4809 73.4728 55.1237C73.6712 54.7627 73.7075 54.3941 73.5815 54.0177C73.4845 53.7278 73.321 53.4849 73.0912 53.2891C72.8604 53.0904 72.5837 52.963 72.261 52.9067C71.9374 52.8476 71.5889 52.8805 71.2153 53.0056L69.1078 53.711L70.1044 56.6883ZM68.8055 52.8078L70.729 52.164C71.0412 52.0595 71.3022 51.9039 71.5121 51.6972C71.7247 51.4897 71.8676 51.2497 71.9407 50.9772C72.0165 50.7038 72.0041 50.4166 71.9033 50.1155C71.7773 49.7391 71.5395 49.4638 71.1897 49.2895C70.839 49.1124 70.3794 49.119 69.8107 49.3094L67.8537 49.9644L68.8055 52.8078Z" fill="#FAB70A"/>
<path d="M108.018 59.1187L109.205 58.7211L112.919 61.9236L113.019 61.89L114.056 57.0975L115.243 56.7L113.834 62.7703L115.016 66.2995L113.979 66.6466L112.797 63.1174L108.018 59.1187Z" fill="#FAB70A"/>
<path d="M106.645 61.9588C106.453 61.5519 106.139 61.291 105.704 61.1763C105.269 61.0616 104.792 61.091 104.274 61.2646C103.894 61.3915 103.583 61.5638 103.34 61.7817C103.099 61.9986 102.936 62.2409 102.849 62.5088C102.764 62.7757 102.768 63.0457 102.859 63.3189C102.936 63.5475 103.056 63.7259 103.22 63.8539C103.385 63.9783 103.573 64.0659 103.782 64.1168C103.99 64.1648 104.201 64.192 104.414 64.1982C104.626 64.2017 104.818 64.1977 104.991 64.1864L105.939 64.1294C106.182 64.1133 106.457 64.1111 106.765 64.1228C107.075 64.1335 107.386 64.1861 107.696 64.2806C108.009 64.3713 108.294 64.5271 108.55 64.748C108.807 64.9689 109.003 65.2801 109.137 65.6815C109.292 66.1443 109.311 66.603 109.193 67.0578C109.079 67.5116 108.827 67.926 108.438 68.3011C108.052 68.6753 107.529 68.9725 106.872 69.1928C106.258 69.398 105.694 69.4768 105.179 69.4291C104.667 69.3805 104.223 69.2221 103.848 68.9539C103.476 68.6848 103.195 68.3217 103.005 67.8646L104.075 67.5062C104.211 67.8203 104.409 68.0515 104.67 68.1999C104.932 68.3446 105.227 68.4195 105.554 68.4247C105.883 68.4261 106.218 68.3699 106.558 68.2561C106.954 68.1236 107.288 67.9405 107.56 67.7068C107.831 67.4704 108.02 67.2057 108.126 66.9127C108.232 66.6169 108.233 66.313 108.128 66.0007C108.033 65.7164 107.876 65.5116 107.657 65.3864C107.439 65.2612 107.181 65.1862 106.885 65.1615C106.588 65.1367 106.275 65.133 105.946 65.1501L104.792 65.2018C104.058 65.2334 103.437 65.1361 102.927 64.9099C102.417 64.6837 102.066 64.2821 101.873 63.705C101.712 63.2256 101.702 62.764 101.842 62.3204C101.983 61.8731 102.241 61.4768 102.615 61.1314C102.992 60.7823 103.453 60.5163 103.999 60.3334C104.551 60.1487 105.075 60.0834 105.57 60.1376C106.065 60.1891 106.495 60.3428 106.859 60.599C107.227 60.8541 107.49 61.1954 107.649 61.6229L106.645 61.9588Z" fill="#FAB70A"/>
<path d="M96.505 72.4957L95.4178 72.8596L95.6958 63.2433L96.7662 62.885L102.777 70.3962L101.69 70.7601L96.7179 64.4078L96.651 64.4302L96.505 72.4957ZM95.7867 69.0161L100.169 67.5492L100.477 68.4692L96.0946 69.936L95.7867 69.0161Z" fill="#FAB70A"/>
<path d="M86.5726 67.3198L86.2646 66.3999L92.6874 64.25L92.9954 65.1699L90.3025 66.0713L92.8611 73.7151L91.8241 74.0622L89.2655 66.4184L86.5726 67.3198Z" fill="#FAB70A"/>
<path d="M84.6579 66.9378L87.5245 75.5015L86.5209 75.8375L79.6037 70.6757L79.5201 70.7037L81.7708 77.4275L80.7337 77.7746L77.8672 69.2109L78.8707 68.875L85.8103 74.0479L85.8939 74.0199L83.6377 67.2794L84.6579 66.9378Z" fill="#FAB70A"/>
<path d="M73.1276 80.3204L72.0404 80.6843L72.3183 71.068L73.3888 70.7097L79.3998 78.2209L78.3126 78.5848L73.3405 72.2325L73.2736 72.2549L73.1276 80.3204ZM72.4092 76.8408L76.7915 75.374L77.0994 76.2939L72.7172 77.7608L72.4092 76.8408Z" fill="#FAB70A"/>
<path d="M66.9347 82.3938L64.0681 73.8301L69.203 72.1113L69.5109 73.0312L65.4131 74.4029L66.3816 77.2965L70.0948 76.0536L70.4027 76.9735L66.6896 78.2164L67.9717 82.0467L66.9347 82.3938Z" fill="#FAB70A"/>
<path d="M91.3794 57.4572C91.593 58.0954 91.6623 58.6854 91.5875 59.2274C91.5126 59.7693 91.3165 60.2336 90.9991 60.6202C90.6817 61.0068 90.265 61.2864 89.749 61.4592C89.2329 61.6319 88.7318 61.6595 88.2457 61.5418C87.7595 61.4242 87.3234 61.1716 86.9373 60.7839C86.5513 60.3962 86.2515 59.8833 86.0379 59.2452C85.8243 58.607 85.7549 58.017 85.8298 57.475C85.9046 56.9331 86.1007 56.4688 86.4181 56.0822C86.7355 55.6956 87.1523 55.416 87.6683 55.2432C88.1843 55.0705 88.6854 55.0429 89.1716 55.1605C89.6578 55.2782 90.0939 55.5308 90.4799 55.9185C90.8659 56.3062 91.1657 56.8191 91.3794 57.4572ZM90.6703 57.6946C90.4949 57.1707 90.2593 56.7578 89.9634 56.4561C89.6694 56.1537 89.3427 55.9597 88.9833 55.8741C88.6259 55.7878 88.2641 55.806 87.8977 55.9286C87.5314 56.0513 87.2305 56.2549 86.9951 56.5396C86.7616 56.8236 86.6175 57.1752 86.5629 57.5943C86.5102 58.0128 86.5716 58.4839 86.7469 59.0078C86.9223 59.5317 87.157 59.9449 87.4509 60.2473C87.7469 60.5491 88.0736 60.7431 88.431 60.8293C88.7903 60.9149 89.1532 60.8964 89.5195 60.7738C89.8859 60.6511 90.1858 60.4478 90.4192 60.1638C90.6547 59.8791 90.7987 59.5275 90.8514 59.1091C90.906 58.69 90.8457 58.2185 90.6703 57.6946Z" fill="#FAB70A"/>
<path d="M80.0623 58.6045L79.8447 57.9546L84.3826 56.4356L84.6002 57.0856L82.6976 57.7224L84.5053 63.123L83.7726 63.3682L81.9649 57.9677L80.0623 58.6045Z" fill="#FAB70A"/>
<path d="M64.8671 218.809L63.9592 216.118L72.5214 213.273L184.237 176.169L185.145 178.86L64.8671 218.809Z" fill="#93C8EE"/>
<path d="M63.9597 215.442L63.9592 215.441L72.936 213.198L63.9597 215.442Z" fill="#728DD0"/>
<path d="M66.1098 222.175C65.7046 221.855 65.3528 221.464 65.0813 221.005L186.207 180.657C186.298 181.174 186.284 181.688 186.176 182.181L66.1098 222.175Z" fill="#93C8EE"/>
<path d="M95.3777 237.512L92.0614 235.099L90.8783 239.006L81.9126 212.446L86.4112 210.954L95.3777 237.512Z" fill="#FAB70A"/>
</svg>
