<svg width="343" height="260" viewBox="0 0 343 260" fill="none" xmlns="http://www.w3.org/2000/svg">
<path d="M118.083 207.93H118.082C117.847 207.93 117.609 207.907 117.37 207.861C117.361 207.859 117.352 207.858 117.343 207.855L115.414 207.466V207.465L65.8264 197.452C52.3914 191.389 38.7217 183.349 29.6983 177.723L22.3736 174.933L65.872 183.717C72.5948 187.216 79.6304 190.535 86.325 193.086C97.8144 197.462 110.943 201.431 121.83 204.454L121.731 204.942C121.724 204.975 121.718 205.009 121.71 205.042C121.709 205.044 121.709 205.046 121.709 205.049C121.705 205.06 121.703 205.07 121.701 205.081C121.293 206.771 119.779 207.927 118.09 207.93C118.088 207.93 118.085 207.93 118.083 207.93ZM62.4034 181.881L16.0342 172.518L0 166.411V144.892L50.7152 11.7599L58.8478 13.402L5.35908 153.813C4.96666 154.844 5.4838 155.998 6.51546 156.391L41.5025 169.718C47.0779 173.195 54.4304 177.596 62.4034 181.881ZM57.8456 12.0648L51.3337 10.7498C51.6991 10.4205 52.1776 10.2336 52.6734 10.2336C52.9098 10.2336 53.1506 10.2759 53.3843 10.3649L57.8456 12.0648Z" fill="#E3E3E3"/>
<path d="M186.58 229.126H157.3C147.96 224.633 140.004 220.492 135.56 218.135C134.406 217.522 133.606 216.5 133.228 215.336L131.196 214.563C130.457 214.994 129.61 215.238 128.732 215.238C128.356 215.238 127.974 215.194 127.594 215.1C125.334 214.546 122.262 213.778 118.625 212.83L120.663 202.734C120.665 202.726 120.666 202.719 120.668 202.711L120.767 202.224C128.637 204.409 135.337 206.101 139.401 207.096C139.788 207.191 140.177 207.237 140.56 207.237C141.437 207.237 142.284 206.998 143.02 206.565L145.017 207.326C145.393 208.495 146.208 209.517 147.366 210.132C154.423 213.874 170.347 222.119 186.58 229.126Z" fill="#E5E5E5"/>
<path d="M118.625 212.829C116.658 212.316 114.528 211.75 112.272 211.138C112.937 210.589 113.425 209.818 113.609 208.908L113.988 207.029L114.351 205.236L116.28 205.625C116.289 205.627 116.298 205.629 116.307 205.631C116.546 205.677 116.784 205.7 117.019 205.7H117.02C117.022 205.7 117.024 205.7 117.027 205.7C118.715 205.697 120.229 204.541 120.638 202.851C120.64 202.84 120.642 202.83 120.645 202.818C120.645 202.816 120.645 202.814 120.647 202.812C120.652 202.786 120.658 202.761 120.663 202.735L118.625 212.829Z" fill="#E5E5E5"/>
<path d="M113.988 207.029L114.35 205.236H114.351L113.988 207.029Z" fill="#7F471B"/>
<path d="M64.763 195.222L16.1146 185.399L6.24341 183.405L64.763 195.222C64.7639 195.222 64.7639 195.222 64.7639 195.222H64.763Z" fill="#B59E1C"/>
<path d="M112.25 211.131C110.233 210.583 108.117 209.998 105.929 209.377L112.669 210.739C113 210.374 113.263 209.945 113.437 209.462L91.1472 204.962C85.1618 203.069 79.1106 201.015 73.4551 198.86C73.4273 198.85 73.3999 198.838 73.3726 198.828L113.988 207.03L113.609 208.909C113.424 209.823 112.921 210.584 112.25 211.131Z" fill="#E5E5E5"/>
<path d="M113.988 207.029L73.3725 198.828C70.5468 197.749 67.66 196.529 64.7637 195.222L114.35 205.236L113.988 207.029Z" fill="#E5E5E5"/>
<path d="M112.669 210.738L105.929 209.376C101.236 208.047 96.2154 206.562 91.1475 204.961L113.438 209.461C113.263 209.945 113 210.373 112.669 210.738Z" fill="#E5E5E5"/>
<path d="M114.351 205.236H114.35V205.235L64.7629 195.222C64.7638 195.222 64.7638 195.222 64.7638 195.222L114.351 205.235V205.236Z" fill="#C26E1C"/>
<path d="M114.35 205.236L64.7637 195.222L114.35 205.235V205.236Z" fill="#617927"/>
<path d="M64.8085 181.487L21.3101 172.704L14.9707 170.288L61.3399 179.651C62.4845 180.267 63.6417 180.879 64.8085 181.487ZM57.7842 11.1722L49.6517 9.5302L49.7426 9.29213C49.8594 8.98619 50.0429 8.72588 50.2701 8.52007L56.7821 9.83502L58.1019 10.3379L57.7842 11.1722Z" fill="#E3E3E3"/>
<path d="M282.586 259.732L5.45218 154.16C4.42052 153.767 3.90338 152.613 4.2958 151.582L61.5495 1.28705C61.9424 0.255768 63.0966 -0.261536 64.1278 0.131195L341.261 105.703C342.294 106.096 342.811 107.25 342.417 108.281L285.164 258.576C284.771 259.606 283.616 260.125 282.586 259.732Z" fill="#462B8C"/>
<path d="M280.992 253.524L221.036 230.684L276.193 85.8977L336.148 108.737L280.992 253.524Z" fill="#D7F1FC"/>
<path d="M261.452 69.0086C241.655 61.467 216.997 55.1381 207.313 52.7685C204.926 52.1833 202.484 53.4682 201.61 55.7655L173.356 129.932L145.103 204.1C144.229 206.395 145.196 208.981 147.366 210.132C156.174 214.804 178.793 226.486 198.589 234.027C223.804 243.633 259.879 248.312 259.879 248.312L288.295 173.717L316.712 99.1238C316.712 99.1238 286.667 78.6139 261.452 69.0086Z" fill="#CAE5F4"/>
<path d="M271.679 229.126H267.187L279.473 196.876L312.561 110.019L315.976 101.053L319.898 102.547L271.679 229.126Z" fill="#93C8EE"/>
<path d="M278.095 229.126H275.85L323.54 103.935L324.374 104.253L325.501 104.682L278.095 229.126Z" fill="#93C8EE"/>
<path d="M286.998 229.126H281.865L328.793 105.936L329.478 106.196L333.276 107.644L286.998 229.126Z" fill="#93C8EE"/>
<path d="M10.771 150.586L70.7269 173.427L125.882 28.6383L65.9266 5.79884L10.771 150.586Z" fill="#C2DEED"/>
<path d="M148.124 25.8375C167.921 33.378 190.54 45.0603 199.346 49.7316C201.518 50.883 202.484 53.4674 201.61 55.7646L173.356 129.931L145.103 204.099C144.229 206.395 141.787 207.681 139.401 207.096C129.716 204.724 105.058 198.397 85.2614 190.855C60.0462 181.25 30.0015 160.74 30.0015 160.74L58.4178 86.1468L86.8342 11.552C86.8342 11.552 122.909 16.2312 148.124 25.8375Z" fill="#DDF3FC"/>
<path d="M30.9429 158.27L29.6345 157.772L27.0205 156.777L82.1762 11.9883L84.0774 12.7126L86.0986 13.4824L64.5155 70.1405L58.418 86.147L30.9429 158.27Z" fill="#9FC6DE"/>
<path d="M30.9429 158.271V158.27L58.418 86.1471L64.5154 70.1406L30.9429 158.271Z" fill="#B7DCF4"/>
<path d="M23.3789 155.388L21.4172 154.642L76.5733 9.85324L76.7997 9.94002L78.5341 10.6008L23.3789 155.388Z" fill="#9FC6DE"/>
<path d="M18.1254 153.388L13.9962 151.815L13.6428 151.68L68.7981 6.89169L73.2815 8.59938L18.1254 153.388Z" fill="#9FC6DE"/>
<path d="M145.51 141.944C144.237 141.459 143.246 140.76 142.537 139.846C141.836 138.929 141.429 137.868 141.317 136.663C141.213 135.454 141.418 134.173 141.934 132.82C142.449 131.466 143.15 130.368 144.037 129.523C144.931 128.675 145.933 128.131 147.042 127.891C148.16 127.646 149.315 127.752 150.508 128.206C151.196 128.468 151.831 128.842 152.415 129.327C152.999 129.812 153.467 130.417 153.821 131.143C154.177 131.863 154.358 132.707 154.364 133.674C154.37 134.642 154.138 135.742 153.668 136.975L153.34 137.835L143.156 133.955L143.824 132.2L151.944 135.294C152.228 134.548 152.333 133.826 152.257 133.128C152.188 132.431 151.945 131.81 151.529 131.264C151.119 130.721 150.547 130.309 149.813 130.03C149.004 129.722 148.228 129.656 147.485 129.832C146.749 130.005 146.102 130.35 145.544 130.866C144.987 131.382 144.569 132.005 144.291 132.733L143.846 133.903C143.466 134.901 143.316 135.812 143.395 136.637C143.483 137.458 143.768 138.168 144.249 138.765C144.733 139.356 145.385 139.808 146.205 140.12C146.738 140.324 147.249 140.433 147.735 140.447C148.23 140.459 148.693 140.372 149.124 140.188C149.558 139.999 149.948 139.708 150.295 139.314L152.046 140.612C151.586 141.199 151.016 141.651 150.337 141.97C149.659 142.283 148.909 142.444 148.085 142.452C147.263 142.454 146.405 142.285 145.51 141.944Z" fill="#241C43"/>
<path d="M136.386 131.967L139.361 124.156L141.391 124.93L136.358 138.142L134.328 137.368L135.18 135.132L135.042 135.08C134.477 135.633 133.778 136.02 132.945 136.241C132.114 136.456 131.2 136.374 130.202 135.994C129.376 135.679 128.711 135.219 128.207 134.613C127.704 134.001 127.409 133.259 127.322 132.385C127.237 131.505 127.408 130.504 127.836 129.38L131.034 120.984L133.064 121.758L129.919 130.015C129.552 130.979 129.529 131.85 129.849 132.629C130.175 133.409 130.76 133.961 131.603 134.282C132.108 134.474 132.67 134.54 133.29 134.481C133.916 134.424 134.508 134.197 135.067 133.799C135.631 133.403 136.071 132.792 136.386 131.967Z" fill="#241C43"/>
<path d="M116.989 130.763L122.022 117.551L123.983 118.298L123.223 120.294L123.361 120.346C123.851 119.784 124.489 119.42 125.274 119.253C126.06 119.086 126.849 119.153 127.64 119.455C127.789 119.512 127.975 119.586 128.196 119.677C128.418 119.767 128.583 119.841 128.694 119.896L127.907 121.96C127.845 121.917 127.697 121.831 127.464 121.702C127.238 121.571 126.991 121.453 126.721 121.351C126.079 121.106 125.454 121.022 124.847 121.1C124.247 121.173 123.712 121.39 123.24 121.748C122.777 122.104 122.431 122.579 122.204 123.176L119.019 131.537L116.989 130.763Z" fill="#241C43"/>
<path d="M108.122 109.38L108.843 107.488L122.055 112.521L121.334 114.413L115.795 112.303L109.805 128.027L107.671 127.214L113.661 111.49L108.122 109.38Z" fill="#241C43"/>
<path d="M114.22 139.121L113.565 140.842L106.718 138.233L107.373 136.513L114.22 139.121ZM110.574 134.108L112.604 134.881L107.807 147.474C107.589 148.047 107.508 148.509 107.565 148.859C107.63 149.206 107.776 149.478 108.003 149.676C108.237 149.87 108.504 150.024 108.802 150.138C109.025 150.223 109.213 150.282 109.365 150.313C109.52 150.339 109.643 150.36 109.736 150.376L109.454 152.356C109.297 152.356 109.085 152.334 108.819 152.292C108.55 152.255 108.227 152.165 107.848 152.021C107.275 151.802 106.76 151.465 106.303 151.008C105.852 150.554 105.542 150.006 105.373 149.364C105.21 148.724 105.275 148.02 105.568 147.251L110.574 134.108Z" fill="#241C43"/>
<path d="M102.937 134.823C103.166 133.912 103.005 133.076 102.454 132.315C101.904 131.553 101.095 130.969 100.029 130.563C99.2489 130.266 98.5185 130.132 97.8374 130.162C97.1622 130.193 96.577 130.368 96.0819 130.685C95.5926 131.004 95.2409 131.445 95.0268 132.007C94.8476 132.477 94.8055 132.924 94.9002 133.347C95.0029 133.767 95.1894 134.157 95.4597 134.516C95.7323 134.869 96.0362 135.192 96.3715 135.484C96.709 135.77 97.0248 136.018 97.3189 136.229L98.9246 137.392C99.3375 137.687 99.7845 138.048 100.266 138.474C100.752 138.903 101.184 139.399 101.56 139.962C101.945 140.522 102.198 141.151 102.32 141.847C102.442 142.544 102.346 143.305 102.031 144.131C101.668 145.083 101.091 145.848 100.3 146.426C99.5138 147.007 98.5586 147.342 97.4341 147.433C96.3153 147.525 95.0793 147.314 93.726 146.798C92.4644 146.318 91.4495 145.698 90.6814 144.939C89.919 144.182 89.4127 143.339 89.1626 142.41C88.9182 141.483 88.9451 140.525 89.2432 139.535L91.4453 140.374C91.2492 141.061 91.2631 141.697 91.4871 142.281C91.7189 142.862 92.0955 143.373 92.6168 143.815C93.146 144.253 93.7604 144.605 94.46 144.871C95.2743 145.182 96.0556 145.328 96.8041 145.311C97.5548 145.289 98.21 145.111 98.7698 144.78C99.3318 144.442 99.7351 143.952 99.9797 143.31C100.203 142.725 100.22 142.187 100.033 141.695C99.8463 141.204 99.5298 140.742 99.0839 140.309C98.638 139.877 98.1381 139.456 97.5844 139.048L95.6527 137.603C94.4271 136.683 93.5528 135.704 93.0296 134.664C92.5064 133.624 92.4709 132.51 92.9231 131.323C93.2988 130.337 93.8931 129.578 94.706 129.048C95.5269 128.513 96.4679 128.215 97.529 128.153C98.5981 128.087 99.6946 128.269 100.819 128.697C101.954 129.129 102.886 129.718 103.614 130.461C104.344 131.199 104.834 132.016 105.083 132.912C105.339 133.811 105.311 134.71 105.001 135.609L102.937 134.823Z" fill="#241C43"/>
<path d="M135.358 167.978C135.014 167.847 134.718 167.701 134.47 167.541C134.221 167.387 134.054 167.264 133.97 167.173L135.168 165.581C135.613 165.895 136.031 166.107 136.423 166.217C136.815 166.326 137.215 166.285 137.623 166.092C138.035 165.908 138.492 165.527 138.994 164.95L139.765 164.062L139.939 148.92L142.141 149.759L141.777 161.677L141.915 161.729L149.573 152.59L151.775 153.429L140.399 166.431C139.887 167.017 139.359 167.463 138.816 167.769C138.271 168.08 137.71 168.25 137.134 168.28C136.564 168.312 135.972 168.212 135.358 167.978Z" fill="#241C43"/>
<path d="M126.524 158.939L131.557 145.726L133.518 146.474L132.758 148.469L132.895 148.522C133.385 147.96 134.023 147.595 134.809 147.428C135.595 147.261 136.384 147.329 137.175 147.63C137.324 147.687 137.509 147.761 137.731 147.852C137.952 147.943 138.118 148.016 138.228 148.071L137.442 150.135C137.38 150.092 137.232 150.006 136.998 149.878C136.773 149.746 136.525 149.629 136.256 149.526C135.614 149.281 134.989 149.198 134.381 149.275C133.782 149.349 133.247 149.565 132.775 149.924C132.311 150.279 131.966 150.755 131.739 151.351L128.554 159.712L126.524 158.939Z" fill="#241C43"/>
<path d="M117.333 155.753C116.141 155.299 115.202 154.616 114.518 153.705C113.84 152.797 113.443 151.736 113.327 150.523C113.217 149.312 113.422 148.025 113.942 146.66C114.466 145.284 115.173 144.177 116.063 143.341C116.959 142.507 117.962 141.976 119.073 141.749C120.189 141.524 121.344 141.639 122.537 142.094C123.73 142.548 124.665 143.229 125.343 144.138C126.027 145.049 126.423 146.112 126.531 147.329C126.645 148.547 126.44 149.845 125.915 151.221C125.395 152.586 124.689 153.683 123.795 154.511C122.907 155.342 121.905 155.869 120.789 156.094C119.678 156.321 118.526 156.207 117.333 155.753ZM118.028 153.929C118.934 154.275 119.768 154.326 120.53 154.085C121.292 153.843 121.957 153.397 122.527 152.747C123.096 152.097 123.549 151.331 123.885 150.448C124.222 149.565 124.395 148.688 124.404 147.819C124.414 146.949 124.216 146.167 123.81 145.474C123.404 144.781 122.748 144.262 121.842 143.917C120.936 143.572 120.101 143.523 119.337 143.771C118.573 144.018 117.905 144.469 117.334 145.125C116.762 145.781 116.308 146.55 115.972 147.433C115.635 148.316 115.463 149.19 115.456 150.054C115.449 150.918 115.649 151.693 116.057 152.381C116.465 153.068 117.122 153.584 118.028 153.929Z" fill="#241C43"/>
<path d="M110.18 42.7441C109.757 43.8549 109.147 44.7197 108.35 45.3385C107.549 45.9503 106.623 46.3052 105.572 46.4032C104.517 46.4942 103.4 46.3148 102.219 45.8649C101.038 45.4151 100.079 44.8035 99.3425 44.0301C98.6027 43.2498 98.1279 42.3756 97.9179 41.4075C97.7049 40.4325 97.7967 39.4247 98.1931 38.3839C98.4219 37.7835 98.7478 37.2287 99.1709 36.7195C99.5941 36.2103 100.122 35.8014 100.756 35.4926C101.384 35.1819 102.12 35.024 102.964 35.019C103.809 35.014 104.769 35.2164 105.844 35.6262L106.595 35.9121L103.21 44.7985L101.678 44.2152L104.378 37.1301C103.727 36.8823 103.097 36.7913 102.488 36.8571C101.88 36.9179 101.338 37.1297 100.862 37.4926C100.387 37.8504 100.028 38.3496 99.7843 38.9901C99.5155 39.6956 99.4581 40.3727 99.612 41.0215C99.7628 41.6634 100.064 42.2277 100.514 42.7145C100.965 43.2013 101.508 43.5657 102.143 43.8078L103.164 44.1966C104.034 44.5283 104.83 44.6593 105.549 44.5897C106.266 44.5132 106.885 44.2648 107.406 43.8445C107.922 43.4223 108.317 42.8535 108.589 42.138C108.766 41.6726 108.861 41.2276 108.874 40.8027C108.884 40.371 108.809 39.967 108.648 39.5908C108.483 39.2127 108.229 38.8723 107.886 38.5697L109.018 37.0415C109.53 37.4427 109.925 37.9398 110.203 38.5329C110.476 39.124 110.616 39.779 110.623 40.4979C110.625 41.2148 110.478 41.9636 110.18 42.7441Z" fill="#241C43"/>
<path d="M97.0817 55.5601L104.017 58.2019L103.342 59.9732L87.9709 54.1177L88.6457 52.3464L94.2897 54.4965L94.3469 54.3464C93.8544 53.8494 93.536 53.2639 93.3916 52.5901C93.2441 51.9094 93.3429 51.1162 93.6879 50.2106C93.9871 49.425 94.4068 48.7971 94.947 48.3267C95.4821 47.8545 96.1343 47.5787 96.9037 47.4993C97.67 47.4131 98.5484 47.5587 99.5392 47.9361L106.864 50.7266L106.19 52.4978L98.9845 49.7531C98.0688 49.4043 97.2703 49.3722 96.5888 49.6569C95.9043 49.9348 95.4029 50.4915 95.0846 51.3271C94.8635 51.9075 94.7878 52.4746 94.8576 53.0283C94.9294 53.577 95.1499 54.0736 95.5192 54.5179C95.8904 54.9573 96.4113 55.3047 97.0817 55.5601Z" fill="#241C43"/>
<path d="M84.2278 68.9073L82.5767 68.2783L86.9683 56.7501L88.6195 57.3791L86.7782 62.2125L100.498 67.439L99.7889 69.3004L86.0691 64.0739L84.2278 68.9073Z" fill="#241C43"/>
<path d="M92.8095 88.3431C92.4436 89.3037 91.8778 90.0594 91.1123 90.61C90.3417 91.1588 89.432 91.4711 88.3832 91.5472C87.3293 91.6213 86.192 91.4258 84.9711 90.9607C83.7602 90.4994 82.7886 89.8915 82.0562 89.1369C81.3237 88.3823 80.8559 87.5423 80.6527 86.6169C80.4494 85.6915 80.5327 84.7434 80.9025 83.7727C81.1884 83.0222 81.5393 82.4769 81.9553 82.1369C82.3683 81.79 82.7762 81.5615 83.1791 81.4514C83.5789 81.3344 83.9036 81.249 84.1533 81.1952L84.2105 81.045L78.5365 78.8835L79.2112 77.1123L94.5822 82.9678L93.9303 84.679L92.1591 84.0043L92.079 84.2144C92.2396 84.4246 92.4343 84.7107 92.663 85.0729C92.8867 85.4331 93.0389 85.8836 93.1194 86.4242C93.1949 86.9629 93.0916 87.6025 92.8095 88.3431ZM91.3099 87.4967C91.5806 86.7862 91.6242 86.1153 91.4407 85.4839C91.2522 84.8506 90.8764 84.2805 90.3131 83.7737C89.7448 83.2651 89.0254 82.8449 88.1548 82.5132C87.2941 82.1854 86.4935 82.0236 85.7527 82.0279C85.0069 82.0303 84.3605 82.208 83.8135 82.5611C83.2614 82.9123 82.8481 83.4482 82.5737 84.1687C82.2877 84.9193 82.2421 85.6181 82.4368 86.2652C82.6283 86.9054 83.0042 87.4755 83.5644 87.9753C84.1214 88.4683 84.8053 88.8692 85.6158 89.178C86.4364 89.4906 87.2296 89.6495 87.9954 89.6547C88.7581 89.6531 89.4314 89.4798 90.0154 89.1351C90.5963 88.7834 91.0278 88.2373 91.3099 87.4967Z" fill="#241C43"/>
<path d="M79.9413 100.555L86.8763 103.197L86.2015 104.968L74.6733 100.576L75.3252 98.865L77.1265 99.5512L77.1837 99.4011C76.7012 98.9079 76.3871 98.3184 76.2415 97.6327C76.091 96.9451 76.1815 96.1659 76.5132 95.2953C76.8105 94.5148 77.2308 93.8928 77.774 93.4293C78.3123 92.964 78.9661 92.6917 79.7354 92.6123C80.4998 92.5311 81.3723 92.6772 82.353 93.0508L89.6782 95.8413L89.0035 97.6126L81.7983 94.8678C80.8927 94.5228 80.0976 94.4892 79.4131 94.7671C78.7235 95.043 78.2225 95.5912 77.9099 96.4118C77.6945 96.9772 77.6246 97.5293 77.7001 98.068C77.7775 98.6017 78.0028 99.0857 78.3759 99.5201C78.7491 99.9545 79.2709 100.299 79.9413 100.555Z" fill="#241C43"/>
<path d="M84.2908 109.983L72.7626 105.592L73.4373 103.821L84.9656 108.212L84.2908 109.983ZM71.1843 103.959C71.0528 104.304 70.8218 104.557 70.4913 104.718C70.1627 104.874 69.8333 104.888 69.5031 104.763C69.1729 104.637 68.9369 104.407 68.7951 104.072C68.6552 103.732 68.6511 103.39 68.7826 103.044C68.9141 102.699 69.1441 102.449 69.4727 102.293C69.8032 102.132 70.1335 102.115 70.4638 102.241C70.794 102.367 71.0291 102.599 71.1689 102.939C71.3107 103.274 71.3158 103.614 71.1843 103.959Z" fill="#241C43"/>
<path d="M73.2739 118.057L80.2088 120.699L79.5341 122.47L64.1631 116.615L64.8378 114.843L70.4819 116.994L70.5391 116.843C70.0466 116.346 69.7281 115.761 69.5837 115.087C69.4362 114.406 69.535 113.613 69.88 112.708C70.1792 111.922 70.5989 111.294 71.1391 110.824C71.6742 110.352 72.3265 110.076 73.0958 109.996C73.8621 109.91 74.7406 110.056 75.7313 110.433L83.0565 113.224L82.3818 114.995L75.1766 112.25C74.261 111.901 73.4624 111.869 72.781 112.154C72.0965 112.432 71.595 112.989 71.2767 113.824C71.0556 114.405 70.98 114.972 71.0498 115.525C71.1215 116.074 71.342 116.571 71.7113 117.015C72.0825 117.454 72.6034 117.802 73.2739 118.057Z" fill="#241C43"/>
<path d="M76.9293 130.03C76.5061 131.141 75.8959 132.005 75.0987 132.624C74.2984 133.236 73.3725 133.591 72.321 133.689C71.2665 133.78 70.1488 133.6 68.9679 133.151C67.7871 132.701 66.8283 132.089 66.0916 131.316C65.3518 130.535 64.8769 129.661 64.667 128.693C64.454 127.718 64.5457 126.71 64.9421 125.67C65.1709 125.069 65.4968 124.514 65.92 124.005C66.3431 123.496 66.8714 123.087 67.5047 122.778C68.133 122.468 68.8692 122.31 69.7134 122.305C70.5576 122.3 71.5175 122.502 72.5933 122.912L73.3438 123.198L69.9586 132.084L68.4275 131.501L71.1265 124.416C70.4761 124.168 69.8461 124.077 69.2366 124.143C68.629 124.204 68.0871 124.415 67.6108 124.778C67.1364 125.136 66.7773 125.635 66.5333 126.276C66.2645 126.981 66.2071 127.658 66.361 128.307C66.5119 128.949 66.8125 129.513 67.2631 130C67.7137 130.487 68.2567 130.851 68.8921 131.093L69.9129 131.482C70.7835 131.814 71.5787 131.945 72.2985 131.875C73.0152 131.799 73.6341 131.55 74.1552 131.13C74.6712 130.708 75.0656 130.139 75.3381 129.424C75.5154 128.958 75.6105 128.513 75.6233 128.088C75.6331 127.657 75.5578 127.253 75.3975 126.876C75.2321 126.498 74.9779 126.158 74.6348 125.855L75.767 124.327C76.2788 124.728 76.6738 125.225 76.9521 125.819C77.2254 126.41 77.3655 127.065 77.3724 127.784C77.3743 128.5 77.2266 129.249 76.9293 130.03Z" fill="#241C43"/>
<path d="M69.703 148.277L54.332 142.422L56.3792 137.048C56.7871 135.977 57.3086 135.165 57.9438 134.61C58.5741 134.054 59.2642 133.724 60.0142 133.62C60.7593 133.514 61.5071 133.604 62.2576 133.89C62.9181 134.142 63.4187 134.467 63.7594 134.866C64.102 135.26 64.326 135.695 64.4313 136.171C64.5386 136.641 64.5683 137.119 64.5207 137.606L64.6708 137.663C64.88 137.204 65.2252 136.794 65.7065 136.433C66.1878 136.072 66.7697 135.838 67.4521 135.731C68.1344 135.625 68.8809 135.726 69.6915 136.034C70.4621 136.328 71.0883 136.767 71.5704 137.352C72.0524 137.936 72.3296 138.675 72.402 139.568C72.4745 140.461 72.28 141.513 71.8188 142.723L69.703 148.277ZM68.7609 145.787L70.1676 142.094C70.6308 140.879 70.7244 139.926 70.4485 139.236C70.1695 138.54 69.6922 138.063 69.0168 137.806C68.4964 137.607 67.9655 137.557 67.4242 137.654C66.8778 137.75 66.3787 137.992 65.9267 138.382C65.4697 138.769 65.1135 139.298 64.8581 139.969L63.4171 143.751L68.7609 145.787ZM61.7959 143.134L63.1111 139.681C63.3246 139.121 63.407 138.574 63.3584 138.039C63.3117 137.5 63.1387 137.022 62.8395 136.604C62.5421 136.181 62.1233 135.867 61.5829 135.661C60.9074 135.404 60.2449 135.421 59.5954 135.712C58.9409 136.001 58.4192 136.656 58.0304 137.677L56.6923 141.19L61.7959 143.134Z" fill="#241C43"/>
<path d="M229.685 135.028L229.883 134.508L191.32 119.818L205.812 81.7743L243.856 96.2656L229.165 134.83L229.685 135.028L230.204 135.226L245.292 95.6226L205.169 80.3381L189.883 120.461L230.006 135.746L230.204 135.226L229.685 135.028Z" fill="#241C43"/>
<path d="M204.347 116.414L200.815 115.069L221.627 91.1417L225.104 92.4663L224.721 124.176L221.19 122.83L221.798 96.2463L221.58 96.1635L204.347 116.414ZM209.79 106.044L224.025 111.467L222.887 114.455L208.652 109.032L209.79 106.044Z" fill="#241C43"/>
<path d="M123.299 55.6339L181.853 77.9404L182.249 76.9014L123.695 54.5948" fill="#241C43"/>
<path d="M120.737 62.3586L179.291 84.6641L179.687 83.6239L121.133 61.3196" fill="#241C43"/>
<path d="M118.176 69.0831L176.73 91.3896L177.126 90.3495L118.572 68.044" fill="#241C43"/>
<path d="M115.613 75.8067L174.168 98.1133L174.564 97.0731L116.009 74.7677" fill="#241C43"/>
<path d="M113.052 82.5308L171.607 104.837L172.003 103.797L113.449 81.4918" fill="#241C43"/>
<path d="M110.491 89.2545L169.045 111.561L169.441 110.521L110.888 88.2143" fill="#241C43"/>
<path d="M107.929 95.9786L166.484 118.285L166.88 117.245L108.325 94.9384" fill="#241C43"/>
<path d="M250.389 104.049L298.053 122.205L298.449 121.166L250.785 103.009" fill="#241C43"/>
<path d="M247.293 112.173L294.958 130.331L295.354 129.291L247.69 111.134" fill="#241C43"/>
<path d="M244.199 120.299L291.862 138.456L292.258 137.417L244.596 119.259" fill="#241C43"/>
<path d="M241.104 128.423L288.767 146.58L289.163 145.541L241.5 127.383" fill="#241C43"/>
<path d="M238.009 136.548L273.765 150.17L274.161 149.13L238.405 135.508" fill="#241C43"/>
<path d="M194.653 145.297L277.267 176.768L277.663 175.728L195.049 144.257" fill="#241C43"/>
<path d="M179.149 150.202L273.671 186.21L274.067 185.171L179.545 149.163" fill="#241C43"/>
<path d="M175.552 159.644L270.074 195.652L270.47 194.612L175.948 158.605" fill="#241C43"/>
<path d="M171.956 169.086L266.477 205.093L266.873 204.053L172.352 168.046" fill="#241C43"/>
<path d="M168.359 178.527L262.881 214.534L263.277 213.495L168.755 177.488" fill="#241C43"/>
<path d="M164.762 187.969L247.377 219.44L247.773 218.401L165.158 186.93" fill="#241C43"/>
</svg>
