<svg width="36" height="36" viewBox="0 0 36 36" fill="none" xmlns="http://www.w3.org/2000/svg">
<g clip-path="url(#clip0_908_18766)">
<path d="M33.4318 12.4386C33.2862 11.3442 33.2657 9.45936 34.2821 8.82644C34.3003 8.81484 34.3138 8.79808 34.3297 8.78368C35.1608 8.51788 35.7359 8.14486 35.2844 7.64291L23.0256 3.94922L3.1759 6.70896C3.1759 6.70896 0.902855 7.03385 1.10591 10.5653C1.21614 12.4874 1.81897 13.4313 2.34616 13.8959L0.717312 14.3868C0.265216 14.8887 0.840219 15.2618 1.67135 15.5272C1.68715 15.542 1.70047 15.5587 1.71895 15.5703C2.73476 16.2037 2.71521 18.0884 2.5691 19.183C-1.08022 20.2192 0.229762 20.5569 0.229762 20.5569L1.03028 20.7506C0.467198 21.2594 -0.0920117 22.2243 0.0127394 24.0543C0.215903 27.5851 2.08294 27.8288 2.08294 27.8288L15.0725 32.0509L34.6787 27.3019C34.6787 27.3019 35.9891 26.9637 32.3388 25.9274C32.1921 24.8345 32.1717 22.9501 33.1898 22.315C33.2085 22.3037 33.2222 22.2866 33.2373 22.2724C34.0685 22.0066 34.643 21.6339 34.1915 21.132L33.3393 20.8747C33.9076 20.532 34.7613 19.6363 34.8951 17.3096C34.9874 15.7092 34.5699 14.7719 34.0866 14.2201L35.771 13.8125C35.7711 13.8132 37.0815 13.4749 33.4318 12.4386ZM17.0324 12.3934L20.3294 11.7158L31.4715 9.42605L33.1315 9.08462C32.6011 10.0554 32.6233 11.384 32.7111 12.2379C32.7303 12.4311 32.7525 12.6075 32.7739 12.7416L30.957 13.1933L16.8938 16.6918L17.0324 12.3934ZM2.86971 15.8295L4.5295 16.171L15.2299 18.3706L16.1647 18.5621L18.9681 19.1383L19.1063 23.4369L4.65241 19.8408L3.22747 19.4867C3.24842 19.3524 3.27055 19.1762 3.29064 18.9825C3.37788 18.1292 3.40055 16.8003 2.86971 15.8295ZM2.22487 10.3954C2.20478 9.45603 2.37216 8.7767 2.71048 8.4314C2.92579 8.21094 3.17988 8.16506 3.35414 8.16506C3.44621 8.16506 3.5125 8.17785 3.51701 8.17785L12.0698 10.9662L16.3368 12.3574L16.1968 16.6859L4.22599 13.3298L3.59426 13.1528C3.57105 13.1463 3.53958 13.1418 3.51529 13.1407C3.46598 13.1372 2.28245 13.0282 2.22487 10.3954ZM15.1035 30.1755L2.5012 26.6424C2.47788 26.6356 2.44673 26.6311 2.42244 26.6299C2.37227 26.6266 1.18821 26.5177 1.13094 23.8855C1.11053 22.945 1.27878 22.2663 1.61645 21.9207C1.83229 21.7002 2.08649 21.6544 2.26043 21.6544C2.35272 21.6544 2.41879 21.6667 2.42363 21.6667L15.2426 25.8469L15.1035 30.1755ZM31.6171 25.7269C31.6369 25.9207 31.6591 26.0968 31.6806 26.2311L15.8001 30.1817L15.9389 25.8831L19.334 25.1851L19.8354 25.3064L21.7147 24.6956L30.3775 22.9155L32.0381 22.5738C31.5072 23.5445 31.5292 24.8736 31.6171 25.7269ZM32.4918 19.885C32.4629 19.8856 32.434 19.8895 32.4068 19.8981L31.2091 20.2334L19.8049 23.4312L19.6654 19.1026L23.407 17.8822L32.4669 14.9276C32.4681 14.9271 32.9435 14.8214 33.2924 15.1763C33.6302 15.5216 33.7978 16.2009 33.7781 17.1403C33.719 19.7723 32.5349 19.8816 32.4918 19.885Z" fill="#1976D2"/>
</g>
<defs>
<clipPath id="clip0_908_18766">
<rect width="36" height="36" fill="white"/>
</clipPath>
</defs>
</svg>
