<svg width="101" height="95" viewBox="0 0 101 95" fill="none" xmlns="http://www.w3.org/2000/svg">
<path d="M4.05306 16.5085C3.78383 16.3142 3.40865 16.3756 3.21457 16.6456C1.84078 18.5563 0.891337 20.6851 0.392587 22.9727C0.321894 23.2971 0.527294 23.6171 0.85163 23.688C1.17244 23.7581 1.49529 23.5553 1.56636 23.229C2.03004 21.1028 2.91268 19.1235 4.19017 17.3468C4.38389 17.0772 4.32247 16.7018 4.05306 16.5085Z" fill="#1976D2"/>
<path d="M0.650625 25.1984C0.318125 25.183 0.0373929 25.4368 0.0210648 25.7686C-0.0037985 26.2703 -0.00658186 26.781 0.0123439 27.2869C0.02459 27.6107 0.29085 27.8651 0.612217 27.8651C0.62001 27.8651 0.627432 27.8651 0.635225 27.8645C0.966797 27.8523 1.22545 27.573 1.21302 27.2417C1.19539 26.7704 1.19799 26.295 1.22118 25.8276C1.2377 25.4966 0.982383 25.2144 0.650625 25.1984Z" fill="#1976D2"/>
<path d="M74.6396 26.813C82.0312 26.813 88.0485 20.7959 88.0485 13.4041C88.0485 6.01227 82.0312 0 74.6396 0C67.2671 0 61.2642 5.98834 61.2403 13.356H17.1158C9.60874 13.356 3.56752 19.5991 3.85586 27.1446C4.06738 32.7821 8.02268 37.5784 13.2998 39.2606C7.82099 40.8995 3.61557 46.1284 3.85586 52.4869C4.04808 57.5958 7.31148 62.0125 11.8435 64.0456H6.96544C5.24486 64.0456 3.84639 65.4489 3.84639 67.1694C3.84639 68.7794 5.07193 70.1107 6.63869 70.2742C9.98855 75.0131 9.98855 79.6267 6.63869 84.3656C5.07193 84.5339 3.84639 85.8601 3.84639 87.4703C3.84639 89.1955 5.24486 90.5942 6.96544 90.5942H61.6583C68.877 90.5942 74.9663 84.8701 75.2307 77.8341C75.4471 72.1582 72.1163 67.3713 67.493 65.2472H72.1213C73.8419 65.2472 75.2404 63.8487 75.2404 62.1281C75.2404 60.5182 74.0197 59.1869 72.4481 59.0234C69.0982 54.2845 69.103 49.6659 72.4481 44.9272C74.0197 44.7637 75.2404 43.4373 75.2404 41.8273C75.2404 40.7891 74.7357 39.8712 73.9571 39.304C74.7982 38.6887 75.2404 37.7517 75.2404 36.7808C75.2404 35.1708 74.0148 33.8443 72.4481 33.6808C70.6362 31.1095 69.8048 28.5191 69.9729 25.9719C71.4242 26.5102 73.0006 26.813 74.6396 26.813ZM8.10451 70.2933H61.7448C65.4598 70.2933 68.6319 73.0951 68.9683 76.6422C69.3576 80.8235 66.0606 84.3463 61.9708 84.3463H8.10451C11.0939 79.6796 11.0939 74.96 8.10451 70.2933ZM70.9821 59.0039H17.1158C13.8043 59.0039 10.8775 56.6538 10.2238 53.3375C9.33468 48.7959 12.9729 44.951 17.3416 44.951H70.9819C67.9927 49.6176 67.9927 54.3372 70.9821 59.0039ZM72.1211 39.9046H72.126C73.1832 39.9046 74.0388 40.765 74.0388 41.8271C74.0388 42.8843 73.1786 43.7447 72.1211 43.7447H17.3418C12.3723 43.7447 8.05645 48.1038 9.02723 53.4577C9.73862 57.3891 13.1844 60.2055 17.1158 60.2055H72.1211C73.1784 60.2055 74.0388 61.0707 74.0388 62.128C74.0388 63.1852 73.1786 64.0456 72.1211 64.0456H17.4282C10.8487 64.0456 5.29774 58.8406 5.05263 52.4437C4.79788 45.5904 10.2769 39.9046 17.1158 39.9046H71.2895H72.1211ZM70.9821 33.6567H17.1158C13.2325 33.7432 9.71932 30.2781 10.1182 25.9526C10.445 22.4972 13.5065 19.6038 17.3418 19.6038H62.7638C64.0951 22.151 66.2243 24.2176 68.8147 25.4767C68.5358 28.2018 69.2519 30.9463 70.9821 33.6567ZM62.4369 13.4041C62.4369 6.6756 67.9111 1.2016 74.6394 1.2016C81.3727 1.2016 86.8467 6.67579 86.8467 13.4041C86.8467 20.1324 81.3727 25.6114 74.6394 25.6114C67.9111 25.6114 62.4369 20.1326 62.4369 13.4041Z" fill="#1976D2"/>
<path d="M61.6583 93.2373H53.698C53.3662 93.2373 53.0972 93.5062 53.0972 93.8381C53.0972 94.1701 53.366 94.4389 53.698 94.4389H61.6583C61.9901 94.4389 62.2591 94.1701 62.2591 93.8381C62.2591 93.5062 61.9901 93.2373 61.6583 93.2373Z" fill="#1976D2"/>
<path d="M50.8506 93.2373H49.3786C49.0469 93.2373 48.7778 93.5062 48.7778 93.8381C48.7778 94.1701 49.0467 94.4389 49.3786 94.4389H50.8506C51.1823 94.4389 51.4514 94.1701 51.4514 93.8381C51.4514 93.5062 51.1823 93.2373 50.8506 93.2373Z" fill="#1976D2"/>
<path d="M29.8183 51.9773C29.8183 52.3088 29.5491 52.5781 29.2175 52.5781H27.2903V57.216C27.2903 57.6966 26.7472 57.9753 26.3531 57.711L24.1135 56.2163L21.8691 57.711C21.475 57.9803 20.9368 57.6917 20.9368 57.216V52.5781H19.0095C18.6779 52.5781 18.4087 52.309 18.4087 51.9773C18.4087 51.6457 18.6779 51.3765 19.0095 51.3765H29.2175C29.5491 51.3765 29.8183 51.6457 29.8183 51.9773Z" fill="#1976D2"/>
<circle cx="92.5" cy="15.5" r="8.5" fill="white"/>
<path d="M86 14.0039H92.2087" stroke="#0D47A1" stroke-width="2" stroke-linecap="round"/>
<path d="M89.2048 17.0083V10.9998" stroke="#0D47A1" stroke-width="2" stroke-linecap="round"/>
<path d="M65 18.8711C65.4898 18.6113 65.9686 18.0807 66.0057 17.2643C66.0205 16.3811 66.0465 15.5498 66.0725 14.7854C66.1133 13.4791 66.1281 12.0467 66.1689 11.542C66.2098 11.0521 65.924 10.7256 65.6383 10.5215C65.475 10.399 65.2857 10.3174 65.052 10.2506L68.3621 9.09277C68.2137 9.35254 68.1729 10.4955 68.1729 10.8629C68.158 13.0969 68.1172 15.4273 68.1172 17.55C68.1172 17.999 68.3361 18.4072 68.6479 18.7227L65 18.8711ZM72.6408 9C74.6447 9 76.3184 10.8258 76.2516 13.943C76.1439 17.3088 74.6559 18.8748 72.6408 18.8748C70.6258 18.8748 69.2082 17.3236 69.0598 13.943C68.9076 10.7293 70.6666 9 72.6408 9ZM71.2381 14.5404C71.6203 16.8004 72.5184 17.6465 73.2828 17.6465C73.3496 17.6465 73.4313 17.6316 73.5018 17.6205C74.3033 17.4424 74.8785 16.5184 74.1549 13.4383C73.6762 11.2191 72.7373 10.2506 71.9766 10.2506C71.9098 10.2506 71.8541 10.2654 71.7873 10.2766C71.0043 10.4844 70.815 12.0504 71.2381 14.5404ZM80.3893 9C82.3932 9 84.0668 10.8258 84 13.943C83.8887 17.3051 82.4043 18.8711 80.3893 18.8711C78.3742 18.8711 76.9566 17.3199 76.8082 13.9393C76.6561 10.7293 78.415 9 80.3893 9ZM78.9865 14.5404C79.3687 16.8004 80.2668 17.6465 81.0312 17.6465C81.098 17.6465 81.1797 17.6316 81.2502 17.6205C82.0518 17.4424 82.627 16.5184 81.9033 13.4383C81.4246 11.2191 80.4857 10.2506 79.725 10.2506C79.6582 10.2506 79.6025 10.2654 79.5357 10.2766C78.7527 10.4844 78.5635 12.0504 78.9865 14.5404Z" fill="#0D47A1"/>
</svg>
