<svg width="130" height="119" viewBox="0 0 130 119" fill="none" xmlns="http://www.w3.org/2000/svg">
<path d="M66.028 119C35.8304 119 11.3518 94.5211 11.3518 64.3243C11.3518 52.7855 14.9273 42.0797 21.0292 33.2573C18.2263 39.8339 16.6747 47.0752 16.6747 54.6751C16.6747 84.8721 41.1533 109.351 71.3509 109.351C90.0083 109.351 106.482 100.007 116.349 85.7421C108.017 105.295 88.6232 119 66.028 119Z" fill="#B5B5B5"/>
<path d="M126.026 54.6749C126.026 84.8718 101.548 109.351 71.3513 109.351C41.1537 109.351 16.675 84.8718 16.675 54.6749C16.675 24.4785 41.1537 -1.52588e-05 71.3513 -1.52588e-05C101.548 -1.52588e-05 126.026 24.4785 126.026 54.6749Z" fill="#DDDBD9"/>
<path d="M123.544 80.1101L94.364 70.1485L98.4302 58.2362L127.61 68.1989C129.116 68.7124 129.92 70.3487 129.406 71.8547L127.201 78.3147C126.687 79.8206 125.05 80.6247 123.544 80.1101Z" fill="white"/>
<path d="M112.665 54.675C112.665 77.4933 94.168 95.9907 71.3509 95.9907C48.5338 95.9907 30.0364 77.4933 30.0364 54.675C30.0364 31.858 48.5338 13.3607 71.3509 13.3607C94.168 13.3607 112.665 31.858 112.665 54.675Z" fill="white"/>
<path d="M109.111 54.6741C109.111 75.5283 92.2042 92.4341 71.3511 92.4341C50.4969 92.4341 33.5913 75.5283 33.5913 54.6741C33.5913 33.8212 50.4969 16.9155 71.3511 16.9155C92.2042 16.9155 109.111 33.8212 109.111 54.6741Z" fill="#C5C4C2"/>
<path d="M109.109 55.0723C109.109 55.0676 109.109 55.0603 109.109 55.0547C109.109 55.0603 109.109 55.0667 109.109 55.0723ZM109.109 55.0233C109.109 55.0157 109.109 55.0059 109.109 54.9983C109.109 55.0068 109.109 55.0144 109.109 55.0233ZM109.11 54.9698C109.11 54.96 109.11 54.9481 109.11 54.9383C109.11 54.9494 109.11 54.96 109.11 54.9698ZM109.111 54.7305C109.111 54.7109 109.111 54.6944 109.111 54.6748C109.111 54.6935 109.111 54.7118 109.111 54.7305ZM69.6133 16.9553H69.6144C69.6133 16.9553 69.6144 16.9553 69.6133 16.9553ZM69.8635 16.9446C69.8679 16.9446 69.8722 16.9446 69.8755 16.9446C69.8711 16.9446 69.8679 16.9446 69.8635 16.9446ZM69.9103 16.9434C69.9147 16.9426 69.9201 16.9426 69.9245 16.9426C69.9201 16.9426 69.9158 16.9426 69.9103 16.9434ZM70.1573 16.9349C70.166 16.9349 70.1726 16.9336 70.1813 16.9336C70.1736 16.9336 70.1649 16.9349 70.1573 16.9349ZM70.2106 16.9328C70.2172 16.9328 70.2259 16.9328 70.2335 16.9328C70.2259 16.9328 70.2183 16.9328 70.2106 16.9328ZM70.3325 16.9294C70.3423 16.9294 70.3521 16.9294 70.3619 16.9294C70.3532 16.9294 70.3412 16.9294 70.3325 16.9294ZM70.3858 16.9281C70.3978 16.9281 70.4108 16.9272 70.4228 16.9272C70.4119 16.9272 70.3967 16.9281 70.3858 16.9281ZM70.6328 16.923C70.6448 16.923 70.6557 16.923 70.6676 16.9218C70.6557 16.923 70.6437 16.923 70.6328 16.923ZM70.7481 16.9209C70.7623 16.9209 70.7786 16.9209 70.7927 16.9209C70.7775 16.9209 70.7634 16.9209 70.7481 16.9209ZM70.8124 16.9196C70.8265 16.9196 70.8385 16.9196 70.8537 16.9196C70.8395 16.9196 70.8265 16.9196 70.8124 16.9196ZM70.8657 16.9196C70.8842 16.9183 70.9005 16.9183 70.919 16.9183C70.9016 16.9183 70.8831 16.9183 70.8657 16.9196ZM70.9342 16.9183C70.9473 16.9183 70.9614 16.9183 70.9745 16.9183C70.9625 16.9183 70.9462 16.9183 70.9342 16.9183ZM70.9919 16.9174C71.0278 16.9174 71.0648 16.9174 71.1007 16.9174C71.0637 16.9174 71.0289 16.9174 70.9919 16.9174ZM71.2356 16.9162C71.2497 16.9162 71.2661 16.9162 71.2802 16.9162C71.265 16.9162 71.2508 16.9162 71.2356 16.9162Z" fill="#D9D8D7"/>
<path d="M102.014 76.6968C104.466 71.6916 105.847 66.065 105.847 60.1154C105.847 39.2625 88.94 22.3568 68.0858 22.3568C55.4531 22.3568 44.2785 28.5665 37.4236 38.0948C43.3243 26.0443 55.4499 17.5976 69.6135 16.9554C69.6145 16.9554 69.6135 16.9554 69.6146 16.9554C69.6559 16.9534 69.6961 16.9525 69.7375 16.9503C69.7408 16.9503 69.744 16.9503 69.7473 16.9503C69.7603 16.9491 69.7734 16.9491 69.7864 16.9478C69.8126 16.9469 69.8376 16.9456 69.8637 16.9448C69.8681 16.9448 69.8713 16.9448 69.8757 16.9448C69.8876 16.9436 69.8985 16.9436 69.9105 16.9436C69.9159 16.9427 69.9203 16.9427 69.9246 16.9427C69.9616 16.9414 69.9975 16.9405 70.0345 16.9393C70.0411 16.938 70.0487 16.938 70.0541 16.938C70.065 16.938 70.0748 16.9372 70.0857 16.9372C70.0933 16.9372 70.0998 16.9372 70.1074 16.9359C70.1237 16.9359 70.1423 16.9351 70.1575 16.9351C70.1651 16.9351 70.1738 16.9338 70.1814 16.9338C70.1912 16.9338 70.201 16.9338 70.2108 16.9329C70.2184 16.9329 70.226 16.9329 70.2337 16.9329C70.2435 16.9316 70.2522 16.9316 70.262 16.9316C70.2772 16.9316 70.2924 16.9308 70.3076 16.9308C70.3163 16.9308 70.324 16.9295 70.3327 16.9295C70.3414 16.9295 70.3533 16.9295 70.362 16.9295C70.3697 16.9282 70.3784 16.9282 70.386 16.9282C70.3969 16.9282 70.4121 16.9274 70.423 16.9274C70.4328 16.9274 70.4415 16.9274 70.4502 16.9274C70.4632 16.9262 70.4752 16.9262 70.4883 16.9262C70.4959 16.9262 70.5013 16.9253 70.509 16.9253C70.5209 16.9253 70.5318 16.9253 70.5438 16.9253C70.5503 16.924 70.5579 16.924 70.5644 16.924C70.5808 16.924 70.5971 16.924 70.6134 16.9231C70.6199 16.9231 70.6265 16.9231 70.633 16.9231C70.6439 16.9231 70.6558 16.9231 70.6678 16.9219C70.6754 16.9219 70.6809 16.9219 70.6885 16.9219C70.7037 16.9219 70.7189 16.9219 70.7342 16.9211C70.7385 16.9211 70.744 16.9211 70.7483 16.9211C70.7636 16.9211 70.7777 16.9211 70.7929 16.9211C70.7995 16.9198 70.806 16.9197 70.8125 16.9197C70.8267 16.9197 70.8397 16.9197 70.8539 16.9197C70.8571 16.9197 70.8626 16.9197 70.8658 16.9197C70.8833 16.9184 70.9018 16.9184 70.9192 16.9184C70.9235 16.9184 70.9289 16.9184 70.9344 16.9184C70.9464 16.9184 70.9627 16.9184 70.9747 16.9184C70.9801 16.9176 70.9866 16.9176 70.9921 16.9176C71.029 16.9176 71.0639 16.9176 71.1009 16.9176C71.1052 16.9176 71.1085 16.9176 71.1139 16.9176C71.1291 16.9164 71.1433 16.9164 71.1596 16.9164C71.1629 16.9164 71.1672 16.9164 71.1705 16.9164C71.189 16.9164 71.2075 16.9164 71.226 16.9164C71.2292 16.9164 71.2325 16.9164 71.2358 16.9164C71.251 16.9164 71.2652 16.9164 71.2804 16.9164C71.2858 16.9164 71.2913 16.9164 71.2967 16.9164C71.3141 16.9164 71.3326 16.9164 71.3511 16.9164C92.2043 16.9164 109.111 33.822 109.111 54.6749C109.111 54.6945 109.111 54.7111 109.111 54.7307C109.111 54.7362 109.111 54.7425 109.111 54.7481C109.111 54.7612 109.11 54.774 109.11 54.7872C109.11 54.7935 109.11 54.8004 109.11 54.8067C109.11 54.8199 109.11 54.833 109.11 54.845C109.11 54.8513 109.11 54.8569 109.11 54.8624C109.11 54.8807 109.11 54.8981 109.11 54.9155C109.11 54.9232 109.11 54.9309 109.11 54.9385C109.11 54.9483 109.11 54.9601 109.11 54.9699C109.109 54.9797 109.109 54.9886 109.109 54.9984C109.109 55.006 109.109 55.0158 109.109 55.0235C109.109 55.0332 109.109 55.0439 109.109 55.0549C109.109 55.0604 109.109 55.0677 109.109 55.0724C109.025 63.1416 106.404 70.5971 102.014 76.6968Z" fill="#A3A3A2"/>
<path d="M98.995 54.6752C98.995 69.9424 86.618 82.3193 71.3511 82.3193C56.0831 82.3193 43.7073 69.9424 43.7073 54.6752C43.7073 39.4085 56.0831 27.0327 71.3511 27.0327C86.618 27.0327 98.995 39.4085 98.995 54.6752Z" fill="#261712"/>
<path d="M71.3511 82.3193C56.0831 82.3193 43.7073 69.9424 43.7073 54.6752C43.7073 39.4085 56.0831 27.0327 71.3511 27.0327C86.618 27.0327 98.995 39.4085 98.995 54.6752C98.995 69.9424 86.618 82.3193 71.3511 82.3193ZM67.9596 29.8006C67.3938 29.8006 66.828 29.8746 66.2611 30.0475C64.2296 30.6681 62.7836 32.4252 60.9904 33.5587C59.1766 34.7046 57.0276 35.1976 55.1332 36.2029C51.8973 37.9221 51.6949 40.9207 50.1727 43.8228C48.3218 47.3493 47.8725 50.3807 47.9475 54.3661C47.9867 56.462 48.0498 58.6544 49.0759 60.4824C50.14 62.3811 52.1486 63.6957 52.8875 65.7435C53.3205 66.9433 53.2639 68.2686 53.6154 69.4961C54.1725 71.447 55.7067 72.9716 57.3616 74.1476C60.6564 76.4849 64.6757 77.7884 68.7158 77.8276C68.7811 77.8288 68.8474 77.8288 68.9127 77.8288C72.5382 77.8288 76.0897 76.8615 79.5879 75.9017C81.9806 75.2446 84.5376 74.483 86.0838 72.5418C87.3035 71.0096 87.705 68.9499 88.9161 67.4104C90.2098 65.7685 92.2891 64.8891 93.5687 63.2362C95.2259 61.0995 95.2172 58.1005 94.6416 55.4598C94.0649 52.8178 93.0007 50.2697 92.7897 47.5745C92.6732 46.0913 92.8168 44.5811 92.4817 43.133C92.0639 41.3215 90.9301 39.7608 89.7082 38.3608C87.729 36.0919 85.3319 34.0279 82.4235 33.2544C80.5041 32.744 78.4694 32.8221 76.5369 32.3665C73.6339 31.6809 70.8027 29.8006 67.9596 29.8006Z" fill="#713A19"/>
</svg>
