<svg width="272" height="186" viewBox="0 0 272 186" fill="none" xmlns="http://www.w3.org/2000/svg">
<path d="M271.471 185.831H0.529324C0.236927 185.831 0 185.594 0 185.302C0 185.009 0.236927 184.772 0.529324 184.772H271.471C271.765 184.772 272 185.009 272 185.302C272 185.594 271.765 185.831 271.471 185.831Z" fill="#231F20"/>
<path d="M271.471 185.831H0.529324C0.236927 185.831 0 185.594 0 185.302C0 185.009 0.236927 184.772 0.529324 184.772H271.471C271.765 184.772 272 185.009 272 185.302C272 185.594 271.765 185.831 271.471 185.831Z" fill="#231F20"/>
<path d="M126.681 185.051H203.502L208.315 172.634H126.681C124.118 172.634 121.817 174.209 120.892 176.6C119.313 180.667 122.317 185.051 126.681 185.051Z" fill="white"/>
<path d="M126.682 173.163C124.354 173.163 122.228 174.621 121.385 176.791C120.698 178.565 120.922 180.483 121.996 182.053C123.072 183.622 124.78 184.523 126.682 184.523H203.139L207.545 173.163H126.682ZM203.503 185.581H126.682C124.456 185.581 122.379 184.485 121.122 182.651C119.866 180.816 119.595 178.481 120.4 176.409C121.397 173.834 123.924 172.106 126.682 172.106H208.316C208.491 172.106 208.654 172.191 208.754 172.336C208.852 172.479 208.872 172.662 208.809 172.825L203.997 185.243C203.919 185.447 203.722 185.581 203.503 185.581Z" fill="#231F20"/>
<path d="M173.306 185.051H247.572C251.088 185.051 254.1 182.526 254.711 179.063L263.941 122.537C264.725 118.097 261.31 114.026 256.8 114.026H191.178C187.662 114.026 184.65 116.551 184.039 120.014L173.306 185.051Z" fill="white"/>
<path d="M256.8 114.555H191.178C187.912 114.555 185.128 116.89 184.56 120.107L173.929 184.523H247.569C250.838 184.523 253.622 182.188 254.189 178.971L263.418 122.452C263.764 120.483 263.229 118.483 261.949 116.957C260.669 115.43 258.793 114.555 256.8 114.555ZM173.306 185.581C173.151 185.581 173.004 185.513 172.902 185.394C172.801 185.276 172.759 185.119 172.785 184.966L183.518 119.929C184.175 116.199 187.395 113.497 191.178 113.497H256.8C259.105 113.497 261.278 114.511 262.761 116.277C264.242 118.043 264.862 120.358 264.461 122.629L255.232 179.147C254.575 182.879 251.352 185.581 247.569 185.581H173.306Z" fill="#231F20"/>
<path d="M173.309 185.05H178.746L189.477 120.015C190.089 116.551 193.096 114.023 196.616 114.023H191.18C187.661 114.023 184.652 116.551 184.04 120.015L173.309 185.05Z" fill="#231F20"/>
<path d="M173.934 184.521H178.297L188.956 119.927C189.366 117.601 190.773 115.673 192.693 114.551H191.182C187.914 114.551 185.132 116.888 184.563 120.105L173.934 184.521ZM178.745 185.579H173.312C173.155 185.579 173.007 185.511 172.905 185.393C172.807 185.274 172.761 185.117 172.788 184.964L183.52 119.927C184.177 116.197 187.399 113.494 191.182 113.494H196.615C196.91 113.494 197.147 113.731 197.147 114.022C197.147 114.316 196.91 114.551 196.615 114.551C193.349 114.551 190.567 116.888 189.998 120.105L179.267 185.135C179.225 185.391 179.004 185.579 178.745 185.579Z" fill="#231F20"/>
<path d="M222.087 158.581C225.343 158.581 228.331 156.535 229.702 153.66C228.968 153.884 228.207 154.003 227.423 154.003C223.235 154.003 220.193 150.605 220.626 146.419C220.72 145.483 220.989 144.582 221.387 143.752C218.198 144.706 215.647 147.591 215.296 150.999C214.859 155.186 217.901 158.581 222.087 158.581Z" fill="#85BBEB"/>
<path d="M87.6046 57.9585C87.4217 57.9585 87.2454 57.8646 87.1466 57.6965C86.9999 57.4445 87.084 57.1199 87.336 56.9733C88.8748 56.0704 89.6293 55.0095 89.6409 53.7261C89.6854 49.0636 80.1941 43.2051 80.0985 43.1474C79.8498 42.9942 79.7707 42.668 79.9239 42.4192C80.0755 42.1705 80.4017 42.0914 80.6505 42.2446C81.064 42.495 90.748 48.4755 90.6986 53.7359C90.6838 55.3999 89.7315 56.7954 87.8715 57.886C87.7874 57.9354 87.6952 57.9585 87.6046 57.9585Z" fill="#231F20"/>
<path d="M82.0957 40.4224C82.0957 44.2924 78.9588 47.4292 75.0889 47.4292C71.2189 47.4292 68.082 44.2924 68.082 40.4224C68.082 36.554 71.2189 33.4155 75.0889 33.4155C78.9588 33.4155 82.0957 36.554 82.0957 40.4224Z" fill="#5BADFD" fill-opacity="0.8"/>
<path d="M75.0891 33.9458C71.5173 33.9458 68.6111 36.8504 68.6111 40.4221C68.6111 43.9939 71.5173 46.9001 75.0891 46.9001C78.6609 46.9001 81.5654 43.9939 81.5654 40.4221C81.5654 36.8504 78.6609 33.9458 75.0891 33.9458ZM75.0891 47.9595C70.9324 47.9595 67.5518 44.5788 67.5518 40.4221C67.5518 36.2671 70.9324 32.8865 75.0891 32.8865C79.2441 32.8865 82.6248 36.2671 82.6248 40.4221C82.6248 44.5788 79.2441 47.9595 75.0891 47.9595Z" fill="#231F20"/>
<path d="M56.8579 1.92168C56.8579 1.92168 71.7481 2.85416 77.6593 13.5119C83.4107 23.8845 72.6542 46.8837 75.5801 52.3798C78.5061 57.8775 78.1898 71.6753 64.5369 67.9503C50.8827 64.227 47.4248 49.154 47.4248 49.154L56.9123 24.8615C56.9123 24.8615 61.7889 16.7921 62.4084 16.2616C63.0295 15.7294 56.8579 1.92168 56.8579 1.92168Z" fill="#231F20"/>
<path d="M47.9792 49.1883C48.3938 50.7732 52.2251 64.0439 64.6751 67.4394C69.2502 68.6865 72.5897 68.044 74.6013 65.525C77.4515 61.9565 76.7134 55.635 75.1137 52.6283C73.799 50.1603 74.9292 44.9756 76.3576 38.412C78.1797 30.046 80.4483 19.6337 77.1962 13.7686C72.3179 4.97426 60.9732 2.94947 57.7144 2.54253C63.6504 15.8923 63.0902 16.3733 62.7525 16.6616C62.3505 17.0422 59.6914 21.2845 57.3882 25.0952L47.9792 49.1883ZM68.7593 69.105C67.5022 69.105 66.0574 68.9139 64.3967 68.4608C50.5974 64.6979 46.9442 49.4272 46.9089 49.2723C46.8852 49.1685 46.893 49.0614 46.9318 48.9609L56.4178 24.6685C56.4294 24.6405 56.4426 24.6125 56.459 24.5878C57.5447 22.7887 60.9897 17.1246 61.9205 16.0125C61.8052 14.744 58.6502 7.22804 56.375 2.13725C56.2992 1.96921 56.3173 1.77315 56.4228 1.61993C56.5282 1.46836 56.7094 1.38104 56.8907 1.39422C57.5101 1.43211 72.1383 2.46839 78.1204 13.2562C81.567 19.469 79.3494 29.6522 77.3922 38.6377C76.1203 44.4847 74.916 50.0055 76.0478 52.1308C77.8255 55.4719 78.5998 62.2151 75.4284 66.1856C74.2669 67.6387 72.2339 69.105 68.7593 69.105Z" fill="#231F20"/>
<path d="M162.546 67.2696C162.546 67.2696 169.597 73.6635 168.136 79.0412C167.995 79.5748 162.292 85.9623 160.171 87.1402C153.053 91.0959 150.101 91.4122 150.101 91.4122C147.078 95.5194 126.149 132.559 114.355 134.738C101.965 137.03 83.2002 114.243 83.2002 114.243L99.1964 92.6298L111.598 103.824L138.418 77.0146C140.04 73.3341 150.23 57.3187 153.06 60.1129C155.803 62.8213 154.064 66.2927 153.952 66.5117C154.348 66.1395 167.522 53.7457 170.734 56.3296C173.991 58.9546 162.546 67.2696 162.546 67.2696Z" fill="white"/>
<path d="M83.8731 114.222C86.1908 116.948 103.106 136.28 114.259 134.217C123.783 132.458 139.781 106.819 146.613 95.8717C148.08 93.5222 149.137 91.8254 149.672 91.0972C149.761 90.9787 149.896 90.9012 150.044 90.8847C150.07 90.8814 153.023 90.5057 159.914 86.6769C161.945 85.5484 167.247 79.5662 167.636 78.8694C168.952 73.8742 162.257 67.7222 162.19 67.6613C162.072 67.5542 162.007 67.3995 162.016 67.2396C162.025 67.0814 162.105 66.9349 162.233 66.8408C164.591 65.1274 170.723 60.1257 170.787 57.5835C170.796 57.2277 170.674 56.9607 170.4 56.7413C168.549 55.2484 160.728 60.8588 154.315 66.8969C154.127 67.0733 153.839 67.088 153.634 66.9349C153.427 66.7799 153.363 66.4998 153.48 66.2708C153.655 65.9299 155.108 62.8804 152.688 60.4882C152.578 60.3826 152.41 60.2673 152.047 60.3366C148.693 60.9774 140.545 73.4952 138.901 77.2286C138.875 77.2878 138.837 77.3421 138.792 77.3898L111.971 104.198C111.774 104.397 111.453 104.406 111.243 104.218L99.2725 93.412L83.8731 114.222ZM112.53 135.43C100.111 135.43 83.5259 115.474 82.7898 114.579C82.6353 114.393 82.6283 114.124 82.7724 113.928L98.7691 92.3148C98.8593 92.1945 98.993 92.117 99.1423 92.1021C99.2882 92.0873 99.4392 92.1368 99.5486 92.2356L111.58 103.094L137.974 76.7095C139.474 73.4096 147.818 60.0663 151.849 59.297C152.637 59.147 153.144 59.4519 153.431 59.7352C155.141 61.4239 155.275 63.368 155.044 64.7882C158.999 61.2245 168.134 53.5562 171.066 55.917C171.592 56.3421 171.863 56.9277 171.846 57.6098C171.766 60.7599 165.368 65.8146 163.363 67.3203C164.96 68.8986 169.964 74.3304 168.648 79.1791C168.417 80.0374 162.464 86.471 160.427 87.6029C154.342 90.9835 151.252 91.7413 150.401 91.8995C149.854 92.6773 148.854 94.2785 147.511 96.4318C140.604 107.498 124.432 133.413 114.451 135.259C113.823 135.374 113.182 135.43 112.53 135.43Z" fill="#231F20"/>
<path d="M162.345 67.3336L156.015 72.0306C154.984 72.7969 154.744 74.2251 155.483 75.2203C156.221 76.2154 157.658 76.3999 158.691 75.6338L165.019 70.9366C166.052 70.1706 166.293 68.7406 165.553 67.7455C165.185 67.2463 164.639 66.953 164.06 66.8788C163.478 66.8031 162.859 66.9515 162.345 67.3336Z" fill="white"/>
<path d="M163.761 67.3889C163.369 67.3889 162.984 67.5174 162.657 67.7595L156.329 72.4566C155.531 73.048 155.342 74.147 155.906 74.9048C156.175 75.2705 156.579 75.5044 157.042 75.5637C157.511 75.6247 157.983 75.4979 158.371 75.2095L164.701 70.5125C165.09 70.2243 165.349 69.8073 165.425 69.3395C165.504 68.8798 165.396 68.4252 165.125 68.0611C164.856 67.697 164.452 67.463 163.991 67.4036C163.914 67.3937 163.836 67.3889 163.761 67.3889ZM157.274 76.6362C157.152 76.6362 157.029 76.6296 156.904 76.6132C156.156 76.5159 155.501 76.1338 155.056 75.5357C154.144 74.3083 154.432 72.5455 155.698 71.6064L162.028 66.9095C162.638 66.4547 163.382 66.2586 164.127 66.3542C164.878 66.4513 165.533 66.8337 165.976 67.43C166.42 68.028 166.596 68.7694 166.471 69.5158C166.345 70.2539 165.941 70.9095 165.33 71.3626L159.002 76.0596C158.494 76.4369 157.891 76.6362 157.274 76.6362Z" fill="#231F20"/>
<path d="M164.861 71.0776L158.757 75.6066C157.761 76.3463 157.531 77.722 158.242 78.6824C158.956 79.6413 160.339 79.8208 161.337 79.0812L167.439 74.5521C168.434 73.8125 168.668 72.4334 167.954 71.4746C167.598 70.9935 167.073 70.7102 166.515 70.6378C165.952 70.5652 165.357 70.7085 164.861 71.0776Z" fill="white"/>
<path d="M165.175 71.5022L159.071 76.0312C158.702 76.3063 158.454 76.7033 158.382 77.1482C158.308 77.5865 158.409 78.0181 158.667 78.3657C158.925 78.7133 159.309 78.9358 159.751 78.9934C160.196 79.051 160.649 78.9308 161.019 78.6557L167.122 74.1267C167.884 73.5616 168.068 72.5121 167.53 71.789C167.272 71.4413 166.888 71.2189 166.446 71.1628C166 71.1052 165.546 71.2254 165.175 71.5022ZM159.971 80.0659C159.852 80.0659 159.734 80.0577 159.613 80.0429C158.886 79.9489 158.247 79.5767 157.817 78.9967C157.387 78.4168 157.217 77.6984 157.337 76.9736C157.456 76.2569 157.85 75.621 158.442 75.1811L164.543 70.6521C165.138 70.2105 165.861 70.0194 166.583 70.1133C167.311 70.2072 167.949 70.5779 168.379 71.1578C169.263 72.3508 168.983 74.0625 167.753 74.9768L161.65 79.5058C161.156 79.8715 160.571 80.0659 159.971 80.0659Z" fill="#231F20"/>
<path d="M166.323 75.399L161.181 79.2162C160.34 79.839 160.195 81.0648 160.855 81.9528C161.513 82.8407 162.728 83.0549 163.567 82.4322L168.284 78.9312C169.123 78.3084 169.698 76.7665 169.039 75.8768C168.708 75.432 168.239 75.1584 167.75 75.071C167.257 74.9838 166.74 75.0893 166.323 75.399Z" fill="white"/>
<path d="M166.64 75.8236L161.497 79.641C160.892 80.089 160.796 80.9837 161.279 81.6361C161.764 82.2884 162.648 82.4549 163.252 82.0068L167.969 78.5058C168.62 78.023 169.059 76.7908 168.615 76.1927C168.375 75.8731 168.037 75.6589 167.657 75.5931C167.293 75.5271 166.93 75.6095 166.64 75.8236ZM162.482 83.3164C161.712 83.3164 160.937 82.9507 160.43 82.267C159.597 81.1467 159.794 79.5866 160.865 78.7908L166.008 74.9736C166.535 74.5846 167.186 74.4332 167.842 74.5501C168.487 74.6637 169.064 75.023 169.463 75.5617C170.3 76.6886 169.673 78.5586 168.6 79.3559L163.883 82.8568C163.465 83.1665 162.975 83.3164 162.482 83.3164Z" fill="#231F20"/>
<path d="M153.945 66.5157C153.945 66.5157 153.268 70.6871 150.76 72.2819C150.76 72.2819 152.044 74.6873 151.67 77.3052C151.297 79.923 149.227 81.0796 149.227 81.0796" fill="white"/>
<path d="M149.226 81.6079C149.042 81.6079 148.86 81.5107 148.763 81.3361C148.621 81.0824 148.712 80.7594 148.967 80.6161C149.042 80.5749 150.818 79.5419 151.145 77.2305C151.488 74.8218 150.305 72.5516 150.292 72.5302C150.164 72.2863 150.243 71.9832 150.477 71.8349C152.757 70.3851 153.416 66.469 153.422 66.4311C153.47 66.1428 153.744 65.9467 154.03 65.9929C154.319 66.0406 154.515 66.3108 154.467 66.6008C154.44 66.7705 153.79 70.6158 151.427 72.456C151.793 73.2946 152.496 75.2568 152.193 77.3788C151.788 80.224 149.579 81.4893 149.483 81.5404C149.402 81.5865 149.313 81.6079 149.226 81.6079Z" fill="#231F20"/>
<path d="M76.8538 73.6937C76.8538 73.6937 81.2427 74.6278 87.9184 78.5769C94.5941 82.5259 106.59 93.5016 106.59 93.5016C110.199 96.0668 91.1261 122.799 87.5164 120.234L65.7314 98.0174L76.8538 73.6937Z" fill="white"/>
<path d="M87.516 120.234L82.5752 115.179C86.9065 114.143 99.0799 96.0734 100.948 89.0517C102.148 90.2873 106.591 93.5016 106.591 93.5016C110.201 96.0668 91.1257 122.799 87.516 120.234Z" fill="#CDE8FF"/>
<path d="M87.8526 119.822C88.3139 120.082 89.7109 119.519 92.2036 117.076C94.3717 114.952 96.9385 111.852 99.4296 108.344C101.886 104.888 103.932 101.512 105.189 98.8362C106.669 95.6944 106.703 94.2315 106.283 93.9333C106.265 93.9201 106.247 93.9053 106.23 93.8904C106.105 93.7735 93.6188 82.2294 87.07 78.3545C81.8062 75.2407 78.732 74.407 77.7352 74.2011L66.3691 97.912L87.8526 119.822ZM88.0931 120.938C87.757 120.938 87.4637 120.847 87.21 120.666C87.1837 120.648 87.1606 120.628 87.1375 120.605L65.3526 98.3881C65.1977 98.23 65.1582 97.9894 65.2537 97.7884L76.9543 73.384C77.0499 73.183 77.2657 73.0627 77.4865 73.0857C77.6232 73.1006 80.91 73.4811 87.6087 77.4434C94.179 81.3315 106.156 92.378 106.927 93.093C109.804 95.2579 101.909 106.682 100.293 108.957C97.7656 112.514 95.1559 115.665 92.945 117.832C90.8247 119.909 89.2233 120.938 88.0931 120.938Z" fill="#231F20"/>
<path d="M87.8966 93.1685C89.526 131.005 83.8075 139.155 84.3578 141.692C84.6626 143.108 86.9493 175.473 88.9082 185.05H4.44824L13.4202 140.379C13.4202 140.379 1.77517 90.806 8.72187 78.5189C12.424 71.9684 23.0509 70.0969 36.0352 69.4C38.6158 69.2583 41.2833 69.1644 44.0109 69.0886C55.1327 68.7838 64.0078 70.1677 70.0937 71.517C74.6227 72.5302 77.6112 73.5319 78.832 73.8087" fill="white"/>
<path d="M88.9081 185.579H4.448C4.28935 185.579 4.1391 185.508 4.03877 185.384C3.9381 185.262 3.89824 185.101 3.92921 184.944L12.8783 140.389C12.1181 137.13 1.39073 90.4106 8.26132 78.2586C12.3078 71.1002 23.9876 69.5153 36.0069 68.8711C38.2601 68.7475 40.7241 68.652 43.9958 68.5597C52.9826 68.3142 61.7984 69.1347 70.2089 70.9997C73.2403 71.6784 75.6062 72.3572 77.1713 72.8053C77.944 73.0277 78.5552 73.204 78.9489 73.293C79.234 73.3573 79.4119 73.6423 79.3476 73.9256C79.2834 74.2107 78.9967 74.3902 78.7134 74.3243C78.2916 74.2288 77.6689 74.0492 76.8781 73.8235C75.3261 73.377 72.9784 72.7048 69.9783 72.0327C61.6535 70.1875 52.9191 69.3736 44.0252 69.6174C40.7633 69.7097 38.308 69.8052 36.0643 69.9272C24.907 70.5268 12.9883 72.0458 9.18228 78.7792C2.41614 90.7483 13.8188 139.765 13.9352 140.259C13.9521 140.333 13.9538 140.409 13.9388 140.485L5.09399 184.519H88.2656C86.8949 177.229 85.4187 159.826 84.5258 149.306C84.188 145.322 83.9195 142.175 83.8404 141.803C83.6789 141.058 83.9261 140.084 84.3742 138.315C85.6362 133.326 88.5934 121.647 87.3677 93.1915C87.3545 92.8999 87.5802 92.6528 87.8735 92.6396C88.17 92.6265 88.4122 92.8538 88.4238 93.1454C89.6577 121.756 86.6741 133.542 85.3989 138.574C85.0184 140.081 84.7663 141.078 84.875 141.58C84.9656 142 85.1666 144.355 85.5802 149.215C86.4978 160.034 88.0349 178.14 89.4271 184.943C89.4584 185.099 89.4188 185.261 89.3183 185.384C89.2178 185.506 89.0679 185.579 88.9081 185.579Z" fill="#231F20"/>
<path d="M56.7227 82.8189L56.6254 82.8947L52.5845 93.1372C52.5845 93.1372 33.4602 86.6362 24.7061 70.5038L32.4312 69.6339L53.2932 77.6309L56.7227 82.8189Z" fill="#CDE8FF"/>
<path d="M25.5549 70.9425C33.4894 84.8309 49.3422 91.3518 52.2812 92.4638L56.0864 82.8177L52.9453 78.0646L32.3624 70.1748L25.5549 70.9425ZM52.584 93.6665C52.5277 93.6665 52.4698 93.6583 52.4135 93.6385C52.2207 93.5726 32.9924 86.8837 24.2407 70.758C24.157 70.6031 24.1553 70.4169 24.2366 70.2604C24.3176 70.1039 24.4717 69.9985 24.6463 69.9787L32.3718 69.1088C32.4569 69.0989 32.5411 69.1088 32.6209 69.1401L53.4827 77.1371C53.5855 77.1766 53.6728 77.2475 53.7338 77.3397L57.1639 82.5277C57.3138 82.7518 57.2693 83.0516 57.0634 83.2246L53.0764 93.3321C52.9944 93.5396 52.7954 93.6665 52.584 93.6665Z" fill="#231F20"/>
<path d="M110.693 157.092C110.693 157.092 113.698 159.339 109.258 161.657C104.812 163.98 82.8997 162.245 82.8997 162.245L26.0549 169.756C16.0948 170.898 6.47121 162.751 6.92115 152.742L4.44824 108.678L33.6165 108.484L35.7283 144.108L78.7975 141.044C78.7975 141.044 81.7053 130.134 86.4106 131.582C91.1125 133.03 86.3084 139.742 86.3084 139.742C86.3084 139.742 107.701 135.506 109.744 138.497C111.743 141.424 100.681 145.533 100.21 145.706C100.652 145.673 110.711 144.859 112.629 146.581C114.594 148.334 112.797 150.752 110.706 151.322C110.706 151.322 115.425 154.189 110.693 157.092Z" fill="white"/>
<path d="M5.00748 109.204L7.44892 152.713C7.44991 152.729 7.4504 152.747 7.44942 152.765C7.25303 157.135 9.10103 161.469 12.5199 164.659C16.1743 168.069 21.2107 169.777 25.9941 169.23L82.8303 161.72C82.8665 161.715 82.9028 161.715 82.9407 161.718C83.1582 161.734 104.75 163.415 109.012 161.187C110.35 160.489 111.092 159.736 111.153 159.009C111.225 158.172 110.381 157.52 110.373 157.513C110.235 157.408 110.156 157.24 110.166 157.065C110.174 156.891 110.268 156.731 110.416 156.64C111.648 155.884 112.271 155.097 112.27 154.298C112.266 152.928 110.451 151.785 110.433 151.775C110.251 151.665 110.154 151.459 110.182 151.248C110.212 151.039 110.363 150.867 110.568 150.811C111.699 150.503 112.681 149.602 112.901 148.668C113.047 148.045 112.838 147.475 112.276 146.974C111.085 145.905 105.391 145.831 100.276 146.231C100.01 146.253 99.7617 146.076 99.7057 145.819C99.6497 145.561 99.7798 145.3 100.027 145.21C103.474 143.94 108.816 141.379 109.408 139.531C109.495 139.254 109.464 139.027 109.306 138.796C107.963 136.826 94.549 138.65 86.4103 140.261C86.1994 140.302 85.9803 140.21 85.8633 140.028C85.7447 139.846 85.7513 139.61 85.8765 139.434C86.6261 138.386 88.4351 135.264 87.8173 133.435C87.5982 132.784 87.0858 132.345 86.2554 132.088C85.5997 131.887 84.9671 131.962 84.3196 132.321C81.2454 134.025 79.3277 141.108 79.3079 141.178C79.2503 141.398 79.0608 141.554 78.8351 141.571L35.7659 144.635C35.6212 144.645 35.4858 144.599 35.3792 144.505C35.2728 144.411 35.2082 144.279 35.2 144.139L33.1174 109.016L5.00748 109.204ZM24.2246 170.389C19.7266 170.389 15.1965 168.604 11.7975 165.433C8.15883 162.037 6.1894 157.415 6.39106 152.746L3.9198 108.708C3.91156 108.563 3.96313 108.421 4.06248 108.316C4.16166 108.21 4.29955 108.149 4.4442 108.149L33.6124 107.955C33.8729 107.952 34.1276 108.172 34.1442 108.452L36.2247 143.541L78.3886 140.541C78.8433 138.992 80.7413 133.094 83.8056 131.396C84.7068 130.898 85.636 130.789 86.5668 131.076C87.73 131.435 88.4878 132.116 88.8206 133.097C89.4615 135 88.2423 137.564 87.4137 138.989C92.7878 137.972 108.228 135.34 110.18 138.198C110.52 138.697 110.602 139.269 110.416 139.852C109.795 141.791 106.129 143.755 103.348 144.996C106.836 144.869 111.599 144.945 112.983 146.185C113.83 146.941 114.167 147.91 113.93 148.91C113.69 149.94 112.853 150.902 111.775 151.467C112.456 152.062 113.326 153.065 113.329 154.294C113.331 155.337 112.724 156.303 111.527 157.172C111.881 157.597 112.274 158.265 112.209 159.088C112.118 160.214 111.207 161.235 109.502 162.126C105.044 164.456 84.407 162.893 82.9127 162.777L26.1237 170.282C25.4939 170.352 24.8591 170.389 24.2246 170.389Z" fill="#231F20"/>
<path d="M100.828 152.728C100.556 152.728 100.325 152.52 100.301 152.245C100.276 151.955 100.49 151.698 100.782 151.671L110.662 150.793C110.96 150.767 111.211 150.983 111.237 151.273C111.262 151.564 111.047 151.821 110.756 151.848L100.876 152.726C100.859 152.728 100.843 152.728 100.828 152.728Z" fill="#231F20"/>
<path d="M100.736 158.239C100.459 158.239 100.226 158.023 100.209 157.743C100.191 157.451 100.412 157.201 100.703 157.183L110.658 156.562C110.957 156.542 111.201 156.764 111.219 157.056C111.237 157.347 111.015 157.6 110.725 157.618L100.769 158.239C100.758 158.239 100.746 158.239 100.736 158.239Z" fill="#231F20"/>
<path d="M10.0782 76.6655C10.0782 76.6655 3.73313 82.239 2.60607 95.0978C1.48478 107.962 1.76831 120.558 1.76831 120.558C2.00802 124.277 36.785 120.41 36.54 116.692C36.54 116.692 34.2971 102.2 32.5005 93.8375" fill="white"/>
<path d="M36.5417 116.693C36.7867 120.412 2.00953 124.277 1.76998 120.558C1.76998 120.558 1.75977 115.578 1.75977 113.166C8.22721 114.744 30.6502 111.501 35.4792 108.484C35.8768 110.934 36.5417 116.693 36.5417 116.693Z" fill="#CDE8FF"/>
<path d="M8.88995 122.573C5.78046 122.573 3.32468 122.329 2.19136 121.769C1.59151 121.473 1.27157 121.077 1.2401 120.591C1.23648 120.443 0.967605 107.798 2.07885 95.0517C3.21151 82.1303 9.46295 76.5024 9.72869 76.2685C9.94831 76.0757 10.2816 76.0972 10.4748 76.3163C10.6676 76.5354 10.6464 76.8698 10.4279 77.0626C10.3658 77.1186 4.22604 82.6756 3.13292 95.144C2.02711 107.83 2.29434 120.42 2.2973 120.545C2.29878 120.565 2.37852 120.682 2.66008 120.82C6.79894 122.865 31.05 120.234 35.5067 117.257C35.9159 116.985 36.0158 116.791 36.0116 116.726C35.9945 116.629 33.7559 102.2 31.9828 93.9495C31.9212 93.6628 32.1033 93.3811 32.389 93.3202C32.6727 93.2592 32.9564 93.4404 33.0175 93.7271C34.7971 102.007 37.0405 116.466 37.0628 116.611C37.1025 117.184 36.7749 117.683 36.0949 118.138C32.5554 120.501 17.9512 122.573 8.88995 122.573Z" fill="#231F20"/>
<path d="M56.7227 82.8188L67.5649 89.9541C67.5649 89.9541 73.1746 82.7166 73.1499 72.25L69.5765 71.4016L63.2089 77.5369L56.7227 82.8188Z" fill="#CDE8FF"/>
<path d="M57.6158 82.7745L67.4316 89.2328C68.5404 87.6215 72.5125 81.2522 72.6179 72.6688L69.7365 71.9834L63.5764 77.9193L57.6158 82.7745ZM67.565 90.4849C67.4646 90.4849 67.3641 90.4552 67.2735 90.3975L56.4312 83.2622C56.2912 83.1683 56.2039 83.0151 56.194 82.847C56.1858 82.6773 56.2582 82.5159 56.3884 82.4088L62.8746 77.1269L69.2093 71.0212C69.3394 70.896 69.5223 70.845 69.6986 70.8878L73.272 71.7363C73.5092 71.7923 73.6789 72.0048 73.6789 72.2503C73.7037 82.7778 68.2158 89.9774 67.9835 90.2789C67.8797 90.4124 67.7232 90.4849 67.565 90.4849Z" fill="#231F20"/>
<path d="M70.0936 71.517C69.293 76.8302 63.5086 82.5685 56.7225 82.8189C46.6783 83.1896 35.2893 76.1828 32.3984 69.6339C32.4093 69.6323 32.4204 69.6323 32.4312 69.6323C35.3722 69.4692 37.7543 67.222 38.1359 64.301C38.9776 57.8559 38.1711 50.9496 35.85 44.1059L67.9371 48.4388C67.9371 48.4388 63.3537 57.6006 63.1741 65.0638C63.1066 67.9189 65.133 70.405 67.9222 71.031C68.8597 71.2419 69.7032 71.4314 70.0936 71.517Z" fill="white"/>
<path d="M33.2014 70.0773C36.4112 76.155 46.9948 82.6461 56.7028 82.2903C63.1429 82.053 68.4693 76.7382 69.4825 71.9242C69.0443 71.8253 68.4462 71.6919 67.8054 71.5469C64.7427 70.8599 62.5729 68.1267 62.6454 65.0508C62.8002 58.6305 66.087 51.1244 67.1447 48.8673L36.6178 44.7436C38.762 51.4144 39.4683 58.184 38.6607 64.3687C38.2776 67.2996 36.0354 69.5962 33.2014 70.0773ZM55.945 83.3628C45.709 83.3628 34.7368 76.2423 31.914 69.8467C31.8443 69.6885 31.8562 69.5056 31.9471 69.3574C32.0376 69.2091 32.1952 69.1152 32.3684 69.1053C35.0706 68.957 37.2618 66.9075 37.6116 64.232C38.4307 57.9566 37.6483 51.0552 35.3485 44.2758C35.2897 44.1028 35.3248 43.9117 35.4416 43.77C35.558 43.6283 35.7367 43.5558 35.9207 43.5822L68.008 47.9151C68.1777 47.9382 68.326 48.0419 68.405 48.1919C68.4858 48.3434 68.4874 48.523 68.4116 48.6762C68.3655 48.7669 63.8777 57.8199 63.7047 65.0755C63.6421 67.6489 65.4643 69.9373 68.0377 70.5139C68.9751 70.7248 69.8186 70.9142 70.2074 70.9999C70.4793 71.0609 70.6588 71.3212 70.6177 71.5963C69.812 76.9425 63.9156 83.0844 56.7424 83.348C56.4771 83.3578 56.2102 83.3628 55.945 83.3628Z" fill="#231F20"/>
<path d="M35.8501 44.106C35.8501 44.106 28.3917 40.5392 30.1339 34.0612C31.8649 27.6425 38.6266 33.4252 38.6266 33.4252C38.6266 33.4252 37.7501 26.7611 39.5085 20.9405C42.4104 11.3487 53.8049 3.95471 64.4263 7.61876C65.232 7.89718 66.0327 8.23491 66.8218 8.64349C82.5934 16.7657 81.1337 54.6517 65.8416 59.235C58.9665 61.2994 53.0265 59.6865 48.29 56.8676" fill="white"/>
<path d="M59.642 60.7012C55.688 60.7012 51.7994 59.5726 48.019 57.3221C47.7679 57.1722 47.6857 56.8477 47.835 56.5956C47.9849 56.3452 48.3095 56.2628 48.5606 56.4127C54.085 59.7011 59.8479 60.4804 65.69 58.7274C71.8368 56.8855 76.2752 49.0286 77.2752 38.2226C78.2769 27.3722 75.3575 13.6336 66.5796 9.11288C65.8416 8.73066 65.059 8.39622 64.2534 8.11943C59.7343 6.5609 54.7324 6.98431 50.1725 9.31553C45.2883 11.8115 41.4911 16.2153 40.0151 21.0935C38.3113 26.7329 39.1428 33.29 39.1512 33.3559C39.1795 33.5734 39.0716 33.7843 38.8788 33.8897C38.6871 33.9935 38.4498 33.9688 38.2829 33.8271C38.2493 33.7974 34.8871 30.9604 32.5808 31.6754C31.6718 31.9572 31.0206 32.8056 30.6449 34.1994C29.0357 40.1832 36.0074 43.5951 36.0784 43.6281C36.3419 43.7549 36.4535 44.0696 36.3273 44.3332C36.2013 44.5968 35.8861 44.7088 35.6216 44.5836C35.543 44.5457 27.7875 40.7482 29.6227 33.9243C30.0998 32.1565 30.9901 31.0593 32.2692 30.6639C34.2701 30.0461 36.6638 31.374 37.9826 32.2784C37.8137 30.0675 37.6612 25.2255 39.0022 20.7871C40.5598 15.6386 44.5556 10.9976 49.6909 8.37316C54.51 5.91014 59.8034 5.4653 64.5993 7.1194C65.4527 7.41265 66.2814 7.76687 67.0656 8.17216C76.2785 12.9186 79.3626 27.1267 78.328 38.3198C77.2884 49.564 72.5617 57.7736 65.9931 59.7423C63.8629 60.3816 61.7426 60.7012 59.642 60.7012Z" fill="#231F20"/>
<path d="M72.5914 23.7215C62.1001 29.4285 45.2794 22.6012 45.2794 22.6012C45.2794 22.6012 39.9496 23.2652 38.6267 33.4253C38.6267 33.4253 31.865 27.6426 30.1339 34.0613C28.3917 40.5393 35.8501 44.1061 35.8501 44.1061C38.3273 50.6549 39.7046 64.9783 36.7702 67.4397C32.0991 68.9851 21.5941 69.1234 18.0826 65.8614C13.9014 61.97 22.1636 28.786 22.1636 28.786C22.1636 28.786 21.7826 17.2831 29.1866 10.2878C36.5961 3.29084 57.9468 -4.83135 68.8236 5.33704C72.8237 9.07853 81.6379 18.8004 72.5914 23.7215Z" fill="#231F20"/>
<path d="M55.1092 1.12939C45.3473 1.12939 34.5243 5.9747 29.5494 10.6717C22.4106 17.4166 22.688 28.6559 22.6916 28.7696C22.6931 28.8173 22.688 28.8668 22.6766 28.9145C19.3858 42.1308 15.5425 62.774 18.4427 65.4743C21.6369 68.4414 31.7396 68.4975 36.5005 66.9702C38.9098 64.6786 37.9284 51.2992 35.4247 44.4818C34.22 43.836 27.9529 40.1324 29.6222 33.9246C30.0993 32.1568 30.9896 31.0596 32.2687 30.6642C34.4024 30.0052 36.9864 31.5604 38.2329 32.4534C39.7837 22.8649 44.9866 22.1054 45.2135 22.0758C45.3035 22.0659 45.3944 22.0774 45.4781 22.112C45.644 22.1779 62.1919 28.7778 72.3388 23.257C74.502 22.0807 75.7195 20.5353 75.9584 18.6638C76.568 13.8794 70.9187 8.0209 68.4622 5.72428C64.9366 2.42927 60.1638 1.12939 55.1092 1.12939ZM28.7075 69.0444C24.3418 69.0444 19.8556 68.2306 17.7218 66.2503C13.4635 62.2847 20.7016 32.4748 21.6323 28.7284C21.6081 27.6245 21.5636 16.7609 28.8228 9.90234C36.8307 2.34195 58.2379 -5.2827 69.1839 4.95159C71.7606 7.3586 77.6784 13.5285 77.0079 18.7972C76.7245 21.0246 75.3225 22.8385 72.8446 24.1862C62.6597 29.7268 47.0325 23.8616 45.229 23.1516C44.4771 23.3361 40.2891 24.7546 39.1507 33.493C39.1258 33.6857 38.9972 33.8488 38.8163 33.918C38.6334 33.9889 38.4297 33.9526 38.2825 33.8274C38.2488 33.7977 34.8866 30.9607 32.5803 31.6757C31.6713 31.9575 31.0201 32.8059 30.6445 34.1997C29.0388 40.1703 35.79 43.49 36.0779 43.6284C36.2008 43.6877 36.2964 43.7915 36.3445 43.9184C38.6675 50.0603 40.4881 65.0113 37.1098 67.8451C37.0587 67.8879 36.9997 67.9208 36.9363 67.9423C34.8428 68.6359 31.8056 69.0444 28.7075 69.0444Z" fill="#231F20"/>
<path d="M53.8705 34.9227C53.9974 36.1978 54.8919 37.1534 55.8689 37.0562C56.8459 36.959 57.5345 35.8453 57.4077 34.5701C57.2808 33.2949 56.3862 32.3394 55.4109 32.4366C54.4339 32.5338 53.7436 33.6475 53.8705 34.9227Z" fill="#231F20"/>
<path d="M68.0014 33.5916C68.1282 34.8668 69.0228 35.8223 69.9982 35.7251C70.9751 35.6279 71.6638 34.5158 71.5369 33.2407C71.4117 31.9655 70.5171 31.01 69.5402 31.1072C68.5632 31.2044 67.8745 32.3164 68.0014 33.5916Z" fill="#231F20"/>
<path d="M58.0373 30.2721C58.0373 30.2721 54.8395 28.6097 51.5283 32.002Z" fill="white"/>
<path d="M51.5282 32.5322C51.3948 32.5322 51.2615 32.4812 51.1587 32.3807C50.9494 32.1764 50.9453 31.8419 51.1495 31.6327C54.6942 28.0016 58.2446 29.7826 58.2808 29.8023C58.5395 29.9358 58.64 30.2554 58.5065 30.5157C58.3715 30.7743 58.0535 30.8749 57.7948 30.7414C57.668 30.6788 54.8804 29.3245 51.907 32.3724C51.803 32.4779 51.6656 32.5322 51.5282 32.5322Z" fill="#231F20"/>
<path d="M72.2391 29.2027C72.2391 29.2027 69.0413 27.5404 65.7314 30.9326Z" fill="white"/>
<path d="M65.7311 31.4629C65.5976 31.4629 65.4642 31.4118 65.3604 31.3113C65.1512 31.107 65.1479 30.7726 65.3522 30.5633C68.8959 26.9322 72.448 28.7149 72.4825 28.733C72.7429 28.8664 72.8434 29.1877 72.7099 29.4463C72.5748 29.705 72.2568 29.8055 71.9982 29.6721C71.8763 29.6111 69.0854 28.2519 66.11 31.3031C66.0062 31.4085 65.8678 31.4629 65.7311 31.4629Z" fill="#231F20"/>
<path d="M62.5145 34.1831C63.2312 36.5308 63.9479 38.8785 64.6645 41.2278C64.8342 41.7863 65.0072 42.3728 64.8968 42.9461C64.7552 43.6908 64.1489 44.2806 63.4619 44.6019C62.7748 44.9232 62.0088 45.0204 61.2559 45.1143" fill="white"/>
<path d="M61.2546 45.6436C60.991 45.6436 60.7636 45.4475 60.7307 45.1806C60.6945 44.8906 60.9004 44.6254 61.1904 44.5892C61.8938 44.5035 62.6204 44.4129 63.2382 44.1229C63.8544 43.8346 64.2811 43.3568 64.3783 42.8461C64.4656 42.3897 64.3025 41.8543 64.1592 41.3815L62.0092 34.3384C61.9251 34.0583 62.0817 33.7634 62.3617 33.6777C62.6418 33.5921 62.9367 33.7502 63.0207 34.0303L65.1707 41.0734C65.3421 41.6335 65.5546 42.3304 65.4178 43.0454C65.2564 43.889 64.6089 44.6501 63.6863 45.0817C62.9169 45.4425 62.0685 45.548 61.3205 45.6403C61.2991 45.6436 61.276 45.6436 61.2546 45.6436Z" fill="#231F20"/>
<path d="M56.8584 49.556C58.7761 51.0256 61.2128 51.4654 63.4023 50.7372Z" fill="white"/>
<path d="M61.2693 51.6089C59.6037 51.6089 57.9364 51.0487 56.5361 49.9762C56.3038 49.7983 56.2593 49.4655 56.4372 49.2332C56.6151 49.0025 56.9479 48.9581 57.1802 49.136C58.9529 50.4952 61.2166 50.9054 63.2348 50.2349C63.5116 50.1426 63.8114 50.2925 63.9037 50.5693C63.996 50.8477 63.846 51.1476 63.5692 51.2398C62.8213 51.487 62.0453 51.6089 61.2693 51.6089Z" fill="#231F20"/>
<path d="M32.458 33.6162C28.5646 32.407 25.2841 29.8286 22.6254 27.4266C19.891 24.957 14.5553 28.3673 15.8128 33.692C16.9995 38.7169 26.9216 39.4451 31.4735 41.3892L32.458 33.6162Z" fill="white"/>
<path d="M20.4557 27.1354C19.8473 27.1354 19.2019 27.3183 18.577 27.689C17.1043 28.5588 15.6315 30.6215 16.328 33.5706C17.1037 36.8557 22.2215 38.2 26.737 39.3862C28.3075 39.7981 29.8041 40.1902 31.0346 40.6466L31.8785 33.9841C27.9421 32.6513 24.6875 30.0037 22.2711 27.8208C21.7666 27.3644 21.1346 27.1354 20.4557 27.1354ZM31.4739 41.9185C31.4035 41.9185 31.3327 41.9053 31.2661 41.8773C30.0051 41.3385 28.2869 40.8871 26.4684 40.4094C21.6643 39.1474 16.2201 37.7173 15.2975 33.8144C14.4692 30.3052 16.2562 27.8307 18.0382 26.7779C19.7486 25.7663 21.6885 25.8668 22.9807 27.0349C25.4022 29.2228 28.6863 31.8918 32.6154 33.1109C32.8604 33.1867 33.0154 33.4272 32.9835 33.6826L31.9989 41.4555C31.9782 41.6203 31.8811 41.7669 31.737 41.8493C31.6558 41.8954 31.5648 41.9185 31.4739 41.9185Z" fill="#231F20"/>
<path d="M42.7762 37.9624C42.7762 41.8324 39.6392 44.9692 35.7695 44.9692C31.8997 44.9692 28.7627 41.8324 28.7627 37.9624C28.7627 34.0924 31.8997 30.9556 35.7695 30.9556C39.6392 30.9556 42.7762 34.0924 42.7762 37.9624Z" fill="white"/>
<path d="M35.7697 31.4849C32.1976 31.4849 29.2919 34.3911 29.2919 37.9629C29.2919 41.5347 32.1976 44.4409 35.7697 44.4409C39.3417 44.4409 42.2476 41.5347 42.2476 37.9629C42.2476 34.3911 39.3417 31.4849 35.7697 31.4849ZM35.7697 45.4985C31.6142 45.4985 28.2334 42.1179 28.2334 37.9629C28.2334 33.8079 31.6142 30.4272 35.7697 30.4272C39.9251 30.4272 43.3059 33.8079 43.3059 37.9629C43.3059 42.1179 39.9251 45.4985 35.7697 45.4985Z" fill="#231F20"/>
<path d="M39.5488 37.9628C39.5488 40.0502 37.8568 41.7422 35.7696 41.7422C33.6824 41.7422 31.9902 40.0502 31.9902 37.9628C31.9902 35.8754 33.6824 34.1834 35.7696 34.1834C37.8568 34.1834 39.5488 35.8754 39.5488 37.9628Z" fill="#5BADFD" fill-opacity="0.8"/>
<path d="M81.9364 59.1167C74.9428 59.1167 66.0495 56.0177 65.5553 55.8431C65.2802 55.7459 65.1352 55.4444 65.2324 55.1693C65.3296 54.8925 65.6311 54.7492 65.9079 54.8447C66.0627 54.9007 81.6218 60.3227 87.3369 56.9733C87.589 56.825 87.9136 56.909 88.0618 57.1611C88.2085 57.4148 88.1245 57.7377 87.8724 57.886C86.3484 58.779 84.2446 59.1167 81.9364 59.1167Z" fill="#231F20"/>
<path d="M67.7628 54.4705C67.7628 55.7144 66.7545 56.7227 65.5106 56.7227C64.2651 56.7227 63.2568 55.7144 63.2568 54.4705C63.2568 53.225 64.2651 52.2167 65.5106 52.2167C66.7545 52.2167 67.7628 53.225 67.7628 54.4705Z" fill="#231F20"/>
<path d="M65.5095 52.7454C64.5605 52.7454 63.7862 53.5197 63.7862 54.4703C63.7862 55.4209 64.5605 56.1936 65.5095 56.1936C66.4618 56.1936 67.2344 55.4209 67.2344 54.4703C67.2344 53.5197 66.4618 52.7454 65.5095 52.7454ZM65.5095 57.2529C63.9757 57.2529 62.7285 56.0041 62.7285 54.4703C62.7285 52.9348 63.9757 51.6877 65.5095 51.6877C67.045 51.6877 68.2938 52.9348 68.2938 54.4703C68.2938 56.0041 67.045 57.2529 65.5095 57.2529Z" fill="#231F20"/>
<path d="M229.843 94.5575L233.265 91.6266L228.75 82.417L225.232 79.9786L226.673 93.1355C226.705 94.7601 228.607 95.6086 229.843 94.5575Z" fill="#85BBEB"/>
<path d="M225.884 81.0748L227.199 93.0785C227.211 93.6764 227.518 94.1394 228.02 94.365C228.523 94.594 229.076 94.5151 229.499 94.1559L232.608 91.4918L228.335 82.7749L225.884 81.0748ZM228.597 95.5513C228.257 95.5513 227.91 95.4789 227.584 95.3305C226.714 94.9384 226.162 94.1015 226.145 93.146L224.705 80.0369C224.682 79.8308 224.784 79.6299 224.962 79.5243C225.139 79.4172 225.364 79.4255 225.535 79.5442L229.053 81.9825C229.127 82.0352 229.186 82.1044 229.224 82.185L233.74 91.393C233.846 91.6106 233.793 91.8724 233.609 92.029L230.187 94.96C230.185 94.96 230.185 94.9614 230.185 94.9614C229.728 95.3504 229.167 95.5513 228.597 95.5513Z" fill="#231F20"/>
<path d="M229.182 84.809L236.239 99.2017L255.425 66.5133C256.304 65.0109 254.929 63.1954 253.245 63.6352L213.028 74.1644L225.773 81.7858" fill="#85BBEB"/>
<path d="M236.238 99.7324C236.231 99.7324 236.224 99.7324 236.219 99.7306C236.023 99.7241 235.85 99.6104 235.764 99.4357L228.707 85.0414C228.576 84.7794 228.684 84.4615 228.946 84.333C229.209 84.2045 229.527 84.3134 229.656 84.5751L236.28 98.0865L254.968 66.245C255.322 65.6405 255.153 65.0324 254.873 64.6651C254.596 64.2978 254.057 63.97 253.378 64.1479L214.382 74.3573L226.046 81.3313C226.296 81.4812 226.378 81.8057 226.229 82.0562C226.078 82.3082 225.751 82.389 225.503 82.239L212.759 74.6193C212.574 74.5107 212.475 74.3014 212.504 74.0904C212.536 73.8796 212.689 73.7066 212.894 73.6523L253.11 63.1231C254.1 62.8645 255.101 63.2104 255.716 64.0259C256.336 64.843 256.397 65.8976 255.881 66.7805L236.695 99.4704C236.601 99.6319 236.427 99.7324 236.238 99.7324Z" fill="#231F20"/>
<path d="M255.191 64.2274L235.448 79.083Z" fill="white"/>
<path d="M235.453 79.6113C235.291 79.6113 235.133 79.5388 235.03 79.4004C234.852 79.1663 234.899 78.8352 235.133 78.6589L254.872 63.8033C255.109 63.6286 255.44 63.6748 255.615 63.9089C255.791 64.1428 255.746 64.4739 255.512 64.6502L235.77 79.5042C235.676 79.5767 235.563 79.6113 235.453 79.6113Z" fill="#231F20"/>
<path d="M156.618 35.5408C156.618 39.9561 154.805 43.953 151.888 46.8526C148.97 49.7505 144.93 51.5381 140.474 51.5381H103.329V35.5408C103.329 26.7069 110.558 19.5419 119.471 19.5419H140.474C149.387 19.5419 156.618 26.7069 156.618 35.5408Z" fill="white"/>
<path d="M103.858 51.009H140.474C144.652 51.009 148.573 49.3994 151.516 46.4767C154.465 43.5458 156.089 39.6627 156.089 35.5406C156.089 27.0098 149.084 20.0705 140.474 20.0705H119.472C110.862 20.0705 103.858 27.0098 103.858 35.5406V51.009ZM140.474 52.0684H103.329C103.036 52.0684 102.799 51.8311 102.799 51.5379V35.5406C102.799 26.4266 110.278 19.0128 119.472 19.0128H140.474C149.667 19.0128 157.147 26.4266 157.147 35.5406C157.147 39.946 155.412 44.0961 152.262 47.228C149.12 50.3484 144.934 52.0684 140.474 52.0684Z" fill="#231F20"/>
<path d="M145.614 33.5703H113.42V29.959H145.614V33.5703Z" fill="#85BBEB"/>
<path d="M133.416 41.5723H113.42V37.9593H133.416V41.5723Z" fill="#85BBEB"/>
<path d="M39.92 24.1221C39.8549 24.1221 39.7886 24.1089 39.7246 24.0842C39.4529 23.9754 39.3204 23.669 39.428 23.3972C40.5241 20.6409 43.401 19.2504 45.7286 18.8682C48.3367 18.4398 51.0396 18.9341 53.4239 19.369L64.8645 21.4564C66.3637 21.7299 67.6982 21.9144 68.8136 21.3889C70.2139 20.7315 70.868 19.0511 70.8943 17.6787C70.9257 16.0856 70.3194 14.5089 69.6604 13.0426C69.5401 12.7774 69.6604 12.4643 69.9256 12.3441C70.1925 12.2238 70.5055 12.3424 70.6258 12.6093C71.3359 14.1876 71.9883 15.8977 71.952 17.6985C71.9125 19.7743 70.8564 21.5981 69.265 22.3461C67.7493 23.0594 65.9716 22.7332 64.6734 22.4976L53.2338 20.4102C50.8225 19.9704 48.328 19.514 45.9001 19.9127C43.8583 20.2488 41.3442 21.4416 40.4119 23.7876C40.3292 23.9952 40.1303 24.1221 39.92 24.1221Z" fill="white"/>
<path d="M28.5923 21.771C28.5483 21.771 28.5038 21.7661 28.4593 21.7545C28.1763 21.6804 28.0061 21.3921 28.0796 21.1087C29.9426 13.9058 36.3667 7.99457 43.7014 6.73753C43.996 6.6881 44.263 6.8825 44.3123 7.17082C44.3617 7.45748 44.168 7.73261 43.8801 7.78039C36.9423 8.96989 30.8665 14.5599 29.1038 21.3739C29.0424 21.6128 28.8274 21.771 28.5923 21.771Z" fill="white"/>
<path d="M27.7887 66.7114C27.2167 66.7114 26.6559 66.6208 26.1298 66.4363C23.9747 65.6801 22.6612 63.2517 23.3185 61.2401C23.409 60.9633 23.705 60.8101 23.9856 60.9023C24.2637 60.9929 24.4151 61.2911 24.3242 61.5696C23.8472 63.0292 24.8746 64.8745 26.4801 65.4379C27.9856 65.9668 29.8641 65.512 31.2687 64.2797C32.4511 63.2434 33.3523 61.6849 33.9472 59.6469C34.9156 56.3338 34.8588 52.7027 33.7869 49.4209C33.696 49.1441 33.8474 48.8442 34.1255 48.7536C34.4061 48.663 34.7021 48.8146 34.7926 49.093C35.93 52.5742 35.9905 56.4277 34.9631 59.9435C34.3105 62.1775 33.3022 63.9041 31.9663 65.0755C30.757 66.1365 29.2372 66.7114 27.7887 66.7114Z" fill="white"/>
</svg>
