<svg width="110" height="110" viewBox="0 0 110 110" fill="none" xmlns="http://www.w3.org/2000/svg">
<path d="M72.4929 71.5234C72.2771 70.8555 72.1198 70.1681 72.0215 69.4609C72.925 69.5395 73.8481 69.6377 74.791 69.7752C73.9464 70.2662 73.1806 70.8555 72.4929 71.5234Z" fill="#E8E8E8"/>
<path d="M65.7161 69.5786C65.6571 69.991 65.5588 70.4036 65.4605 70.7965C65.0088 70.4232 64.5373 70.0893 64.0266 69.7947C64.5963 69.7161 65.1661 69.6375 65.7161 69.5786Z" fill="#E8E8E8"/>
<path d="M69.6251 75.9824C69.5268 76.2573 69.4481 76.5127 69.3891 76.7877C69.3306 76.5324 69.252 76.277 69.1733 76.0216C69.2056 76.0196 69.5575 75.9921 69.6251 75.9824Z" fill="#E8E8E8"/>
<path d="M95.4946 86.8056C92.7644 95.2912 79.0537 94.309 69.4874 94.309C59.9216 94.309 46.1913 95.2912 43.4803 86.8056C41.0446 79.2233 49.4911 73.527 58.7822 70.9145C58.2758 72.7179 59.581 73.0611 61.8662 79.3609C63.5749 77.1609 66.659 76.7877 69.3891 76.7877C72.277 76.1787 75.2038 77.1609 76.9125 79.3609C79.2555 72.9056 80.5442 72.7257 79.9769 70.8555C89.3662 73.4483 97.9499 79.1841 95.4946 86.8056Z" fill="#1976D2"/>
<path d="M11.0141 54.9927C17.2866 53.9776 23.6367 53.4892 29.9997 53.5277C32.9524 51.423 36.5551 48.0389 36.9409 48.1287C37.5193 48.2444 37.0542 51.774 36.9409 53.7719C38.6279 53.9578 41.023 53.9575 42.378 55.6745C43.381 56.9468 43.355 58.7209 43.3036 60.3277C43.1496 64.0681 43.0207 75.4056 43.0853 75.9454C43.278 77.5649 41.7225 77.899 40.4114 77.9252C25.5975 78.234 18.3763 78.4707 12.1195 77.9507C9.03959 77.6565 8.21056 76.7476 8.10907 73.5289C7.94171 68.9527 7.77475 64.3765 7.62055 59.8003C7.49023 56.1881 8.54789 55.3796 11.0141 54.9927Z" fill="#1976D2"/>
<path d="M91.7789 25.759C90.1614 24.681 87.6197 24.5976 86.0966 25.9841C86.0562 25.9034 85.9003 25.5834 85.8324 25.524C84.9211 23.8148 83.334 21.5195 82.8092 21.0564C78.2399 15.7294 70.4307 14.144 63.7994 17.1969C60.0558 18.985 60.4065 18.6703 60.194 18.9619C52.1863 20.3059 44.1752 24.231 43.4429 31.9376C43.2674 33.8398 44.3263 36.5348 46.948 38.537C41.9765 43.6334 43.2716 53.3036 48.8543 55.2538C49.9875 58.9346 51.924 61.3874 53.4754 62.8636C56.4732 65.7019 61.2508 66.7673 65.3421 66.9514C65.4345 68.2202 65.3275 69.0186 65.1335 69.9703C63.5082 68.8081 61.7528 67.7257 59.9667 68.6644C58.489 69.4446 57.6667 71.3813 58.5836 73.1685C59.6464 75.1577 60.594 77.2975 61.4035 79.5284C61.5368 79.8929 62.0172 79.9653 62.2533 79.6617C64.3904 76.9137 69.0288 77.3499 69.4908 77.2678C72.1917 76.6971 74.954 77.6399 76.525 79.6617C76.7634 79.9682 77.2427 79.8896 77.3748 79.5284C78.1843 77.2975 79.1319 75.1577 80.1946 73.1685C80.1946 73.1675 80.1946 73.1665 80.1965 73.1665C81.5926 70.5076 78.9772 67.4816 76.3217 68.4889C75.4977 68.6537 73.7098 69.8385 72.7892 70.6209C72.4394 69.2388 72.2575 68.2572 72.2492 66.4743C78.9074 65.1411 84.7572 61.5401 88.2129 55.5352C93.4572 55.1186 97.0483 47.8001 95.132 41.7525C96.5435 36.7401 95.9814 28.5299 91.7789 25.759ZM64.2118 18.0889C70.4499 15.2124 77.7949 16.7048 82.0784 21.7143C82.1033 21.7412 82.1282 21.7661 82.157 21.7882C82.1551 21.7882 82.1608 21.793 82.1743 21.8074C84.7737 24.9243 85.3878 27.0233 85.605 27.2389C87.7955 31.7124 89.0623 37.1321 89.8156 42.0731C88.9188 42.1421 88.0945 42.6752 87.4806 43.5043C83.5842 31.4486 76.1087 18.4852 63.4982 18.4188L64.2118 18.0889ZM84.4795 53.2441C80.8506 49.9149 81.2059 42.7217 84.7912 39.1091C85.5513 40.9468 86.2419 42.8072 86.8227 44.6963C86.1121 46.5241 86.384 48.5185 87.33 49.7682C86.4783 51.0453 85.5245 52.2117 84.4795 53.2441ZM47.7657 39.0885C48.5252 39.5686 47.9873 39.2821 49.1679 39.8751C47.5652 45.7906 47.6607 50.4423 48.5306 54.0482C44.1447 51.732 43.4009 43.3669 47.7657 39.0885ZM71.2537 66.6637C71.2766 68.4154 71.6042 70.2649 71.9347 71.3826C71.0163 72.307 69.9862 73.7663 69.393 75.2066C68.7646 73.671 67.5452 71.9178 66.0073 70.6287C66.2916 69.4416 66.4287 68.2402 66.3506 67.0023C67.9921 67.0306 70.4925 66.7844 71.2537 66.6637ZM62.0442 78.4321C61.2826 76.4314 60.4137 74.5093 59.4545 72.7129C58.6309 71.1185 59.802 69.2917 61.3977 69.2917C62.5359 69.2917 64.2975 70.4874 65.0654 71.1073C65.2167 71.3168 67.8166 73.1332 68.7446 76.3038C66.577 76.3537 63.8531 76.7076 62.0442 78.4321ZM76.5922 69.4298C78.5814 68.6952 80.276 70.9013 79.3276 72.7071C78.3685 74.5055 77.4976 76.4237 76.7379 78.4197C75.0814 76.7435 72.6166 75.8885 70.0759 76.1782C70.3615 75.5912 70.806 73.8135 72.8362 71.8756C74.1532 70.5917 75.9987 69.5782 76.5922 69.4298ZM54.1506 62.151C51.1907 59.3361 46.761 52.7631 50.0714 40.3155C60.4996 45.0247 72.3148 41.6724 82.3421 36.1924C80.9243 38.7345 80.8667 41.386 81.5086 42.9275C80.3395 46.5441 80.8926 51.2207 83.7597 53.9135C81.0881 56.336 78.0567 57.9855 75.3698 58.7121C75.083 57.4512 73.9574 56.5046 72.6118 56.5046C71.0484 56.5046 69.7766 57.7764 69.7766 59.3389C69.7766 60.8878 71.0484 62.1472 72.6118 62.1472C74.0399 62.1472 75.2139 61.0897 75.4057 59.7243C78.3138 58.9764 81.6256 57.1844 84.5126 54.544C85.29 55.0837 86.1484 55.4001 87.0524 55.5169C79.3223 68.1571 60.4459 68.109 54.1506 62.151ZM85.2631 53.8485C86.2798 52.8355 87.2068 51.6962 88.046 50.4616C90.3363 52.063 92.8863 49.5361 93.0613 46.4909C93.1792 44.4296 92.2206 42.7061 90.8294 42.207C90.5887 40.5849 90.288 38.9666 89.9288 37.3483C93.3389 38.2008 94.8383 42.3116 94.6505 45.8603C94.3003 51.8952 89.4697 56.505 85.2631 53.8485Z" fill="#1976D2"/>
<path d="M62.0405 54.6237C60.5431 55.2703 58.4822 54.8874 59.3991 53.5783C59.7841 53.0371 61.6893 51.7765 61.6108 48.893C61.592 48.2401 60.6101 48.2675 60.6287 48.9217C60.7408 52.3426 57.6631 52.5612 58.2558 54.6161C58.7 56.1248 60.9801 56.1525 62.4318 55.5253C63.0227 55.2688 62.6449 54.3692 62.0405 54.6237Z" fill="black"/>
<path d="M72.9419 46.9421C73.4306 46.9421 73.6187 46.304 73.2085 46.0386C72.119 45.3327 70.8855 44.5318 69.5658 44.2728C68.0178 43.9659 66.581 44.4858 65.6238 45.6991C65.2216 46.2064 65.9935 46.8193 66.3949 46.3072C68.6997 43.38 72.3616 46.9421 72.9419 46.9421Z" fill="black"/>
<path d="M53.7152 45.236C54.8431 45.4585 55.948 46.173 57.0145 46.8636C57.5595 47.2122 58.0971 46.3942 57.5478 46.0388C56.4026 45.2974 55.2191 44.531 53.9051 44.273C52.3494 43.968 50.9145 44.4869 49.9631 45.7002C49.5598 46.2089 50.3355 46.8173 50.7342 46.3064C51.4516 45.3933 52.5431 45.0096 53.7152 45.236Z" fill="black"/>
<path d="M60.9834 60.8541C59.9476 61.6224 58.63 61.4665 57.7857 60.763C57.2838 60.3517 56.6589 61.1017 57.1565 61.5188C59.2534 63.2606 62.3114 61.824 61.6702 60.9577C61.511 60.74 61.2021 60.6968 60.9834 60.8541Z" fill="black"/>
<path d="M102.272 39.2492C102.686 38.7427 101.912 38.1256 101.512 38.6276L98.1917 42.702C97.7779 43.2054 98.5473 43.8266 98.9513 43.3216L102.272 39.2492Z" fill="black"/>
<path d="M102.026 46.0883L99.4806 45.368C98.8407 45.1959 98.5966 46.1395 99.2121 46.3137L101.758 47.034C102.382 47.2105 102.651 46.2676 102.026 46.0883Z" fill="black"/>
<path d="M55.014 49.6193C54.1075 50.3263 52.7633 50.1436 52.0963 49.1781C51.729 48.6454 50.9167 49.1996 51.2868 49.7363C52.2604 51.1442 54.2456 51.4691 55.6201 50.3923C56.1345 49.9891 55.5211 49.2172 55.014 49.6193Z" fill="black"/>
<path d="M70.3156 49.4885C69.9147 49.8136 69.3891 49.9997 68.8712 49.9997H68.8597C68.3379 49.9968 67.8104 49.8031 67.4095 49.4702C66.9157 49.0572 66.2787 49.8038 66.7803 50.2241C67.9862 51.229 69.7305 51.2286 70.9333 50.25C71.4412 49.8391 70.8136 49.0781 70.3156 49.4885Z" fill="black"/>
<path d="M28.8873 59.4647C26.5574 63.4275 23.7223 67.0604 21.2067 70.9761C21.059 71.2044 21.1261 71.5084 21.3544 71.6552C21.4349 71.7079 21.527 71.7329 21.6191 71.7329C21.7802 71.7329 21.9375 71.6533 22.0315 71.5075C24.5537 67.5897 27.4093 63.9192 29.7352 59.9615C30.0635 59.3997 29.2163 58.905 28.8873 59.4647Z" fill="white"/>
<path d="M23.85 61.9911C23.7388 61.1585 22.9523 59.9117 21.9241 59.7697C21.0263 59.6383 19.956 60.374 19.5627 61.1096C18.7622 62.6148 19.7888 64.5337 21.6229 64.5337C23.0466 64.5337 24.0156 63.237 23.85 61.9911ZM20.4298 61.5719C20.6523 61.1547 21.3544 60.6819 21.7898 60.7423C22.2636 60.8075 22.8026 61.5738 22.8755 62.1205C22.9465 62.6471 22.6166 63.2303 22.1255 63.4489C21.0098 63.9545 19.8248 62.713 20.4298 61.5719Z" fill="white"/>
<path d="M29.4821 67.6938C28.5555 67.5538 27.512 68.3 27.1207 69.0347C26.0697 71.0109 28.13 73.1423 30.0844 72.2708C30.9802 71.8718 31.5365 70.881 31.408 69.9161C31.2967 69.0846 30.5102 67.8367 29.4821 67.6938ZM29.6854 71.373C28.5508 71.8766 27.3887 70.6236 27.9877 69.497C28.2122 69.0788 28.9008 68.6098 29.3478 68.6664C29.8216 68.7326 30.3606 69.4989 30.4335 70.0456C30.5045 70.5712 30.1745 71.1553 29.6854 71.373Z" fill="white"/>
</svg>
