<svg width="27" height="24" viewBox="0 0 27 24" fill="none" xmlns="http://www.w3.org/2000/svg">
<path d="M15.7542 3.42606L1.55291 11.8202L11.2355 18.2734L25.434 9.88366L15.7542 3.42606Z" fill="#0F2F60"/>
<path fill-rule="evenodd" clip-rule="evenodd" d="M25.9193 9.89649L11.2276 18.5778L1.06816 11.8067L15.7629 3.12092L25.9193 9.89649ZM15.7463 3.73063L2.03869 11.8329L11.2441 17.9682L24.9491 9.86999L15.7463 3.73063Z" fill="#0F2F60"/>
<path fill-rule="evenodd" clip-rule="evenodd" d="M1.2915 11.8203H1.80793V14.2642L11.3759 20.6429L11.0894 21.0726L1.2915 14.5406V11.8203Z" fill="#0F2F60"/>
<path fill-rule="evenodd" clip-rule="evenodd" d="M10.9741 20.8575V18.2754H11.4905V20.8575H10.9741Z" fill="#0F2F60"/>
<path fill-rule="evenodd" clip-rule="evenodd" d="M25.565 12.6868L11.3633 21.0787L11.1006 20.6341L25.3022 12.2422L25.565 12.6868Z" fill="#0F2F60"/>
<path fill-rule="evenodd" clip-rule="evenodd" d="M25.1758 12.4659V9.88379H25.6922V12.4659H25.1758Z" fill="#0F2F60"/>
<path fill-rule="evenodd" clip-rule="evenodd" d="M0.0433941 16.1951C0.122498 16.0764 0.282814 16.0444 0.40147 16.1235L10.0844 22.5788C10.2031 22.6579 10.2351 22.8182 10.156 22.9368C10.0769 23.0555 9.91661 23.0876 9.79796 23.0085L0.115009 16.5532C-0.00364664 16.4741 -0.0357098 16.3137 0.0433941 16.1951Z" fill="#0F2F60"/>
<path fill-rule="evenodd" clip-rule="evenodd" d="M26.3018 14.9155C26.3744 15.0382 26.3337 15.1966 26.2109 15.2691L12.0092 23.661C11.8865 23.7336 11.7281 23.6928 11.6556 23.5701C11.583 23.4473 11.6237 23.289 11.7465 23.2164L25.9482 14.8245C26.071 14.752 26.2293 14.7927 26.3018 14.9155Z" fill="#0F2F60"/>
</svg>
