<svg width="88" height="92" viewBox="0 0 88 92" fill="none" xmlns="http://www.w3.org/2000/svg">
<g opacity="0.4">
<path fill-rule="evenodd" clip-rule="evenodd" d="M11.416 22.0137H73.4826V30.028H11.416V22.0137Z" fill="#3BAAF9"/>
<path fill-rule="evenodd" clip-rule="evenodd" d="M2.34002 30.0283H81.3091C82.5927 30.0283 83.6491 31.0789 83.6491 32.3626V39.2352C83.6491 40.5187 82.5927 41.5752 81.3091 41.5752H2.34002C1.05077 41.5752 0 40.5187 0 39.2352V32.3626C0 31.0789 1.05077 30.0283 2.34002 30.0283Z" fill="#6BC1FF"/>
<path fill-rule="evenodd" clip-rule="evenodd" d="M41.825 41.5752H41.5298H4.56641L8.76371 74.3475C9.23507 78.0506 10.871 81.1576 16.2891 81.1576L41.6769 81.1518L67.0648 81.1576C72.4833 81.1576 74.119 78.0506 74.596 74.3475L78.7931 41.5752H41.825Z" fill="#A2D8FF"/>
<path fill-rule="evenodd" clip-rule="evenodd" d="M52.2921 50.6284H56.1599C56.8246 50.6284 57.364 51.1681 57.364 51.8268V69.048C57.364 69.7069 56.8244 70.2464 56.1599 70.2464H52.2921C51.6334 70.2464 51.0938 69.7069 51.0938 69.048V51.8268C51.0938 51.1681 51.6334 50.6284 52.2921 50.6284Z" fill="white"/>
<path fill-rule="evenodd" clip-rule="evenodd" d="M40.0753 48.6802H44.0567C44.7324 48.6802 45.2892 49.2366 45.2892 49.9185V71.2685C45.2892 71.9502 44.7324 72.501 44.0567 72.501H40.0753C39.3994 72.501 38.8428 71.9502 38.8428 71.2685V49.9185C38.8426 49.2366 39.3992 48.6802 40.0753 48.6802Z" fill="white"/>
<path fill-rule="evenodd" clip-rule="evenodd" d="M31.136 0.106921L36.7472 2.11199C37.7013 2.45851 38.2069 3.52048 37.8659 4.48038L26.6827 35.7135C26.3422 36.6732 25.2744 37.1732 24.3201 36.8324L18.7087 34.8273C17.7546 34.4808 17.2493 33.4189 17.5956 32.4646L28.7731 1.2258C29.1196 0.266095 30.1817 -0.233633 31.136 0.106921Z" fill="#6BC1FF"/>
<path fill-rule="evenodd" clip-rule="evenodd" d="M51.6163 0.106921L46.0103 2.11199C45.0562 2.45851 44.5508 3.52048 44.8916 4.48038L56.0748 35.7135C56.4154 36.6732 57.4833 37.1732 58.4374 36.8324L64.043 34.8273C65.0031 34.4808 65.5086 33.4189 65.1619 32.4646L53.9846 1.2258C53.6379 0.266095 52.576 -0.233633 51.6163 0.106921Z" fill="#6BC1FF"/>
<path fill-rule="evenodd" clip-rule="evenodd" d="M74.0453 91.3071C81.2926 91.3071 87.205 85.3945 87.205 78.147C87.205 70.894 81.2925 64.9814 74.0453 64.9814C66.7983 64.9814 60.8857 70.894 60.8857 78.147C60.8857 85.3945 66.7983 91.3071 74.0453 91.3071Z" fill="#E3F2FD"/>
<path d="M77.727 80.6285H70.6776C69.5714 80.6285 68.9101 80.293 68.6931 79.6214C68.5942 79.2659 68.5449 78.8119 68.5449 78.2588C68.5449 77.7062 68.6041 77.2619 68.7228 76.9259C68.8413 76.5904 69.0286 76.3534 69.2856 76.2149C69.6409 76.0371 70.1148 75.9482 70.7073 75.9482H77.7565C78.8621 75.9482 79.5137 76.2741 79.7115 76.9257C79.83 77.2812 79.8892 77.7355 79.8892 78.2881C79.8892 78.8412 79.8345 79.2905 79.7263 79.6359C79.6175 79.9817 79.4449 80.2235 79.2079 80.3616C78.8524 80.5397 78.3586 80.6285 77.727 80.6285Z" fill="white"/>
<path fill-rule="evenodd" clip-rule="evenodd" d="M27.2676 50.6284H31.1356C31.7943 50.6284 32.3338 51.1681 32.3338 51.8268V69.048C32.3338 69.7069 31.7943 70.2464 31.1356 70.2464H27.2676C26.603 70.2464 26.0635 69.7069 26.0635 69.048V51.8268C26.0635 51.1681 26.603 50.6284 27.2676 50.6284Z" fill="white"/>
</g>
</svg>
