<svg width="99" height="90" viewBox="0 0 99 90" fill="none" xmlns="http://www.w3.org/2000/svg">
<g filter="url(#filter0_d_580_2322)">
<path d="M96.8302 37.1104C96.7085 35.5896 95.0832 35.4464 94.3244 35.1726C92.2188 34.4485 72.4593 28.3759 70.3428 27.5628C68.5054 26.7893 64.6416 27.5011 62.6815 27.8585C50.1353 31.0519 42.8898 33.0719 38.687 34.4341C40.5393 32.2266 44.9351 23.7452 46.2023 21.1594C46.9115 19.7101 46.7129 18.0181 45.6991 16.8454C45.6962 16.8425 45.6918 16.8381 45.6888 16.8351C42.5846 13.3395 33.1478 1.40947 32.0862 0.42952C31.2184 -0.416561 30.1227 0.229505 29.7541 0.338296C28.5758 0.713014 16.3506 5.04487 15.2141 5.35267C14.2048 5.60286 12.3886 7.10128 11.6711 8.01582L11.3121 8.4587C-0.616154 23.1423 -0.543881 23.8012 0.353457 24.8481C4.16539 29.6153 8.28369 34.8218 11.7373 39.135C12.991 40.6928 14.0863 41.7496 16.1661 41.7496C19.0854 41.7496 28.9684 39.0233 32.8662 37.781C33.3698 52.5827 33.5835 59.677 33.8694 67.7543C33.9356 69.4728 34.0195 71.6136 35.2569 73.3601C36.4281 75.0286 51.5448 84.3659 58.8207 86.8524C65.4122 89.131 67.9723 88.7831 73.3253 86.5405C78.3484 84.4561 93.2708 78.3133 95.4986 77.1636C97.5835 76.088 98.8209 73.9457 98.6546 71.7078C98.6546 71.7034 98.6532 71.699 98.6532 71.6931C97.8212 62.1282 97.3363 39.6869 96.8302 37.1104ZM93.9666 37.4232C92.7876 37.8811 67.1095 48.4095 66.1142 48.8606C65.8633 48.7541 64.3987 47.6879 54.7631 44.2281L81.0685 33.3706C96.113 38.0813 92.9805 37.1587 93.9666 37.4232ZM64.1484 29.8169C68.0973 28.7308 70.8935 30.1588 73.4148 30.961L45.4442 40.9559C43.1882 40.1696 38.4921 38.5348 36.3012 37.6278C42.6885 35.1976 63.5048 29.991 64.1484 29.8169ZM43.9938 18.33C44.4176 18.8214 44.4853 19.5248 44.1719 20.1648C43.0721 22.4144 38.3625 31.61 36.5804 33.4046C32.7152 29.1865 26.6148 22.4036 22.8416 18.2878C22.9278 18.1363 31.6432 3.62108 31.7411 3.47026C35.8531 8.30338 39.7897 13.5933 43.9938 18.33ZM17.8317 39.2836C15.4166 39.7335 14.9603 39.5386 13.5 37.721C10.0764 33.4434 6.77234 29.2649 3.20936 24.8025C7.00113 23.7818 17.59 20.155 21.0067 19.6335C25.4279 24.4514 30.2062 29.7906 34.6993 34.6988C30.2838 36.7615 17.9825 39.2482 17.8317 39.2836ZM37.1049 72.058C35.8504 70.2886 36.2417 69.9721 35.1922 39.6087C37.3008 40.5093 42.1537 42.2018 44.3232 42.9584L44.3661 48.9724C44.369 49.4683 44.6957 49.9038 45.1709 50.0465L51.2211 51.8666C51.9414 52.0867 52.6763 51.5422 52.6763 50.7851V45.8837C63.4032 49.6966 64.604 50.647 64.9043 50.7712C64.8613 56.4365 64.6799 80.3918 64.6737 86.0579C56.0899 85.0546 38.1145 73.2499 37.1049 72.058ZM94.4627 75.1552C92.3429 76.2481 76.6299 82.7251 72.4528 84.4556C70.5341 85.259 68.7935 85.9387 66.9308 86.1021C66.9429 80.4493 67.122 56.3866 67.1636 50.8752C68.4424 50.2969 94.6061 39.6011 94.757 39.5425C95.5 50.0906 95.4797 61.2895 96.4005 71.8829C96.4991 73.2336 95.7561 74.4872 94.4627 75.1552Z" fill="#1976D2"/>
</g>
<path d="M6.44055 46.8242C5.81669 46.8242 5.31055 47.3304 5.31055 47.9542V59.7236C5.31055 60.3474 5.81669 60.8536 6.44055 60.8536C7.0644 60.8536 7.57055 60.3474 7.57055 59.7236V47.9542C7.57055 47.3304 7.0644 46.8242 6.44055 46.8242Z" fill="#64B5F6"/>
<path d="M15.9924 66.5534V50.9689C15.9924 50.345 15.4863 49.8389 14.8624 49.8389C14.2386 49.8389 13.7324 50.345 13.7324 50.9689V66.5534C13.7324 67.1773 14.2386 67.6835 14.8624 67.6835C15.4863 67.6835 15.9924 67.1773 15.9924 66.5534Z" fill="#64B5F6"/>
<path d="M25.8962 60.7093V49.858C25.8962 49.2342 25.3901 48.728 24.7662 48.728C24.1424 48.728 23.6362 49.2342 23.6362 49.858V60.7093C23.6362 61.3331 24.1424 61.8393 24.7662 61.8393C25.3901 61.8393 25.8962 61.3331 25.8962 60.7093Z" fill="#64B5F6"/>
<path d="M91.0815 54.6812C91.0418 54.0588 90.543 53.5895 89.8823 53.6233C89.2599 53.663 88.7862 54.1986 88.8244 54.8225C88.9274 56.4557 89.0392 58.1242 89.1525 59.7912C89.4159 63.6785 89.6866 67.6968 89.8029 71.181C89.8235 71.7916 90.3252 72.2727 90.9329 72.2727H90.9711C91.595 72.2506 92.0835 71.7283 92.0629 71.1045C91.9452 67.5835 91.6715 63.5446 91.4067 59.6382C91.2948 57.9756 91.1815 56.3115 91.0815 54.6812Z" fill="#64B5F6"/>
<path d="M89.6485 50.095C89.6647 50.095 89.6794 50.095 89.6941 50.0935C90.3179 50.0699 90.8035 49.5447 90.7785 48.9208C90.7735 48.7692 90.7514 48.0997 90.7564 48.2513C90.7071 46.7607 88.4483 46.8469 88.4979 48.3485L88.5214 49.0091C88.545 49.6168 89.0452 50.095 89.6485 50.095Z" fill="#64B5F6"/>
<defs>
<filter id="filter0_d_580_2322" x="0" y="0" width="98.6694" height="89.4009" filterUnits="userSpaceOnUse" color-interpolation-filters="sRGB">
<feFlood flood-opacity="0" result="BackgroundImageFix"/>
<feColorMatrix in="SourceAlpha" type="matrix" values="0 0 0 0 0 0 0 0 0 0 0 0 0 0 0 0 0 0 127 0" result="hardAlpha"/>
<feOffset dy="1"/>
<feComposite in2="hardAlpha" operator="out"/>
<feColorMatrix type="matrix" values="0 0 0 0 0 0 0 0 0 0 0 0 0 0 0 0 0 0 0.1 0"/>
<feBlend mode="normal" in2="BackgroundImageFix" result="effect1_dropShadow_580_2322"/>
<feBlend mode="normal" in="SourceGraphic" in2="effect1_dropShadow_580_2322" result="shape"/>
</filter>
</defs>
</svg>
