<svg width="324" height="280" viewBox="0 0 324 280" fill="none" xmlns="http://www.w3.org/2000/svg">
<path d="M129.181 70.4104C140.376 63.8363 151.353 55.7525 157.232 44.1792C163.112 32.6059 162.374 16.8134 152.502 8.38413C145.315 2.24836 135.213 1.20097 125.786 0.543565C113.622 -0.305118 100.846 -0.845526 89.8329 4.38771C75.7726 11.0695 67.2318 26.2937 64.9452 41.6907C62.9206 55.3179 62.2804 80.6428 78.1179 87.0423C93.5274 93.2691 116.537 77.8349 129.181 70.4104Z" fill="#ACC9DE"/>
<path d="M324 272.666C324 268.615 251.47 265.332 162 265.332C72.5296 265.332 0 268.615 0 272.666C0 276.716 72.5296 280 162 280C251.47 280 324 276.716 324 272.666Z" fill="#ACC9DE"/>
<path d="M309.108 237.8H72.3794V212.79H309.108V237.8Z" fill="#202249"/>
<path d="M81.3792 233.234H299.959V218.139H81.3792V233.234ZM300.552 233.729H80.6582V217.645H300.552V233.729Z" fill="#DBBB9C"/>
<path d="M282.324 223.657H101.381V223.163H282.324V223.657Z" fill="#DBBB9C"/>
<path d="M282.324 227.897H101.381V227.403H282.324V227.897Z" fill="#DBBB9C"/>
<path d="M302.138 212.768H58.9263V183.67H301.764C303.793 183.67 305.44 185.317 305.44 187.347V209.467C305.44 211.29 303.961 212.768 302.138 212.768Z" fill="#7282B3"/>
<path d="M298.182 210.204H58.9258V185.895H298.182C299.951 185.895 301.386 187.329 301.386 189.1V206.999C301.386 208.769 299.951 210.204 298.182 210.204Z" fill="#F7F4F2"/>
<path d="M295.871 189.25H61.1886C59.9401 189.25 58.9263 189.058 58.9263 188.82C58.9263 188.583 59.9401 188.391 61.1886 188.391H295.871C297.12 188.391 298.133 188.583 298.133 188.82C298.133 189.058 297.12 189.25 295.871 189.25Z" fill="#DCE1E5"/>
<path d="M295.871 192.93H61.1886C59.9401 192.93 58.9263 192.737 58.9263 192.501C58.9263 192.263 59.9401 192.071 61.1886 192.071H295.871C297.12 192.071 298.133 192.263 298.133 192.501C298.133 192.737 297.12 192.93 295.871 192.93Z" fill="#DCE1E5"/>
<path d="M295.871 196.609H61.1886C59.9401 196.609 58.9263 196.417 58.9263 196.179C58.9263 195.943 59.9401 195.749 61.1886 195.749H295.871C297.12 195.749 298.133 195.943 298.133 196.179C298.133 196.417 297.12 196.609 295.871 196.609Z" fill="#DCE1E5"/>
<path d="M295.871 200.29H61.1886C59.9401 200.29 58.9263 200.098 58.9263 199.861C58.9263 199.623 59.9401 199.431 61.1886 199.431H295.871C297.12 199.431 298.133 199.623 298.133 199.861C298.133 200.098 297.12 200.29 295.871 200.29Z" fill="#DCE1E5"/>
<path d="M295.871 203.97H61.1886C59.9401 203.97 58.9263 203.777 58.9263 203.54C58.9263 203.303 59.9401 203.11 61.1886 203.11H295.871C297.12 203.11 298.133 203.303 298.133 203.54C298.133 203.777 297.12 203.97 295.871 203.97Z" fill="#DCE1E5"/>
<path d="M295.871 207.649H61.1886C59.9401 207.649 58.9263 207.457 58.9263 207.221C58.9263 206.983 59.9401 206.791 61.1886 206.791H295.871C297.12 206.791 298.133 206.983 298.133 207.221C298.133 207.457 297.12 207.649 295.871 207.649Z" fill="#DCE1E5"/>
<path d="M280.651 266.815H56.4896C55.5649 266.815 54.8164 266.066 54.8164 265.141V239.473C54.8164 238.548 55.5649 237.8 56.4896 237.8H280.651C281.575 237.8 282.324 238.548 282.324 239.473V265.141C282.324 266.066 281.575 266.815 280.651 266.815Z" fill="#202249"/>
<path d="M282.324 261.633L66.2293 261.577C63.3161 261.575 60.9561 260.044 60.9561 258.154V245.549C60.9561 243.655 63.3278 242.121 66.2482 242.126L282.324 242.571V261.633Z" fill="#F7F4F2"/>
<path d="M117.387 271.272L111.805 267.635L106.222 271.272V255.318H117.387V271.272Z" fill="#7282B3"/>
<path d="M282.71 208.453L277.128 204.816L271.545 208.453V192.5H282.71V208.453Z" fill="#7282B3"/>
<path d="M216.073 203.352L199.412 203.299L199.345 224.476L216.006 224.53L216.073 203.352Z" fill="#F9B69F"/>
<path d="M194.365 233.753C194.537 232.243 196.43 223.046 198.001 219.719C199.443 216.662 201.663 223.457 205.019 223.3C207.646 223.178 213.158 219.921 215.427 218.513C215.954 218.186 216.646 218.374 216.932 218.924C217.985 220.942 220.755 225.249 225.592 226.22C231.964 227.498 240.682 228.879 240.665 233.901C240.661 235.212 194.365 233.753 194.365 233.753Z" fill="#7282B3"/>
<path d="M240.665 238.095L195.584 238.241C194.905 238.243 194.353 237.691 194.357 237.012L194.37 232.411L240.678 233.9L240.665 238.095Z" fill="#3E435B"/>
<path d="M218.386 227.012C218.402 227.012 218.418 227.01 218.436 227.006C220.287 226.601 221.552 225.667 222.118 224.929C222.197 224.827 222.178 224.682 222.076 224.604C221.976 224.525 221.83 224.546 221.751 224.646C221.236 225.321 220.066 226.175 218.337 226.554C218.213 226.582 218.133 226.705 218.16 226.83C218.184 226.937 218.279 227.012 218.386 227.012Z" fill="white"/>
<path d="M221.371 229.093C221.401 229.093 221.432 229.086 221.462 229.074L221.801 228.931C223.462 228.234 224.222 227.915 225.326 226.243C225.395 226.137 225.365 225.993 225.258 225.923C225.152 225.853 225.008 225.882 224.938 225.989C223.913 227.543 223.242 227.825 221.622 228.505L221.281 228.648C221.163 228.697 221.108 228.833 221.158 228.95C221.195 229.039 221.281 229.092 221.371 229.093Z" fill="white"/>
<path d="M215.182 224.418C217.234 224.424 218.942 223.553 219.66 222.739C219.745 222.644 219.737 222.498 219.641 222.414C219.545 222.329 219.399 222.337 219.315 222.433C218.662 223.171 217.091 223.961 215.183 223.955C215.054 223.955 214.952 224.058 214.952 224.186C214.952 224.314 215.054 224.418 215.182 224.418Z" fill="white"/>
<path d="M199.031 178.968C199.215 177.461 201.179 168.279 202.774 164.963C204.24 161.917 206.407 168.73 209.765 168.599C212.391 168.496 217.929 165.284 220.21 163.893C220.738 163.57 221.429 163.764 221.712 164.316C222.749 166.341 225.486 170.671 230.316 171.678C236.676 173.006 245.383 174.454 245.328 179.477C245.315 180.787 199.031 178.968 199.031 178.968Z" fill="#7282B3"/>
<path d="M245.292 183.67L200.215 183.466C199.535 183.463 198.986 182.907 198.994 182.227L199.045 177.626L245.34 179.476L245.292 183.67Z" fill="#3E435B"/>
<path d="M223.103 172.415C223.119 172.416 223.135 172.414 223.153 172.41C225.006 172.019 226.28 171.095 226.851 170.361C226.93 170.26 226.912 170.114 226.812 170.036C226.712 169.957 226.565 169.975 226.487 170.076C225.965 170.746 224.79 171.592 223.056 171.957C222.931 171.984 222.852 172.107 222.879 172.231C222.901 172.339 222.997 172.414 223.103 172.415Z" fill="white"/>
<path d="M226.073 174.519C226.104 174.519 226.134 174.513 226.163 174.5L226.503 174.361C228.171 173.677 228.933 173.363 230.049 171.7C230.119 171.594 230.09 171.45 229.984 171.379C229.879 171.308 229.734 171.337 229.664 171.443C228.626 172.989 227.952 173.266 226.327 173.932L225.986 174.073C225.869 174.122 225.811 174.257 225.862 174.375C225.898 174.463 225.983 174.517 226.073 174.519Z" fill="white"/>
<path d="M219.919 169.796C221.97 169.819 223.684 168.961 224.408 168.153C224.495 168.059 224.486 167.912 224.392 167.826C224.297 167.741 224.15 167.748 224.065 167.844C223.408 168.576 221.83 169.355 219.922 169.334C219.795 169.332 219.69 169.434 219.688 169.563C219.688 169.69 219.789 169.795 219.919 169.796Z" fill="white"/>
<path d="M145.995 146.013C145.995 146.013 180.184 84.7145 193.517 86.5024C209.566 88.6535 220.427 99.5873 218.59 125.661C216.751 151.732 145.995 146.013 145.995 146.013Z" fill="#B0998E"/>
<mask id="mask0_1015_47560" style="mask-type:luminance" maskUnits="userSpaceOnUse" x="145" y="86" width="74" height="61">
<path d="M145.995 146.013C145.995 146.013 180.182 84.7155 193.515 86.5033C209.565 88.6542 220.426 99.5879 218.588 125.661C216.75 151.732 145.995 146.013 145.995 146.013Z" fill="white"/>
</mask>
<g mask="url(#mask0_1015_47560)">
<mask id="mask1_1015_47560" style="mask-type:luminance" maskUnits="userSpaceOnUse" x="155" y="140" width="1" height="1">
<path d="M155.3 140.639L155.306 140.603C155.314 140.613 155.323 140.622 155.332 140.631C155.322 140.633 155.31 140.637 155.3 140.639Z" fill="white"/>
</mask>
<g mask="url(#mask1_1015_47560)">
<path d="M155.299 140.603H155.331V140.639H155.299" fill="#D7CBC5"/>
</g>
</g>
<mask id="mask2_1015_47560" style="mask-type:luminance" maskUnits="userSpaceOnUse" x="145" y="86" width="74" height="61">
<path d="M145.995 146.013C145.995 146.013 180.182 84.7155 193.515 86.5033C209.565 88.6542 220.426 99.5879 218.588 125.661C216.75 151.732 145.995 146.013 145.995 146.013Z" fill="white"/>
</mask>
<g mask="url(#mask2_1015_47560)">
<path d="M171.179 129.012L172.236 122.26L172.677 122.329L171.686 128.661C171.477 128.807 171.307 128.923 171.179 129.012ZM172.746 121.888L172.305 121.819L174.386 108.536L174.827 108.606L172.746 121.888ZM174.895 108.165L174.455 108.095L175.611 100.711C175.797 100.478 175.984 100.247 176.17 100.018L174.895 108.165Z" fill="#D7CBC5"/>
<path d="M187.143 116.868L188.11 110.685L188.55 110.754L187.663 116.428C187.49 116.576 187.315 116.724 187.143 116.868ZM188.62 110.313L188.18 110.244L190.258 96.9619L190.7 97.031L188.62 110.313ZM190.769 96.5895L190.328 96.5203L191.539 88.7819L191.936 89.1307L190.769 96.5895Z" fill="#D7CBC5"/>
<path d="M199.017 130.812L199.685 126.559L200.124 126.628L199.483 130.731C199.33 130.757 199.172 130.785 199.017 130.812ZM200.194 126.186L199.753 126.118L200.67 120.256C200.865 119.994 201.056 119.733 201.245 119.476L200.194 126.186Z" fill="#D7CBC5"/>
<path d="M213.372 128.943L213.408 128.707L213.849 128.776L213.826 128.923C213.676 128.93 213.526 128.935 213.372 128.943ZM213.918 128.334L213.477 128.265L215.558 114.984L215.998 115.053L213.918 128.334ZM216.067 114.611L215.627 114.542L216.834 106.824C216.946 106.765 217.058 106.704 217.167 106.646C217.198 106.76 217.229 106.875 217.26 106.991L216.067 114.611Z" fill="#D7CBC5"/>
<path d="M217.908 129.071C217.162 128.95 216.253 128.894 215.196 128.894C215.016 128.894 214.832 128.895 214.642 128.899L213.851 128.776L213.409 128.706L200.127 126.626L199.686 126.557L196.338 126.032C196.442 125.897 196.544 125.764 196.646 125.629L199.755 126.115L200.196 126.185L213.479 128.265L213.92 128.334L217.944 128.964C217.932 129.001 217.92 129.035 217.908 129.071ZM179.034 123.324L172.68 122.328L172.238 122.259L166.501 121.363L166.222 120.866L172.308 121.818L172.747 121.887L179.525 122.95C179.361 123.076 179.196 123.199 179.034 123.324Z" fill="#D7CBC5"/>
<path d="M218.626 115.463L215.999 115.052L215.558 114.982L205.679 113.436C205.785 113.298 205.886 113.161 205.983 113.032L215.626 114.542L216.067 114.611L218.589 115.005C218.603 115.158 218.613 115.308 218.626 115.463ZM193.201 111.483L188.551 110.754L188.111 110.685L174.827 108.606L174.387 108.537L170.153 107.874C170.252 107.737 170.349 107.605 170.448 107.468L174.456 108.096L174.895 108.166L188.178 110.244L188.619 110.313L193.609 111.094C193.475 111.224 193.338 111.353 193.201 111.483Z" fill="#D7CBC5"/>
<path d="M201.084 98.6562L190.7 97.0305L190.259 96.9622L180.159 95.3803C180.281 95.2469 180.402 95.1167 180.524 94.9849L190.329 96.5195L190.77 96.5895L200.288 98.0785L201.084 98.6562Z" fill="#D7CBC5"/>
</g>
<path d="M141.792 144.174C141.792 144.174 209.367 125.775 219.052 129.359C228.738 132.943 230.086 142.486 228.039 157.313C225.764 173.791 217.333 215.287 217.333 215.287H197.679L195.051 163.108C195.051 163.108 153.987 188.221 135.41 185.764C120.645 183.812 112.995 168.476 112.507 149.439L141.792 144.174Z" fill="#DBBFB1"/>
<mask id="mask3_1015_47560" style="mask-type:luminance" maskUnits="userSpaceOnUse" x="112" y="128" width="117" height="88">
<path d="M141.793 144.174C141.793 144.174 209.368 125.774 219.053 129.358C228.738 132.943 229.99 141.852 228.04 157.312C225.958 173.817 217.333 215.287 217.333 215.287H197.681L195.051 163.108C195.051 163.108 152.248 188.756 135.41 185.764C120.746 183.159 112.995 168.475 112.508 149.438L141.793 144.174Z" fill="white"/>
</mask>
<g mask="url(#mask3_1015_47560)">
<path d="M116.151 300.829L115.704 300.831L114.446 47.1922L114.892 47.19L116.151 300.829Z" fill="white"/>
<path d="M130.041 300.76L129.595 300.762L128.336 47.1226L128.783 47.1203L130.041 300.76Z" fill="white"/>
<path d="M143.931 300.691L143.484 300.693L142.226 47.0553L142.672 47.054L143.931 300.691Z" fill="white"/>
<path d="M157.822 300.622L157.375 300.624L156.117 46.9868L156.563 46.9841L157.822 300.622Z" fill="white"/>
<path d="M171.713 300.554L171.267 300.556L170.008 46.9175L170.454 46.916L171.713 300.554Z" fill="white"/>
<path d="M185.603 300.484L185.157 300.486L183.897 46.849L184.344 46.8459L185.603 300.484Z" fill="white"/>
<path d="M199.495 300.415L199.048 300.417L197.788 46.7781L198.236 46.7765L199.495 300.415Z" fill="white"/>
<path d="M213.386 300.346L212.94 300.348L211.681 46.7092L212.127 46.7074L213.386 300.346Z" fill="white"/>
<path d="M227.276 300.277L226.831 300.28L225.57 46.6417L226.017 46.6382L227.276 300.277Z" fill="white"/>
<path d="M257.844 180.473L97.8365 181.267L97.8345 180.82L257.842 180.026L257.844 180.473Z" fill="white"/>
<path d="M257.776 166.582L97.7676 167.376L97.7656 166.93L257.774 166.136L257.776 166.582Z" fill="white"/>
<path d="M257.708 152.691L97.6989 153.485L97.6968 153.038L257.704 152.244L257.708 152.691Z" fill="white"/>
<path d="M257.637 138.801L97.6296 139.595L97.6274 139.148L257.636 138.354L257.637 138.801Z" fill="white"/>
<path d="M257.972 206.134L97.9641 206.928L97.9619 206.481L257.97 205.687L257.972 206.134Z" fill="white"/>
<path d="M257.904 192.242L97.8957 193.036L97.8936 192.59L257.902 191.796L257.904 192.242Z" fill="white"/>
</g>
<path d="M150.173 141.956C150.129 141.929 150.107 141.917 150.107 141.917L153.418 141.119C152.27 141.413 151.183 141.694 150.173 141.956Z" fill="#6F524A"/>
<path d="M164.737 150.364C163.33 149.641 160.115 147.791 157.055 146.006L157.037 142.38C161.111 146.55 164.473 149.923 164.737 150.364ZM156.607 145.745C153.49 143.924 150.638 142.233 150.172 141.956C151.183 141.694 152.27 141.413 153.417 141.119L155.354 140.653C155.77 141.08 156.183 141.503 156.587 141.92L156.607 145.745Z" fill="#7F6057"/>
<path d="M157.056 146.007C156.906 145.919 156.756 145.832 156.608 145.745L156.589 141.92C156.74 142.073 156.889 142.227 157.038 142.38L157.056 146.007Z" fill="#8C7773"/>
<path d="M114.019 161.768L113.149 157.217L114.986 156.403L115.011 161.164L114.019 161.768ZM115.456 160.893L115.433 156.207L121.853 153.364L127.894 153.335L115.456 160.893ZM122.874 152.913L128.847 150.268L128.86 152.747L128.634 152.884L122.874 152.913ZM129.306 152.477L129.293 150.072L142.708 144.133L142.709 144.33L129.306 152.477ZM143.154 144.059V143.937L143.9 143.606L143.154 144.059Z" fill="#7F6057"/>
<path d="M115.009 161.166L114.986 156.405L115.432 156.208L115.455 160.895L115.009 161.166Z" fill="#8C7773"/>
<path d="M128.859 152.749L128.847 150.271L129.292 150.072L129.304 152.478L128.859 152.749Z" fill="#8C7773"/>
<path d="M142.71 144.331L142.708 144.134L143.155 143.937V144.06L142.71 144.331Z" fill="#8C7773"/>
<path d="M121.854 153.364L122.874 152.914L128.634 152.885L127.894 153.335L121.854 153.364Z" fill="#8C7773"/>
<path d="M159.428 181.251C159.274 181.251 159.369 181.084 159.679 180.772C166.481 178.154 173.343 174.901 179.187 171.903C172.045 175.712 164.211 179.652 159.638 181.204C159.546 181.236 159.474 181.251 159.428 181.251Z" fill="#886D66"/>
<path d="M159.679 180.772C159.711 180.74 159.748 180.705 159.783 180.67C159.918 180.617 160.051 180.564 160.186 180.51L159.951 180.512C161.419 179.159 165.47 176.072 170.63 172.266L170.647 175.978C170.797 175.909 170.946 175.839 171.094 175.77L171.074 171.938C173.196 170.376 175.492 168.701 177.867 166.979L184.495 166.946L184.504 169.021C184.627 168.956 184.75 168.89 184.872 168.825C183.086 169.806 181.163 170.85 179.186 171.904C173.344 174.902 166.481 178.155 159.679 180.772ZM184.951 168.781L184.941 166.944L188.301 166.927C187.262 167.506 186.136 168.131 184.951 168.781ZM178.488 166.529C180.454 165.105 182.467 163.654 184.472 162.213L184.492 166.499L178.488 166.529ZM184.939 166.497L184.916 161.893C189.33 158.722 193.685 155.618 197.383 152.991L198.317 152.986L198.328 155.63C196.614 158.078 195.285 160.691 195.051 163.108C195.051 163.108 192.683 164.477 189.109 166.477L184.939 166.497ZM198.772 155.012L198.762 152.984L200.373 152.976C199.825 153.632 199.284 154.315 198.772 155.012ZM198.017 152.54C198.117 152.47 198.213 152.4 198.313 152.33V152.539L198.017 152.54ZM198.76 152.537L198.757 152.015C204.041 148.264 207.682 145.701 207.682 145.701C207.682 145.701 204.106 148.62 200.754 152.528L198.76 152.537Z" fill="#7F6057"/>
<path d="M170.647 175.979L170.629 172.266C170.775 172.158 170.925 172.048 171.074 171.938L171.093 175.771C170.945 175.84 170.795 175.91 170.647 175.979Z" fill="#8C7773"/>
<path d="M184.504 169.021L184.495 166.945L184.941 166.943L184.951 168.781C184.925 168.796 184.899 168.809 184.873 168.824C184.75 168.889 184.628 168.955 184.504 169.021ZM184.494 166.498L184.472 162.212C184.62 162.105 184.767 162 184.917 161.893L184.938 166.496L184.494 166.498Z" fill="#8C7773"/>
<path d="M198.33 155.629L198.317 152.985L198.762 152.983L198.774 155.011C198.624 155.216 198.475 155.422 198.33 155.629ZM198.316 152.539L198.314 152.329C198.464 152.223 198.611 152.118 198.759 152.014L198.761 152.536L198.316 152.539Z" fill="#8C7773"/>
<path d="M159.784 180.669C159.836 180.619 159.891 180.567 159.952 180.511L160.187 180.509C160.052 180.564 159.919 180.616 159.784 180.669Z" fill="#8C7773"/>
<path d="M177.868 166.979C178.073 166.83 178.281 166.678 178.488 166.528L184.492 166.499L184.938 166.496L189.109 166.476C188.846 166.623 188.577 166.773 188.302 166.926L184.941 166.944L184.495 166.946L177.868 166.979Z" fill="#8C7773"/>
<path d="M197.382 152.991C197.596 152.839 197.806 152.69 198.016 152.541L198.313 152.54L198.759 152.538L200.753 152.528C200.626 152.676 200.499 152.826 200.372 152.976L198.762 152.985L198.315 152.987L197.382 152.991Z" fill="#8C7773"/>
<path d="M198.359 94.8187C198.223 94.5256 186.959 84.7792 186.959 84.7792L209.722 59.3153L222.497 69.8433L226.365 66.0034C226.365 66.0034 228.404 68.046 228.697 67.9096C228.813 67.8561 229.128 67.5574 229.466 67.2182C229.954 66.726 230.791 66.9251 231.009 67.5833L236.307 83.6159L210.561 105.529L197.797 96.2732C197.494 96.0557 197.472 95.6151 197.749 95.3681L198.359 94.8187Z" fill="#7282B3"/>
<path d="M161.647 112.736L170.906 129.198C170.906 129.198 187.292 118.12 197.177 107.49C199.067 105.46 200.642 102.858 202.204 100.665C203.765 98.474 207.792 95.5995 208.445 92.8908C208.959 90.7603 211.677 88.2908 211.53 93.601C211.423 97.5105 208.927 99.4786 211.131 99.9765C213.338 100.474 223.047 92.9693 224.858 91.1225C226.671 89.2739 226.251 91.9487 225.136 94.2094C224.021 96.4702 222.137 101.659 221.098 103.472C219.15 106.875 209.293 109.839 207.758 110.895C206.222 111.951 191.487 134.459 182.21 141.835C177.223 145.801 169.721 151.602 168.758 151.908C167.798 152.214 165.341 151.373 164.738 150.365C164.134 149.357 147.404 133.092 142.894 126.906L161.647 112.736Z" fill="#F9B69F"/>
<path d="M146.955 131.752L142.892 126.906L162.079 113.847L146.955 131.752Z" fill="#8B584A"/>
<path d="M123.562 64.8098L149.951 74.7188L171.79 42.9562C171.79 42.9562 169.915 40.9355 166.885 38.9622C164.124 37.1608 160.397 35.4005 156.259 35.2482C147.582 34.9321 140.71 39.7171 137.293 44.9132C133.873 50.1092 131.469 48.8204 130.96 52.9095C130.451 56.9969 130.669 59.766 126.683 61.0974C125.306 61.5559 124.413 62.2797 123.84 63.0314C122.754 64.4479 123.562 64.8098 123.562 64.8098Z" fill="#371138"/>
<path d="M173.18 70.5722C173.676 73.4398 172.181 75.8114 172.402 78.7129C171.793 77.4101 170.07 77.0524 168.651 77.2894C167.234 77.5249 165.893 78.18 164.457 78.2536C162.794 78.339 161.18 77.6471 159.591 76.9567C157.577 76.0808 155.601 75.2063 153.612 75.9071C154.382 72.1517 156.983 68.972 160.087 66.7182C162.418 65.0238 166.284 62.4049 169.231 62.1635C172.396 61.9044 172.766 68.1756 173.18 70.5722Z" fill="#371138"/>
<path d="M140.129 72.0529L154.511 81.3457C154.615 81.0082 155.089 79.5534 155.652 77.8931C156.547 75.2763 157.666 72.15 157.911 72.1087C158.07 72.0816 159.315 72.4493 160.834 72.9045C163.17 73.6065 166.15 74.5186 166.779 74.5393C167.33 74.5552 168.434 71.7632 169.345 69.0318C169.541 68.4412 169.728 67.8554 169.899 67.2999C170.215 66.2684 170.478 65.3468 170.634 64.7181C170.747 64.258 171.182 63.9556 171.653 64.0113C172.641 64.1259 173.951 64.4411 174.669 64.2405C176.003 63.8712 173.662 61.5711 173.076 59.7008C172.38 57.4835 172.818 51.7786 173.09 50.4542C173.362 49.1283 173.265 43.5125 171.79 42.957C170.314 42.3998 166.23 47.6877 165.652 49.2906C165.077 50.8935 161.249 52.0507 159.487 52.4933C157.723 52.9326 156.544 56.721 155.985 56.9582C155.426 57.1985 154.906 56.7895 154.906 56.7895C154.906 56.7895 154.995 52.896 153.421 52.1288C151.802 51.3408 148.785 51.7929 149.661 57.0107C150.25 60.5174 152.757 60.1417 152.879 60.121H152.884C152.884 60.121 152.95 60.2213 153.043 60.4091C153.274 60.8755 153.677 61.8831 153.669 63.2202C153.667 63.7534 153.601 64.3376 153.43 64.9616C152.993 66.5693 151.698 67.639 150.619 68.6052C149.814 69.3262 149.126 69.9916 149.002 70.7795C148.714 72.6228 149.148 74.8401 149.148 74.8401C149.148 74.8401 141.487 71.3605 141.131 71.5659C140.772 71.7696 140.129 72.0529 140.129 72.0529Z" fill="#F9B69F"/>
<path d="M150.618 68.6055C150.568 67.9856 150.587 67.3627 150.689 66.7472C151.076 64.4485 152.596 62.4182 152.878 60.121L153.043 60.4087C153.218 61.3519 153.42 62.2936 153.669 63.2205C153.667 63.7529 153.6 64.3373 153.428 64.9616C152.991 66.5693 151.698 67.6385 150.618 68.6055Z" fill="#321230"/>
<path d="M155.652 77.8945C155.335 77.6954 155.088 77.3821 154.855 77.0805C153.69 75.5638 152.514 74.0339 151.681 72.3107C151.12 71.1483 150.722 69.8848 150.618 68.6067C151.699 67.639 152.991 66.5702 153.429 64.9613C153.599 64.339 153.666 63.7534 153.669 63.2205C154.167 65.0828 154.858 66.8777 155.917 68.4793C156.673 69.6227 157.61 70.6402 158.681 71.4952C159.351 72.0311 160.071 72.5054 160.833 72.9051C159.367 72.4659 158.156 72.1087 157.931 72.1087C157.924 72.1087 157.916 72.1087 157.911 72.1101C157.729 72.1409 157.073 73.8479 156.382 75.7951C156.138 76.4861 155.886 77.2079 155.652 77.8945Z" fill="#D09883"/>
<path d="M176.111 52.8486C173.382 52.5486 170.486 51.6053 168.027 50.3779C167.189 49.9598 164.323 48.8058 164.003 48.1849C163.178 46.5889 166.292 44.8635 167.317 43.3888C168.147 42.1917 169.272 41.7001 170.74 41.7496C172.18 41.7991 173.39 42.4647 174.213 43.5372C176.232 46.1643 177.168 49.6182 176.111 52.8486Z" fill="#371138"/>
<path d="M166.38 64.8378C166.642 65.9997 167.137 67.1092 167.828 68.0776C168.103 68.4629 168.435 68.8454 168.887 68.985C169.041 69.0329 169.196 69.046 169.343 69.0315C169.54 68.4426 169.727 67.8551 169.897 67.2996C169.87 67.2866 169.842 67.2735 169.81 67.2618C168.414 66.718 167.26 66.1175 166.38 64.8378Z" fill="#ED7B60"/>
<path d="M163.285 63.3037C161.992 63.3037 160.444 62.0121 159.533 60.0466C158.443 57.6926 158.685 55.2642 160.072 54.6237C160.301 54.5175 160.547 54.4659 160.803 54.4659C162.096 54.4659 163.646 55.7575 164.555 57.723C165.643 60.077 165.404 62.5054 164.016 63.1474C163.787 63.2536 163.541 63.3037 163.285 63.3037Z" fill="#F3987F"/>
<path d="M171.088 54.374C171.088 54.374 170.434 53.4039 168.731 52.9196C167.2 52.4845 165.811 52.1586 165.556 52.1186C165.302 52.0786 166.718 51.2577 168.147 51.6128C169.575 51.9664 170.885 52.4738 171.265 53.2455C171.534 53.7913 171.56 54.2741 171.088 54.374Z" fill="#200B34"/>
<path d="M150.271 54.363C150.333 54.3722 150.394 54.3309 150.408 54.2682C150.524 53.7331 150.778 53.2958 151.105 53.0664C151.329 52.912 151.601 52.8783 151.789 52.8783C152.566 52.8783 153.313 53.441 153.526 54.1872C153.546 54.2529 153.611 54.2881 153.677 54.2712C153.741 54.2529 153.778 54.1856 153.76 54.1214C153.518 53.2728 152.671 52.6337 151.789 52.6352C151.468 52.6352 151.183 52.7163 150.966 52.8676C150.451 53.2285 150.246 53.8676 150.17 54.2162C150.156 54.282 150.197 54.3477 150.263 54.3615L150.271 54.363Z" fill="#7D584C"/>
<path d="M150.884 58.1268C150.907 58.1299 150.933 58.1268 150.954 58.1161C151.016 58.0871 151.042 58.0152 151.012 57.954C150.464 56.7967 150.438 56.1469 150.587 55.2052C150.714 54.4102 151.185 53.583 151.916 52.8752C151.963 52.8278 151.965 52.7513 151.918 52.7039C151.872 52.655 151.795 52.6535 151.746 52.7009C150.979 53.4454 150.482 54.3215 150.347 55.1669C150.193 56.1378 150.219 56.8517 150.792 58.058C150.811 58.0962 150.846 58.1192 150.884 58.1268Z" fill="#7D584C"/>
<path d="M152.769 57.2521C152.804 57.2581 152.838 57.2491 152.866 57.2264C152.917 57.1841 152.924 57.107 152.881 57.0556C152.71 56.8485 152.646 56.5598 152.714 56.2998C152.784 56.0398 152.982 55.8206 153.234 55.7254C153.296 55.7012 153.328 55.6317 153.305 55.5697C153.281 55.5062 153.21 55.4745 153.148 55.4972C152.825 55.6196 152.568 55.9038 152.48 56.2378C152.391 56.5719 152.474 56.9452 152.695 57.2098C152.714 57.2355 152.742 57.2491 152.769 57.2521Z" fill="#7D584C"/>
<path d="M170.017 58.113C170.282 58.1553 170.548 58.1583 170.827 58.1296C170.874 58.1251 170.907 58.0828 170.903 58.0345C170.898 57.9877 170.856 57.9545 170.809 57.959C169.992 58.0451 169.378 57.8125 168.706 57.4381C168.212 57.1633 167.734 56.6273 167.244 55.8014C167.22 55.7606 167.167 55.747 167.127 55.7712C167.086 55.7953 167.072 55.8482 167.096 55.889C167.602 56.742 168.101 57.2977 168.621 57.5876C169.138 57.8745 169.579 58.0451 170.017 58.113Z" fill="#7D584C"/>
<path d="M169.432 57.8281H169.452C169.499 57.8251 169.534 57.7828 169.53 57.7359C169.479 57.0482 169.626 56.2304 169.913 55.6031C169.933 55.5607 169.914 55.5093 169.872 55.4897C169.828 55.47 169.777 55.4882 169.757 55.532C169.453 56.1941 169.304 57.024 169.36 57.7495C169.363 57.7903 169.393 57.8221 169.432 57.8281Z" fill="#7D584C"/>
<path d="M169.244 58.5189C169.282 58.5234 169.319 58.5038 169.336 58.4662C169.354 58.4226 169.335 58.3715 169.289 58.3534C168.579 58.0601 168.008 57.4493 167.761 56.7212C167.744 56.6761 167.696 56.652 167.651 56.6686C167.606 56.6821 167.582 56.7317 167.598 56.7769C167.862 57.5501 168.468 58.1985 169.223 58.5129L169.244 58.5189Z" fill="#7D584C"/>
<path d="M149.657 70.5484C153.002 71.0727 156.148 68.7782 156.671 65.4351C157.195 62.0904 154.901 58.9445 151.557 58.4216L151.519 58.6621C154.73 59.1641 156.934 62.1845 156.432 65.3962C155.928 68.6079 152.906 70.8113 149.696 70.3094C146.484 69.806 144.281 66.784 144.785 63.5723C145.206 60.873 147.4 58.8324 150.12 58.6098L150.101 58.3664C147.269 58.5994 144.983 60.7236 144.544 63.535C144.021 66.8781 146.314 70.0256 149.657 70.5484Z" fill="white"/>
<path d="M123.837 63.0322C124.413 62.2814 125.305 61.5568 126.682 61.0972C130.668 59.7673 130.451 56.998 130.959 52.9104C131.47 48.8211 133.873 50.11 137.291 44.915C140.602 39.8818 147.15 35.2348 155.443 35.2348C155.713 35.2348 155.984 35.2397 156.257 35.2495C160.396 35.4016 164.124 37.1616 166.885 38.9626C166.543 38.8873 166.219 38.7875 165.992 38.7467C164.354 38.4506 162.692 38.2249 161.027 38.2249C160.566 38.2249 160.105 38.2429 159.643 38.2805C156.627 38.5258 153.55 39.7624 151.767 42.2095C150.75 43.6064 150.158 45.3681 148.776 46.4018C146.311 48.2437 142.416 47.0087 140.051 48.9765C137.321 51.2452 138.572 56.0166 136.269 58.7172C135.063 60.1288 133.145 60.6588 131.345 61.1184C128.844 61.7564 126.34 62.3943 123.837 63.0322Z" fill="#682E43"/>
<path d="M156.153 79.7568L138.018 71.1322C138.018 71.1322 136.318 74.2152 134.162 76.3129C132.008 78.4121 118.992 90.1282 114.775 111.406C112.031 125.261 111.463 145.933 112.083 157.701C112.083 157.701 137.685 146.485 143.899 143.607C143.899 143.607 142.069 130.064 142.441 127.686L162.936 113.243C162.936 113.243 155.399 88.4678 153.049 85.968C153.049 85.968 154.528 80.415 156.153 79.7568Z" fill="#7282B3"/>
<mask id="mask4_1015_47560" style="mask-type:luminance" maskUnits="userSpaceOnUse" x="111" y="71" width="52" height="87">
<path d="M156.154 79.7561L138.019 71.1314C138.019 71.1314 136.319 74.2144 134.163 76.3122C132.008 78.4111 117.898 91.1506 114.544 112.623C112.363 126.577 111.464 149.244 112.084 157.7C112.084 157.7 137.398 146.243 143.9 143.607C143.9 143.607 142.07 130.063 142.442 127.686L162.937 113.243C162.937 113.243 155.4 88.4668 153.05 85.9678C153.05 85.9678 154.529 80.4143 156.154 79.7561Z" fill="white"/>
</mask>
<g mask="url(#mask4_1015_47560)">
<path d="M139.06 70.928C138.945 71.6613 138.257 72.1638 137.523 72.0491C136.788 71.9345 136.287 71.2451 136.402 70.5104C136.516 69.7772 137.204 69.2746 137.939 69.3893C138.674 69.504 139.175 70.1933 139.06 70.928Z" fill="white"/>
<path d="M153.157 73.1331C153.041 73.8666 152.354 74.3698 151.619 74.2539C150.884 74.1394 150.383 73.4511 150.499 72.7162C150.613 71.9812 151.301 71.4795 152.035 71.5954C152.77 71.7099 153.272 72.3982 153.157 73.1331Z" fill="white"/>
<path d="M115.746 80.628C115.631 81.361 114.942 81.8641 114.207 81.7493C113.474 81.6344 112.971 80.9453 113.086 80.211C113.201 79.4767 113.89 78.9749 114.624 79.0897C115.359 79.2046 115.861 79.8937 115.746 80.628Z" fill="white"/>
<path d="M129.841 82.8342C129.725 83.5694 129.037 84.0703 128.303 83.9566C127.568 83.8401 127.066 83.1524 127.181 82.4186C127.296 81.6835 127.984 81.1812 128.719 81.2962C129.454 81.4113 129.955 82.1004 129.841 82.8342Z" fill="white"/>
<path d="M143.936 85.0394C143.822 85.7739 143.133 86.2765 142.398 86.1613C141.664 86.046 141.162 85.3584 141.276 84.6239C141.392 83.8894 142.081 83.3868 142.815 83.5021C143.55 83.6174 144.052 84.3049 143.936 85.0394Z" fill="white"/>
<path d="M158.031 87.2477C157.916 87.9801 157.228 88.4821 156.492 88.3675C155.759 88.2529 155.257 87.5641 155.371 86.8303C155.486 86.0965 156.175 85.5946 156.91 85.7091C157.644 85.8237 158.146 86.5125 158.031 87.2477Z" fill="white"/>
<path d="M120.886 94.7827C120.77 95.5177 120.082 96.0197 119.347 95.9044C118.613 95.7892 118.11 95.1015 118.227 94.3665C118.341 93.6315 119.03 93.1295 119.763 93.2447C120.498 93.36 121 94.0489 120.886 94.7827Z" fill="white"/>
<path d="M134.98 96.9892C134.866 97.7227 134.178 98.2258 133.443 98.1092C132.709 97.9952 132.207 97.3072 132.321 96.5723C132.437 95.8374 133.124 95.3357 133.859 95.4497C134.594 95.5663 135.096 96.2543 134.98 96.9892Z" fill="white"/>
<path d="M149.075 99.1961C148.962 99.9291 148.272 100.432 147.539 100.317C146.804 100.203 146.302 99.5128 146.417 98.7785C146.531 98.0454 147.221 97.5428 147.955 97.658C148.688 97.7719 149.191 98.4617 149.075 99.1961Z" fill="white"/>
<path d="M163.172 101.402C163.056 102.137 162.368 102.639 161.634 102.525C160.899 102.409 160.398 101.721 160.512 100.986C160.627 100.251 161.316 99.7491 162.049 99.8648C162.784 99.979 163.286 100.669 163.172 101.402Z" fill="white"/>
<path d="M125.76 108.896C125.646 109.63 124.957 110.132 124.222 110.017C123.488 109.902 122.987 109.213 123.101 108.479C123.216 107.746 123.905 107.243 124.639 107.358C125.373 107.473 125.875 108.161 125.76 108.896Z" fill="white"/>
<path d="M139.856 111.102C139.74 111.836 139.053 112.338 138.318 112.224C137.584 112.109 137.081 111.42 137.197 110.686C137.312 109.951 138.001 109.449 138.733 109.565C139.469 109.679 139.971 110.368 139.856 111.102Z" fill="white"/>
<path d="M153.95 113.31C153.835 114.045 153.147 114.547 152.412 114.432C151.678 114.317 151.176 113.628 151.29 112.893C151.407 112.16 152.095 111.658 152.828 111.771C153.563 111.888 154.066 112.575 153.95 113.31Z" fill="white"/>
<path d="M116.804 120.844C116.69 121.578 116.001 122.08 115.268 121.965C114.533 121.851 114.031 121.161 114.145 120.427C114.261 119.693 114.95 119.191 115.684 119.306C116.419 119.421 116.92 120.109 116.804 120.844Z" fill="white"/>
<path d="M130.901 123.051C130.787 123.785 130.097 124.287 129.363 124.173C128.629 124.057 128.128 123.37 128.242 122.635C128.356 121.9 129.046 121.398 129.779 121.514C130.514 121.629 131.016 122.317 130.901 123.051Z" fill="white"/>
<path d="M144.995 125.259C144.88 125.993 144.192 126.495 143.457 126.38C142.721 126.266 142.219 125.577 142.335 124.843C142.45 124.107 143.139 123.605 143.873 123.721C144.608 123.836 145.11 124.525 144.995 125.259Z" fill="white"/>
<path d="M159.092 127.465C158.976 128.198 158.287 128.701 157.554 128.586C156.819 128.471 156.316 127.782 156.431 127.048C156.547 126.314 157.235 125.812 157.97 125.926C158.705 126.041 159.207 126.731 159.092 127.465Z" fill="white"/>
<path d="M121.68 134.958C121.565 135.692 120.877 136.194 120.142 136.079C119.407 135.964 118.905 135.276 119.02 134.541C119.136 133.806 119.824 133.304 120.558 133.42C121.293 133.535 121.795 134.223 121.68 134.958Z" fill="white"/>
<path d="M135.774 137.166C135.659 137.901 134.97 138.402 134.236 138.288C133.502 138.172 132.999 137.484 133.115 136.75C133.229 136.016 133.919 135.514 134.653 135.628C135.387 135.743 135.889 136.432 135.774 137.166Z" fill="white"/>
<path d="M149.871 139.372C149.755 140.107 149.067 140.609 148.332 140.495C147.598 140.379 147.096 139.69 147.211 138.956C147.326 138.221 148.014 137.718 148.749 137.835C149.483 137.95 149.985 138.638 149.871 139.372Z" fill="white"/>
<path d="M163.966 141.579C163.851 142.313 163.162 142.815 162.428 142.701C161.692 142.585 161.191 141.897 161.305 141.162C161.42 140.428 162.109 139.925 162.843 140.041C163.579 140.156 164.08 140.843 163.966 141.579Z" fill="white"/>
<path d="M112.726 146.908C112.61 147.642 111.922 148.144 111.188 148.028C110.453 147.913 109.951 147.225 110.067 146.491C110.181 145.757 110.87 145.254 111.604 145.369C112.339 145.485 112.841 146.172 112.726 146.908Z" fill="white"/>
<path d="M126.819 149.115C126.705 149.849 126.016 150.35 125.282 150.236C124.548 150.121 124.045 149.432 124.16 148.698C124.276 147.964 124.964 147.461 125.698 147.576C126.433 147.691 126.935 148.38 126.819 149.115Z" fill="white"/>
<path d="M140.915 151.321C140.801 152.055 140.112 152.557 139.377 152.443C138.643 152.327 138.141 151.639 138.256 150.904C138.371 150.17 139.06 149.668 139.794 149.784C140.527 149.898 141.03 150.587 140.915 151.321Z" fill="white"/>
<path d="M155.01 153.529C154.894 154.263 154.205 154.765 153.471 154.649C152.736 154.535 152.234 153.848 152.35 153.112C152.464 152.377 153.153 151.875 153.888 151.99C154.622 152.105 155.124 152.794 155.01 153.529Z" fill="white"/>
</g>
<path d="M221.643 70.6713L219.572 72.7527L219.286 73.0421L217.889 74.4466L217.607 74.7307L216.213 76.137L215.927 76.4263L211.143 81.238L210.857 81.5255L209.567 82.8214L209.283 83.1107L207.996 84.4066L207.712 84.6906L206.463 85.9479L206.179 86.2337L204.894 87.5261L204.604 87.8136L201.664 90.7753L201.38 91.0629L199.081 93.374L188.668 84.6889L209.84 60.9604L221.643 70.6713Z" fill="#F7F4F2"/>
<path d="M228.697 67.9117L226.364 66.0053L197.779 94.2597L198.358 94.8203L228.697 67.9117Z" fill="#F2EBE4"/>
<path d="M219.572 72.754L219.287 73.043L209.752 65.4357C209.665 65.366 209.65 65.2407 209.719 65.1536C209.791 65.0683 209.914 65.0509 210.001 65.1206L219.572 72.754Z" fill="#202249"/>
<path d="M217.888 74.4476L217.604 74.7314L208.272 67.2869C208.185 67.2212 208.173 67.0931 208.239 67.0066C208.308 66.9201 208.438 66.9062 208.524 66.9737L217.888 74.4476Z" fill="#202249"/>
<path d="M216.211 76.1368L215.927 76.4258L206.797 69.1425C206.711 69.072 206.694 68.9447 206.764 68.8587C206.835 68.7709 206.958 68.7589 207.044 68.8277L216.211 76.1368Z" fill="#202249"/>
<path d="M211.141 81.2385L210.857 81.5273L201.838 74.3352C201.751 74.2643 201.735 74.1359 201.806 74.0481C201.876 73.9636 202 73.9501 202.086 74.0194L211.141 81.2385Z" fill="#202249"/>
<path d="M209.566 82.8234L209.283 83.1123L200.308 75.9496C200.22 75.8841 200.209 75.7564 200.274 75.6691C200.345 75.5818 200.472 75.57 200.56 75.6355L209.566 82.8234Z" fill="#202249"/>
<path d="M207.996 84.4078L207.712 84.6934L198.837 77.6152C198.75 77.5484 198.733 77.4198 198.803 77.3346C198.874 77.2478 198.999 77.2345 199.086 77.3012L207.996 84.4078Z" fill="#202249"/>
<path d="M206.464 85.9488L206.18 86.2344L197.615 79.2026C197.532 79.1313 197.519 79.0051 197.589 78.9187C197.66 78.8307 197.783 78.8191 197.87 78.8922L206.464 85.9488Z" fill="#202249"/>
<path d="M204.892 87.5275L204.603 87.8164L196.211 80.9229C196.128 80.8552 196.117 80.7265 196.186 80.6406C196.257 80.5531 196.381 80.5399 196.467 80.6109L204.892 87.5275Z" fill="#202249"/>
<path d="M201.664 90.7784L201.38 91.0654L193.198 84.5401C193.113 84.4699 193.095 84.3411 193.165 84.2547C193.235 84.1715 193.359 84.1552 193.447 84.2253L201.664 90.7784Z" fill="#202249"/>
<mask id="mask5_1015_47560" style="mask-type:luminance" maskUnits="userSpaceOnUse" x="188" y="86" width="2" height="2">
<path d="M189.824 87.2773L188.453 86.0756C188.858 86.4259 189.326 86.8325 189.833 87.2731C189.83 87.2752 189.827 87.2763 189.824 87.2773Z" fill="white"/>
</mask>
<g mask="url(#mask5_1015_47560)">
<path d="M188.451 86.0759H189.832V87.2773H188.451" fill="#BAADA6"/>
</g>
<path d="M197.779 94.2598L191.935 89.1315L191.939 89.109C194.235 91.1098 196.689 93.2618 197.779 94.2598ZM191.539 88.7844L189.824 87.2785C189.827 87.2769 189.83 87.2769 189.832 87.2737C190.367 87.7398 190.945 88.2428 191.542 88.7619L191.539 88.7844Z" fill="#86746C"/>
<path d="M191.938 89.1299L191.54 88.7815L191.543 88.7579C191.675 88.8729 191.809 88.9912 191.942 89.1062L191.938 89.1299Z" fill="#A49A96"/>
<path d="M197.779 94.2588C196.69 93.2599 194.235 91.1088 191.939 89.1077C191.806 88.9916 191.674 88.8754 191.542 88.7608C190.946 88.2412 190.367 87.7377 189.833 87.2729C189.326 86.8324 188.858 86.4257 188.453 86.0755L189.659 85.5156L198.86 93.1905L197.779 94.2588Z" fill="#576388"/>
<path d="M198.859 93.1904L189.659 85.5159L197.419 81.9135L204.438 87.678L201.465 90.6163L193.446 84.2239C193.409 84.1943 193.367 84.1811 193.322 84.1811C193.264 84.1811 193.205 84.2058 193.166 84.2536C193.095 84.3393 193.113 84.4678 193.198 84.5387L201.175 90.9014L198.859 93.1904Z" fill="#BCBAB8"/>
<path d="M204.729 87.3916L197.827 81.7254L199.655 80.8766L206.026 86.1082L204.729 87.3916ZM206.313 85.8247L200.057 80.6894L201.724 79.9179L207.572 84.5791L206.313 85.8247ZM207.857 84.2973L202.129 79.7289L203.973 78.8733L209.158 83.0122L207.857 84.2973ZM209.447 82.727L204.38 78.6826L206.222 77.8288L210.749 81.4402L209.447 82.727ZM211.037 81.155L206.629 77.6398L213.47 74.4665L215.869 76.3804L211.037 81.155Z" fill="#BCBAB8"/>
<path d="M216.159 76.0938L213.877 74.2754L215.873 73.3495L217.567 74.7015L216.159 76.0938ZM217.854 74.4191L216.28 73.1619L218.275 72.2343L219.264 73.0234L217.854 74.4191ZM219.552 72.7375L218.684 72.0467L221.644 70.6719L221.63 70.6859L219.552 72.7375Z" fill="#BCBAB8"/>
<path d="M219.262 73.0234L218.273 72.2349L218.682 72.0469L219.551 72.738L219.262 73.0234Z" fill="#181A38"/>
<path d="M217.565 74.7021L215.873 73.3508L216.277 73.1622L217.852 74.4201L217.565 74.7021Z" fill="#181A38"/>
<path d="M215.869 76.3799L213.47 74.4657L213.877 74.2748L216.158 76.0944L215.869 76.3799Z" fill="#181A38"/>
<path d="M210.749 81.4385L206.222 77.8286L206.629 77.6395L211.038 81.1548L210.749 81.4385Z" fill="#181A38"/>
<path d="M209.159 83.0107L203.973 78.8728L204.379 78.6831L209.447 82.7254L209.159 83.0107Z" fill="#181A38"/>
<path d="M207.572 84.5801L201.724 79.9171L202.129 79.7285L207.857 84.298L207.572 84.5801Z" fill="#181A38"/>
<path d="M206.026 86.1084L199.655 80.8778L200.057 80.6903L206.311 85.8263L206.026 86.1084Z" fill="#181A38"/>
<path d="M204.438 87.6777L197.42 81.9136L197.827 81.7255L204.728 87.3907L204.438 87.6777Z" fill="#181A38"/>
<path d="M201.176 90.9014L193.198 84.539C193.112 84.4689 193.096 84.3401 193.166 84.2538C193.207 84.2065 193.264 84.1804 193.322 84.1804C193.366 84.1804 193.41 84.1935 193.446 84.2244L201.464 90.6162L201.176 90.9014Z" fill="#181A38"/>
<path d="M139.463 126.959C134.756 112.925 134.595 106.107 136.501 93.9348L136.896 93.9973C134.717 107.917 135.774 114.7 139.843 126.831L139.463 126.959Z" fill="#202249"/>
<path d="M148.52 83.29C145.384 81.0687 141.338 79.2095 136.496 77.7663L136.611 77.3821C141.495 78.8391 145.579 80.7161 148.751 82.9637L148.52 83.29Z" fill="#202249"/>
<path d="M216.774 101.771C216.73 101.764 216.691 101.738 216.669 101.695C216.632 101.627 216.66 101.54 216.73 101.504C220.764 99.4439 223.038 96.458 225.591 92.7692C225.636 92.7034 225.723 92.6874 225.789 92.7318C225.853 92.7763 225.869 92.8653 225.825 92.9294C223.248 96.6537 220.952 99.6663 216.86 101.759C216.833 101.771 216.801 101.777 216.774 101.771Z" fill="#7D584C"/>
<path d="M217.265 104.614C217.212 104.607 217.164 104.569 217.15 104.512C217.129 104.436 217.173 104.357 217.249 104.338C219.462 103.735 221.281 101.603 222.768 99.5942C222.814 99.5325 222.904 99.5184 222.967 99.5642C223.03 99.6118 223.043 99.6999 222.995 99.7633C221.48 101.811 219.621 103.987 217.323 104.611C217.304 104.616 217.284 104.618 217.265 104.614Z" fill="#7D584C"/>
<path d="M168.44 135.035C168.404 135.029 168.369 135.009 168.346 134.977C168.3 134.913 168.314 134.825 168.378 134.779C170.255 133.418 171.248 130.88 170.791 128.608C170.777 128.53 170.828 128.456 170.903 128.44C170.981 128.424 171.055 128.475 171.071 128.552C171.548 130.931 170.508 133.586 168.544 135.009C168.512 135.032 168.475 135.039 168.44 135.035Z" fill="#754539"/>
<path d="M82.7871 207.891C85.2766 203.877 89.8228 200.964 96.6896 198.989C98.2817 198.531 99.923 198.128 101.513 197.738C105.36 196.793 109.338 195.817 112.919 193.986C121 189.857 126.548 181.333 127.055 172.272L126.791 172.257C126.29 181.226 120.798 189.663 112.798 193.751C109.244 195.567 105.281 196.54 101.449 197.481C99.8585 197.872 98.2136 198.275 96.6169 198.735C89.6844 200.729 85.0877 203.678 82.563 207.752L82.7871 207.891Z" fill="#383919"/>
<path d="M129.69 173.959C129.813 172.237 129.688 170.407 128.741 168.962C127.793 167.517 125.814 166.642 124.266 167.408C122.746 168.159 122.227 170.099 122.303 171.793C122.391 173.738 123.421 177.826 125.518 178.66C128.249 179.748 129.544 175.999 129.69 173.959Z" fill="#779962"/>
<path d="M119.995 184.05C120.082 182.378 119.606 180.594 118.361 179.474C117.115 178.355 115.012 178.143 113.79 179.289C112.985 180.044 112.691 181.214 112.716 182.317C112.769 184.544 114.135 186.637 116.025 187.766C119.189 189.657 119.84 186.995 119.995 184.05Z" fill="#779962"/>
<mask id="mask6_1015_47560" style="mask-type:luminance" maskUnits="userSpaceOnUse" x="115" y="192" width="10" height="9">
<path d="M121.133 193.172C122.832 193.701 124.342 195.282 124.168 197.053C124.029 198.461 122.815 199.629 121.433 199.932C120.05 200.236 118.572 199.77 117.448 198.91C112.75 195.32 116.345 191.679 121.133 193.172Z" fill="white"/>
</mask>
<g mask="url(#mask6_1015_47560)">
<path d="M121.134 193.172C122.833 193.701 124.343 195.283 124.168 197.053C124.03 198.461 122.815 199.629 121.433 199.932C120.051 200.236 118.573 199.77 117.448 198.91C112.751 195.32 116.346 191.679 121.134 193.172Z" fill="url(#paint0_linear_1015_47560)"/>
</g>
<path d="M132.996 179.778C134.356 179.86 135.968 180.479 136.144 181.828C136.248 182.643 135.739 183.444 135.048 183.889C134.357 184.334 133.517 184.479 132.7 184.539C130.497 184.701 128.229 184.305 126.226 183.375C127.838 180.636 129.582 179.576 132.996 179.778Z" fill="#779962"/>
<path d="M99.2729 195.646C99.9502 194.956 100.577 194.186 100.913 193.275C101.249 192.366 101.259 191.294 100.753 190.467C99.9629 189.177 98.0528 188.89 96.7691 189.679C95.4865 190.467 94.8462 192.08 94.9319 193.595C95.1288 197.069 96.8685 198.091 99.2729 195.646Z" fill="#779962"/>
<path d="M110.256 199.119C111.435 199.918 112.426 201.101 112.676 202.503C112.927 203.906 112.279 205.509 110.975 206.085C109.708 206.645 108.151 206.111 107.209 205.095C106.268 204.079 105.846 202.684 105.656 201.311C105.133 197.499 107.333 197.139 110.256 199.119Z" fill="#779962"/>
<path d="M125.963 178.469C126.728 176.27 126.864 173.809 126.348 171.54L126.089 171.598C126.596 173.82 126.462 176.23 125.712 178.382L125.963 178.469Z" fill="#383919"/>
<path d="M123.661 183.93L131 182.796L130.959 182.535L123.62 183.669L123.661 183.93Z" fill="#383919"/>
<path d="M118.446 189.738L118.71 189.712C118.462 187.26 117.802 184.886 116.749 182.658L116.511 182.77C117.55 184.973 118.202 187.317 118.446 189.738Z" fill="#383919"/>
<path d="M120.53 196.92L120.584 196.661C118.068 196.135 115.656 195.034 113.61 193.477L113.449 193.688C115.526 195.269 117.976 196.386 120.53 196.92Z" fill="#383919"/>
<path d="M96.3902 198.961L98.873 191.145L98.6209 191.063L96.1392 198.879L96.3902 198.961Z" fill="#383919"/>
<path d="M109.423 203.688L109.662 203.575C108.405 200.938 106.519 198.603 104.201 196.825L104.04 197.034C106.323 198.788 108.184 201.09 109.423 203.688Z" fill="#383919"/>
<path d="M51.4868 207.77V217.164H54.9922L56.0122 221.848L59.4911 237.842H96.4883L100.987 217.164H104.493V207.77H51.4868Z" fill="#7282B3"/>
<path d="M56.0006 221.896L54.9805 217.187H100.392L56.0006 221.896Z" fill="#282D3E"/>
<path d="M54.7969 189.884C54.1894 187.794 52.5963 185.954 50.5122 185.267C48.4291 184.579 45.9104 185.186 44.5501 186.893C43.1909 188.6 43.2582 191.333 44.8523 192.827C45.8153 193.732 47.1489 194.114 48.428 194.469C49.8053 194.849 55.1321 196.836 55.1321 196.836C55.1321 196.836 55.1385 191.091 54.7969 189.884Z" fill="#779962"/>
<path d="M37.6606 220.062C39.3926 221.598 40.4985 223.823 40.6788 226.132C40.7797 227.425 40.5859 228.775 39.9045 229.878C39.2231 230.981 38.0006 231.792 36.7056 231.767C34.768 231.729 31.758 229.955 30.9696 228.182C29.9359 225.857 30.079 217.187 30.079 217.187C30.079 217.187 35.9274 218.525 37.6606 220.062Z" fill="#779962"/>
<path d="M67.7751 197.805C68.0325 196.539 67.8805 195.139 67.0856 194.11C66.2897 193.081 64.7663 192.554 63.5784 193.115C62.0073 193.858 61.7467 196.092 62.5936 197.586C64.1442 200.322 67.0031 201.601 67.7751 197.805Z" fill="#779962"/>
<path d="M40.2481 195.289C40.2481 195.289 37.3498 190.973 35.9266 189.766C34.5032 188.558 31.7746 187.94 29.6494 188.598C26.8354 189.47 26.3687 192.091 27.8845 193.843C30.661 197.052 40.2481 195.289 40.2481 195.289Z" fill="#779962"/>
<mask id="mask7_1015_47560" style="mask-type:luminance" maskUnits="userSpaceOnUse" x="41" y="199" width="11" height="15">
<path d="M50.974 203.646C51.8806 206.999 52.5792 210.879 49.2456 212.948C47.4324 214.072 45.0978 214.135 43.4502 212.78C41.7465 211.378 41.7303 209.172 42.4342 207.364C43.1667 205.479 44.6031 203.443 46.0682 202.045C46.875 201.273 47.7986 200.598 48.8146 200.129C49.1968 199.951 50.3359 199.807 51.1428 199.635C51.3859 199.583 51.5536 199.85 51.4167 200.057C50.7107 201.118 50.5769 202.18 50.974 203.646Z" fill="white"/>
</mask>
<g mask="url(#mask7_1015_47560)">
<path d="M50.974 203.646C51.8806 206.999 52.5792 210.879 49.2456 212.948C47.4324 214.072 45.0978 214.135 43.4502 212.78C41.7465 211.378 41.7303 209.172 42.4342 207.364C43.1667 205.479 44.6031 203.443 46.0682 202.045C46.875 201.273 47.7986 200.598 48.8146 200.129C49.1968 199.951 50.3359 199.807 51.1428 199.635C51.3859 199.583 51.5536 199.85 51.4167 200.057C50.7107 201.118 50.5769 202.18 50.974 203.646Z" fill="url(#paint1_linear_1015_47560)"/>
</g>
<mask id="mask8_1015_47560" style="mask-type:luminance" maskUnits="userSpaceOnUse" x="22" y="240" width="10" height="14">
<path d="M30.745 244.632C31.6556 247.911 32.3428 251.741 28.3833 253.494C26.3547 254.392 23.5822 253.637 22.677 251.654C22.158 250.517 22.2879 249.18 22.7511 248.019C23.4374 246.303 24.7815 244.447 26.1529 243.172C26.9085 242.469 27.7731 241.854 28.7239 241.425C29.2635 241.182 31.4116 241.006 31.6807 240.712C30.5791 241.915 30.2915 242.999 30.745 244.632Z" fill="white"/>
</mask>
<g mask="url(#mask8_1015_47560)">
<path d="M30.745 244.632C31.6556 247.911 32.3428 251.741 28.3833 253.494C26.3547 254.392 23.5822 253.637 22.677 251.654C22.158 250.517 22.2879 249.18 22.7511 248.019C23.4374 246.303 24.7815 244.447 26.1529 243.172C26.9085 242.469 27.7731 241.854 28.7239 241.425C29.2635 241.182 31.4116 241.006 31.6807 240.712C30.5791 241.915 30.2915 242.999 30.745 244.632Z" fill="url(#paint2_linear_1015_47560)"/>
</g>
<path d="M20.316 207.314C19.1983 207.314 18.1047 207.059 17.1654 206.382C16.1013 205.617 15.4476 204.342 15.6963 203.056C16.0775 201.086 18.1778 200.324 20.0395 200.058C20.2 200.035 20.425 200.024 20.7008 200.024C22.7667 200.024 27.6785 200.605 29.5956 200.841C29.9085 200.88 30.032 201.265 29.8002 201.479C28.2705 202.884 24.1641 206.582 22.9116 206.928C22.0725 207.159 21.187 207.314 20.316 207.314Z" fill="#61724E"/>
<path d="M24.0006 262.143C22.7915 261.347 21.974 259.493 22.477 257.923C22.5518 257.69 22.6486 257.477 22.7636 257.282C24.3021 258.888 25.8785 260.455 27.4901 261.984C26.3061 262.036 25.1446 262.089 24.0006 262.143Z" fill="#627755"/>
<path d="M27.5266 261.991C25.9088 260.468 24.3262 258.906 22.7817 257.307C23.4506 256.186 24.7352 255.686 25.9042 255.481C25.9846 255.468 26.085 255.46 26.2026 255.46C28.0744 255.46 34.3245 257.138 34.3245 257.138C34.3245 257.138 30.7743 260.66 28.9701 261.928C28.4841 261.949 28.0061 261.97 27.5266 261.991Z" fill="#61724E"/>
<path d="M26.1303 262.751C25.4226 262.751 24.7265 262.609 24.0909 262.255C24.0592 262.237 24.0278 262.219 23.9966 262.2C25.1602 262.15 26.3416 262.1 27.546 262.051C28.0318 262.031 28.5162 262.011 29.0086 261.992C28.7065 262.189 28.4529 262.33 28.2716 262.386C27.5794 262.605 26.8489 262.751 26.1303 262.751Z" fill="#5C6B46"/>
<path d="M16.8435 229.793C15.8636 229.793 14.8972 229.493 14.0674 228.787C12.8915 227.788 12.3525 226.168 12.7191 224.671C13.324 222.2 15.8311 221.044 18.1622 220.378C19.54 219.992 23.9121 219.726 25.9825 219.617C25.9932 219.617 26.0037 219.617 26.0142 219.617C26.4591 219.617 26.7329 220.114 26.4841 220.492C25.1669 222.494 22.0699 227.12 20.9178 228.137C19.7998 229.124 18.3064 229.793 16.8435 229.793Z" fill="#61724E"/>
<path d="M27.4947 230.747C27.1531 232.436 26.5927 234.138 25.4562 235.436C24.3196 236.734 22.5036 237.551 20.8307 237.117C18.7043 236.567 17.4664 234.095 17.8337 231.935C18.201 229.776 19.8439 228.003 21.7592 226.929C22.6996 226.402 26.6206 224.436 27.6489 225.05C28.6449 225.645 27.7004 229.73 27.4947 230.747Z" fill="#779962"/>
<path d="M42.3568 243.548C43.6876 244.683 44.9026 246.227 44.7975 247.964C44.6527 250.358 41.8066 251.968 39.4564 251.396C36.0816 250.573 33.7328 246.019 34.4552 242.729C35.4165 238.35 40.2027 241.71 42.3568 243.548Z" fill="#779962"/>
<path d="M40.4052 259.329C42.0511 260.64 42.0189 264.399 40.2982 265.615C39.2308 266.369 36.7684 265.714 36.0123 264.655C35.5461 264.004 35.5345 263.147 35.5404 262.348C35.5488 261.232 36.177 257.131 36.177 257.131C36.177 257.131 39.5096 258.615 40.4052 259.329Z" fill="#779962"/>
<path d="M87.9247 195.772H83.1595C81.3296 195.327 78.4618 194.476 78.5219 193.197C78.5261 193.107 78.543 193.018 78.5715 192.931H88.7052C88.9868 193.839 88.8698 194.859 88.2137 195.525C88.123 195.617 88.026 195.7 87.9247 195.772ZM88.2855 192.066H79.2782C80.566 191.106 83.1279 190.547 83.9885 190.479C84.1742 190.464 84.363 190.457 84.5518 190.457C85.7963 190.457 87.0652 190.788 87.9458 191.66C88.0714 191.784 88.1842 191.92 88.2855 192.066Z" fill="#617552"/>
<path d="M88.6969 192.887H78.521C78.6237 192.609 78.88 192.355 79.2306 192.127H88.2754C88.4586 192.358 88.6005 192.617 88.6969 192.887Z" fill="#5C7250"/>
<path d="M86.1234 196.228C85.5534 196.228 84.9636 196.139 84.4185 196.023C84.158 195.967 83.7339 195.884 83.2295 195.772H87.9377C87.425 196.108 86.7873 196.228 86.1234 196.228Z" fill="#5C7250"/>
<path d="M77.4582 183.622H72.5594C72.0457 183.364 71.5749 183.127 71.2025 182.976C70.0105 182.494 68.6633 181.838 68.3893 180.599C68.1518 179.524 68.9147 178.402 69.9399 177.965C70.3775 177.78 70.8462 177.699 71.3213 177.699C71.9591 177.699 72.6065 177.844 73.2014 178.075C75.2346 178.872 77.3137 181.104 77.4517 183.357C77.4571 183.45 77.4592 183.539 77.4582 183.622Z" fill="#61724E"/>
<path d="M76.2815 184.989C75.2793 184.989 73.8132 184.242 72.5977 183.622H77.4578C77.4472 184.631 76.9758 184.989 76.2815 184.989Z" fill="#496047"/>
<path d="M88.5223 182.134C89.1313 182.479 89.6997 182.952 90.0057 183.594C90.3118 184.236 90.3033 185.066 89.8522 185.612C89.0886 186.535 87.65 186.202 86.5377 185.79C84.8655 185.171 80.0037 184.476 82.3296 182.287C83.7543 180.947 87.0037 181.161 88.5223 182.134Z" fill="#779962"/>
<mask id="mask9_1015_47560" style="mask-type:luminance" maskUnits="userSpaceOnUse" x="70" y="194" width="7" height="7">
<path d="M70.4288 195.221C69.7865 196.154 70.2133 197.515 71.0679 198.258C71.9225 199.001 73.0776 199.275 74.1881 199.498C75.2147 199.703 75.9886 200.171 76.977 200.014C77.1829 198.246 71.8026 193.223 70.4288 195.221Z" fill="white"/>
</mask>
<g mask="url(#mask9_1015_47560)">
<path d="M70.4288 195.221C69.7865 196.154 70.2133 197.515 71.0679 198.258C71.9225 199.001 73.0776 199.275 74.1881 199.498C75.2147 199.703 75.9886 200.171 76.977 200.014C77.1829 198.246 71.8026 193.223 70.4288 195.221Z" fill="url(#paint3_linear_1015_47560)"/>
</g>
<path d="M78.8561 243.188C77.6066 244.207 75.72 244.592 74.312 243.793C72.9039 242.994 72.3846 240.864 73.526 239.731C74.4222 238.841 75.8741 238.827 77.144 238.979C78.2993 239.118 80.5189 238.684 80.9194 239.921C81.2074 240.809 79.476 242.683 78.8561 243.188Z" fill="#779962"/>
<mask id="mask10_1015_47560" style="mask-type:luminance" maskUnits="userSpaceOnUse" x="94" y="205" width="10" height="6">
<path d="M100.312 205.755C101.057 205.927 101.81 206.172 102.392 206.667C102.976 207.161 103.36 207.954 103.184 208.698C102.894 209.941 101.331 210.388 100.057 210.295C98.4336 210.176 94.7954 209.082 94.4758 207.095C94.0469 204.433 98.7383 205.392 100.312 205.755Z" fill="white"/>
</mask>
<g mask="url(#mask10_1015_47560)">
<path d="M100.312 205.755C101.057 205.927 101.81 206.172 102.392 206.667C102.976 207.161 103.36 207.954 103.184 208.698C102.894 209.941 101.331 210.388 100.057 210.295C98.4336 210.176 94.7954 209.082 94.4758 207.095C94.0469 204.433 98.7383 205.392 100.312 205.755Z" fill="url(#paint4_linear_1015_47560)"/>
</g>
<path d="M93.5391 225.54C92.5845 225.54 91.6477 224.926 91.1621 224.077C90.5941 223.084 90.566 221.851 90.8401 220.738C91.2486 219.079 91.7779 218.25 92.5282 218.25C93.1066 218.25 93.8173 218.745 94.7031 219.736C95.4784 220.601 96.0359 221.727 95.9838 222.892C95.9317 224.055 95.1553 225.221 94.0278 225.484C93.8663 225.522 93.7027 225.54 93.5391 225.54Z" fill="#496047"/>
<mask id="mask11_1015_47560" style="mask-type:luminance" maskUnits="userSpaceOnUse" x="14" y="205" width="14" height="10">
<path d="M17.2511 208.128C16.3761 208.692 15.554 209.39 15.0647 210.308C14.5754 211.227 14.4696 212.398 14.9948 213.296C15.5711 214.282 16.795 214.751 17.9359 214.7C19.0768 214.648 20.1507 214.157 21.1459 213.596C22.6223 212.765 28.9443 208.541 27.7633 206.828C26.1227 204.449 18.9437 207.039 17.2511 208.128Z" fill="white"/>
</mask>
<g mask="url(#mask11_1015_47560)">
<path d="M17.2511 208.128C16.3761 208.692 15.554 209.39 15.0647 210.308C14.5754 211.227 14.4696 212.398 14.9948 213.296C15.5711 214.282 16.795 214.751 17.9359 214.7C19.0768 214.648 20.1507 214.157 21.1459 213.596C22.6223 212.765 28.9443 208.541 27.7633 206.828C26.1227 204.449 18.9437 207.039 17.2511 208.128Z" fill="url(#paint5_linear_1015_47560)"/>
</g>
<path d="M76.7152 227.39C75.5157 227.305 74.2789 227.403 73.1761 227.881C72.0744 228.359 71.1194 229.254 70.7621 230.394C70.4059 231.533 70.7419 232.905 71.7065 233.617C72.7337 234.376 74.1566 234.264 75.4061 233.989C77.1544 233.603 81.5304 232.49 82.445 230.756C83.67 228.433 78.187 227.496 76.7152 227.39Z" fill="#779962"/>
<path d="M89.1667 240.632C89.7238 240.715 90.2938 240.825 90.7708 241.116C91.2489 241.407 91.6188 241.92 91.5798 242.463C91.5128 243.403 90.3554 243.885 89.3798 243.916C87.9488 243.962 85.0198 243.168 84.5179 241.609C83.8495 239.534 87.9207 240.447 89.1667 240.632Z" fill="#779962"/>
<path d="M75.6357 207.828C75.4134 207.578 75.1857 207.353 75.1116 207.296C60.5623 196.179 50.0204 195.515 43.7367 196.917C38.3178 198.127 32.3854 203.023 30.2315 208.064C27.8456 213.648 28.0333 222.924 29.4209 228.816C29.9921 231.24 30.6686 233.679 31.3231 236.038C32.4219 239.997 33.5579 244.091 34.2154 248.203C35.4423 255.875 34.6996 262.366 32.0083 267.496C31.9081 267.686 31.9814 267.922 32.1714 268.022C32.2292 268.053 32.2916 268.066 32.3523 268.066C32.4922 268.066 32.6275 267.991 32.697 267.858C35.4685 262.576 36.2377 255.922 34.9838 248.08C34.3196 243.924 33.1774 239.809 32.0733 235.829C31.4208 233.478 30.7462 231.047 30.1787 228.636C28.8192 222.866 28.6266 213.802 30.9468 208.372C33.0129 203.536 38.7055 198.839 43.9061 197.679C55.5089 195.092 68.0233 202.881 74.5229 207.828H75.6357Z" fill="#383919"/>
<path d="M80.888 207.771C80.8563 207.557 80.8151 207.369 80.7866 207.314C76.5256 198.846 76.515 188.32 80.758 179.844C81.9879 177.39 84.6778 173.231 88.8796 172.97C89.0402 172.96 89.1617 172.821 89.1522 172.66C89.1427 172.499 89.0085 172.359 88.8437 172.386C84.3513 172.665 81.524 177.014 80.2382 179.581C75.9138 188.22 75.9244 198.947 80.2668 207.577C80.2794 207.603 80.3175 207.676 80.3682 207.771H80.888Z" fill="#383919"/>
<path d="M84.1305 207.811C84.2934 207.016 84.781 206.288 85.528 205.734C86.4926 205.019 87.7273 204.718 88.8344 204.932C90.8439 205.316 92.5962 207.171 93.0967 209.443C93.6369 211.896 92.8181 214.323 92.0357 215.928C91.2094 217.624 90.0723 219.194 88.9726 220.713C88.7444 221.028 88.5161 221.344 88.2899 221.661C85.7424 225.231 82.7254 230.035 82.0084 235.532C81.2732 241.159 83.3642 246.577 87.335 249.334C87.3864 249.369 87.4454 249.386 87.5033 249.386C87.5965 249.386 87.6887 249.342 87.7455 249.26C87.8398 249.129 87.8076 248.946 87.6737 248.852C83.8818 246.22 81.8873 241.021 82.5946 235.607C83.2945 230.238 86.2643 225.514 88.7722 222C88.9973 221.683 89.2256 221.369 89.4528 221.055C90.5674 219.516 91.7195 217.925 92.5684 216.183C93.3904 214.495 94.2499 211.934 93.6733 209.318C93.116 206.784 91.2158 204.79 88.9458 204.356C87.6822 204.11 86.2697 204.452 85.1743 205.265C84.273 205.932 83.6964 206.829 83.5292 207.811H84.1305Z" fill="#383919"/>
<path d="M77.9687 186.203C77.9866 186.203 78.0045 186.199 78.0204 186.189C78.0657 186.16 78.0794 186.101 78.051 186.057C76.7152 183.942 74.8265 182.21 72.5886 181.05C72.5411 181.026 72.482 181.044 72.4578 181.09C72.4325 181.137 72.4504 181.194 72.4979 181.219C74.7052 182.363 76.5696 184.072 77.8864 186.158C77.9054 186.188 77.937 186.203 77.9687 186.203Z" fill="#383919"/>
<path d="M55.1879 197.291C55.2005 197.291 55.212 197.288 55.2246 197.284C55.2738 197.264 55.2968 197.206 55.2769 197.157C54.163 194.391 52.3278 191.977 49.9713 190.173C49.9284 190.14 49.8676 190.148 49.8362 190.192C49.8038 190.235 49.8122 190.295 49.854 190.328C52.1844 192.11 53.9976 194.497 55.0989 197.23C55.1136 197.268 55.1502 197.291 55.1879 197.291Z" fill="#383919"/>
<path d="M45.0098 196.987C45.0513 196.987 45.0897 196.96 45.1035 196.92C45.1195 196.87 45.0908 196.816 45.0396 196.799C42.9217 196.129 40.7365 195.402 38.6224 194.699C36.4988 193.991 34.3025 193.26 32.1742 192.587C32.1226 192.572 32.0675 192.599 32.0511 192.65C32.0346 192.7 32.0629 192.754 32.1145 192.77C34.2413 193.442 36.4364 194.173 38.5597 194.88C40.6741 195.584 42.8609 196.312 44.9799 196.982C44.9895 196.985 45.0002 196.987 45.0098 196.987Z" fill="#383919"/>
<path d="M23.1823 203.062C23.1925 203.062 23.2027 203.061 23.2129 203.057C27.261 201.671 31.4753 201.029 35.7438 201.148H35.7465C35.7986 201.148 35.8417 201.106 35.8432 201.052C35.8447 200.997 35.8024 200.952 35.7491 200.95C31.4606 200.83 27.2214 201.475 23.1516 202.87C23.101 202.887 23.0735 202.944 23.0905 202.996C23.104 203.037 23.1418 203.062 23.1823 203.062Z" fill="#383919"/>
<path d="M21.2082 210.656C21.2275 210.656 21.2465 210.651 21.2635 210.638C24.3252 208.481 27.8695 206.926 31.5142 206.143C31.5664 206.132 31.6001 206.08 31.5888 206.027C31.5778 205.974 31.5282 205.937 31.474 205.951C27.8043 206.74 24.2357 208.304 21.1529 210.477C21.109 210.507 21.0981 210.569 21.1288 210.614C21.1473 210.641 21.1776 210.656 21.2082 210.656Z" fill="#383919"/>
<path d="M36.2002 227.06C36.2136 227.06 36.2276 227.056 36.2407 227.051C36.2905 227.029 36.3126 226.97 36.2905 226.921C34.3046 222.531 31.7607 218.4 28.7292 214.643C28.6941 214.6 28.6323 214.593 28.5903 214.627C28.5478 214.661 28.5408 214.722 28.5748 214.765C31.5958 218.51 34.1312 222.626 36.1098 227.001C36.1264 227.038 36.1623 227.06 36.2002 227.06Z" fill="#383919"/>
<path d="M16.5016 225.844C16.5219 225.844 16.5419 225.837 16.5596 225.825C20.2847 223.176 24.3503 220.995 28.6433 219.346C28.6936 219.326 28.7186 219.271 28.6987 219.222C28.6791 219.173 28.6218 219.148 28.5711 219.168C24.2624 220.823 20.1822 223.011 16.4436 225.671C16.3999 225.702 16.3902 225.761 16.4221 225.804C16.4413 225.83 16.4713 225.844 16.5016 225.844Z" fill="#383919"/>
<path d="M20.7519 233.438C20.7837 233.438 20.8147 233.421 20.8331 233.393C23.0482 229.908 25.7362 226.762 28.8235 224.042C28.8636 224.007 28.8681 223.945 28.8334 223.903C28.7975 223.862 28.7375 223.857 28.6967 223.893C25.5963 226.626 22.8957 229.786 20.6708 233.287C20.6417 233.332 20.6547 233.393 20.6996 233.421C20.7157 233.432 20.7338 233.438 20.7519 233.438Z" fill="#383919"/>
<path d="M39.0867 246.804C39.1104 246.804 39.1345 246.795 39.1532 246.777C39.1929 246.74 39.1953 246.678 39.1586 246.637L32.6717 239.545C32.6346 239.506 32.5728 239.503 32.5334 239.539C32.4936 239.577 32.4913 239.639 32.5281 239.679L39.015 246.771C39.034 246.793 39.0604 246.804 39.0867 246.804Z" fill="#383919"/>
<path d="M26.0686 259.409L26.0934 259.406L34.8593 257.025C34.9114 257.011 34.9425 256.956 34.9288 256.903C34.9147 256.849 34.8626 256.816 34.8098 256.831L26.044 259.212C25.9919 259.226 25.9607 259.28 25.9744 259.335C25.9862 259.379 26.0253 259.409 26.0686 259.409Z" fill="#383919"/>
<path d="M25.6129 249.537C25.6589 249.537 25.6997 249.504 25.7084 249.457C26.4524 245.558 29.1499 242.11 32.7487 240.459C32.7978 240.437 32.8194 240.378 32.7969 240.33C32.7746 240.28 32.7152 240.259 32.6681 240.281C29.0125 241.958 26.2725 245.46 25.5174 249.421C25.5072 249.473 25.5418 249.525 25.5947 249.536L25.6129 249.537Z" fill="#383919"/>
<path d="M38.0259 263.206C38.0367 263.206 38.0477 263.205 38.058 263.201C38.1076 263.183 38.1338 263.126 38.1159 263.076L35.4212 255.373C35.4033 255.323 35.3474 255.296 35.2993 255.314C35.2497 255.332 35.2236 255.388 35.2415 255.439L37.9361 263.141C37.9499 263.182 37.9868 263.206 38.0259 263.206Z" fill="#383919"/>
<path d="M77.2528 194.709C77.2732 194.709 77.2925 194.703 77.3107 194.69C79.9465 192.796 83.5027 192.26 86.5928 193.293C86.6431 193.312 86.6999 193.283 86.7171 193.232C86.7353 193.181 86.7074 193.128 86.656 193.11C83.507 192.058 79.8811 192.604 77.195 194.534C77.151 194.566 77.1414 194.626 77.1725 194.669C77.1917 194.695 77.2217 194.709 77.2528 194.709Z" fill="#383919"/>
<path d="M78.4686 184.837C78.4814 184.837 78.4943 184.835 78.5071 184.83C81.3204 183.679 84.5202 183.364 87.5166 183.945C87.5734 183.956 87.6216 183.922 87.6323 183.871C87.643 183.82 87.6087 183.769 87.5552 183.76C84.5224 183.169 81.2797 183.488 78.43 184.654C78.3797 184.676 78.3561 184.731 78.3775 184.779C78.3936 184.815 78.43 184.837 78.4686 184.837Z" fill="#383919"/>
<path d="M100.598 207.922C100.641 207.922 100.679 207.893 100.691 207.848C100.707 207.794 100.678 207.736 100.627 207.721C98.2866 206.989 94.7483 206.178 91.8344 206.099H91.8323C91.7793 206.099 91.737 206.144 91.7349 206.2C91.7338 206.256 91.7762 206.303 91.8301 206.305C94.7239 206.382 98.2432 207.189 100.571 207.919L100.598 207.922Z" fill="#383919"/>
<path d="M93.3116 224.325L93.3208 224.324C93.3726 224.319 93.4101 224.272 93.405 224.219C93.2781 222.889 93.003 221.487 92.738 220.131C92.473 218.78 92.1989 217.382 92.073 216.061C92.0679 216.008 92.0232 215.96 91.9715 215.975C91.9197 215.98 91.8821 216.026 91.8872 216.08C92.0141 217.411 92.2892 218.814 92.5553 220.17C92.8192 221.522 93.0934 222.918 93.2193 224.239C93.2243 224.288 93.2649 224.325 93.3116 224.325Z" fill="#383919"/>
<path d="M74.5188 241.791L74.5455 241.787L82.3983 239.701C82.4506 239.687 82.4805 239.634 82.4666 239.584C82.4516 239.533 82.3993 239.501 82.3459 239.517L74.4931 241.604C74.4408 241.618 74.4098 241.671 74.4237 241.721C74.4365 241.763 74.476 241.791 74.5188 241.791Z" fill="#383919"/>
<path d="M45.2059 210.504C45.2518 210.504 45.2934 210.472 45.3019 210.425C46.5996 203.844 50.418 199.062 55.5159 197.635C55.5682 197.62 55.598 197.567 55.5842 197.514C55.5692 197.462 55.5148 197.432 55.4625 197.446C50.2931 198.893 46.4224 203.731 45.1098 210.386C45.0991 210.44 45.1344 210.492 45.1867 210.503L45.2059 210.504Z" fill="#383919"/>
<path d="M67.183 202.91L67.2121 202.906C67.2637 202.891 67.2939 202.835 67.2777 202.784L65.0459 195.538C65.0297 195.485 64.9738 195.456 64.9221 195.473C64.8704 195.489 64.8403 195.543 64.8564 195.594L67.0883 202.841C67.1012 202.883 67.1399 202.91 67.183 202.91Z" fill="#383919"/>
<path d="M77.8139 200.937C77.8389 200.937 77.865 200.927 77.8845 200.908C77.9237 200.87 77.9237 200.808 77.8845 200.77C76.7267 199.648 75.6766 199.097 74.4612 198.458C73.9709 198.202 73.4654 197.936 72.9012 197.609C72.8555 197.582 72.7924 197.596 72.7642 197.642C72.7359 197.688 72.7511 197.748 72.799 197.776C73.3654 198.104 73.8741 198.37 74.3655 198.629C75.5679 199.261 76.6061 199.805 77.7432 200.908C77.7628 200.927 77.7878 200.937 77.8139 200.937Z" fill="#383919"/>
<path d="M90.1178 242.398C90.1628 242.398 90.2034 242.369 90.2141 242.323C90.2259 242.27 90.1938 242.217 90.1403 242.205L82.44 240.426C82.3844 240.415 82.3341 240.447 82.3213 240.499C82.3095 240.552 82.3416 240.605 82.3951 240.617L90.0953 242.396L90.1178 242.398Z" fill="#383919"/>
<path d="M75.5827 231.008L75.5967 231.007L83.9032 229.971C83.958 229.964 83.9957 229.919 83.9881 229.87C83.9806 229.821 83.9344 229.788 83.8763 229.793L75.5698 230.83C75.515 230.836 75.4773 230.881 75.4848 230.93C75.4913 230.976 75.5343 231.008 75.5827 231.008Z" fill="#383919"/>
<path d="M30.4566 273.565C29.4769 274.442 28.1579 275.157 26.8893 274.812C25.1615 274.343 24.4883 272.041 25.1711 270.386C25.8538 268.73 27.4487 267.644 29.0432 266.83C31.2977 265.678 34.3203 262.938 33.8126 267.104C33.5139 269.554 32.2962 271.918 30.4566 273.565Z" fill="#779962"/>
<mask id="mask12_1015_47560" style="mask-type:luminance" maskUnits="userSpaceOnUse" x="84" y="246" width="9" height="8">
<path d="M92.8026 249.092C93.2878 250.745 92.1571 252.627 90.5243 253.177C88.8915 253.727 86.987 253.045 85.8861 251.72C81.1066 245.97 91.3609 244.184 92.8026 249.092Z" fill="white"/>
</mask>
<g mask="url(#mask12_1015_47560)">
<path d="M92.8026 249.092C93.2878 250.745 92.1571 252.627 90.5243 253.177C88.8915 253.727 86.987 253.045 85.8861 251.72C81.1066 245.97 91.3609 244.184 92.8026 249.092Z" fill="url(#paint6_linear_1015_47560)"/>
</g>
<mask id="mask13_1015_47560" style="mask-type:luminance" maskUnits="userSpaceOnUse" x="85" y="167" width="14" height="8">
<path d="M95.1715 173.943C96.7512 173.519 98.4912 172.545 98.6282 170.915C98.7014 170.038 98.2513 169.169 97.5793 168.601C96.9073 168.032 96.0399 167.735 95.1683 167.612C93.1863 167.33 91.097 167.919 89.5534 169.195C88.5607 170.017 86.1519 172.707 85.189 173.795C85.0287 173.977 85.1539 174.262 85.396 174.264C87.4184 174.281 93.8158 174.306 95.1715 173.943Z" fill="white"/>
</mask>
<g mask="url(#mask13_1015_47560)">
<path d="M95.1715 173.943C96.7512 173.519 98.4912 172.545 98.6282 170.915C98.7014 170.038 98.2513 169.169 97.5793 168.601C96.9073 168.032 96.0399 167.735 95.1683 167.612C93.1863 167.33 91.097 167.919 89.5534 169.195C88.5607 170.017 86.1519 172.707 85.189 173.795C85.0287 173.977 85.1539 174.262 85.396 174.264C87.4184 174.281 93.8158 174.306 95.1715 173.943Z" fill="url(#paint7_linear_1015_47560)"/>
</g>
<path d="M28.1947 272.623C28.2149 272.623 28.2352 272.617 28.2527 272.604C31.0626 270.543 33.1635 267.574 34.1681 264.242C34.1837 264.19 34.1544 264.136 34.1029 264.12C34.0477 264.11 33.9962 264.135 33.9813 264.186C32.9884 267.478 30.9132 270.412 28.1367 272.447C28.0937 272.479 28.0841 272.539 28.1161 272.583C28.1352 272.609 28.1645 272.623 28.1947 272.623Z" fill="#383919"/>
<path d="M90.4226 251.208C90.4624 251.208 90.4991 251.182 90.5138 251.14C90.5316 251.089 90.5054 251.033 90.4551 251.013C88.2766 250.198 86.42 248.613 85.2311 246.548C85.2039 246.5 85.1451 246.486 85.098 246.514C85.0529 246.543 85.0382 246.604 85.0655 246.651C86.2774 248.754 88.1686 250.371 90.3901 251.201C90.4006 251.206 90.4121 251.208 90.4226 251.208Z" fill="#383919"/>
<path d="M84.695 174.509C84.7153 174.509 84.7366 174.502 84.7537 174.489C87.3816 172.545 90.4523 171.095 93.635 170.295C93.6884 170.283 93.7193 170.23 93.7065 170.177C93.6937 170.126 93.6382 170.093 93.587 170.108C90.3798 170.913 87.2834 172.375 84.6352 174.335C84.5926 174.367 84.584 174.427 84.616 174.47C84.6353 174.495 84.6651 174.509 84.695 174.509Z" fill="#383919"/>
<defs>
<linearGradient id="paint0_linear_1015_47560" x1="131.137" y1="187.093" x2="140.858" y2="187.093" gradientUnits="userSpaceOnUse">
<stop stop-color="#9FCF91"/>
<stop offset="0.00119874" stop-color="#9FCF91"/>
<stop offset="1" stop-color="#B3DAA5"/>
</linearGradient>
<linearGradient id="paint1_linear_1015_47560" x1="41.9968" y1="206.711" x2="51.7243" y2="206.711" gradientUnits="userSpaceOnUse">
<stop stop-color="#9FCF91"/>
<stop offset="0.00119874" stop-color="#9FCF91"/>
<stop offset="1" stop-color="#B3DAA5"/>
</linearGradient>
<linearGradient id="paint2_linear_1015_47560" x1="22.3419" y1="247.291" x2="31.6807" y2="247.291" gradientUnits="userSpaceOnUse">
<stop stop-color="#9FCF91"/>
<stop offset="0.00119874" stop-color="#9FCF91"/>
<stop offset="1" stop-color="#B3DAA5"/>
</linearGradient>
<linearGradient id="paint3_linear_1015_47560" x1="70.1188" y1="197.403" x2="76.9819" y2="197.403" gradientUnits="userSpaceOnUse">
<stop stop-color="#9FCF91"/>
<stop offset="0.00119874" stop-color="#9FCF91"/>
<stop offset="1" stop-color="#B3DAA5"/>
</linearGradient>
<linearGradient id="paint4_linear_1015_47560" x1="94.4482" y1="207.797" x2="103.228" y2="207.797" gradientUnits="userSpaceOnUse">
<stop stop-color="#9FCF91"/>
<stop offset="0.00119874" stop-color="#9FCF91"/>
<stop offset="1" stop-color="#B3DAA5"/>
</linearGradient>
<linearGradient id="paint5_linear_1015_47560" x1="14.6465" y1="210.279" x2="27.9093" y2="210.279" gradientUnits="userSpaceOnUse">
<stop stop-color="#9FCF91"/>
<stop offset="0.00119874" stop-color="#9FCF91"/>
<stop offset="1" stop-color="#B3DAA5"/>
</linearGradient>
<linearGradient id="paint6_linear_1015_47560" x1="84.6259" y1="249.804" x2="92.9162" y2="249.804" gradientUnits="userSpaceOnUse">
<stop stop-color="#9FCF91"/>
<stop offset="0.00119874" stop-color="#9FCF91"/>
<stop offset="1" stop-color="#B3DAA5"/>
</linearGradient>
<linearGradient id="paint7_linear_1015_47560" x1="85.1178" y1="170.907" x2="98.6364" y2="170.907" gradientUnits="userSpaceOnUse">
<stop stop-color="#9FCF91"/>
<stop offset="0.00119874" stop-color="#9FCF91"/>
<stop offset="1" stop-color="#B3DAA5"/>
</linearGradient>
</defs>
</svg>
