<svg width="24" height="24" viewBox="0 0 24 24" fill="none" xmlns="http://www.w3.org/2000/svg">
<g clip-path="url(#clip0_894_15592)">
<path d="M1.49996 1.63329C-0.386045 3.59229 -4.48865e-05 5.67329 -4.48865e-05 11.9953C-4.48865e-05 17.2453 -0.916045 22.5083 3.87795 23.7473C5.37495 24.1323 18.639 24.1323 20.134 23.7453C22.13 23.2303 23.754 21.6113 23.976 18.7883C24.007 18.3943 24.007 5.60329 23.975 5.20129C23.739 2.19429 21.888 0.461291 19.449 0.110291C18.89 0.0292905 18.778 0.00529053 15.91 0.000290533C5.73695 0.00529053 3.50695 -0.44771 1.49996 1.63329Z" fill="#0F2F60"/>
<path d="M11.9981 3.13941C8.36706 3.13941 4.91906 2.81641 3.60206 6.19641C3.05806 7.59241 3.13706 9.40541 3.13706 12.0014C3.13706 14.2794 3.06406 16.4204 3.60206 17.8054C4.91606 21.1874 8.39206 20.8634 11.9961 20.8634C15.4731 20.8634 19.0581 21.2254 20.3911 17.8054C20.9361 16.3954 20.8561 14.6094 20.8561 12.0014C20.8561 8.53941 21.0471 6.30441 19.3681 4.62641C17.6681 2.92641 15.3691 3.13941 11.9941 3.13941H11.9981ZM11.2041 4.73641C18.7781 4.72441 19.7421 3.88241 19.2101 15.5794C19.0211 19.7164 15.8711 19.2624 11.9991 19.2624C4.93906 19.2624 4.73606 19.0604 4.73606 11.9974C4.73606 4.85241 5.29606 4.74041 11.2041 4.73441V4.73641ZM16.7281 6.20741C16.1411 6.20741 15.6651 6.68341 15.6651 7.27041C15.6651 7.85741 16.1411 8.33341 16.7281 8.33341C17.3151 8.33341 17.7911 7.85741 17.7911 7.27041C17.7911 6.68341 17.3151 6.20741 16.7281 6.20741ZM11.9981 7.45041C9.48506 7.45041 7.44806 9.48841 7.44806 12.0014C7.44806 14.5144 9.48506 16.5514 11.9981 16.5514C14.5111 16.5514 16.5471 14.5144 16.5471 12.0014C16.5471 9.48841 14.5111 7.45041 11.9981 7.45041ZM11.9981 9.04741C15.9031 9.04741 15.9081 14.9554 11.9981 14.9554C8.09406 14.9554 8.08806 9.04741 11.9981 9.04741Z" fill="white"/>
</g>
<defs>
<clipPath id="clip0_894_15592">
<rect width="24" height="24" fill="white"/>
</clipPath>
</defs>
</svg>
