<svg width="22" height="22" viewBox="0 0 22 22" fill="none" xmlns="http://www.w3.org/2000/svg">
<path d="M9.45871 4.7923H3.87707C3.82336 4.7923 3.77996 4.8357 3.77996 4.88941V4.93023C3.77996 4.98395 3.82336 5.02734 3.87707 5.02734H9.45871C9.51242 5.02734 9.55582 4.98395 9.55582 4.93023V4.88941C9.55582 4.8357 9.51242 4.7923 9.45871 4.7923ZM9.45871 4.19504H3.87707C3.82336 4.19504 3.77996 4.23844 3.77996 4.29215V4.33297C3.77996 4.38668 3.82336 4.43008 3.87707 4.43008H9.45871C9.51242 4.43008 9.55582 4.38668 9.55582 4.33297V4.29215C9.55582 4.23844 9.51242 4.19504 9.45871 4.19504ZM9.45871 3.59777H3.87707C3.82336 3.59777 3.77996 3.64117 3.77996 3.69488V3.7357C3.77996 3.78941 3.82336 3.83281 3.87707 3.83281H9.45871C9.51242 3.83281 9.55582 3.78941 9.55582 3.7357V3.69488C9.55582 3.64117 9.51242 3.59777 9.45871 3.59777ZM9.45871 5.38957H3.87707C3.82336 5.38957 3.77996 5.43297 3.77996 5.48668V5.5275C3.77996 5.58121 3.82336 5.62461 3.87707 5.62461H9.45871C9.51242 5.62461 9.55582 5.58121 9.55582 5.5275V5.48668C9.55582 5.43297 9.51242 5.38957 9.45871 5.38957ZM15.1061 20.2929H6.89434C6.84062 20.2929 6.79723 20.3363 6.79723 20.39V20.4308C6.79723 20.4845 6.84062 20.5279 6.89434 20.5279H15.1061C15.1598 20.5279 15.2032 20.4845 15.2032 20.4308V20.39C15.2032 20.3363 15.1598 20.2929 15.1061 20.2929ZM7.49934 19.9603H14.5007C14.5544 19.9603 14.5978 19.9169 14.5978 19.8632V19.8223C14.5978 19.7686 14.5544 19.7252 14.5007 19.7252H7.49934C7.44562 19.7252 7.40223 19.7686 7.40223 19.8223V19.8632C7.40223 19.9169 7.44562 19.9603 7.49934 19.9603ZM21.1114 10.4268H19.7536L19.7429 6.35164L12.1468 0H4.00039C3.12641 0 2.41527 0.710703 2.41527 1.58469V10.4268H0.888594C0.39875 10.4268 0 10.8234 0 11.3111V17.4316C0 17.9193 0.39875 18.3163 0.888594 18.3163H2.41527V20.4153C2.41527 21.2893 3.12641 22 4.00039 22H18.1951C19.0687 22 19.7798 21.2893 19.7798 20.4149L19.7742 18.3163H21.1114C21.6013 18.3163 22 17.9193 22 17.4316V11.3111C22 10.8234 21.6013 10.4268 21.1114 10.4268ZM12.1309 0.427969L19.3316 6.44918H12.2534C12.1309 6.44918 12.1107 6.30652 12.1107 6.30652L12.1309 0.428398V0.427969ZM2.75387 1.58469C2.75387 0.897617 3.31289 0.338594 4.00039 0.338594H11.8392C11.834 0.360938 11.8302 0.383711 11.8302 0.407344L11.81 6.30523C11.81 6.31984 11.8108 6.33445 11.813 6.34863C11.8413 6.54801 12.002 6.74996 12.2534 6.74996H19.3553C19.3725 6.74996 19.3888 6.74824 19.4051 6.74566L19.415 10.4268H2.75387V1.58469ZM18.1951 21.6614H4.00039C3.31289 21.6614 2.75387 21.1024 2.75387 20.4153V18.3163H19.4356L19.4412 20.4153C19.4412 21.1024 18.8822 21.6614 18.1951 21.6614ZM21.6979 17.4316C21.6979 17.7543 21.4354 18.0155 21.1114 18.0155H0.888594C0.564609 18.0155 0.30207 17.7543 0.30207 17.4316V11.3111C0.30207 10.9888 0.564609 10.7276 0.888594 10.7276H21.1114C21.4354 10.7276 21.6979 10.9888 21.6979 11.3111V17.4316ZM9.45871 2.40324H3.87707C3.82336 2.40324 3.77996 2.44664 3.77996 2.50035V2.54117C3.77996 2.59488 3.82336 2.63828 3.87707 2.63828H9.45871C9.51242 2.63828 9.55582 2.59488 9.55582 2.54117V2.50035C9.55582 2.44664 9.51242 2.40324 9.45871 2.40324ZM9.45871 3.00051H3.87707C3.82336 3.00051 3.77996 3.04391 3.77996 3.09762V3.13844C3.77996 3.19215 3.82336 3.23555 3.87707 3.23555H9.45871C9.51242 3.23555 9.55582 3.19215 9.55582 3.13844V3.09762C9.55582 3.04391 9.51242 3.00051 9.45871 3.00051Z" fill="#0F2F60"/>
<path d="M11.8462 0.211426V6.1345L12.2693 6.55758H19.4616L11.8462 0.211426Z" fill="#0F2F60"/>
<rect y="10" width="22" height="9" rx="1" fill="#0F2F60"/>
<path d="M16.6932 16.4105H15.8972L14.4634 13.9629V16.4105H13.7192V12.6924H14.5152L15.9491 15.1426V12.6924H16.6932V16.4105Z" fill="white"/>
<path d="M13.1566 15.2956C13.1566 15.4495 13.1272 15.5938 13.0685 15.7286C13.0097 15.8634 12.9293 15.9819 12.8273 16.0838C12.7271 16.1841 12.6095 16.2636 12.4747 16.3224C12.3399 16.3812 12.1955 16.4105 12.0417 16.4105H10.1826V12.6924H12.0417C12.1955 12.6924 12.3399 12.7218 12.4747 12.7805C12.6095 12.8393 12.7271 12.9197 12.8273 13.0217C12.9293 13.1219 13.0097 13.2395 13.0685 13.3743C13.1272 13.5091 13.1566 13.6535 13.1566 13.8073C13.1566 13.8765 13.1471 13.9473 13.1281 14.0199C13.1091 14.0925 13.0823 14.1625 13.0477 14.2299C13.0132 14.2974 12.9717 14.3587 12.9233 14.414C12.8749 14.4694 12.8213 14.5152 12.7625 14.5515C12.823 14.5843 12.8775 14.6292 12.9259 14.6863C12.9743 14.7416 13.0157 14.803 13.0503 14.8704C13.0849 14.9378 13.1108 15.0087 13.1281 15.083C13.1471 15.1556 13.1566 15.2265 13.1566 15.2956ZM10.9268 15.6664H12.0417C12.0936 15.6664 12.142 15.6569 12.1869 15.6379C12.2318 15.6189 12.2707 15.5929 12.3036 15.5601C12.3381 15.5255 12.3649 15.4858 12.384 15.4408C12.403 15.3959 12.4125 15.3475 12.4125 15.2956C12.4125 15.2438 12.403 15.1954 12.384 15.1504C12.3649 15.1055 12.3381 15.0666 12.3036 15.0337C12.2707 14.9992 12.2318 14.9724 12.1869 14.9534C12.142 14.9343 12.0936 14.9248 12.0417 14.9248H10.9268V15.6664ZM10.9268 14.1807H12.0417C12.0936 14.1807 12.142 14.1712 12.1869 14.1522C12.2318 14.1331 12.2707 14.1072 12.3036 14.0744C12.3381 14.0398 12.3649 14 12.384 13.9551C12.403 13.9084 12.4125 13.8592 12.4125 13.8073C12.4125 13.7555 12.403 13.7071 12.384 13.6621C12.3649 13.6172 12.3381 13.5783 12.3036 13.5454C12.2707 13.5109 12.2318 13.4841 12.1869 13.4651C12.142 13.446 12.0936 13.4365 12.0417 13.4365H10.9268V14.1807Z" fill="white"/>
<path d="M6.71826 13.8073C6.71826 13.6535 6.74765 13.5091 6.80642 13.3743C6.86519 13.2395 6.9447 13.1219 7.04496 13.0217C7.14695 12.9197 7.26535 12.8393 7.40018 12.7805C7.53501 12.7218 7.67935 12.6924 7.83319 12.6924H9.53929V13.4365H7.83319C7.78133 13.4365 7.73293 13.446 7.68799 13.4651C7.64305 13.4841 7.60329 13.5109 7.56872 13.5454C7.53588 13.5783 7.50995 13.6172 7.49093 13.6621C7.47192 13.7071 7.46241 13.7555 7.46241 13.8073C7.46241 13.8592 7.47192 13.9084 7.49093 13.9551C7.50995 14 7.53588 14.0398 7.56872 14.0744C7.60329 14.1072 7.64305 14.1331 7.68799 14.1522C7.73293 14.1712 7.78133 14.1807 7.83319 14.1807H8.57734C8.73118 14.1807 8.87552 14.2101 9.01035 14.2688C9.1469 14.3259 9.26531 14.4054 9.36557 14.5074C9.46755 14.6076 9.54707 14.726 9.60411 14.8626C9.66288 14.9974 9.69227 15.1418 9.69227 15.2956C9.69227 15.4495 9.66288 15.5938 9.60411 15.7286C9.54707 15.8634 9.46755 15.9819 9.36557 16.0838C9.26531 16.1841 9.1469 16.2636 9.01035 16.3224C8.87552 16.3812 8.73118 16.4105 8.57734 16.4105H6.92569V15.6664H8.57734C8.6292 15.6664 8.6776 15.6569 8.72254 15.6379C8.76748 15.6189 8.80637 15.5929 8.83922 15.5601C8.87379 15.5255 8.90058 15.4858 8.9196 15.4408C8.93861 15.3959 8.94812 15.3475 8.94812 15.2956C8.94812 15.2438 8.93861 15.1954 8.9196 15.1504C8.90058 15.1055 8.87379 15.0666 8.83922 15.0337C8.80637 14.9992 8.76748 14.9724 8.72254 14.9534C8.6776 14.9343 8.6292 14.9248 8.57734 14.9248H7.83319C7.67935 14.9248 7.53501 14.8954 7.40018 14.8367C7.26535 14.7779 7.14695 14.6984 7.04496 14.5981C6.9447 14.4961 6.86519 14.3777 6.80642 14.2429C6.74765 14.1064 6.71826 13.9612 6.71826 13.8073Z" fill="white"/>
<path d="M6.24415 16.4105H5.5V12.6924H6.24415V16.4105Z" fill="white"/>
</svg>
