<svg width="24" height="24" viewBox="0 0 24 24" fill="none" xmlns="http://www.w3.org/2000/svg">
<path d="M20.0004 23.3515H3.9995C3.71293 23.3517 3.43027 23.285 3.17405 23.1566C2.91783 23.0283 2.69514 22.8419 2.52371 22.6122C2.35228 22.3826 2.23687 22.1161 2.18666 21.834C2.13645 21.5518 2.15285 21.2619 2.23453 20.9872L5.02372 11.5594C5.09156 11.3301 5.23136 11.1287 5.42245 10.985C5.61354 10.8413 5.8458 10.7628 6.0849 10.7612H17.9146C18.1539 10.7628 18.3862 10.8414 18.5774 10.9852C18.7686 11.1291 18.9084 11.3306 18.9761 11.56L21.7653 20.9875C21.847 21.2622 21.8633 21.5521 21.8131 21.8342C21.7628 22.1163 21.6474 22.3827 21.476 22.6123C21.3046 22.8419 21.0819 23.0283 20.8257 23.1567C20.5695 23.285 20.2869 23.3517 20.0004 23.3515ZM6.08685 11.4099C5.98763 11.4109 5.89138 11.4438 5.81234 11.5038C5.73331 11.5638 5.6757 11.6477 5.64804 11.743L2.85885 21.1717C2.80595 21.3494 2.79526 21.537 2.82762 21.7196C2.85999 21.9021 2.93452 22.0746 3.04528 22.2233C3.15604 22.372 3.29998 22.4927 3.46564 22.576C3.63129 22.6592 3.8141 22.7027 3.9995 22.7029H20.0004C20.1859 22.703 20.369 22.6598 20.5349 22.5768C20.7008 22.4937 20.845 22.373 20.956 22.2243C21.067 22.0756 21.1418 21.903 21.1743 21.7203C21.2068 21.5377 21.1962 21.3499 21.1433 21.172L18.3541 11.7433C18.3264 11.6479 18.2687 11.564 18.1896 11.504C18.1106 11.4439 18.0142 11.4109 17.915 11.4099H6.08685Z" fill="#0F2F60"/>
<path d="M13.1511 11.4097H10.8484C10.7624 11.4097 10.6799 11.3755 10.6191 11.3147C10.5583 11.2539 10.5241 11.1714 10.5241 11.0854V9.80624C9.46374 9.45554 8.56296 8.73868 7.98317 7.78413C7.40338 6.82958 7.1825 5.69975 7.36011 4.59713C7.53772 3.49451 8.10221 2.49118 8.9524 1.76698C9.8026 1.04277 10.8829 0.64502 11.9998 0.64502C13.1166 0.64502 14.1969 1.04277 15.0471 1.76698C15.8973 2.49118 16.4618 3.49451 16.6394 4.59713C16.817 5.69975 16.5961 6.82958 16.0164 7.78413C15.4366 8.73868 14.5358 9.45554 13.4754 9.80624V11.0854C13.4754 11.1714 13.4413 11.2539 13.3804 11.3147C13.3196 11.3755 13.2371 11.4097 13.1511 11.4097ZM11.1727 10.761H12.8268V9.56559C12.8268 9.49447 12.8501 9.4253 12.8932 9.36875C12.9364 9.3122 12.9969 9.27139 13.0655 9.25262C14.0121 8.99447 14.8329 8.40149 15.3753 7.58383C15.9178 6.76618 16.145 5.77943 16.0147 4.80689C15.8845 3.83435 15.4057 2.94214 14.6673 2.296C13.9288 1.64985 12.981 1.2937 11.9998 1.2937C11.0185 1.2937 10.0707 1.64985 9.33225 2.296C8.59382 2.94214 8.11501 3.83435 7.98479 4.80689C7.85456 5.77943 8.08176 6.76618 8.62419 7.58383C9.16661 8.40149 9.98738 8.99447 10.934 9.25262C11.0026 9.27139 11.0632 9.3122 11.1063 9.36875C11.1494 9.4253 11.1728 9.49447 11.1727 9.56559V10.761Z" fill="#0F2F60"/>
<path d="M12 8.25008C11.4174 8.25008 10.8479 8.0773 10.3634 7.75361C9.87898 7.42992 9.5014 6.96984 9.27844 6.43156C9.05548 5.89328 8.99714 5.30097 9.1108 4.72953C9.22447 4.1581 9.50503 3.6332 9.91702 3.22122C10.329 2.80923 10.8539 2.52867 11.4253 2.415C11.9968 2.30134 12.5891 2.35967 13.1274 2.58264C13.6656 2.8056 14.1257 3.18318 14.4494 3.66762C14.7731 4.15206 14.9459 4.72161 14.9459 5.30424C14.945 6.08526 14.6344 6.83405 14.0821 7.38631C13.5298 7.93858 12.7811 8.24922 12 8.25008ZM12 3.00705C11.5457 3.00705 11.1016 3.14178 10.7238 3.39419C10.346 3.64661 10.0516 4.00539 9.87771 4.42514C9.70384 4.8449 9.65835 5.30679 9.74699 5.7524C9.83563 6.19801 10.0544 6.60733 10.3757 6.9286C10.6969 7.24986 11.1063 7.46865 11.5519 7.55729C11.9975 7.64592 12.4594 7.60043 12.8791 7.42656C13.2989 7.25269 13.6577 6.95826 13.9101 6.58049C14.1625 6.20272 14.2972 5.75858 14.2972 5.30424C14.2965 4.6952 14.0543 4.1113 13.6236 3.68064C13.193 3.24998 12.6091 3.00774 12 3.00705Z" fill="#0F2F60"/>
<path d="M3 21.5999L6 11.3999H18L21 20.9999V22.1999L20.4 22.7999H3.6L3 22.1999V21.5999Z" fill="#0F2F60" stroke="#0F2F60" stroke-width="0.4" stroke-linecap="round"/>
<path d="M8.0127 19.2365V14.876H8.58967V17.0382L10.7552 14.876H11.5375L9.70826 16.6426L11.6179 19.2372H10.8564L9.30351 17.0318L8.58999 17.7278V19.2388L8.0127 19.2365Z" fill="white"/>
<path d="M11.6977 19.2771H10.8353L10.823 19.2596L9.29865 17.0914L8.63022 17.7427V19.2771H7.97217V14.8354H8.63022V16.9406L10.7383 14.8354H11.638L9.76211 16.6474L11.6977 19.2771ZM10.8771 19.196H11.5375L9.65638 16.638L11.4402 14.9165H10.7721L8.54914 17.1359V14.9165H8.05325V19.1976H8.54914V17.708L8.56147 17.696L9.30806 16.9669L9.33563 17.0062L10.8771 19.196Z" fill="white"/>
<path d="M14.1405 17.5259V17.0145L15.9891 17.0116V18.6296C15.7251 18.8444 15.4289 19.0165 15.1115 19.1394C14.8152 19.2527 14.5008 19.3107 14.1836 19.3107C13.7777 19.316 13.3768 19.2215 13.016 19.0353C12.6745 18.8604 12.3971 18.5819 12.2234 18.2398C12.0418 17.8793 11.9501 17.4803 11.9558 17.0767C11.9528 16.6655 12.0439 16.259 12.2221 15.8884C12.3817 15.5395 12.6505 15.252 12.9878 15.0692C13.3431 14.8852 13.7388 14.7931 14.1389 14.8013C14.4311 14.7971 14.7215 14.8492 14.9941 14.9547C15.228 15.0416 15.4348 15.1889 15.5934 15.3815C15.7524 15.5935 15.8649 15.8366 15.9236 16.095L15.4047 16.2377C15.3556 16.0499 15.273 15.8726 15.1608 15.7143C15.0511 15.5779 14.9075 15.4727 14.7444 15.4094C14.5539 15.331 14.3496 15.2921 14.1437 15.2949C13.9099 15.2895 13.6773 15.3304 13.4594 15.4152C13.2826 15.4849 13.1236 15.5932 12.994 15.7321C12.8783 15.8591 12.7853 16.005 12.719 16.1634C12.6062 16.4415 12.5496 16.7391 12.5523 17.0391C12.541 17.3756 12.6098 17.71 12.753 18.0147C12.8782 18.2681 13.0833 18.4733 13.3368 18.5985C13.5899 18.7247 13.869 18.7899 14.1518 18.7888C14.4028 18.7887 14.6513 18.7397 14.8835 18.6445C15.0798 18.5727 15.2627 18.4686 15.4248 18.3367V17.5259H14.1405Z" fill="white"/>
<path d="M14.1819 19.3517C13.7696 19.3565 13.3623 19.2604 12.9956 19.0718C12.6466 18.8927 12.3629 18.6082 12.1848 18.2587C12.0005 17.8924 11.907 17.4872 11.9123 17.0772C11.9099 16.6599 12.0024 16.2476 12.1828 15.8713C12.3466 15.515 12.6214 15.2212 12.9661 15.0339C13.3275 14.8473 13.7298 14.7535 14.1365 14.7612C14.4343 14.7576 14.7301 14.8113 15.0077 14.9191C15.2481 15.0088 15.4607 15.1603 15.6239 15.3583C15.7859 15.5749 15.9008 15.823 15.9612 16.0867L15.9709 16.1253L15.3738 16.2874L15.3625 16.2495C15.3147 16.0665 15.2344 15.8936 15.1254 15.739C15.0197 15.6085 14.8818 15.5079 14.7252 15.4471C14.54 15.3713 14.3415 15.3334 14.1414 15.3359C13.913 15.3306 13.6857 15.3704 13.4726 15.453C13.3016 15.5208 13.1475 15.6256 13.0215 15.7598C12.9093 15.8836 12.8188 16.0255 12.7539 16.1794C12.6439 16.4533 12.5888 16.7461 12.5918 17.0412C12.581 17.3712 12.6483 17.6992 12.7883 17.9983C12.91 18.2437 13.109 18.4423 13.3546 18.5636C13.5893 18.6776 13.8456 18.7406 14.1064 18.7483C14.3673 18.756 14.6268 18.7083 14.8679 18.6083C15.0539 18.5394 15.2281 18.4421 15.3842 18.3197V17.5669H14.0999V16.9744L16.028 16.9714V18.6489L16.0128 18.6612C15.7453 18.8784 15.4456 19.0526 15.1244 19.1775C14.8235 19.2923 14.5041 19.3513 14.1819 19.3517ZM14.1375 14.8436C13.7441 14.836 13.3551 14.9264 13.0053 15.1066C12.676 15.286 12.4134 15.5669 12.2568 15.9077C12.0818 16.2731 11.9921 16.6734 11.9944 17.0785C11.9891 17.4756 12.0796 17.8682 12.2581 18.223C12.4283 18.5574 12.6995 18.8298 13.0332 19.0014C13.3883 19.1839 13.7827 19.2767 14.1819 19.2719C14.4943 19.2716 14.8039 19.2145 15.0959 19.1036C15.403 18.9839 15.69 18.818 15.9469 18.6116V17.0548L14.181 17.0577V17.4881H15.463V18.357L15.4494 18.3693C15.2834 18.5038 15.0965 18.6102 14.8961 18.6842C14.6592 18.7808 14.406 18.8308 14.1502 18.8314C13.8612 18.8322 13.576 18.7656 13.3173 18.6369C13.0556 18.508 12.8435 18.2968 12.7137 18.0356C12.5679 17.725 12.4976 17.3844 12.5084 17.0415C12.5058 16.7356 12.5636 16.4322 12.6784 16.1486C12.7467 15.986 12.8421 15.8362 12.9605 15.7056C13.0944 15.5625 13.2583 15.4508 13.4405 15.3787C13.6634 15.2918 13.9013 15.2498 14.1404 15.2551C14.3516 15.2526 14.5612 15.2926 14.7566 15.3725C14.9261 15.4392 15.0753 15.5487 15.1896 15.6904C15.2974 15.8415 15.3781 16.0102 15.4283 16.1889L15.872 16.0672C15.8135 15.8284 15.7073 15.6038 15.56 15.4069C15.4051 15.2201 15.2037 15.0773 14.9762 14.9927C14.7088 14.8896 14.4241 14.8385 14.1375 14.8423V14.8436Z" fill="white"/>
</svg>
