<svg width="1320" height="418" viewBox="0 0 1320 418" fill="none" xmlns="http://www.w3.org/2000/svg">
<path d="M386.774 418C386.351 418 386.006 417.613 386 417.129C385.995 416.642 386.336 416.241 386.764 416.234C540.103 413.923 704.341 407.464 866.399 376.128C1040.65 342.43 1192.88 282.54 1318.83 198.123C1319.2 197.874 1319.67 198.014 1319.89 198.434C1320.11 198.854 1319.99 199.391 1319.62 199.64C1285.86 222.267 1249.88 243.362 1212.68 262.341C1177.07 280.513 1139.35 297.249 1100.57 312.082C1028.49 339.661 949.787 361.793 866.658 377.867C704.496 409.226 540.188 415.688 386.784 418H386.774Z" fill="url(#paint0_linear_974_47259)"/>
<path d="M434.18 117.972C406.624 117.972 379.041 116.766 351.564 114.353C290.283 108.974 229.471 97.5832 170.831 80.4927C111.44 63.1869 54.1128 39.9914 0.437807 11.5479C0.0371811 11.3352 -0.117073 10.8379 0.0956485 10.4373C0.30837 10.0357 0.804766 9.88327 1.20539 10.0951C133.154 80.0186 284.557 115.863 435.35 115.863C530.393 115.863 625.16 101.634 714.725 72.7276C715.159 72.5893 715.629 72.8268 715.762 73.2584C715.904 73.6892 715.664 74.1555 715.239 74.2937C657.423 92.9503 596.93 105.804 535.436 112.5C501.941 116.147 468.083 117.972 434.18 117.972Z" fill="url(#paint1_linear_974_47259)"/>
<path d="M103.275 56.1391C103.275 61.535 98.8996 65.915 93.4986 65.915C88.0976 65.915 83.7175 61.535 83.7175 56.1391C83.7175 50.738 88.0976 46.3579 93.4986 46.3579C98.8996 46.3579 103.275 50.738 103.275 56.1391Z" fill="white"/>
<path d="M183.8 77.6529C183.8 83.0503 179.422 87.4287 174.025 87.4287C168.622 87.4287 164.243 83.0503 164.243 77.6529C164.243 72.2499 168.622 67.8715 174.025 67.8715C179.422 67.8715 183.8 72.2499 183.8 77.6529Z" fill="white"/>
<path d="M259.859 101.562C259.859 106.96 255.479 111.34 250.081 111.34C244.683 111.34 240.303 106.96 240.303 101.562C240.303 96.1637 244.683 91.7844 250.081 91.7844C255.479 91.7844 259.859 96.1637 259.859 101.562Z" fill="white"/>
<path d="M339.611 112.901C339.611 118.302 335.232 122.681 329.831 122.681C324.429 122.681 320.057 118.302 320.057 112.901C320.057 107.5 324.429 103.121 329.831 103.121C335.232 103.121 339.611 107.5 339.611 112.901Z" fill="white"/>
<path d="M427.145 119.176C427.145 124.576 422.77 128.953 417.366 128.953C411.969 128.953 407.586 124.576 407.586 119.176C407.586 113.774 411.969 109.397 417.366 109.397C422.77 109.397 427.145 113.774 427.145 119.176Z" fill="white"/>
<path d="M397.937 0.0392781V23.0996H397.093V0.000170209C397.372 0.0113564 397.657 0.0224989 397.937 0.0392781Z" fill="#202249"/>
<path d="M412.403 78.7703C412.403 88.5033 404.517 96.3896 394.778 96.3896C385.051 96.3896 377.159 88.5033 377.159 78.7703C377.159 69.0373 385.051 61.1509 394.778 61.1509C404.517 61.1509 412.403 69.0373 412.403 78.7703Z" fill="#F7F4F2"/>
<path d="M327 75.2812C327 46.2226 375.419 48.7767 397.165 22.8324C397.357 22.5975 397.743 22.6216 397.906 22.8686C416.766 51.5718 468.137 46.2226 468.137 75.2812H327Z" fill="#9AC8EA"/>
<defs>
<linearGradient id="paint0_linear_974_47259" x1="1382.5" y1="198" x2="514.5" y2="442.5" gradientUnits="userSpaceOnUse">
<stop stop-color="white"/>
<stop offset="1" stop-color="white" stop-opacity="0.65"/>
</linearGradient>
<linearGradient id="paint1_linear_974_47259" x1="110.5" y1="31" x2="796.5" y2="40.5" gradientUnits="userSpaceOnUse">
<stop offset="0.680842" stop-color="white"/>
<stop offset="1" stop-color="#E4E4E4" stop-opacity="0.07"/>
</linearGradient>
</defs>
</svg>
