<svg width="16" height="16" viewBox="0 0 16 16" fill="none" xmlns="http://www.w3.org/2000/svg">
<path d="M11 8H5M11 8C11 7.43984 9.50427 6.39322 9.125 6M11 8C11 8.56016 9.50427 9.6068 9.125 10" stroke="#0F2F60" stroke-width="1.5" stroke-linecap="round" stroke-linejoin="round"/>
<path d="M15 8C15 4.70017 15 3.05026 13.9749 2.02512C12.9497 1 11.2998 1 8 1C4.7002 1 3.05026 1 2.02509 2.02512C1 3.05026 1 4.70017 1 8C1 11.2998 1 12.9497 2.02509 13.9749C3.05026 15 4.7002 15 8 15C11.2998 15 12.9497 15 13.9749 13.9749C15 12.9497 15 11.2998 15 8Z" stroke="#0F2F60" stroke-width="1.5"/>
</svg>
