<svg width="73" height="77" viewBox="0 0 73 77" fill="none" xmlns="http://www.w3.org/2000/svg">
<path d="M51.3331 9.35223C51.3331 4.18714 47.1796 0 42.056 0H9.27691C4.1533 0 -0.000202179 4.18713 -0.000202179 9.35223V38.5V77V70.03C-0.000202179 62.0707 9.23433 57.7494 15.2648 62.8868L19.512 66.5049C21.1864 67.9313 23.3078 68.7139 25.5 68.7139H43.7268C46.8181 68.7139 49.6019 66.8279 50.7696 63.9424C51.1417 63.0228 51.3331 62.0391 51.3331 61.0459V9.35223Z" fill="#0F2F60"/>
<path fill-rule="evenodd" clip-rule="evenodd" d="M9.27691 1.86964H42.056C46.1549 1.86964 49.4777 5.21792 49.4777 9.34822V61.0198C49.4777 61.7704 49.333 62.5138 49.0516 63.2088C48.1688 65.3895 46.064 66.8148 43.7268 66.8148H25.5C23.7462 66.8148 22.0491 66.189 20.7096 65.0484L16.4624 61.4318C11.8702 57.5214 5.72973 58.1797 1.85522 61.6227V9.34822C1.85522 5.21792 5.17802 1.86964 9.27691 1.86964ZM-0.000202179 9.34822C-0.000202179 4.18534 4.1533 0 9.27691 0H42.056C47.1796 0 51.3331 4.18534 51.3331 9.34822V61.0198C51.3331 62.0125 51.1417 62.9958 50.7696 63.915C49.6019 66.7992 46.8181 68.6845 43.7268 68.6845H25.5C23.3078 68.6845 21.1864 67.9022 19.512 66.4764L15.2648 62.8598C10.9019 59.1447 4.86202 60.3782 1.85522 64.3572C0.705948 65.878 -0.000202179 67.8 -0.000202179 70V9.34822Z" fill="white"/>
<path d="M38.5001 1.16699H42.5835V8.75033L40.6251 6.57569L38.5001 8.75033V1.16699Z" fill="white"/>
<path fill-rule="evenodd" clip-rule="evenodd" d="M50.1667 18.6657C50.811 18.6657 51.3333 19.1881 51.3333 19.8324L51.3333 56.8741C51.3333 57.5184 50.811 58.0408 50.1667 58.0408C49.5223 58.0408 49 57.5184 49 56.8741L49 19.8324C49 19.1881 49.5223 18.6657 50.1667 18.6657Z" fill="#0F2F60"/>
<path d="M63.583 25.3499V24.5H67.5821C69.8674 24.5 71.4009 25.5817 71.4009 27.2506C71.4009 28.2241 70.8596 29.043 69.9726 29.5221L70.9949 31.6236C71.3708 32.3962 71.6715 32.7053 72.333 32.9834V33.8333H69.7321L67.8828 30.0011H66.7102V31.9636C66.7102 32.5817 66.9657 32.8907 67.5821 32.9834V33.8333H63.583V32.9834C64.1994 32.8907 64.455 32.5971 64.455 31.9945V26.3389C64.455 25.7362 64.1994 25.4426 63.583 25.3499ZM67.3566 25.6126L66.7102 25.5662V28.9349L67.3566 28.904C68.409 28.8422 69.0856 28.2241 69.0856 27.2506C69.0856 26.277 68.409 25.6744 67.3566 25.6126Z" fill="white"/>
<path d="M61.4067 31.1291L62.4167 31.2837L62.0159 33.8333H54.8334V32.9834C55.4907 32.8907 55.7633 32.5971 55.7633 31.9945V26.3389C55.7633 25.7362 55.4907 25.4426 54.8334 25.3499V24.5H62.1762V27.0651H61.2143C61.102 26.0298 60.6211 25.6126 59.8034 25.5817L58.1681 25.5199V28.5949L61.0059 28.4558V29.8466L58.1681 29.7075V32.798L59.8355 32.7362C60.7974 32.6898 61.1982 32.1799 61.4067 31.1291Z" fill="white"/>
<path d="M51.3454 31.9636C51.3454 32.5817 51.6109 32.8907 52.2511 32.9834V33.8333H48.0975V32.9834C48.7377 32.8907 49.0031 32.5971 49.0031 31.9945V25.5044H48.4254C47.629 25.5044 47.1293 26.1225 47.02 27.0651H46.0831V24.5H54.2498V27.0651H53.3129C53.1724 26.1225 52.7039 25.5044 51.9075 25.5044H51.3454V31.9636Z" fill="white"/>
<path d="M41.3854 30.4183H40.6002V31.9636C40.6002 32.5817 40.8672 32.8907 41.5111 32.9834V33.8333H37.3335V32.9834C37.9774 32.8907 38.2444 32.5971 38.2444 31.9945V26.3389C38.2444 25.7362 37.9774 25.4426 37.3335 25.3499V24.5H41.3226C43.7883 24.5 45.5002 25.6744 45.5002 27.4514C45.5002 29.1976 43.8511 30.4183 41.3854 30.4183ZM41.0085 25.5817L40.6002 25.5508V29.3366L41.0085 29.3057C42.2021 29.1976 42.9402 28.6722 42.9402 27.4978C42.9402 26.4161 42.2335 25.6589 41.0085 25.5817Z" fill="white"/>
<path d="M30.0601 33.8333H26.8333V32.9834C27.699 32.7671 27.9194 32.4426 28.187 31.7009L30.8157 24.5H33.0508L35.6638 31.8245C35.8999 32.4735 36.1833 32.8444 36.7499 32.9834V33.8333H32.5471V32.9834C33.2555 32.8753 33.3814 32.5199 33.1925 31.979L32.8305 30.9746H29.6823L29.336 31.9945C29.1314 32.6126 29.336 32.8289 30.0601 32.9834V33.8333ZM30.0286 29.9702H32.4842L31.2407 26.4625L30.0286 29.9702Z" fill="white"/>
<path d="M19.6335 26.3389V28.5177H22.9497V26.3389C22.9497 25.7362 22.7275 25.4426 22.077 25.3499V24.5H26.2499V25.3499C25.5994 25.4426 25.3297 25.7208 25.3297 26.3389V31.9636C25.3297 32.5817 25.5994 32.8907 26.2499 32.9834V33.8333H22.077V32.9834C22.7275 32.8907 22.9497 32.5971 22.9497 31.9945V29.5684H19.6335V31.9636C19.6335 32.5817 19.8557 32.8907 20.5062 32.9834V33.8333H16.3333V32.9834C16.9838 32.8907 17.2535 32.5971 17.2535 31.9945V26.3389C17.2535 25.7362 16.9838 25.4426 16.3333 25.3499V24.5H20.5062V25.3499C19.8557 25.4426 19.6335 25.7208 19.6335 26.3389Z" fill="white"/>
<path d="M6.99988 29.241C6.99988 26.4172 9.05725 24.5 12.0883 24.5C13.2976 24.5 14.2714 24.8121 15.1665 25.1837V27.3981H14.2242C14.0201 26.4766 13.439 25.5403 12.0883 25.5403C10.6435 25.5403 9.65405 26.982 9.65405 29.0924C9.65405 31.2919 10.6435 32.793 12.1826 32.793C13.5332 32.793 14.0829 31.9607 14.2242 30.7866H15.1665V33.1645C14.4912 33.4618 13.2505 33.8333 11.9784 33.8333C9.01013 33.8333 6.99988 31.9756 6.99988 29.241Z" fill="white"/>
<path d="M33.9897 43.3791L34.9997 43.5337L34.5989 46.0833H27.4164V45.2334C28.0737 45.1407 28.3463 44.8471 28.3463 44.2445V38.5889C28.3463 37.9862 28.0737 37.6926 27.4164 37.5999V36.75H34.7592V39.3151H33.7973C33.6851 38.2798 33.2041 37.8626 32.3864 37.8317L30.7511 37.7699V40.8449L33.5889 40.7058V42.0966L30.7511 41.9575V45.048L32.4185 44.9862C33.3804 44.9398 33.7813 44.4299 33.9897 43.3791Z" fill="white"/>
<path d="M23.1787 37.5999V36.75H26.2495V37.5999C25.6293 37.6926 25.3721 38.0944 25.3721 38.6816V46.0833H23.814L19.1095 39.6705V44.09C19.1095 44.8471 19.518 45.1253 20.0928 45.2334V46.0833H16.9161V45.2334C17.4305 45.1407 17.7935 44.8317 17.7935 44.2445V38.7434C17.7935 38.2334 17.5817 37.6772 16.9161 37.5999V36.75H19.7751L24.0561 42.6683V38.7434C24.0561 37.9862 23.7989 37.6926 23.1787 37.5999Z" fill="white"/>
<path d="M11.0832 46.0827C8.30798 46.0827 6.4165 44.1088 6.4165 41.1086C6.4165 38.4399 8.30798 36.166 11.0832 36.166C13.8584 36.166 15.7498 38.4399 15.7498 41.1086C15.7498 44.1088 13.8584 46.0827 11.0832 46.0827ZM11.1452 44.8352C12.4475 44.8352 13.1297 43.3035 13.1297 41.2665C13.1297 39.2926 12.2925 37.3977 11.0522 37.3977C9.65681 37.3977 9.03666 39.1505 9.03666 40.9664C9.03666 43.3035 9.92038 44.8352 11.1452 44.8352Z" fill="white"/>
<path fill-rule="evenodd" clip-rule="evenodd" d="M47.0575 54.7155C47.0575 54.8766 46.9197 55.0072 46.7498 55.0072H33.3652C33.1953 55.0072 33.0575 54.8766 33.0575 54.7155C33.0575 54.5544 33.1953 54.4238 33.3652 54.4238H46.7498C46.9197 54.4238 47.0575 54.5544 47.0575 54.7155Z" fill="white"/>
<path fill-rule="evenodd" clip-rule="evenodd" d="M44.7245 56.4655C44.7245 56.6266 44.5833 56.7572 44.4092 56.7572H33.3731C33.199 56.7572 33.0578 56.6266 33.0578 56.4655C33.0578 56.3044 33.199 56.1738 33.3731 56.1738H44.4092C44.5833 56.1738 44.7245 56.3044 44.7245 56.4655Z" fill="white"/>
<path fill-rule="evenodd" clip-rule="evenodd" d="M42.9741 58.2165C42.9741 58.3776 42.8354 58.5081 42.6642 58.5081H33.3673C33.1962 58.5081 33.0575 58.3776 33.0575 58.2165C33.0575 58.0554 33.1962 57.9248 33.3673 57.9248H42.6642C42.8354 57.9248 42.9741 58.0554 42.9741 58.2165Z" fill="white"/>
<path fill-rule="evenodd" clip-rule="evenodd" d="M50.4581 45.499C50.9414 45.499 51.3331 45.9179 51.3331 46.4347V60.3134C51.3331 60.8301 50.9414 61.249 50.4581 61.249C49.9749 61.249 49.5831 60.8301 49.5831 60.3134V46.4347C49.5831 45.9179 49.9749 45.499 50.4581 45.499Z" fill="white"/>
<path fill-rule="evenodd" clip-rule="evenodd" d="M50.4581 10.499C50.9414 10.499 51.3331 10.9209 51.3331 11.4413V17.7234C51.3331 18.2438 50.9414 18.6657 50.4581 18.6657C49.9749 18.6657 49.5831 18.2438 49.5831 17.7234V11.4413C49.5831 10.9209 49.9749 10.499 50.4581 10.499Z" fill="white"/>
</svg>
