<svg width="52" height="56" viewBox="0 0 52 56" fill="none" xmlns="http://www.w3.org/2000/svg">
<path d="M36.9032 6.72325C36.9032 3.0101 33.9173 0 30.2339 0H6.66926C2.98594 0 1.14441e-05 3.0101 1.14441e-05 6.72325V27.6774V55.3548V50.3441C1.14441e-05 44.6222 6.63865 41.5157 10.9739 45.2089L14.0272 47.8099C15.2309 48.8354 16.756 49.398 18.3319 49.398H31.435C33.6574 49.398 35.6586 48.0421 36.4981 45.9677C36.7656 45.3067 36.9032 44.5995 36.9032 43.8855V6.72325Z" fill="white"/>
<path fill-rule="evenodd" clip-rule="evenodd" d="M6.66926 1.34407H30.2339C33.1806 1.34407 35.5693 3.75113 35.5693 6.72037V43.8667C35.5693 44.4063 35.4653 44.9407 35.2631 45.4404C34.6284 47.008 33.1153 48.0327 31.435 48.0327H18.3319C17.0711 48.0327 15.8511 47.5828 14.8882 46.7629L11.8349 44.1629C8.53357 41.3517 4.11922 41.825 1.33386 44.3001V6.72037C1.33386 3.75113 3.7226 1.34407 6.66926 1.34407ZM1.14441e-05 6.72037C1.14441e-05 3.00881 2.98594 0 6.66926 0H30.2339C33.9173 0 36.9032 3.00881 36.9032 6.72037V43.8667C36.9032 44.5804 36.7656 45.2873 36.4981 45.9481C35.6586 48.0215 33.6574 49.3768 31.435 49.3768H18.3319C16.756 49.3768 15.2309 48.8145 14.0272 47.7895L10.9739 45.1895C7.83748 42.5187 3.49543 43.4055 1.33386 46.2659C0.507656 47.3593 1.14441e-05 48.7409 1.14441e-05 50.3225V6.72037Z" fill="#1E88E5"/>
<path d="M27.6775 0.838379H30.613V6.28999L29.2051 4.72666L27.6775 6.28999V0.838379Z" fill="#1976D2" fill-opacity="0.8"/>
<path fill-rule="evenodd" clip-rule="evenodd" d="M36.0645 13.4194C36.5277 13.4194 36.9032 13.7949 36.9032 14.2581L36.9032 40.8871C36.9032 41.3503 36.5277 41.7258 36.0645 41.7258C35.6013 41.7258 35.2258 41.3503 35.2258 40.8871L35.2258 14.2581C35.2258 13.7949 35.6013 13.4194 36.0645 13.4194Z" fill="white"/>
<path d="M45.7097 18.2238V17.6128H48.5847C50.2275 17.6128 51.3299 18.3904 51.3299 19.5901C51.3299 20.29 50.9408 20.8788 50.3032 21.2231L51.0381 22.7339C51.3083 23.2894 51.5245 23.5115 52 23.7115V24.3225H50.1302L48.8008 21.5675H47.9578V22.9783C47.9578 23.4227 48.1415 23.6448 48.5847 23.7115V24.3225H45.7097V23.7115C46.1528 23.6448 46.3366 23.4338 46.3366 23.0005V18.9347C46.3366 18.5015 46.1528 18.2904 45.7097 18.2238ZM48.4226 18.4126L47.9578 18.3793V20.801L48.4226 20.7788C49.1791 20.7343 49.6655 20.29 49.6655 19.5901C49.6655 18.8903 49.1791 18.4571 48.4226 18.4126Z" fill="#1976D2"/>
<path d="M44.1452 22.3784L44.8713 22.4895L44.5831 24.3225H39.4197V23.7115C39.8922 23.6448 40.0882 23.4338 40.0882 23.0005V18.9347C40.0882 18.5015 39.8922 18.2904 39.4197 18.2238V17.6128H44.6984V19.4568H44.0069C43.9262 18.7126 43.5804 18.4126 42.9926 18.3904L41.817 18.346V20.5566L43.857 20.4566V21.4564L41.817 21.3564V23.5782L43.0157 23.5337C43.7072 23.5004 43.9953 23.1338 44.1452 22.3784Z" fill="#1976D2"/>
<path d="M36.9122 22.9783C36.9122 23.4227 37.103 23.6448 37.5632 23.7115V24.3225H34.5772V23.7115C35.0375 23.6448 35.2283 23.4338 35.2283 23.0005V18.3349H34.813C34.2405 18.3349 33.8813 18.7792 33.8027 19.4568H33.1292V17.6128H39.0001V19.4568H38.3266C38.2255 18.7792 37.8888 18.3349 37.3163 18.3349H36.9122V22.9783Z" fill="#1976D2"/>
<path d="M29.7519 21.8674H29.1874V22.9783C29.1874 23.4227 29.3793 23.6448 29.8422 23.7115V24.3225H26.839V23.7115C27.3019 23.6448 27.4938 23.4338 27.4938 23.0005V18.9347C27.4938 18.5015 27.3019 18.2904 26.839 18.2238V17.6128H29.7067C31.4793 17.6128 32.71 18.4571 32.71 19.7346C32.71 20.9898 31.5245 21.8674 29.7519 21.8674ZM29.4809 18.3904L29.1874 18.3682V21.0898L29.4809 21.0676C30.339 20.9898 30.8696 20.6121 30.8696 19.7679C30.8696 18.9903 30.3616 18.4459 29.4809 18.3904Z" fill="#1976D2"/>
<path d="M21.6102 24.3225H19.2904V23.7115C19.9128 23.556 20.0712 23.3227 20.2636 22.7895L22.1533 17.6128H23.7602L25.6386 22.8783C25.8084 23.3449 26.0121 23.6115 26.4194 23.7115V24.3225H23.3981V23.7115C23.9073 23.6337 23.9978 23.3782 23.862 22.9894L23.6018 22.2673H21.3386L21.0896 23.0005C20.9425 23.4449 21.0896 23.6004 21.6102 23.7115V24.3225ZM21.5875 21.5453H23.3528L22.4589 19.0236L21.5875 21.5453Z" fill="#1976D2"/>
<path d="M14.1147 18.9347V20.5011H16.4987V18.9347C16.4987 18.5015 16.339 18.2904 15.8713 18.2238V17.6128H18.8712V18.2238C18.4035 18.2904 18.2096 18.4904 18.2096 18.9347V22.9783C18.2096 23.4227 18.4035 23.6448 18.8712 23.7115V24.3225H15.8713V23.7115C16.339 23.6448 16.4987 23.4338 16.4987 23.0005V21.2565H14.1147V22.9783C14.1147 23.4227 14.2744 23.6448 14.7421 23.7115V24.3225H11.7422V23.7115C12.2099 23.6448 12.4038 23.4338 12.4038 23.0005V18.9347C12.4038 18.5015 12.2099 18.2904 11.7422 18.2238V17.6128H14.7421V18.2238C14.2744 18.2904 14.1147 18.4904 14.1147 18.9347Z" fill="#1976D2"/>
<path d="M5.03235 21.021C5.03235 18.9911 6.51138 17.6128 8.69041 17.6128C9.55976 17.6128 10.2598 17.8372 10.9033 18.1043V19.6962H10.2259C10.0791 19.0338 9.66138 18.3607 8.69041 18.3607C7.6517 18.3607 6.94041 19.3971 6.94041 20.9142C6.94041 22.4955 7.6517 23.5746 8.75815 23.5746C9.72912 23.5746 10.1243 22.9763 10.2259 22.1322H10.9033V23.8417C10.4178 24.0554 9.52589 24.3225 8.61138 24.3225C6.47751 24.3225 5.03235 22.9869 5.03235 21.021Z" fill="#1976D2"/>
<path d="M24.435 31.1856L25.1611 31.2967L24.8729 33.1296H19.7095V32.5186C20.182 32.452 20.378 32.2409 20.378 31.8077V27.7419C20.378 27.3086 20.182 27.0976 19.7095 27.0309V26.4199H24.9882V28.264H24.2967C24.216 27.5197 23.8702 27.2198 23.2824 27.1975L22.1068 27.1531V29.3637L24.1468 29.2638V30.2635L22.1068 30.1636V32.3853L23.3055 32.3409C23.997 32.3075 24.2851 31.941 24.435 31.1856Z" fill="#1976D2"/>
<path d="M16.663 27.0309V26.4199H18.8706V27.0309C18.4247 27.0976 18.2398 27.3864 18.2398 27.8085V33.1296H17.1197L13.7377 28.5195V31.6966C13.7377 32.2409 14.0313 32.4409 14.4446 32.5186V33.1296H12.1609V32.5186C12.5306 32.452 12.7916 32.2298 12.7916 31.8077V27.8529C12.7916 27.4864 12.6394 27.0864 12.1609 27.0309V26.4199H14.2162L17.2937 30.6746V27.8529C17.2937 27.3086 17.1089 27.0976 16.663 27.0309Z" fill="#1976D2"/>
<path d="M7.96751 33.1295C5.97244 33.1295 4.61267 31.7105 4.61267 29.5536C4.61267 27.6352 5.97244 26.0005 7.96751 26.0005C9.96257 26.0005 11.3223 27.6352 11.3223 29.5536C11.3223 31.7105 9.96257 33.1295 7.96751 33.1295ZM8.01209 32.2327C8.94832 32.2327 9.43873 31.1316 9.43873 29.6672C9.43873 28.2482 8.83687 26.8859 7.94521 26.8859C6.94211 26.8859 6.49628 28.146 6.49628 29.4515C6.49628 31.1316 7.13158 32.2327 8.01209 32.2327Z" fill="#1976D2"/>
<path fill-rule="evenodd" clip-rule="evenodd" d="M33.8295 39.3347C33.8295 39.4505 33.7304 39.5444 33.6083 39.5444H23.9862C23.864 39.5444 23.765 39.4505 23.765 39.3347C23.765 39.2189 23.864 39.125 23.9862 39.125H33.6083C33.7304 39.125 33.8295 39.2189 33.8295 39.3347Z" fill="#1976D2"/>
<path fill-rule="evenodd" clip-rule="evenodd" d="M32.152 40.593C32.152 40.7088 32.0505 40.8027 31.9253 40.8027H23.9916C23.8664 40.8027 23.7649 40.7088 23.7649 40.593C23.7649 40.4772 23.8664 40.3833 23.9916 40.3833H31.9253C32.0505 40.3833 32.152 40.4772 32.152 40.593Z" fill="#1976D2"/>
<path fill-rule="evenodd" clip-rule="evenodd" d="M30.8939 41.8513C30.8939 41.9671 30.7942 42.061 30.6711 42.061H23.9877C23.8646 42.061 23.7649 41.9671 23.7649 41.8513C23.7649 41.7355 23.8646 41.6416 23.9877 41.6416H30.6711C30.7942 41.6416 30.8939 41.7355 30.8939 41.8513Z" fill="#1976D2"/>
<path fill-rule="evenodd" clip-rule="evenodd" d="M36.2741 32.7095C36.6215 32.7095 36.9031 33.0106 36.9031 33.3821V43.3594C36.9031 43.7309 36.6215 44.032 36.2741 44.032C35.9266 44.032 35.645 43.7309 35.645 43.3594V33.3821C35.645 33.0106 35.9266 32.7095 36.2741 32.7095Z" fill="#1E88E5"/>
<path fill-rule="evenodd" clip-rule="evenodd" d="M36.2741 7.54834C36.6215 7.54834 36.9031 7.85163 36.9031 8.22576V12.7419C36.9031 13.116 36.6215 13.4193 36.2741 13.4193C35.9266 13.4193 35.645 13.116 35.645 12.7419V8.22576C35.645 7.85163 35.9266 7.54834 36.2741 7.54834Z" fill="#1E88E5"/>
</svg>
