<svg width="85" height="70" viewBox="0 0 85 70" fill="none" xmlns="http://www.w3.org/2000/svg">
<path d="M84.5242 49.4607L18.8396 69.6523L5.22754 25.379L70.9121 5.18424L84.5242 49.4607Z" fill="#B5D2EC"/>
<path d="M2.291 21.8882L15.3044 64.2165L79.0407 44.6236L66.0305 2.29213L2.291 21.8882ZM14.6296 66.5068C14.4649 66.5068 14.3033 66.4656 14.1545 66.3896C13.9169 66.2629 13.7363 66.0475 13.6571 65.7877L0.048199 21.5112C-0.119695 20.9759 0.184421 20.4057 0.719781 20.241L66.4043 0.0493237C66.6609 -0.0298716 66.9397 -0.00453532 67.1773 0.122177C67.418 0.24889 67.5954 0.464301 67.6746 0.724061L81.2867 44.9974C81.4514 45.5359 81.1505 46.103 80.612 46.2677L14.9306 66.4625C14.8324 66.491 14.731 66.5068 14.6296 66.5068Z" fill="#231F20"/>
<path d="M34.4573 40.157L17.2656 63.6146L77.0834 45.2255L49.6818 35.4749L48.7631 37.2172C47.6069 39.4157 45.6587 41.0313 43.2828 41.7599C40.9101 42.4917 38.3917 42.2509 36.1964 41.082L34.4573 40.157ZM14.63 66.5068C14.3069 66.5068 13.9964 66.3516 13.8 66.0792C13.5466 65.7212 13.5498 65.2397 13.8095 64.8881L33.3359 38.2436C33.6369 37.835 34.1849 37.7083 34.6347 37.9458L37.15 39.2858C38.8638 40.1982 40.831 40.3851 42.6841 39.8148C44.5405 39.2446 46.061 37.987 46.9638 36.2669L48.2943 33.7485C48.5287 33.3018 49.0578 33.0928 49.5361 33.2638L80.6567 44.3353C81.0716 44.4842 81.3441 44.877 81.3346 45.3173C81.3251 45.7545 81.0336 46.1378 80.6155 46.2677L14.9278 66.4625C14.8296 66.491 14.7282 66.5068 14.63 66.5068Z" fill="#231F20"/>
<path d="M3.66004 21.4637L37.1501 39.2858C38.8639 40.1981 40.8311 40.385 42.6843 39.8148C44.5407 39.2446 46.0612 37.987 46.964 36.2668L64.6626 2.71023L3.66004 21.4637ZM40.546 42.1748C39.0445 42.1748 37.5588 41.8073 36.1966 41.0819L0.539748 22.1099C0.178618 21.9167 -0.0336378 21.5239 0.00437594 21.1152C0.0455575 20.7034 0.327511 20.3581 0.72032 20.2377L66.4049 0.0461142C66.8009 -0.0774304 67.2285 0.052456 67.4883 0.369237C67.7512 0.686018 67.7987 1.12949 67.6055 1.49062L48.7633 37.2172C47.6071 39.4156 45.6589 41.0312 43.283 41.7598C42.3834 42.0386 41.4615 42.1748 40.546 42.1748Z" fill="#231F20"/>
</svg>
