<svg width="25" height="25" viewBox="0 0 25 25" fill="none" xmlns="http://www.w3.org/2000/svg">
<g opacity="0.9">
<path d="M8.85384 2.0835C5.97736 2.0835 3.64551 4.41535 3.64551 7.29183C3.64551 9.21965 4.6929 10.9029 6.24967 11.8034V18.5867C6.24967 19.4383 6.24967 19.8641 6.40826 20.2469C6.56684 20.6298 6.86791 20.9309 7.47006 21.5331L8.85384 22.9168L11.0499 20.7208C11.1511 20.6195 11.2019 20.5688 11.2438 20.5139C11.3542 20.3696 11.4249 20.199 11.4488 20.0189C11.458 19.9504 11.458 19.8787 11.458 19.7355C11.458 19.6195 11.458 19.5616 11.4519 19.5053C11.4357 19.3576 11.3882 19.2151 11.3125 19.0872C11.2836 19.0385 11.2488 18.9921 11.1794 18.8994L9.89551 17.1877L10.6247 16.2155C11.0377 15.6647 11.2442 15.3894 11.3511 15.0687C11.458 14.748 11.458 14.4038 11.458 13.7155V11.8034C13.0148 10.9029 14.0622 9.21965 14.0622 7.29183C14.0622 4.41535 11.7303 2.0835 8.85384 2.0835Z" stroke="#0F2F60" stroke-width="1.5" stroke-linejoin="round"/>
<path d="M8.85449 7.2915H8.86327" stroke="#0F2F60" stroke-width="2" stroke-linecap="round" stroke-linejoin="round"/>
</g>
</svg>
