<svg width="123" height="151" viewBox="0 0 123 151" fill="none" xmlns="http://www.w3.org/2000/svg">
<path d="M1.9386 115.796L10.6354 102.689L103.596 28.2778L106.594 32.0238L104.684 29.6362L107.425 27.439L106.339 26.0824L106.623 25.8545C108.691 24.2 111.71 24.5343 113.366 26.6025C114.619 28.1674 114.733 30.2759 113.818 31.9274C113.524 32.4581 113.122 32.943 112.619 33.3454L112.335 33.5739L109.338 29.8279L111.249 32.2161L109.547 33.5776L108.986 32.8765L106.244 35.0737L107.891 37.1308L107.89 37.1319L105.156 33.7146L12.1956 108.126L8.8628 113.148L1.9386 115.796Z" fill="#E3E3E3"/>
<path d="M77.8903 67.8311L99.7515 50.3323L99.9533 50.5844L78.0921 68.0832L77.8903 67.8311ZM107.223 44.3534L111.153 41.2069L110.066 39.8485L111.767 38.4864L113.055 40.0962L107.423 44.6048L107.223 44.3534Z" fill="#254185"/>
<path d="M18.1911 115.617L12.1957 108.126L105.156 33.7147L111.153 41.2069L18.1911 115.617Z" fill="#24B7D2"/>
<path d="M12.1956 108.126L3.49883 121.234L18.191 115.617L12.1956 108.126Z" fill="#24B7D2"/>
<path d="M110.065 39.8497L106.244 35.0739L108.986 32.8767L112.809 37.6538L110.065 39.8497Z" fill="#19A4BE"/>
<path d="M113.895 39.0114L107.899 31.5199L108.184 31.292C110.251 29.6374 113.27 29.9717 114.927 32.0388C116.583 34.1089 116.248 37.1278 114.179 38.7829L113.895 39.0114Z" fill="white"/>
<path d="M101.645 52.6999L99.7513 50.3321L107.221 44.3525L109.116 46.721L101.645 52.6999Z" fill="#19A4BE"/>
<path d="M79.6522 73.5204L78.0837 71.5615L113.048 43.5733L114.615 45.5334L79.6522 73.5204Z" fill="white"/>
<path d="M16.8793 113.979L109.842 39.5686L110.065 39.8496L110.066 39.8484L111.153 41.2069L107.222 44.3534L107.221 44.3527L99.7514 50.3323L18.191 115.617L16.8793 113.979Z" fill="#5DCADC"/>
<path d="M109.842 39.5684L110.066 39.8482L110.065 39.8494L109.842 39.5684Z" fill="#54C7D8"/>
<path d="M99.7513 50.3321L107.221 44.3525L107.222 44.3532L99.7513 50.3321Z" fill="#54C7D8"/>
<path d="M12.1957 108.126L105.156 33.7147L106.468 35.3548L13.5074 109.765L12.1957 108.126Z" fill="#0E89BB"/>
</svg>
