<svg width="100" height="209" viewBox="0 0 100 209" fill="none" xmlns="http://www.w3.org/2000/svg">
<path d="M86.0345 136.115C85.6682 142.192 85.0561 148.571 84.277 154.907C83.92 157.89 83.5119 160.859 83.09 163.785C82.8256 165.533 82.5613 167.268 82.2785 168.98C82.1115 170.023 81.94 171.052 81.7638 172.074C79.3988 185.816 76.4867 197.546 73.9317 202.874C70.9825 209.026 63.781 207.952 60.6602 207.952H33.3291C30.9827 207.952 26.3038 208.343 22.0099 200.148C21.3189 198.817 20.5677 196.237 19.8026 192.85C18.5784 187.411 17.3078 179.88 16.1393 172.074C15.9863 171.044 15.8379 170.009 15.6802 168.98C15.4344 167.239 15.184 165.504 14.9475 163.785C14.4977 160.543 14.0711 157.369 13.6909 154.384C12.3554 144.051 11.4651 136.115 11.4651 136.115H86.0345Z" fill="#7282B3"/>
<path d="M84.2784 154.384V154.908C83.9176 157.89 83.5151 160.86 83.0895 163.785H14.9481C14.4993 160.543 14.0737 157.369 13.6897 154.384H84.2784Z" fill="#F7F4F2"/>
<path d="M82.2788 168.98C82.108 170.023 81.942 171.052 81.7666 172.074H16.136C15.9837 171.044 15.8361 170.009 15.6792 168.98H82.2788Z" fill="#F7F4F2"/>
<path d="M63.7579 208.025C62.5476 208.025 61.4672 207.953 60.6604 207.953H33.3292C33.1252 207.953 32.9026 207.956 32.6661 207.956C30.1713 207.956 25.9283 207.63 22.01 200.148C21.3191 198.818 20.5679 196.238 19.8027 192.85C21.0362 193.021 22.4923 193.134 24.1755 193.134C27.4447 193.134 31.5717 192.701 36.5984 191.395C42.0238 189.983 48.4508 181.874 54.4559 172.074H81.7639C79.399 185.817 76.4868 197.547 73.9318 202.874C71.7477 207.435 67.2219 208.025 63.7579 208.025ZM82.2786 168.98H56.3061C57.3031 167.276 58.2815 165.534 59.2414 163.785H83.0901C82.8258 165.534 82.5615 167.268 82.2786 168.98ZM84.2772 154.908V154.385H64.1475C67.8433 146.991 70.8666 140.243 72.6612 136.116H86.0347C85.6683 142.192 85.0562 148.572 84.2772 154.908Z" fill="#6978A5"/>
<path d="M83.0895 163.785H59.2407C60.9663 160.634 62.6134 157.455 64.1493 154.384H84.2785V154.908C83.9176 157.89 83.5151 160.86 83.0895 163.785Z" fill="#E4E1DF"/>
<path d="M81.7665 172.074H54.4558C55.0741 171.058 55.6924 170.026 56.3014 168.98H82.2787C82.108 170.023 81.9419 171.052 81.7665 172.074Z" fill="#E4E1DF"/>
<path d="M67.6079 136.116H54.0166C54.0166 136.116 56.8958 87.218 56.8958 76.1956C56.8958 65.1708 77.883 46.2713 77.883 46.2713C77.883 46.2713 79.6123 58.1052 79.7227 69.302C79.8883 85.9086 67.6079 136.116 67.6079 136.116Z" fill="#61724E"/>
<path d="M62.5822 108.231C62.4041 89.9171 73.7338 56.4927 73.848 56.157L74.5421 56.3949C74.428 56.7301 63.1393 90.034 63.3128 108.224L62.5822 108.231Z" fill="#779962"/>
<path d="M60.4775 88.7641L65.4212 110.74L60.7256 120.68L60.4775 88.7641Z" fill="#2A3A1B"/>
<path d="M46.1481 136.116H26.4086C26.4086 136.116 5.14493 72.9519 2.28986 61.8562C-0.569604 50.761 0.0585203 40.5245 0.0585203 40.5245C0.0585203 40.5245 1.46848 46.1274 14.7863 64.218C28.1085 82.3064 46.1481 136.116 46.1481 136.116Z" fill="#61724E"/>
<path d="M22.3445 78.6811L13.5205 97.3851L18.3487 111.983L22.3445 78.6811Z" fill="#344924"/>
<path d="M59.8953 136.116C59.8953 136.116 63.5712 79.3696 58.424 56.276C55.7424 44.2296 44.8271 6.07634 40.0534 0.930939C35.2751 -4.21222 33.8083 13.2685 33.4394 21.2471C33.0705 29.2257 30.7218 95.779 34.1008 105.066C37.4798 114.353 41.5202 136.116 41.5202 136.116H59.8953Z" fill="#779962"/>
<path d="M60.2015 123.707C60.2015 123.23 60.1656 75.8153 59.2103 64.2596C58.2505 52.7465 46.6343 16.3127 46.5132 15.9485L46.6746 15.8314C47.1635 17.3227 59.2776 52.5375 60.2464 64.1735C61.2062 75.7713 61.2465 123.23 61.2465 123.707H60.2015Z" fill="#9BB77B"/>
<mask id="mask0_925_40511" style="mask-type:luminance" maskUnits="userSpaceOnUse" x="57" y="70" width="43" height="67">
<path d="M81.5759 136.115C81.5759 136.115 86.6501 129.412 87.6048 119.37C88.5575 109.329 89.2917 98.3931 91.4962 90.9993C93.7007 83.6075 99.0663 70.6027 99.0663 70.6027C99.0663 70.6027 82.9849 85.4401 74.1956 97.3847C65.4062 109.329 57.6904 122.48 57.6904 136.115H81.5759Z" fill="white"/>
</mask>
<g mask="url(#mask0_925_40511)">
<path d="M81.5765 136.115C81.5765 136.115 86.6521 129.411 87.6049 119.37C88.5578 109.329 89.2936 98.3928 91.4965 90.9992C93.7041 83.6071 99.0674 70.6021 99.0674 70.6021C99.0674 70.6021 82.9869 85.4397 74.1943 97.3843C65.4064 109.329 57.6892 122.48 57.6892 136.115H81.5765Z" fill="url(#paint0_linear_925_40511)"/>
</g>
<mask id="mask1_925_40511" style="mask-type:luminance" maskUnits="userSpaceOnUse" x="18" y="63" width="20" height="74">
<path d="M37.1138 136.115C37.1138 136.115 37.618 105.403 35.2755 101.338C32.9329 97.2716 27.1533 69.8129 26.8044 64.2173C26.4574 58.6217 23.8848 75.8706 22.0464 84.3321C20.2099 92.7936 17.2713 114.528 19.1077 125.321C20.9461 136.115 20.9461 136.115 20.9461 136.115H37.1138Z" fill="white"/>
</mask>
<g mask="url(#mask1_925_40511)">
<path d="M37.117 136.115C37.117 136.115 37.6201 105.403 35.278 101.337C32.9358 97.2717 27.1542 69.8131 26.8072 64.2171C26.4603 58.6215 23.8839 75.8705 22.0492 84.3322C20.2102 92.7934 17.2739 114.528 19.1085 125.321C20.9476 136.115 20.9475 136.115 20.9475 136.115H37.117Z" fill="url(#paint1_linear_925_40511)"/>
</g>
<path d="M51.2001 136.141C51.1337 135.148 44.4298 36.6542 41.5295 21.3164L42.2513 21.1782C45.1604 36.5599 51.8687 135.098 51.9351 136.091L51.2001 136.141Z" fill="#40592F"/>
<path d="M67.8769 136.375L67.3547 135.857C70.9166 132.256 77.8632 112.364 79.3691 106.567C80.8237 100.977 89.1223 86.3468 89.4766 85.7258L90.1154 86.0899C90.0315 86.2415 81.5137 101.255 80.0824 106.753C78.777 111.772 71.7605 132.444 67.8769 136.375Z" fill="#40592F"/>
<defs>
<linearGradient id="paint0_linear_925_40511" x1="1120.35" y1="-141.953" x2="1222.17" y2="-141.953" gradientUnits="userSpaceOnUse">
<stop stop-color="#9FCF91"/>
<stop offset="0.00119874" stop-color="#9FCF91"/>
<stop offset="1" stop-color="#B3DAA5"/>
</linearGradient>
<linearGradient id="paint1_linear_925_40511" x1="887.615" y1="-117.144" x2="929.773" y2="-117.144" gradientUnits="userSpaceOnUse">
<stop stop-color="#9FCF91"/>
<stop offset="0.00119874" stop-color="#9FCF91"/>
<stop offset="1" stop-color="#B3DAA5"/>
</linearGradient>
</defs>
</svg>
