<svg width="22" height="22" viewBox="0 0 22 22" fill="none" xmlns="http://www.w3.org/2000/svg">
<path d="M18.366 1.37229H16.9645V0.797066C16.9645 0.379324 16.6266 0.0415039 16.2089 0.0415039C15.7935 0.0415039 15.4557 0.379324 15.4557 0.797066V1.37229H11.7578V0.797066C11.7578 0.379324 11.42 0.0415039 11.0023 0.0415039C10.5868 0.0415039 10.249 0.379324 10.249 0.797066V1.37229H6.55116V0.797066C6.55116 0.379324 6.21334 0.0415039 5.7956 0.0415039C5.38018 0.0415039 5.04236 0.379324 5.04236 0.797066V1.37229H3.6408C2.60448 1.37229 1.76221 2.21456 1.76221 3.25088V20.076C1.76221 21.1123 2.60448 21.9546 3.6408 21.9546H18.3659C19.3999 21.9546 20.2445 21.1123 20.2445 20.076C20.2445 19.7473 20.2445 19.6378 20.2445 19.6378V3.25088C20.2445 2.21456 19.4023 1.37229 18.366 1.37229ZM15.9122 0.797066C15.9122 0.632711 16.0445 0.498047 16.2089 0.498047C16.3733 0.498047 16.5079 0.632711 16.5079 0.797066V2.40401C16.5079 2.56837 16.3733 2.70303 16.2089 2.70303C16.0445 2.70303 15.9122 2.56837 15.9122 2.40401V0.797066ZM10.7055 0.797066C10.7055 0.632711 10.8379 0.498047 11.0023 0.498047C11.1666 0.498047 11.3013 0.632711 11.3013 0.797066V2.40401C11.3013 2.56837 11.1666 2.70303 11.0023 2.70303C10.8379 2.70303 10.7055 2.56837 10.7055 2.40401V0.797066ZM7.35463 4.37164H14.6499C14.7777 4.37164 14.8781 4.47438 14.8781 4.59989C14.8781 4.72772 14.7777 4.82814 14.6499 4.82814H7.35463C7.22908 4.82814 7.12638 4.72772 7.12638 4.59989C7.12638 4.47438 7.22908 4.37164 7.35463 4.37164ZM5.49886 0.797066C5.49886 0.632711 5.63124 0.498047 5.7956 0.498047C5.95995 0.498047 6.09462 0.632711 6.09462 0.797066V2.40401C6.09462 2.56837 5.95995 2.70303 5.7956 2.70303C5.63124 2.70303 5.49886 2.56837 5.49886 2.40401V0.797066ZM19.788 20.076C19.788 20.8612 19.1489 21.4981 18.366 21.4981H3.6408C2.85787 21.4981 2.21875 20.8613 2.21875 20.076V6.49906H19.788V20.076Z" fill="#0F2F60"/>
<path d="M8.19333 11.2863C8.2825 11.3754 8.42696 11.3754 8.51612 11.2863L9.0042 10.7982L9.49228 11.2863C9.58144 11.3754 9.7259 11.3754 9.81506 11.2863C9.90422 11.1971 9.90422 11.0526 9.81506 10.9635L9.32698 10.4754L9.81506 9.98731C9.90422 9.89815 9.90422 9.75369 9.81506 9.66453C9.7259 9.57537 9.58144 9.57537 9.49228 9.66453L9.0042 10.1526L8.51612 9.66453C8.42696 9.57537 8.2825 9.57537 8.19333 9.66453C8.10417 9.75369 8.10417 9.89815 8.19333 9.98731L8.68142 10.4754L8.19333 10.9635C8.10417 11.0526 8.10417 11.1971 8.19333 11.2863Z" fill="#0F2F60"/>
<path d="M12.1914 11.2863C12.2805 11.3754 12.425 11.3754 12.5142 11.2863L13.0021 10.7982L13.4901 11.2863C13.5792 11.3754 13.7237 11.3754 13.8129 11.2863C13.902 11.1972 13.902 11.0526 13.8129 10.9635L13.3249 10.4754L13.8129 9.98731C13.902 9.89815 13.902 9.7536 13.8129 9.66453C13.7237 9.57537 13.5792 9.57537 13.4901 9.66453L13.0021 10.1526L12.5142 9.66453C12.425 9.57537 12.2805 9.57537 12.1914 9.66453C12.1022 9.7536 12.1022 9.89815 12.1914 9.98731L12.6794 10.4754L12.1914 10.9635C12.1022 11.0526 12.1022 11.1972 12.1914 11.2863Z" fill="#0F2F60"/>
<path d="M16.189 11.2863C16.2781 11.3754 16.4226 11.3754 16.5118 11.2863L16.9998 10.7982L17.4879 11.2863C17.5771 11.3754 17.7215 11.3754 17.8107 11.2863C17.8999 11.1971 17.8999 11.0526 17.8107 10.9635L17.3226 10.4754L17.8107 9.98731C17.8999 9.89815 17.8999 9.75369 17.8107 9.66453C17.7215 9.57537 17.5771 9.57537 17.4879 9.66453L16.9998 10.1526L16.5118 9.66453C16.4226 9.57537 16.2781 9.57537 16.189 9.66453C16.0998 9.75369 16.0998 9.89815 16.189 9.98731L16.6771 10.4754L16.189 10.9635C16.0998 11.0526 16.0998 11.1971 16.189 11.2863Z" fill="#0F2F60"/>
<path d="M4.19529 14.809C4.28445 14.8982 4.42891 14.8982 4.51807 14.809L5.00615 14.321L5.49423 14.809C5.58339 14.8982 5.72785 14.8982 5.81701 14.809C5.90617 14.7199 5.90617 14.5754 5.81701 14.4862L5.32898 13.9983L5.81701 13.5103C5.90617 13.4211 5.90617 13.2766 5.81701 13.1875C5.72785 13.0983 5.58339 13.0983 5.49423 13.1875L5.00615 13.6755L4.51807 13.1875C4.42891 13.0983 4.28445 13.0983 4.19529 13.1875C4.10613 13.2766 4.10613 13.4211 4.19529 13.5103L4.68333 13.9983L4.19529 14.4862C4.10613 14.5754 4.10613 14.7199 4.19529 14.809Z" fill="#0F2F60"/>
<path d="M8.19333 14.809C8.2825 14.8982 8.42696 14.8982 8.51612 14.809L9.0042 14.321L9.49228 14.809C9.58144 14.8982 9.7259 14.8982 9.81506 14.809C9.90422 14.7199 9.90422 14.5754 9.81506 14.4862L9.32702 13.9983L9.81506 13.5103C9.90422 13.4211 9.90422 13.2766 9.81506 13.1875C9.7259 13.0983 9.58144 13.0983 9.49228 13.1875L9.0042 13.6755L8.51612 13.1875C8.42696 13.0983 8.2825 13.0983 8.19333 13.1875C8.10417 13.2766 8.10417 13.4211 8.19333 13.5103L8.68137 13.9983L8.19333 14.4862C8.10417 14.5754 8.10417 14.7199 8.19333 14.809Z" fill="#0F2F60"/>
<path d="M12.1914 14.809C12.2805 14.8982 12.425 14.8982 12.5142 14.809L13.0021 14.321L13.4901 14.809C13.5792 14.8982 13.7237 14.8982 13.8129 14.809C13.902 14.7199 13.902 14.5754 13.8129 14.4862L13.3249 13.9983L13.8129 13.5103C13.902 13.4211 13.902 13.2766 13.8129 13.1875C13.7237 13.0983 13.5792 13.0983 13.4901 13.1875L13.0021 13.6755L12.5142 13.1875C12.425 13.0983 12.2805 13.0983 12.1914 13.1875C12.1022 13.2766 12.1022 13.4211 12.1914 13.5103L12.6793 13.9983L12.1914 14.4862C12.1022 14.5754 12.1022 14.7199 12.1914 14.809Z" fill="#0F2F60"/>
<path d="M16.189 14.809C16.2781 14.8982 16.4226 14.8982 16.5118 14.809L16.9998 14.321L17.4879 14.809C17.5771 14.8982 17.7215 14.8982 17.8107 14.809C17.8999 14.7199 17.8999 14.5754 17.8107 14.4862L17.3227 13.9983L17.8107 13.5103C17.8999 13.4211 17.8999 13.2766 17.8107 13.1875C17.7215 13.0983 17.5771 13.0983 17.4879 13.1875L16.9998 13.6755L16.5118 13.1875C16.4226 13.0983 16.2781 13.0983 16.189 13.1875C16.0998 13.2766 16.0998 13.4211 16.189 13.5103L16.677 13.9983L16.189 14.4862C16.0998 14.5754 16.0998 14.7199 16.189 14.809Z" fill="#0F2F60"/>
<path d="M4.19529 18.3317C4.28445 18.4208 4.42891 18.4208 4.51807 18.3317L5.00615 17.8436L5.49423 18.3317C5.58339 18.4208 5.72785 18.4208 5.81701 18.3317C5.90617 18.2425 5.90617 18.098 5.81701 18.0089L5.32893 17.5208L5.81701 17.0327C5.90617 16.9436 5.90617 16.7991 5.81701 16.7099C5.72785 16.6208 5.58339 16.6208 5.49423 16.7099L5.00615 17.198L4.51807 16.7099C4.42891 16.6208 4.28445 16.6208 4.19529 16.7099C4.10613 16.7991 4.10613 16.9436 4.19529 17.0327L4.68333 17.5208L4.19529 18.0089C4.10613 18.098 4.10613 18.2425 4.19529 18.3317Z" fill="#0F2F60"/>
<path d="M8.19333 18.3317C8.2825 18.4208 8.42696 18.4208 8.51612 18.3317L9.0042 17.8436L9.49228 18.3317C9.58144 18.4208 9.7259 18.4208 9.81506 18.3317C9.90422 18.2425 9.90422 18.098 9.81506 18.0089L9.32698 17.5208L9.81506 17.0327C9.90422 16.9436 9.90422 16.7991 9.81506 16.7099C9.7259 16.6208 9.58144 16.6208 9.49228 16.7099L9.0042 17.198L8.51612 16.7099C8.42696 16.6208 8.2825 16.6208 8.19333 16.7099C8.10417 16.7991 8.10417 16.9436 8.19333 17.0327L8.68142 17.5208L8.19333 18.0089C8.10417 18.098 8.10417 18.2425 8.19333 18.3317Z" fill="#0F2F60"/>
</svg>
