<svg width="193" height="178" viewBox="0 0 193 178" fill="none" xmlns="http://www.w3.org/2000/svg">
<path d="M192.219 115.753C192.219 149.363 158.151 176.603 116.119 176.603C100.374 176.603 85.7399 172.781 73.6034 166.233L51.2611 168.727L57.9061 154.946C46.7401 144.359 40.0156 130.684 40.0156 115.753C40.0156 82.1516 74.0904 54.9117 116.119 54.9117C158.151 54.9117 192.219 82.1516 192.219 115.753Z" fill="white"/>
<path d="M73.6001 165.451C73.7315 165.451 73.856 165.483 73.9702 165.545C86.4348 172.267 101.009 175.82 116.116 175.82C157.65 175.82 191.437 148.874 191.437 115.752C191.437 82.6351 157.65 55.693 116.116 55.693C74.5858 55.693 40.7957 82.6351 40.7957 115.752C40.7957 129.871 47.0626 143.589 58.4447 154.379C58.6903 154.613 58.7594 154.979 58.6107 155.285L52.579 167.792L73.5136 165.455C73.5413 165.452 73.5724 165.451 73.6001 165.451ZM116.116 177.384C100.836 177.384 86.0889 173.806 73.4445 167.037L51.3477 169.504C51.0641 169.534 50.7874 169.411 50.6214 169.179C50.4589 168.946 50.4312 168.643 50.5557 168.387L56.9541 155.118C45.5235 144.091 39.2324 130.132 39.2324 115.752C39.2324 81.7739 73.7246 54.1297 116.116 54.1297C158.511 54.1297 193 81.7739 193 115.752C193 149.736 158.511 177.384 116.116 177.384Z" fill="#231F20"/>
<path d="M107.355 152.686L102.208 175.581C100.688 175.364 99.1748 175.106 97.6848 174.801C95.4996 174.374 93.3438 173.859 91.2349 173.272C90.7216 173.135 90.2053 172.983 89.692 172.83C85.7323 171.663 81.9339 170.239 78.3145 168.574L80.3911 167.432C80.3999 167.432 80.3999 167.432 80.3999 167.432L92.8921 160.602L104.789 154.086L107.355 152.686Z" fill="white"/>
<path d="M80.0695 168.501C83.234 169.882 86.5395 171.083 89.9155 172.078C90.4209 172.229 90.9292 172.38 91.4405 172.515C93.5766 173.111 95.7274 173.62 97.84 174.032C99.0417 174.278 100.302 174.502 101.607 174.7L106.22 154.198L80.7747 168.116C80.7541 168.129 80.7306 168.14 80.7071 168.15L80.0695 168.501ZM102.212 176.361C102.174 176.361 102.136 176.359 102.1 176.354C100.514 176.127 98.9771 175.862 97.5314 175.565C95.3865 175.148 93.1976 174.629 91.0291 174.024C90.5149 173.888 89.992 173.733 89.4689 173.578C85.5141 172.412 81.6532 170.967 77.9922 169.283C77.7248 169.159 77.5485 168.896 77.5368 168.601C77.525 168.306 77.6807 168.03 77.9393 167.887L80.0166 166.745C80.0401 166.732 80.0666 166.72 80.0901 166.71L106.987 151.998C107.254 151.851 107.586 151.875 107.83 152.06C108.077 152.245 108.188 152.556 108.124 152.856L102.973 175.751C102.894 176.112 102.573 176.361 102.212 176.361Z" fill="#231F20"/>
<path d="M105.13 159.547L97.6882 174.8C95.5015 174.374 93.344 173.859 91.2362 173.271C90.7224 173.135 90.2056 172.982 89.6918 172.829C85.7359 171.663 81.9377 170.238 78.3175 168.573C76.49 167.745 74.7149 166.844 72.9895 165.895C72.829 165.806 72.6684 165.717 72.5078 165.629C75.7105 157.721 81.0035 146.129 85.7593 142.758C91.0114 139.035 97.2386 137.134 100.786 136.282C102.546 135.855 103.659 135.695 103.659 135.695L104.791 154.085L105.13 159.547Z" fill="white"/>
<path d="M73.4961 165.279C75.2185 166.226 76.9497 167.094 78.64 167.861C82.234 169.515 86.0297 170.933 89.9103 172.079C90.4191 172.229 90.9279 172.381 91.4368 172.515C93.3785 173.056 95.329 173.525 97.2474 173.915L104.336 159.389L102.929 136.616C102.45 136.706 101.777 136.847 100.97 137.043C97.6919 137.829 91.4192 139.701 86.211 143.395C82.7837 145.824 78.2774 153.584 73.4961 165.279ZM97.686 175.582C97.6392 175.582 97.5895 175.577 97.5398 175.567C95.3875 175.148 93.1943 174.629 91.0274 174.024C90.5127 173.888 89.9922 173.733 89.4687 173.578C85.5121 172.412 81.652 170.967 77.9908 169.283C76.2245 168.483 74.4173 167.572 72.613 166.579L72.1334 166.314C71.7854 166.123 71.6333 165.702 71.7854 165.335C75.315 156.614 80.5262 145.508 85.3045 142.12C90.7291 138.274 97.2181 136.335 100.602 135.522C102.38 135.092 103.5 134.928 103.543 134.92C103.76 134.89 103.979 134.949 104.152 135.086C104.318 135.227 104.424 135.428 104.438 135.645L105.909 159.499C105.918 159.633 105.892 159.768 105.83 159.89L98.3908 175.142C98.2562 175.415 97.9843 175.582 97.686 175.582Z" fill="#231F20"/>
<path d="M100.786 136.281C102.693 135.621 104.93 135.026 107.44 134.503C107.898 134.407 108.359 134.318 108.833 134.229C109.49 134.101 110.175 133.98 110.866 133.868C110.866 133.868 110.866 133.868 110.873 133.868C111.415 133.779 111.964 133.69 112.516 133.61C112.919 133.546 113.339 133.489 113.746 133.433C114.576 133.32 115.42 133.208 116.281 133.111C116.707 133.063 117.145 133.015 117.575 132.967C118.205 132.894 118.839 132.83 119.476 132.774C119.662 132.757 119.838 132.741 120.025 132.725H120.031C120.587 132.677 121.146 132.629 121.709 132.58C121.746 132.58 121.776 132.573 121.8 132.573C122.905 132.492 124.013 132.419 125.148 132.355C125.724 132.323 126.303 132.291 126.893 132.267C128.767 132.186 130.681 132.13 132.606 132.098C133.321 132.098 134.029 132.09 134.733 132.09C135.411 132.09 136.096 132.098 136.78 132.106C137.488 132.114 138.193 132.13 138.911 132.146C139.291 132.154 139.66 132.17 140.029 132.178C140.311 132.186 140.599 132.194 140.883 132.21C141.212 132.218 141.541 132.235 141.873 132.25C142.201 132.259 142.523 132.275 142.855 132.299C143.577 132.331 144.302 132.371 145.017 132.419C146.843 132.54 148.653 132.685 150.432 132.87C150.618 132.894 150.801 132.91 150.977 132.918C151.035 132.926 151.082 132.934 151.14 132.942C151.218 132.95 151.299 132.959 151.37 132.967C151.75 133.007 152.136 133.055 152.512 133.103C152.919 133.152 153.325 133.2 153.729 133.256C154.372 133.337 155.009 133.425 155.643 133.522C156.731 133.674 157.798 133.852 158.845 134.045C159.377 134.141 159.909 134.238 160.431 134.342C160.817 134.423 161.203 134.495 161.579 134.584C161.62 134.592 161.654 134.6 161.678 134.6C161.701 134.608 161.708 134.608 161.725 134.608C161.742 134.608 161.759 134.616 161.766 134.616C161.993 134.664 162.216 134.712 162.44 134.769C162.941 134.873 163.44 134.994 163.927 135.115C168.532 136.249 172.514 137.721 175.516 139.571C177.254 140.641 178.66 141.832 179.666 143.159C180.456 144.205 181.083 145.436 181.557 146.828C175.644 154.784 167.509 161.573 157.849 166.65C157.822 166.666 157.808 166.674 157.784 166.682C145.813 172.957 131.501 176.601 116.121 176.601C111.367 176.601 106.722 176.255 102.209 175.579C100.691 175.362 99.1796 175.105 97.6887 174.799C95.5032 174.373 93.3449 173.858 91.2373 173.27C91.5694 169.433 91.9387 165.724 92.3656 162.225" fill="white"/>
<path d="M161.675 133.819C161.702 133.819 161.726 133.82 161.753 133.823C161.733 133.82 161.706 133.819 161.675 133.819ZM116.119 177.384C111.378 177.384 106.658 177.037 102.094 176.353C100.513 176.128 98.9757 175.863 97.5335 175.566C95.3888 175.148 93.1967 174.629 91.0283 174.024C90.6652 173.924 90.4243 173.579 90.4583 173.205C90.8146 169.066 91.1844 165.444 91.5882 162.131C91.6391 161.703 92.0226 161.397 92.4569 161.45C92.8879 161.502 93.1899 161.892 93.139 162.321C92.759 165.441 92.4095 168.839 92.0701 172.69C93.9976 173.21 95.9352 173.661 97.8389 174.032C99.2607 174.324 100.764 174.584 102.322 174.806C106.814 175.479 111.457 175.82 116.119 175.82C130.87 175.82 145.149 172.421 157.42 165.99C157.433 165.982 157.45 165.975 157.464 165.968C157.471 165.965 157.478 165.962 157.484 165.958C166.877 161.023 174.889 154.368 180.678 146.695C180.244 145.528 179.694 144.499 179.039 143.631C178.126 142.427 176.803 141.285 175.103 140.238C172.3 138.51 168.479 137.042 163.738 135.875C163.26 135.756 162.768 135.637 162.279 135.535C162.042 135.476 161.828 135.43 161.618 135.385C161.587 135.382 161.553 135.376 161.512 135.367C161.485 135.363 161.458 135.358 161.441 135.355C161.146 135.286 160.888 135.235 160.63 135.182L160.267 135.109C159.761 135.007 159.242 134.913 158.72 134.818C157.617 134.614 156.551 134.44 155.533 134.297C154.895 134.2 154.267 134.113 153.633 134.033C153.26 133.981 152.893 133.938 152.533 133.894L152.418 133.881C152.041 133.832 151.661 133.785 151.288 133.745L150.939 133.704C150.742 133.691 150.535 133.673 150.328 133.646C148.716 133.478 146.955 133.332 144.963 133.201C144.254 133.153 143.538 133.113 142.818 133.081C142.479 133.056 142.167 133.041 141.851 133.033C141.508 133.017 141.186 133.001 140.86 132.993C140.572 132.977 140.3 132.969 140.036 132.961L138.892 132.929C138.162 132.912 137.463 132.897 136.768 132.889C136.076 132.881 135.4 132.872 134.732 132.872L132.604 132.881C130.694 132.912 128.78 132.969 126.924 133.049C126.343 133.073 125.77 133.105 125.2 133.136C124.06 133.201 122.953 133.273 121.854 133.353C121.817 133.359 121.762 133.363 121.708 133.363L119.543 133.553C118.915 133.609 118.287 133.673 117.666 133.744L116.367 133.889C115.512 133.985 114.673 134.097 113.849 134.209L113.73 134.226C113.364 134.276 112.994 134.326 112.637 134.383C112.074 134.465 111.535 134.553 110.998 134.64C110.985 134.642 110.971 134.645 110.954 134.646C110.282 134.756 109.621 134.873 108.979 134.998C108.508 135.087 108.053 135.174 107.602 135.269C105.104 135.789 102.898 136.378 101.039 137.021C100.632 137.162 100.187 136.946 100.048 136.538C99.9054 136.129 100.123 135.684 100.53 135.543C102.45 134.879 104.721 134.271 107.279 133.738C107.741 133.641 108.206 133.551 108.688 133.462C109.349 133.333 110.041 133.21 110.741 133.097C110.754 133.094 110.768 133.093 110.781 133.091C111.317 133.004 111.854 132.917 112.403 132.837C112.76 132.78 113.14 132.728 113.516 132.677L113.638 132.659C114.477 132.546 115.325 132.433 116.194 132.335L117.49 132.19C118.118 132.117 118.762 132.053 119.407 131.996L121.643 131.802C121.708 131.795 121.759 131.791 121.8 131.791C122.848 131.713 123.961 131.64 125.101 131.575C125.692 131.543 126.272 131.51 126.859 131.486C128.729 131.406 130.656 131.349 132.587 131.317L134.732 131.308C135.404 131.308 136.086 131.317 136.764 131.325C137.491 131.333 138.193 131.348 138.902 131.364L140.046 131.397C140.361 131.406 140.646 131.415 140.925 131.431C141.237 131.438 141.573 131.454 141.909 131.47C142.231 131.478 142.564 131.495 142.91 131.52C143.616 131.551 144.349 131.592 145.068 131.64C147.077 131.773 148.858 131.921 150.511 132.093C150.694 132.117 150.857 132.131 151.013 132.138L151.454 132.19C151.838 132.231 152.228 132.28 152.611 132.328L152.72 132.341C153.09 132.386 153.467 132.431 153.836 132.483C154.474 132.563 155.116 132.652 155.761 132.75C156.792 132.895 157.881 133.072 158.984 133.277C159.531 133.375 160.06 133.472 160.583 133.577L160.939 133.649C161.214 133.704 161.485 133.759 161.757 133.823C161.784 133.826 161.811 133.83 161.841 133.836C161.865 133.84 161.892 133.844 161.913 133.849C161.92 133.85 161.923 133.851 161.93 133.852C162.164 133.902 162.395 133.953 162.629 134.011C163.111 134.111 163.616 134.234 164.115 134.356C169.012 135.563 172.982 137.093 175.921 138.907C177.79 140.056 179.256 141.328 180.288 142.688C181.113 143.784 181.788 145.092 182.293 146.576C182.378 146.82 182.334 147.088 182.181 147.295C176.236 155.295 167.946 162.227 158.207 167.343V167.342C158.19 167.353 158.166 167.364 158.146 167.375C145.655 173.923 131.121 177.384 116.119 177.384Z" fill="#231F20"/>
<path d="M163.925 135.114C161.728 138.753 146.58 157.326 128.608 154.682C109.92 151.926 106.778 141.895 107.434 134.506C122.582 131.37 147.282 131.013 163.925 135.114Z" fill="#A1BDD9" fill-opacity="0.8"/>
<path d="M182.688 145.259C182.328 145.79 181.947 146.313 181.557 146.828C175.642 154.784 167.507 161.574 157.848 166.65C158.289 165.33 158.764 164.036 159.246 162.813C159.335 162.587 159.43 162.362 159.522 162.145C159.647 161.831 159.776 161.525 159.912 161.212L175.513 139.571L175.568 139.499C175.642 139.539 175.724 139.588 175.795 139.628C175.921 139.7 176.05 139.781 176.179 139.861C176.267 139.909 176.352 139.958 176.437 140.022C177.693 140.827 180.131 142.548 182.688 145.259Z" fill="white"/>
<path d="M157.782 167.465C157.694 167.465 157.61 167.451 157.525 167.422C157.117 167.281 156.899 166.836 157.042 166.428C157.538 164.99 158.02 163.71 158.523 162.512C158.585 162.337 158.673 162.13 158.764 161.92L158.8 161.837C158.924 161.531 159.057 161.219 159.194 160.901C159.367 160.505 159.827 160.323 160.225 160.496C160.619 160.668 160.802 161.129 160.629 161.525C160.496 161.833 160.368 162.134 160.241 162.442L160.202 162.54C160.124 162.72 160.046 162.896 159.98 163.078C159.478 164.282 159.005 165.533 158.519 166.939C158.405 167.262 158.105 167.465 157.782 167.465Z" fill="#231F20"/>
<path d="M182.753 145.946C182.546 145.946 182.338 145.865 182.185 145.703C180.349 143.768 178.359 142.135 176.278 140.85C176.175 140.78 176.101 140.733 176.033 140.693C175.92 140.613 175.866 140.581 175.805 140.549C175.631 140.442 175.523 140.373 175.41 140.311L175.189 140.185C174.812 139.975 174.676 139.5 174.883 139.122C175.094 138.744 175.57 138.608 175.948 138.817L176.172 138.945C176.308 139.021 176.437 139.102 176.57 139.184C176.672 139.24 176.777 139.305 176.897 139.391C176.934 139.41 177.039 139.476 177.135 139.542C179.294 140.875 181.386 142.593 183.321 144.625C183.617 144.938 183.603 145.434 183.29 145.731C183.141 145.875 182.947 145.946 182.753 145.946Z" fill="#231F20"/>
<path d="M161.759 134.616C161.759 134.616 144 151.439 129.328 149.87C108.557 147.65 110.887 133.727 110.887 133.727C113.21 133.152 115.934 132.668 118.943 132.296C123.209 129.056 121.236 111.962 119.75 108.243C118.192 104.328 141.579 98.6045 141.579 98.6045C141.579 98.6045 140.423 127.497 150.155 132.796C150.155 132.796 150.161 132.796 150.171 132.801C154.274 133.429 161.759 134.616 161.759 134.616Z" fill="white"/>
<path d="M111.611 134.357C111.539 135.611 111.604 139.012 114.049 142.212C116.938 145.997 122.104 148.312 129.411 149.093C141.396 150.374 155.8 138.789 160.011 135.132C157.58 134.747 152.963 134.02 150.051 133.575C150.008 133.568 149.959 133.556 149.92 133.542C149.871 133.527 149.825 133.507 149.779 133.483C140.699 128.537 140.657 104.956 140.768 99.6125C133.203 101.533 121.787 105.181 120.527 107.626C120.423 107.826 120.459 107.913 120.475 107.954C121.974 111.706 124.176 129.302 119.412 132.919C119.304 133.002 119.176 133.055 119.039 133.073C116.283 133.413 113.79 133.845 111.611 134.357ZM131.322 150.757C130.625 150.757 129.931 150.722 129.244 150.648C121.476 149.818 115.937 147.289 112.782 143.132C109.33 138.582 110.083 133.8 110.116 133.598C110.168 133.29 110.397 133.043 110.698 132.968C113.002 132.399 115.665 131.921 118.623 131.548C122.206 128.352 120.517 112.273 119.022 108.534C118.881 108.172 118.783 107.598 119.137 106.909C121.211 102.884 139.335 98.3495 141.393 97.8456C141.629 97.7867 141.884 97.8423 142.074 97.9994C142.263 98.1531 142.371 98.3887 142.362 98.6341C142.348 98.9188 141.344 126.88 150.417 132.048C154.547 132.682 161.882 133.845 161.882 133.845C162.177 133.891 162.419 134.101 162.504 134.386C162.596 134.67 162.514 134.98 162.295 135.185C161.594 135.849 145.683 150.757 131.322 150.757Z" fill="#231F20"/>
<path d="M118.942 132.296C118.942 132.296 120.578 134.253 124.712 134.602Z" fill="white"/>
<path d="M124.714 135.383C124.693 135.383 124.671 135.382 124.65 135.38C120.242 135.008 118.421 132.886 118.345 132.796C118.068 132.465 118.113 131.972 118.442 131.695C118.774 131.418 119.264 131.462 119.541 131.788C119.572 131.823 121.091 133.51 124.781 133.822C125.21 133.858 125.53 134.236 125.493 134.666C125.46 135.074 125.119 135.383 124.714 135.383Z" fill="#231F20"/>
<path d="M134.774 113.93C129.104 119.707 120.521 124.29 110.078 116.743C101.07 110.231 99.1203 87.8876 106.434 74.7659C108.515 71.0196 111.357 68.0245 115.004 66.3623C126.716 61.0274 138.14 67.8199 139.984 75.8368C141.365 81.8622 140.71 91.749 140.71 91.749C140.71 91.749 146.876 86.251 148.574 93.392C150.287 100.629 142.273 103.32 142.273 103.32C142.273 103.32 139.559 109.052 134.774 113.93Z" fill="white"/>
<path d="M123.532 65.2556C120.783 65.2556 117.989 65.8605 115.332 67.0737C112.019 68.5812 109.257 71.2955 107.119 75.1429C99.9743 87.9622 101.796 109.785 110.537 116.107C118.69 122 126.663 121.081 134.22 113.38C138.855 108.659 141.543 103.041 141.569 102.984C141.659 102.795 141.825 102.648 142.027 102.577C142.324 102.478 149.344 100.016 147.817 93.57C147.42 91.896 146.745 90.8973 145.82 90.606C144.222 90.1003 141.966 91.6783 141.233 92.3313C140.999 92.5425 140.654 92.5874 140.369 92.4497C140.084 92.3089 139.911 92.0112 139.933 91.6943C139.94 91.5983 140.564 81.8518 139.226 76.0071C138.397 72.4062 135.507 69.0742 131.493 67.0897C129.012 65.8669 126.298 65.2556 123.532 65.2556ZM120.965 121.481C117.505 121.481 113.703 120.323 109.622 117.374C100.355 110.672 98.2907 87.7669 105.755 74.3811C108.056 70.2393 111.062 67.3009 114.682 65.6493C120.44 63.0246 126.82 63.0406 132.184 65.6877C136.617 67.877 139.818 71.6028 140.753 75.6582C141.815 80.3026 141.7 87.0564 141.579 90.1515C142.788 89.3994 144.613 88.5863 146.287 89.1145C147.779 89.5818 148.806 90.9613 149.337 93.2115C150.989 100.18 144.392 103.307 142.843 103.937C142.222 105.176 139.61 110.121 135.334 114.475C131.787 118.092 126.877 121.481 120.965 121.481Z" fill="#231F20"/>
<path d="M141.923 110.764L142.274 103.322C142.274 103.322 150.286 100.63 148.575 93.3945C146.877 86.2509 140.71 91.7487 140.71 91.7487C140.71 91.7487 137.982 93.1355 136.281 92.5815C134.579 92.0176 136.281 84.0281 136.281 84.0281C136.281 84.0281 126.888 79.0941 128.16 75.2846C129.432 71.4784 121.885 79.5466 118.525 75.2846C115.581 71.5636 117.787 69.036 118.387 68.4655C117.427 69.3114 111.716 74.1732 106.434 74.7666C103.759 75.0649 101.195 74.2749 99.4054 71.3309C93.7239 61.994 106.054 64.0135 106.054 64.0135C106.054 64.0135 100.15 52.7325 109.565 53.0308C118.971 53.3291 118.45 58.2599 118.45 58.2599C118.45 58.2599 128.606 46.9691 136.002 53.0243C143.395 59.0795 141.602 69.3114 141.602 69.3114C141.602 69.3114 152.542 68.459 157.958 74.6912C162.439 79.8449 163.636 106.956 141.923 110.764Z" fill="#231F20"/>
<path d="M143.033 103.859L142.752 109.804C152.115 107.79 156.282 101.256 158.132 96.0381C161.156 87.5135 159.677 77.8529 157.372 75.2013C152.282 69.348 141.77 70.0813 141.662 70.0911C141.423 70.1075 141.187 70.0158 141.023 69.8357C140.863 69.659 140.791 69.4135 140.834 69.1777C140.85 69.0795 142.451 59.3109 135.507 53.6279C128.777 48.115 119.129 58.6759 119.034 58.7806C118.805 59.0327 118.442 59.1112 118.134 58.9738C117.823 58.8363 117.64 58.5122 117.676 58.175C117.679 58.1455 117.744 57.1536 116.828 56.129C115.95 55.1501 113.973 53.952 109.541 53.8112C107.518 53.7457 106.188 54.2433 105.534 55.2843C104.123 57.5333 105.933 62.0837 106.748 63.6485C106.886 63.9104 106.863 64.228 106.689 64.4669C106.516 64.7059 106.228 64.8303 105.93 64.7812C104.404 64.5324 100.194 64.2738 99.0191 66.0187C98.1811 67.2594 99.1337 69.3709 100.077 70.9226C101.517 73.2927 103.573 74.2978 106.349 73.9868C111.482 73.4106 117.23 68.4412 117.869 67.8781C118.186 67.5966 118.674 67.6195 118.962 67.9338C119.25 68.2448 119.237 68.7325 118.93 69.0272C118.35 69.5837 116.651 71.6494 119.142 74.7986C120.566 76.609 123.048 75.5941 125.68 74.2945C127.101 73.5906 128.04 73.1258 128.714 73.715C129.333 74.2519 129.022 75.1816 128.904 75.5319C128.132 77.8431 133.245 81.5424 136.65 83.3331C136.958 83.4967 137.121 83.8437 137.049 84.1875C136.286 87.7688 136.07 91.3568 136.584 91.8642C137.622 92.1948 139.563 91.4354 140.277 91.0916C140.817 90.6333 143.731 88.309 146.284 89.1143C147.777 89.5825 148.805 90.9607 149.339 93.2097C150.93 99.9239 144.867 103.073 143.033 103.859ZM141.927 111.544C141.737 111.544 141.554 111.476 141.41 111.349C141.233 111.192 141.131 110.963 141.145 110.726L141.495 103.283C141.508 102.962 141.721 102.684 142.025 102.579C142.323 102.477 149.342 100.019 147.816 93.573C147.417 91.8969 146.746 90.8985 145.819 90.6071C144.209 90.0997 141.963 91.6809 141.233 92.3323C141.184 92.3749 141.128 92.4142 141.069 92.4436C140.758 92.6008 137.999 93.9593 136.041 93.321C134.175 92.7055 134.627 88.2763 135.403 84.4363C133.265 83.2446 126.344 79.0576 127.366 75.2209C127.055 75.3584 126.685 75.5417 126.374 75.6956C124.082 76.8283 120.246 78.7237 117.915 75.7676C116.497 73.9769 116.15 72.4056 116.268 71.1419C113.816 72.913 110.11 75.1391 106.522 75.5418C103.128 75.9215 100.509 74.6382 98.7409 71.7345C97.0222 68.9093 96.6785 66.693 97.7228 65.1446C99.1599 63.0134 102.735 62.9316 104.768 63.0789C103.91 61.0264 102.607 57.0063 104.211 54.4528C105.18 52.9077 106.997 52.1645 109.59 52.2464C113.636 52.3741 116.478 53.3496 118.042 55.1403C118.488 55.6543 118.769 56.1715 118.946 56.6364C121.85 53.8341 129.998 47.0969 136.499 52.4166C142.899 57.6578 142.758 65.724 142.497 68.4903C145.354 68.4314 153.833 68.7489 158.554 74.1766C161.156 77.1688 162.862 87.3793 159.608 96.5586C157.555 102.346 152.845 109.641 142.058 111.532C142.015 111.541 141.97 111.544 141.927 111.544Z" fill="#231F20"/>
<path d="M125.955 88.9803C125.763 90.2698 124.806 91.1995 123.818 91.0532C122.831 90.9038 122.185 89.7394 122.377 88.4499C122.566 87.1604 123.523 86.2337 124.51 86.38C125.498 86.5263 126.144 87.6908 125.955 88.9803Z" fill="#231F20"/>
<path d="M112.53 87.0108C112.337 88.3011 111.382 89.2294 110.392 89.0811C109.404 88.9358 108.76 87.7701 108.95 86.4799C109.14 85.1897 110.098 84.2643 111.086 84.4096C112.073 84.5549 112.72 85.7206 112.53 87.0108Z" fill="#231F20"/>
<path d="M122.495 83.4651C122.495 83.4651 125.828 81.9321 129.026 85.5439Z" fill="white"/>
<path d="M129.023 86.3267C128.808 86.3267 128.593 86.2376 128.439 86.0625C125.656 82.9236 122.846 84.1644 122.818 84.1767C122.425 84.3579 121.961 84.1859 121.78 83.7928C121.602 83.3996 121.774 82.9358 122.164 82.7546C122.324 82.684 126.065 81.0285 129.609 85.0275C129.895 85.35 129.864 85.8445 129.542 86.1301C129.394 86.2622 129.207 86.3267 129.023 86.3267Z" fill="#231F20"/>
<path d="M108.25 80.6196C108.25 80.6196 111.583 79.0886 114.785 82.6987Z" fill="white"/>
<path d="M114.779 83.4844C114.564 83.4844 114.349 83.3948 114.194 83.2188C111.446 80.1154 108.686 81.2851 108.572 81.3359C108.179 81.5089 107.716 81.3329 107.54 80.942C107.361 80.5511 107.531 80.0915 107.922 79.9125C108.08 79.8409 111.825 78.1817 115.367 82.1833C115.654 82.5056 115.621 83.0009 115.298 83.2874C115.149 83.4187 114.964 83.4844 114.779 83.4844Z" fill="#231F20"/>
<path d="M116.78 88.7809C115.56 92.1816 114.34 95.5823 113.122 98.983C112.922 99.5423 112.719 100.129 112.799 100.718C112.907 101.483 113.493 102.112 114.178 102.473C114.86 102.832 115.635 102.97 116.394 103.102" fill="white"/>
<path d="M116.396 103.883C116.351 103.883 116.306 103.88 116.261 103.874C115.488 103.739 114.61 103.586 113.81 103.164C112.824 102.642 112.159 101.77 112.024 100.827C111.914 100.036 112.174 99.3044 112.384 98.7201L116.046 88.5176C116.186 88.1101 116.633 87.9003 117.043 88.0441C117.448 88.1909 117.661 88.6374 117.514 89.0449L113.855 99.2475C113.696 99.6939 113.514 100.197 113.574 100.611C113.633 101.048 114.005 101.498 114.541 101.782C115.123 102.088 115.836 102.211 116.528 102.331C116.953 102.406 117.238 102.81 117.166 103.236C117.1 103.616 116.771 103.883 116.396 103.883Z" fill="#231F20"/>
<path d="M122.022 108.676C119.598 110.055 116.587 110.357 113.936 109.49Z" fill="white"/>
<path d="M117.027 110.756C115.894 110.756 114.761 110.583 113.689 110.232C113.277 110.099 113.053 109.657 113.189 109.245C113.326 108.836 113.765 108.612 114.177 108.745C116.615 109.547 119.404 109.266 121.636 107.997C122.009 107.782 122.487 107.912 122.702 108.288C122.914 108.663 122.784 109.142 122.408 109.357C120.782 110.28 118.898 110.756 117.027 110.756Z" fill="#231F20"/>
<path d="M154.713 94.73C154.564 94.73 154.412 94.6878 154.279 94.5969C153.922 94.3568 153.824 93.8702 154.068 93.51C155.771 90.9825 156.521 87.7996 156.128 84.7724C155.732 81.7517 154.188 78.8641 151.894 76.8589C151.569 76.5734 151.534 76.0802 151.819 75.7558C152.105 75.4281 152.598 75.3956 152.922 75.6811C155.502 77.9361 157.234 81.1742 157.676 84.5712C158.12 87.9683 157.277 91.5438 155.366 94.386C155.213 94.6099 154.967 94.73 154.713 94.73Z" fill="white"/>
<path d="M107.726 63.2861C107.42 63.2861 107.129 63.1051 107.004 62.8024C106.467 61.5173 106.438 60.1017 106.91 58.9175C107.444 57.5849 108.649 56.5788 109.981 56.3533C110.839 56.2078 111.774 56.3829 112.525 56.837C112.896 57.0596 113.014 57.5404 112.792 57.9114C112.569 58.2794 112.085 58.3981 111.72 58.1785C111.281 57.9144 110.738 57.8105 110.242 57.8965C109.435 58.0331 108.699 58.6623 108.361 59.4992C108.037 60.3064 108.067 61.2917 108.447 62.2029C108.613 62.6035 108.423 63.0606 108.025 63.2268C107.927 63.2654 107.824 63.2861 107.726 63.2861Z" fill="white"/>
<path d="M106.601 72.5547C105.311 72.5547 104.057 72.0346 103.246 71.1237C102.126 69.875 101.956 67.9298 102.837 66.6047C103.078 66.2462 103.56 66.1492 103.924 66.3872C104.283 66.6282 104.38 67.113 104.142 67.4715C103.645 68.2119 103.766 69.3608 104.412 70.0836C105.053 70.8005 106.146 71.1355 107.201 70.9327C107.624 70.8534 108.032 71.1296 108.117 71.5557C108.197 71.9788 107.92 72.3872 107.494 72.4695C107.198 72.5253 106.898 72.5547 106.601 72.5547Z" fill="white"/>
<path d="M123.146 74.0762C122.35 74.0762 121.56 73.7936 120.946 73.274C120.156 72.6025 119.71 71.5816 119.755 70.5485C119.77 70.114 120.147 69.7828 120.566 69.798C121.001 69.8163 121.335 70.1809 121.314 70.6123C121.293 71.1623 121.539 71.7244 121.958 72.0799C122.377 72.4354 122.973 72.5873 123.511 72.4749C123.936 72.3868 124.349 72.6572 124.434 73.0796C124.526 73.5019 124.252 73.9182 123.833 74.0063C123.605 74.0519 123.374 74.0762 123.146 74.0762Z" fill="white"/>
<path d="M134.567 80.7354C132.67 80.7354 130.909 79.2139 130.639 77.3354C130.58 76.9069 130.875 76.5126 131.304 76.4505C131.732 76.3884 132.127 76.6865 132.189 77.115C132.35 78.2328 133.434 79.1736 134.567 79.1736C134.573 79.1736 134.576 79.1736 134.586 79.1736C135.014 79.1736 135.362 79.5182 135.365 79.9498C135.368 80.3814 135.02 80.7322 134.589 80.7354C134.583 80.7354 134.573 80.7354 134.567 80.7354Z" fill="white"/>
<path d="M0.78125 44.1826H59.6474V0.78201H0.78125V44.1826Z" fill="white"/>
<path d="M4.80859 48.6431H63.6735V5.244H4.80859V48.6431Z" fill="#A1BDD9" fill-opacity="0.8"/>
<path d="M1.56715 43.3993H58.866V1.56468H1.56715V43.3993ZM59.6482 44.9639H0.782239C0.351201 44.9639 0 44.6153 0 44.1816V0.782444C0 0.351405 0.351201 0.000178688 0.782239 0.000178688H59.6482C60.0819 0.000178688 60.4305 0.351405 60.4305 0.782444V44.1816C60.4305 44.6153 60.0819 44.9639 59.6482 44.9639Z" fill="#231F20"/>
<path d="M53.0067 37.9681V51.6919L37.0264 41.0669" fill="#A1BDD9" fill-opacity="0.8"/>
<path d="M53.0073 52.4741C52.8562 52.4741 52.7026 52.4298 52.575 52.3439L36.5938 41.7176C36.2344 41.4779 36.1354 40.9935 36.375 40.6341C36.6146 40.2747 37.099 40.1757 37.4611 40.4153L52.2234 50.2317V37.9671C52.2234 37.5347 52.575 37.1857 53.0073 37.1857C53.437 37.1857 53.7887 37.5347 53.7887 37.9671V51.6902C53.7887 51.9793 53.6298 52.2449 53.3745 52.3804C53.2599 52.4429 53.1349 52.4741 53.0073 52.4741Z" fill="#231F20"/>
<path d="M33.6513 33.6305C33.6513 34.1204 33.6124 34.5325 33.5372 34.8669C33.4595 35.2012 33.3221 35.4682 33.1251 35.6704C32.9281 35.8751 32.6664 36.0203 32.3372 36.1084C32.0106 36.1991 31.6063 36.2432 31.1319 36.2432C30.6317 36.2432 30.217 36.1991 29.8956 36.1084C29.5742 36.0203 29.3124 35.8751 29.118 35.6704C28.921 35.4682 28.7863 35.2012 28.7085 34.8669C28.6308 34.5325 28.5919 34.1204 28.5919 33.6305C28.5919 33.1303 28.6308 32.7104 28.7085 32.3708C28.7863 32.0313 28.921 31.7566 29.118 31.5466C29.3124 31.3393 29.5742 31.1889 29.8956 31.1008C30.217 31.0101 30.6317 30.9661 31.1319 30.9661C31.6063 30.9661 32.0106 31.0101 32.3372 31.1008C32.6664 31.1889 32.9281 31.3393 33.1251 31.5466C33.3221 31.7566 33.4595 32.0313 33.5372 32.3708C33.6124 32.7104 33.6513 33.1303 33.6513 33.6305ZM38.9465 18.302C38.9465 19.2791 38.8092 20.163 38.5267 20.9509C38.2467 21.7363 37.8528 22.4153 37.3473 22.9881C36.8393 23.561 36.2328 24.0197 35.5226 24.3645C34.8125 24.7118 34.0297 24.9321 33.1692 25.028L33.0266 28.5167C33.0137 28.7318 32.8452 28.8925 32.5186 28.9988C32.1894 29.1051 31.7151 29.1595 31.0956 29.1595C30.7017 29.1595 30.3699 29.1517 30.103 29.1336C29.8334 29.1154 29.6209 29.0817 29.4679 29.0351C29.3124 28.9858 29.1984 28.921 29.1258 28.8381C29.0558 28.7551 29.0144 28.6463 29.0014 28.5167L28.8407 24.2945C28.8303 23.9135 28.8459 23.6024 28.8951 23.364C28.9444 23.1255 29.0299 22.9337 29.1543 22.7912C29.2787 22.6486 29.4368 22.5501 29.6286 22.4957C29.8178 22.4438 30.0433 22.4153 30.3077 22.4153H30.5565C31.1916 22.4153 31.7359 22.3142 32.1946 22.1121C32.6534 21.9099 33.0344 21.6404 33.3299 21.306C33.6279 20.9742 33.8457 20.5803 33.983 20.1267C34.1204 19.6731 34.1904 19.191 34.1904 18.6778C34.1904 18.105 34.1101 17.5814 33.9494 17.1045C33.7861 16.625 33.5424 16.2155 33.2132 15.8682C32.8841 15.5235 32.4772 15.2591 31.9795 15.0725C31.4845 14.8884 30.9039 14.7951 30.2352 14.7951C29.6286 14.7951 29.0921 14.8548 28.6282 14.974C28.1616 15.0932 27.7599 15.2254 27.4281 15.3679C27.0937 15.5105 26.8164 15.6427 26.5935 15.7619C26.3758 15.8811 26.2047 15.9408 26.0855 15.9408C26.0026 15.9408 25.9248 15.9148 25.8548 15.8604C25.7823 15.806 25.7226 15.7075 25.6734 15.5649C25.6267 15.4224 25.5879 15.2202 25.5593 14.9558C25.5282 14.6941 25.5127 14.3597 25.5127 13.9553C25.5127 13.538 25.5308 13.2348 25.5671 13.043C25.6034 12.8512 25.6812 12.6983 25.8004 12.5765C25.9196 12.4572 26.1477 12.3173 26.4795 12.1566C26.8138 11.9959 27.213 11.8481 27.6769 11.7108C28.1435 11.5734 28.6619 11.4568 29.2321 11.3609C29.8075 11.265 30.401 11.2183 31.0231 11.2183C32.4305 11.2183 33.6357 11.4127 34.6388 11.7989C35.6393 12.1877 36.4583 12.7086 37.0959 13.3644C37.7335 14.0201 38.2027 14.7718 38.5007 15.6194C38.7988 16.4669 38.9465 17.3611 38.9465 18.302Z" fill="white"/>
</svg>
