<svg width="170" height="230" viewBox="0 0 170 230" fill="none" xmlns="http://www.w3.org/2000/svg">
<path d="M3.3606 39.9678C3.3606 25.0561 15.4489 12.9678 30.3606 12.9678H143C157.912 12.9678 170 25.0561 170 39.9678V203.001C170 217.912 157.912 230.001 143 230.001H30.3606C15.4489 230.001 3.3606 217.912 3.3606 203.001V39.9678Z" fill="#9FB5C5"/>
<path d="M0.726074 33.8252C0.726074 18.9135 12.8144 6.8252 27.7261 6.8252H141.024C155.936 6.8252 168.024 18.9135 168.024 33.8252V200.953C168.024 215.865 155.936 227.953 141.024 227.953H27.7261C12.8144 227.953 0.726074 215.865 0.726074 200.953V33.8252Z" fill="white"/>
<path d="M1.38477 32.46C1.38477 17.5483 13.4731 5.45996 28.3848 5.45996H138.389C153.301 5.45996 165.389 17.5483 165.389 32.46V198.905C165.389 213.817 153.301 225.905 138.389 225.905H28.3847C13.473 225.905 1.38477 213.817 1.38477 198.905V32.46Z" fill="#E3F2FD"/>
<path d="M23 71C23 65.4772 27.4772 61 33 61H141C146.523 61 151 65.4772 151 71V104C151 109.523 146.523 114 141 114H33C27.4772 114 23 109.523 23 104V71Z" fill="white"/>
<path d="M149.336 47.1023L142.391 40.7373L135.574 46.7679L135.156 5.76811L148.919 6.10443L149.336 47.1023Z" fill="#9AC8EA"/>
<path d="M10.6056 220V18.5L10.4998 12.5L6.49976 16L4.99976 19L3.49976 22L1.53247 28.8277L1.53259 200L2.5 208L4.5 213.046L7 216.5L10.6056 220Z" fill="#9AC8EA"/>
<path d="M71.8169 100.82C71.7769 100.82 71.7436 100.82 71.7169 100.82C71.6902 100.806 71.6636 100.8 71.6369 100.8C71.5169 100.786 71.4369 100.713 71.3969 100.58C71.3436 100.433 71.3636 100.253 71.4569 100.04C71.5636 99.8264 71.7236 99.5531 71.9369 99.2197C72.0302 99.0731 72.1236 98.9264 72.2169 98.7797C72.3102 98.6331 72.3836 98.4931 72.4369 98.3597C72.5169 98.1864 72.5636 98.0597 72.5769 97.9797C72.5902 97.8997 72.5902 97.8464 72.5769 97.8197C72.5769 97.8197 72.5636 97.8131 72.5369 97.7997C72.5236 97.7864 72.5036 97.7731 72.4769 97.7597C72.1036 97.6664 71.5902 97.6264 70.9369 97.6397C70.2969 97.6531 69.4836 97.7931 68.4969 98.0597C67.5102 98.3131 66.3036 98.7531 64.8769 99.3797C64.8236 99.3931 64.7702 99.3931 64.7169 99.3797C64.6636 99.3664 64.6302 99.3331 64.6169 99.2797C64.5636 99.1597 64.5969 99.0731 64.7169 99.0197C65.4636 98.6997 66.1702 98.4197 66.8369 98.1797C67.5036 97.9264 68.1369 97.7264 68.7369 97.5797C70.3102 97.1797 71.5902 97.1131 72.5769 97.3797C72.6836 97.3931 72.7636 97.4331 72.8169 97.4997C72.8836 97.5664 72.9236 97.6264 72.9369 97.6797C73.0302 97.8931 72.9969 98.1531 72.8369 98.4597C72.6902 98.7664 72.5102 99.0864 72.2969 99.4197C72.2169 99.5531 72.1436 99.6731 72.0769 99.7797C72.0102 99.8864 71.9502 99.9931 71.8969 100.1C71.8436 100.193 71.8102 100.266 71.7969 100.32C71.7836 100.36 71.7769 100.393 71.7769 100.42C71.8169 100.42 71.9102 100.413 72.0569 100.4C72.2036 100.373 72.4436 100.32 72.7769 100.24C73.1102 100.146 73.5702 100.006 74.1569 99.8197C74.7436 99.6197 75.5036 99.3464 76.4369 98.9997C76.5836 98.9731 76.6769 99.0131 76.7169 99.1197C76.7436 99.2664 76.7036 99.3597 76.5969 99.3997C75.5036 99.7864 74.6302 100.086 73.9769 100.3C73.3236 100.5 72.8302 100.64 72.4969 100.72C72.1769 100.786 71.9502 100.82 71.8169 100.82Z" fill="#0F2F60"/>
<path d="M55.7524 102.16C55.6591 102.16 55.5791 102.153 55.5124 102.14C55.4457 102.127 55.3724 102.113 55.2924 102.1C55.1724 102.073 55.0924 102 55.0524 101.88C54.9724 101.693 54.9924 101.433 55.1124 101.1C55.2324 100.767 55.4191 100.333 55.6724 99.7999C55.7657 99.6399 55.8457 99.4799 55.9124 99.3199C55.9791 99.1599 56.0391 99.0133 56.0924 98.8799C56.1591 98.7333 56.1991 98.6266 56.2124 98.5599C56.2257 98.4933 56.2391 98.4399 56.2524 98.3999C55.9591 98.3333 55.6391 98.4066 55.2924 98.6199C54.9591 98.8199 54.6191 99.0666 54.2724 99.3599C54.1791 99.4266 54.0857 99.4133 53.9924 99.3199C53.9657 99.2933 53.9524 99.2533 53.9524 99.1999C53.9524 99.1333 53.9791 99.0866 54.0324 99.0599C54.4324 98.7266 54.8257 98.4466 55.2124 98.2199C55.5991 97.9799 55.9924 97.9133 56.3924 98.0199C56.4857 98.0733 56.5524 98.1333 56.5924 98.1999C56.6591 98.3466 56.6391 98.5666 56.5324 98.8599C56.4391 99.1399 56.2791 99.5133 56.0524 99.9799C55.9591 100.18 55.8657 100.38 55.7724 100.58C55.6924 100.767 55.6191 100.947 55.5524 101.12C55.4591 101.333 55.4124 101.48 55.4124 101.56C55.4124 101.64 55.4191 101.687 55.4324 101.7C55.6191 101.753 55.8791 101.747 56.2124 101.68C56.5591 101.613 57.0057 101.433 57.5524 101.14C58.0991 100.847 58.7657 100.387 59.5524 99.7599C60.0457 99.3733 60.4924 98.9999 60.8924 98.6399C61.3057 98.2666 61.6324 97.9599 61.8724 97.7199C62.1124 97.4666 62.2324 97.3333 62.2324 97.3199C62.2857 97.2666 62.3524 97.2533 62.4324 97.2799C62.4591 97.2933 62.4857 97.3133 62.5124 97.3399C62.5524 97.3533 62.5791 97.3733 62.5924 97.3999C62.6457 97.4933 62.6324 97.6533 62.5524 97.8799C62.4857 98.0933 62.3524 98.4333 62.1524 98.8999C62.0591 99.0999 61.9724 99.2999 61.8924 99.4999C61.8124 99.6866 61.7391 99.8733 61.6724 100.06C61.6191 100.273 61.5857 100.427 61.5724 100.52C61.5591 100.6 61.5524 100.653 61.5524 100.68C61.9257 100.773 62.3991 100.653 62.9724 100.32C63.2524 100.173 63.5324 99.9866 63.8124 99.7599C64.0924 99.5199 64.3724 99.2866 64.6524 99.0599C64.7457 98.9666 64.8391 98.9733 64.9324 99.0799C65.0124 99.1866 64.9991 99.2799 64.8924 99.3599C64.5191 99.6933 64.1324 100.013 63.7324 100.32C63.3457 100.613 62.9591 100.833 62.5724 100.98C62.1857 101.127 61.8057 101.153 61.4324 101.06C61.3391 101.02 61.2591 100.96 61.1924 100.88C61.1124 100.693 61.1257 100.427 61.2324 100.08C61.3524 99.7199 61.5324 99.2666 61.7724 98.7199C61.8257 98.6133 61.8724 98.5066 61.9124 98.3999C61.9657 98.2799 62.0191 98.1666 62.0724 98.0599C61.8191 98.2866 61.4924 98.5866 61.0924 98.9599C60.7057 99.3199 60.2724 99.6866 59.7924 100.06C58.0724 101.46 56.7257 102.16 55.7524 102.16Z" fill="#0F2F60"/>
<path d="M45.1079 102.16C45.0145 102.16 44.9345 102.153 44.8679 102.14C44.8012 102.127 44.7279 102.113 44.6479 102.1C44.5279 102.073 44.4479 102 44.4079 101.88C44.3279 101.693 44.3479 101.433 44.4679 101.1C44.5879 100.767 44.7745 100.333 45.0279 99.7999C45.1212 99.6399 45.2012 99.4799 45.2679 99.3199C45.3345 99.1599 45.3945 99.0133 45.4479 98.8799C45.5145 98.7333 45.5545 98.6266 45.5679 98.5599C45.5812 98.4933 45.5945 98.4399 45.6079 98.3999C45.3145 98.3333 44.9945 98.4066 44.6479 98.6199C44.3145 98.8199 43.9745 99.0666 43.6279 99.3599C43.5345 99.4266 43.4412 99.4133 43.3479 99.3199C43.3212 99.2933 43.3079 99.2533 43.3079 99.1999C43.3079 99.1333 43.3345 99.0866 43.3879 99.0599C43.7879 98.7266 44.1812 98.4466 44.5679 98.2199C44.9545 97.9799 45.3479 97.9133 45.7479 98.0199C45.8412 98.0733 45.9079 98.1333 45.9479 98.1999C46.0145 98.3466 45.9945 98.5666 45.8879 98.8599C45.7945 99.1399 45.6345 99.5133 45.4079 99.9799C45.3145 100.18 45.2212 100.38 45.1279 100.58C45.0479 100.767 44.9745 100.947 44.9079 101.12C44.8145 101.333 44.7679 101.48 44.7679 101.56C44.7679 101.64 44.7745 101.687 44.7879 101.7C44.9745 101.753 45.2345 101.747 45.5679 101.68C45.9145 101.613 46.3612 101.433 46.9079 101.14C47.4545 100.847 48.1212 100.387 48.9079 99.7599C49.4012 99.3733 49.8479 98.9999 50.2479 98.6399C50.6612 98.2666 50.9879 97.9599 51.2279 97.7199C51.4679 97.4666 51.5879 97.3333 51.5879 97.3199C51.6412 97.2666 51.7079 97.2533 51.7879 97.2799C51.8145 97.2933 51.8412 97.3133 51.8679 97.3399C51.9079 97.3533 51.9345 97.3733 51.9479 97.3999C52.0012 97.4933 51.9879 97.6533 51.9079 97.8799C51.8412 98.0933 51.7079 98.4333 51.5079 98.8999C51.4145 99.0999 51.3279 99.2999 51.2479 99.4999C51.1679 99.6866 51.0945 99.8733 51.0279 100.06C50.9745 100.273 50.9412 100.427 50.9279 100.52C50.9145 100.6 50.9079 100.653 50.9079 100.68C51.2812 100.773 51.7545 100.653 52.3279 100.32C52.6079 100.173 52.8879 99.9866 53.1679 99.7599C53.4479 99.5199 53.7279 99.2866 54.0079 99.0599C54.1012 98.9666 54.1945 98.9733 54.2879 99.0799C54.3679 99.1866 54.3545 99.2799 54.2479 99.3599C53.8745 99.6933 53.4879 100.013 53.0879 100.32C52.7012 100.613 52.3145 100.833 51.9279 100.98C51.5412 101.127 51.1612 101.153 50.7879 101.06C50.6945 101.02 50.6145 100.96 50.5479 100.88C50.4679 100.693 50.4812 100.427 50.5879 100.08C50.7079 99.7199 50.8879 99.2666 51.1279 98.7199C51.1812 98.6133 51.2279 98.5066 51.2679 98.3999C51.3212 98.2799 51.3745 98.1666 51.4279 98.0599C51.1745 98.2866 50.8479 98.5866 50.4479 98.9599C50.0612 99.3199 49.6279 99.6866 49.1479 100.06C47.4279 101.46 46.0812 102.16 45.1079 102.16Z" fill="#0F2F60"/>
<path d="M40.64 100.42H40.6C40.4934 100.393 40.4134 100.353 40.36 100.3C40.3067 100.233 40.2667 100.173 40.24 100.12C40.1867 99.9329 40.2334 99.7129 40.38 99.4595C40.5267 99.1929 40.7067 98.9062 40.92 98.5995C41.0267 98.4529 41.1267 98.3129 41.22 98.1795C41.3134 98.0329 41.3867 97.8995 41.44 97.7795C41.5334 97.6329 41.58 97.5262 41.58 97.4595C41.5934 97.3795 41.5934 97.3262 41.58 97.2995C41.58 97.2995 41.5734 97.2929 41.56 97.2795C41.5467 97.2529 41.5067 97.2329 41.44 97.2195C41.2 97.1529 40.92 97.2062 40.6 97.3795C40.2934 97.5395 39.96 97.7662 39.6 98.0595C39.2534 98.3529 38.9 98.6595 38.54 98.9795C38.4867 99.0329 38.42 99.0929 38.34 99.1595C38.2734 99.2262 38.2 99.2929 38.12 99.3595C38.0134 99.4395 37.92 99.4262 37.84 99.3195C37.8134 99.2929 37.8 99.2529 37.8 99.1995C37.8 99.1329 37.8267 99.0862 37.88 99.0595C37.9467 98.9929 38.0134 98.9262 38.08 98.8595C38.1467 98.7929 38.2134 98.7329 38.28 98.6795C38.6934 98.3195 39.0867 97.9862 39.46 97.6795C39.8467 97.3729 40.2134 97.1395 40.56 96.9795C40.9067 96.8062 41.2334 96.7662 41.54 96.8595C41.6867 96.8862 41.7867 96.9329 41.84 96.9995C41.8934 97.0529 41.9267 97.1129 41.94 97.1795C42.02 97.3795 41.98 97.6262 41.82 97.9195C41.66 98.1995 41.4667 98.4995 41.24 98.8195C41.1467 98.9529 41.0534 99.0862 40.96 99.2195C40.88 99.3529 40.8067 99.4729 40.74 99.5795C40.6734 99.7262 40.6334 99.8329 40.62 99.8995C40.62 99.9529 40.62 99.9862 40.62 99.9995C40.62 99.9995 40.6267 100.006 40.64 100.02C40.6534 100.02 40.6667 100.02 40.68 100.02C40.7334 100.006 40.8467 99.9729 41.02 99.9195C41.1934 99.8529 41.4734 99.7462 41.86 99.5995C42.2467 99.4529 42.7867 99.2529 43.48 98.9995C43.6134 98.9729 43.6934 99.0129 43.72 99.1195C43.7467 99.1729 43.7467 99.2262 43.72 99.2795C43.7067 99.3329 43.6734 99.3729 43.62 99.3995C43.18 99.5462 42.7934 99.6862 42.46 99.8195C42.1267 99.9395 41.84 100.04 41.6 100.12C41.24 100.253 41 100.34 40.88 100.38C40.76 100.406 40.68 100.42 40.64 100.42Z" fill="#0F2F60"/>
<path d="M130.294 81.02C130.241 81.02 130.201 81.0066 130.174 80.98C130.094 80.9133 130.067 80.84 130.094 80.76C130.401 79.9333 130.641 79.2266 130.814 78.64C130.987 78.0533 131.081 77.6466 131.094 77.42C130.854 77.5133 130.441 77.6733 129.854 77.9C129.281 78.1133 128.634 78.3533 127.914 78.62C127.207 78.8866 126.514 79.1466 125.834 79.4C125.687 79.4266 125.594 79.3866 125.554 79.28C125.527 79.16 125.567 79.0666 125.674 79C126.274 78.7733 126.894 78.5466 127.534 78.32C128.187 78.08 128.787 77.86 129.334 77.66C129.881 77.46 130.327 77.2933 130.674 77.16C131.021 77.0266 131.194 76.96 131.194 76.96H131.334C131.414 76.9866 131.461 77.0266 131.474 77.08C131.514 77.1333 131.534 77.22 131.534 77.34C131.534 77.46 131.501 77.6533 131.434 77.92C131.381 78.0933 131.327 78.2866 131.274 78.5C131.221 78.7 131.147 78.9266 131.054 79.18C131.001 79.3933 130.934 79.6133 130.854 79.84C130.787 80.0533 130.721 80.24 130.654 80.4C130.947 80.24 131.334 80.04 131.814 79.8C132.307 79.5466 132.854 79.2866 133.454 79.02C133.574 78.9666 133.667 79 133.734 79.12C133.761 79.1733 133.761 79.2266 133.734 79.28C133.721 79.3333 133.687 79.3666 133.634 79.38C133.021 79.6466 132.467 79.9066 131.974 80.16C131.494 80.4 131.107 80.6 130.814 80.76C130.534 80.9066 130.394 80.9866 130.394 81C130.381 81 130.367 81.0066 130.354 81.02C130.341 81.02 130.321 81.02 130.294 81.02Z" fill="#0F2F60"/>
<path d="M120.481 82.2001C120.388 82.2001 120.288 82.1867 120.181 82.1601C120.101 82.1201 120.054 82.0734 120.041 82.0201C120.001 81.9534 119.988 81.8267 120.001 81.6401C120.014 81.4534 120.108 81.0467 120.281 80.4201C120.388 80.0601 120.501 79.7001 120.621 79.3401C120.754 78.9667 120.868 78.6534 120.961 78.4001C120.961 78.3734 120.961 78.3534 120.961 78.3401C120.974 78.3134 120.981 78.2934 120.981 78.2801C120.688 78.3867 120.274 78.5467 119.741 78.7601C119.221 78.9601 118.654 79.1734 118.041 79.4001C117.894 79.4267 117.801 79.3867 117.761 79.2801C117.734 79.1601 117.774 79.0667 117.881 79.0001C118.468 78.7867 119.014 78.5867 119.521 78.4001C120.028 78.2134 120.434 78.0601 120.741 77.9401C121.061 77.8201 121.228 77.7601 121.241 77.7601C121.254 77.7601 121.268 77.7534 121.281 77.7401C121.308 77.7267 121.334 77.7334 121.361 77.7601C121.414 77.7601 121.454 77.7934 121.481 77.8601C121.508 77.8867 121.514 77.9201 121.501 77.9601C121.501 78.0001 121.488 78.0667 121.461 78.1601C121.434 78.2134 121.414 78.2667 121.401 78.3201C121.388 78.3734 121.368 78.4401 121.341 78.5201C121.248 78.7734 121.141 79.0734 121.021 79.4201C120.914 79.7667 120.808 80.1134 120.701 80.4601C120.568 80.8867 120.481 81.2001 120.441 81.4001C120.401 81.5867 120.381 81.7134 120.381 81.7801C120.581 81.8067 120.801 81.7801 121.041 81.7001C121.201 81.6467 121.368 81.5867 121.541 81.5201C121.728 81.4401 121.934 81.3334 122.161 81.2001C122.574 80.9867 123.014 80.7267 123.481 80.4201C123.961 80.1134 124.454 79.8001 124.961 79.4801C125.068 79.4001 125.174 79.3267 125.281 79.2601C125.388 79.1801 125.494 79.1001 125.601 79.0201C125.654 78.9934 125.708 78.9867 125.761 79.0001C125.828 79.0134 125.868 79.0467 125.881 79.1001C125.974 79.1934 125.961 79.2867 125.841 79.3801C125.721 79.4334 125.608 79.5001 125.501 79.5801C125.394 79.6601 125.288 79.7334 125.181 79.8001C124.674 80.1334 124.181 80.4534 123.701 80.7601C123.221 81.0667 122.768 81.3334 122.341 81.5601C121.528 81.9867 120.908 82.2001 120.481 82.2001Z" fill="#0F2F60"/>
<path d="M113.204 80.8197C113.164 80.8197 113.13 80.8197 113.104 80.8197C113.077 80.8064 113.05 80.7997 113.024 80.7997C112.904 80.7864 112.824 80.7131 112.784 80.5797C112.73 80.4331 112.75 80.2531 112.844 80.0397C112.95 79.8264 113.11 79.5531 113.324 79.2197C113.417 79.0731 113.51 78.9264 113.604 78.7797C113.697 78.6331 113.77 78.4931 113.824 78.3597C113.904 78.1864 113.95 78.0597 113.964 77.9797C113.977 77.8997 113.977 77.8464 113.964 77.8197C113.964 77.8197 113.95 77.8131 113.924 77.7997C113.91 77.7864 113.89 77.7731 113.864 77.7597C113.49 77.6664 112.977 77.6264 112.324 77.6397C111.684 77.6531 110.87 77.7931 109.884 78.0597C108.897 78.3131 107.69 78.7531 106.264 79.3797C106.21 79.3931 106.157 79.3931 106.104 79.3797C106.05 79.3664 106.017 79.3331 106.004 79.2797C105.95 79.1597 105.984 79.0731 106.104 79.0197C106.85 78.6997 107.557 78.4197 108.224 78.1797C108.89 77.9264 109.524 77.7264 110.124 77.5797C111.697 77.1797 112.977 77.1131 113.964 77.3797C114.07 77.3931 114.15 77.4331 114.204 77.4997C114.27 77.5664 114.31 77.6264 114.324 77.6797C114.417 77.8931 114.384 78.1531 114.224 78.4597C114.077 78.7664 113.897 79.0864 113.684 79.4197C113.604 79.5531 113.53 79.6731 113.464 79.7797C113.397 79.8864 113.337 79.9931 113.284 80.0997C113.23 80.1931 113.197 80.2664 113.184 80.3197C113.17 80.3597 113.164 80.3931 113.164 80.4197C113.204 80.4197 113.297 80.4131 113.444 80.3997C113.59 80.3731 113.83 80.3197 114.164 80.2397C114.497 80.1464 114.957 80.0064 115.544 79.8197C116.13 79.6197 116.89 79.3464 117.824 78.9997C117.97 78.9731 118.064 79.0131 118.104 79.1197C118.13 79.2664 118.09 79.3597 117.984 79.3997C116.89 79.7864 116.017 80.0864 115.364 80.2997C114.71 80.4997 114.217 80.6397 113.884 80.7197C113.564 80.7864 113.337 80.8197 113.204 80.8197Z" fill="#0F2F60"/>
<path d="M97.1391 82.1599C97.0458 82.1599 96.9658 82.1533 96.8991 82.1399C96.8324 82.1266 96.7591 82.1133 96.6791 82.0999C96.5591 82.0733 96.4791 81.9999 96.4391 81.8799C96.3591 81.6933 96.3791 81.4333 96.4991 81.0999C96.6191 80.7666 96.8058 80.3333 97.0591 79.7999C97.1524 79.6399 97.2324 79.4799 97.2991 79.3199C97.3658 79.1599 97.4258 79.0133 97.4791 78.8799C97.5458 78.7333 97.5858 78.6266 97.5991 78.5599C97.6124 78.4933 97.6258 78.4399 97.6391 78.3999C97.3458 78.3333 97.0258 78.4066 96.6791 78.6199C96.3458 78.8199 96.0058 79.0666 95.6591 79.3599C95.5658 79.4266 95.4724 79.4133 95.3791 79.3199C95.3524 79.2933 95.3391 79.2533 95.3391 79.1999C95.3391 79.1333 95.3658 79.0866 95.4191 79.0599C95.8191 78.7266 96.2124 78.4466 96.5991 78.2199C96.9858 77.9799 97.3791 77.9133 97.7791 78.0199C97.8724 78.0733 97.9391 78.1333 97.9791 78.1999C98.0458 78.3466 98.0258 78.5666 97.9191 78.8599C97.8258 79.1399 97.6658 79.5133 97.4391 79.9799C97.3458 80.1799 97.2524 80.3799 97.1591 80.5799C97.0791 80.7666 97.0058 80.9466 96.9391 81.1199C96.8458 81.3333 96.7991 81.4799 96.7991 81.5599C96.7991 81.6399 96.8058 81.6866 96.8191 81.6999C97.0058 81.7533 97.2658 81.7466 97.5991 81.6799C97.9458 81.6133 98.3924 81.4333 98.9391 81.1399C99.4858 80.8466 100.152 80.3866 100.939 79.7599C101.432 79.3733 101.879 78.9999 102.279 78.6399C102.692 78.2666 103.019 77.9599 103.259 77.7199C103.499 77.4666 103.619 77.3333 103.619 77.3199C103.672 77.2666 103.739 77.2533 103.819 77.2799C103.846 77.2933 103.872 77.3133 103.899 77.3399C103.939 77.3533 103.966 77.3733 103.979 77.3999C104.032 77.4933 104.019 77.6533 103.939 77.8799C103.872 78.0933 103.739 78.4333 103.539 78.8999C103.446 79.0999 103.359 79.2999 103.279 79.4999C103.199 79.6866 103.126 79.8733 103.059 80.0599C103.006 80.2733 102.972 80.4266 102.959 80.5199C102.946 80.5999 102.939 80.6533 102.939 80.6799C103.312 80.7733 103.786 80.6533 104.359 80.3199C104.639 80.1733 104.919 79.9866 105.199 79.7599C105.479 79.5199 105.759 79.2866 106.039 79.0599C106.132 78.9666 106.226 78.9733 106.319 79.0799C106.399 79.1866 106.386 79.2799 106.279 79.3599C105.906 79.6933 105.519 80.0133 105.119 80.3199C104.732 80.6133 104.346 80.8333 103.959 80.9799C103.572 81.1266 103.192 81.1533 102.819 81.0599C102.726 81.0199 102.646 80.9599 102.579 80.8799C102.499 80.6933 102.512 80.4266 102.619 80.0799C102.739 79.7199 102.919 79.2666 103.159 78.7199C103.212 78.6133 103.259 78.5066 103.299 78.3999C103.352 78.2799 103.406 78.1666 103.459 78.0599C103.206 78.2866 102.879 78.5866 102.479 78.9599C102.092 79.3199 101.659 79.6866 101.179 80.0599C99.4591 81.4599 98.1124 82.1599 97.1391 82.1599Z" fill="#0F2F60"/>
<path d="M92.3056 81.02C92.2523 81.02 92.2123 81.0066 92.1856 80.98C92.1056 80.9133 92.079 80.84 92.1056 80.76C92.4123 79.9333 92.6523 79.2266 92.8256 78.64C92.999 78.0533 93.0923 77.6466 93.1056 77.42C92.8656 77.5133 92.4523 77.6733 91.8656 77.9C91.2923 78.1133 90.6456 78.3533 89.9256 78.62C89.219 78.8866 88.5256 79.1466 87.8456 79.4C87.699 79.4266 87.6056 79.3866 87.5656 79.28C87.539 79.16 87.5789 79.0666 87.6856 79C88.2856 78.7733 88.9056 78.5466 89.5456 78.32C90.199 78.08 90.799 77.86 91.3456 77.66C91.8923 77.46 92.339 77.2933 92.6856 77.16C93.0323 77.0266 93.2056 76.96 93.2056 76.96H93.3456C93.4256 76.9866 93.4723 77.0266 93.4856 77.08C93.5256 77.1333 93.5456 77.22 93.5456 77.34C93.5456 77.46 93.5123 77.6533 93.4456 77.92C93.3923 78.0933 93.339 78.2866 93.2856 78.5C93.2323 78.7 93.159 78.9266 93.0656 79.18C93.0123 79.3933 92.9456 79.6133 92.8656 79.84C92.799 80.0533 92.7323 80.24 92.6656 80.4C92.959 80.24 93.3456 80.04 93.8256 79.8C94.319 79.5466 94.8656 79.2866 95.4656 79.02C95.5856 78.9666 95.679 79 95.7456 79.12C95.7723 79.1733 95.7723 79.2266 95.7456 79.28C95.7323 79.3333 95.699 79.3666 95.6456 79.38C95.0323 79.6466 94.479 79.9066 93.9856 80.16C93.5056 80.4 93.119 80.6 92.8256 80.76C92.5456 80.9066 92.4056 80.9866 92.4056 81C92.3923 81 92.3789 81.0066 92.3656 81.02C92.3523 81.02 92.3323 81.02 92.3056 81.02Z" fill="#0F2F60"/>
<path d="M84.5322 81.02C84.4788 81.02 84.4388 81.0066 84.4122 80.98C84.3322 80.9133 84.3055 80.84 84.3322 80.76C84.6388 79.9333 84.8788 79.2266 85.0522 78.64C85.2255 78.0533 85.3188 77.6466 85.3322 77.42C85.0922 77.5133 84.6788 77.6733 84.0922 77.9C83.5188 78.1133 82.8722 78.3533 82.1522 78.62C81.4455 78.8866 80.7522 79.1466 80.0722 79.4C79.9255 79.4266 79.8322 79.3866 79.7922 79.28C79.7655 79.16 79.8055 79.0666 79.9122 79C80.5122 78.7733 81.1322 78.5466 81.7722 78.32C82.4255 78.08 83.0255 77.86 83.5722 77.66C84.1188 77.46 84.5655 77.2933 84.9122 77.16C85.2588 77.0266 85.4322 76.96 85.4322 76.96H85.5722C85.6522 76.9866 85.6988 77.0266 85.7122 77.08C85.7522 77.1333 85.7722 77.22 85.7722 77.34C85.7722 77.46 85.7388 77.6533 85.6722 77.92C85.6188 78.0933 85.5655 78.2866 85.5122 78.5C85.4588 78.7 85.3855 78.9266 85.2922 79.18C85.2388 79.3933 85.1722 79.6133 85.0922 79.84C85.0255 80.0533 84.9588 80.24 84.8922 80.4C85.1855 80.24 85.5722 80.04 86.0522 79.8C86.5455 79.5466 87.0922 79.2866 87.6922 79.02C87.8122 78.9666 87.9055 79 87.9722 79.12C87.9988 79.1733 87.9988 79.2266 87.9722 79.28C87.9588 79.3333 87.9255 79.3666 87.8722 79.38C87.2588 79.6466 86.7055 79.9066 86.2122 80.16C85.7322 80.4 85.3455 80.6 85.0522 80.76C84.7722 80.9066 84.6322 80.9866 84.6322 81C84.6188 81 84.6055 81.0066 84.5922 81.02C84.5788 81.02 84.5588 81.02 84.5322 81.02Z" fill="#0F2F60"/>
<path d="M75.2349 80.8197C75.1949 80.8197 75.1615 80.8197 75.1349 80.8197C75.1082 80.8064 75.0815 80.7997 75.0549 80.7997C74.9349 80.7864 74.8549 80.7131 74.8149 80.5797C74.7615 80.4331 74.7815 80.2531 74.8749 80.0397C74.9815 79.8264 75.1415 79.5531 75.3549 79.2197C75.4482 79.0731 75.5415 78.9264 75.6349 78.7797C75.7282 78.6331 75.8015 78.4931 75.8549 78.3597C75.9349 78.1864 75.9815 78.0597 75.9949 77.9797C76.0082 77.8997 76.0082 77.8464 75.9949 77.8197C75.9949 77.8197 75.9815 77.8131 75.9549 77.7997C75.9415 77.7864 75.9215 77.7731 75.8949 77.7597C75.5215 77.6664 75.0082 77.6264 74.3549 77.6397C73.7149 77.6531 72.9015 77.7931 71.9149 78.0597C70.9282 78.3131 69.7215 78.7531 68.2949 79.3797C68.2415 79.3931 68.1882 79.3931 68.1349 79.3797C68.0815 79.3664 68.0482 79.3331 68.0349 79.2797C67.9815 79.1597 68.0149 79.0731 68.1349 79.0197C68.8815 78.6997 69.5882 78.4197 70.2549 78.1797C70.9215 77.9264 71.5549 77.7264 72.1549 77.5797C73.7282 77.1797 75.0082 77.1131 75.9949 77.3797C76.1015 77.3931 76.1815 77.4331 76.2349 77.4997C76.3015 77.5664 76.3415 77.6264 76.3549 77.6797C76.4482 77.8931 76.4149 78.1531 76.2549 78.4597C76.1082 78.7664 75.9282 79.0864 75.7149 79.4197C75.6349 79.5531 75.5615 79.6731 75.4949 79.7797C75.4282 79.8864 75.3682 79.9931 75.3149 80.0997C75.2615 80.1931 75.2282 80.2664 75.2149 80.3197C75.2015 80.3597 75.1949 80.3931 75.1949 80.4197C75.2349 80.4197 75.3282 80.4131 75.4749 80.3997C75.6215 80.3731 75.8615 80.3197 76.1949 80.2397C76.5282 80.1464 76.9882 80.0064 77.5749 79.8197C78.1615 79.6197 78.9215 79.3464 79.8549 78.9997C80.0015 78.9731 80.0949 79.0131 80.1349 79.1197C80.1615 79.2664 80.1215 79.3597 80.0149 79.3997C78.9215 79.7864 78.0482 80.0864 77.3949 80.2997C76.7415 80.4997 76.2482 80.6397 75.9149 80.7197C75.5949 80.7864 75.3682 80.8197 75.2349 80.8197Z" fill="#0F2F60"/>
<path d="M63.4575 80.8197C63.4175 80.8197 63.3842 80.8197 63.3575 80.8197C63.3309 80.8064 63.3042 80.7997 63.2775 80.7997C63.1575 80.7864 63.0775 80.7131 63.0375 80.5797C62.9842 80.4331 63.0042 80.2531 63.0975 80.0397C63.2042 79.8264 63.3642 79.5531 63.5775 79.2197C63.6709 79.0731 63.7642 78.9264 63.8575 78.7797C63.9509 78.6331 64.0242 78.4931 64.0775 78.3597C64.1575 78.1864 64.2042 78.0597 64.2175 77.9797C64.2309 77.8997 64.2309 77.8464 64.2175 77.8197C64.2175 77.8197 64.2042 77.8131 64.1775 77.7997C64.1642 77.7864 64.1442 77.7731 64.1175 77.7597C63.7442 77.6664 63.2309 77.6264 62.5775 77.6397C61.9375 77.6531 61.1242 77.7931 60.1375 78.0597C59.1509 78.3131 57.9442 78.7531 56.5175 79.3797C56.4642 79.3931 56.4109 79.3931 56.3575 79.3797C56.3042 79.3664 56.2709 79.3331 56.2575 79.2797C56.2042 79.1597 56.2375 79.0731 56.3575 79.0197C57.1042 78.6997 57.8109 78.4197 58.4775 78.1797C59.1442 77.9264 59.7775 77.7264 60.3775 77.5797C61.9509 77.1797 63.2309 77.1131 64.2175 77.3797C64.3242 77.3931 64.4042 77.4331 64.4575 77.4997C64.5242 77.5664 64.5642 77.6264 64.5775 77.6797C64.6709 77.8931 64.6375 78.1531 64.4775 78.4597C64.3309 78.7664 64.1509 79.0864 63.9375 79.4197C63.8575 79.5531 63.7842 79.6731 63.7175 79.7797C63.6509 79.8864 63.5909 79.9931 63.5375 80.0997C63.4842 80.1931 63.4509 80.2664 63.4375 80.3197C63.4242 80.3597 63.4175 80.3931 63.4175 80.4197C63.4575 80.4197 63.5509 80.4131 63.6975 80.3997C63.8442 80.3731 64.0842 80.3197 64.4175 80.2397C64.7509 80.1464 65.2109 80.0064 65.7975 79.8197C66.3842 79.6197 67.1442 79.3464 68.0775 78.9997C68.2242 78.9731 68.3175 79.0131 68.3575 79.1197C68.3842 79.2664 68.3442 79.3597 68.2375 79.3997C67.1442 79.7864 66.2709 80.0864 65.6175 80.2997C64.9642 80.4997 64.4709 80.6397 64.1375 80.7197C63.8175 80.7864 63.5909 80.8197 63.4575 80.8197Z" fill="#0F2F60"/>
<path d="M51.1645 82.2001C51.0712 82.2001 50.9712 82.1867 50.8645 82.1601C50.7845 82.1201 50.7379 82.0734 50.7245 82.0201C50.6845 81.9534 50.6712 81.8267 50.6845 81.6401C50.6979 81.4534 50.7912 81.0467 50.9645 80.4201C51.0712 80.0601 51.1845 79.7001 51.3045 79.3401C51.4379 78.9667 51.5512 78.6534 51.6445 78.4001C51.6445 78.3734 51.6445 78.3534 51.6445 78.3401C51.6579 78.3134 51.6645 78.2934 51.6645 78.2801C51.3712 78.3867 50.9579 78.5467 50.4245 78.7601C49.9045 78.9601 49.3379 79.1734 48.7245 79.4001C48.5779 79.4267 48.4845 79.3867 48.4445 79.2801C48.4179 79.1601 48.4579 79.0667 48.5645 79.0001C49.1512 78.7867 49.6979 78.5867 50.2045 78.4001C50.7112 78.2134 51.1179 78.0601 51.4245 77.9401C51.7445 77.8201 51.9112 77.7601 51.9245 77.7601C51.9379 77.7601 51.9512 77.7534 51.9645 77.7401C51.9912 77.7267 52.0179 77.7334 52.0445 77.7601C52.0979 77.7601 52.1379 77.7934 52.1645 77.8601C52.1912 77.8867 52.1979 77.9201 52.1845 77.9601C52.1845 78.0001 52.1712 78.0667 52.1445 78.1601C52.1179 78.2134 52.0979 78.2667 52.0845 78.3201C52.0712 78.3734 52.0512 78.4401 52.0245 78.5201C51.9312 78.7734 51.8245 79.0734 51.7045 79.4201C51.5979 79.7667 51.4912 80.1134 51.3845 80.4601C51.2512 80.8867 51.1645 81.2001 51.1245 81.4001C51.0845 81.5867 51.0645 81.7134 51.0645 81.7801C51.2645 81.8067 51.4845 81.7801 51.7245 81.7001C51.8845 81.6467 52.0512 81.5867 52.2245 81.5201C52.4112 81.4401 52.6179 81.3334 52.8445 81.2001C53.2579 80.9867 53.6979 80.7267 54.1645 80.4201C54.6445 80.1134 55.1379 79.8001 55.6445 79.4801C55.7512 79.4001 55.8579 79.3267 55.9645 79.2601C56.0712 79.1801 56.1779 79.1001 56.2845 79.0201C56.3379 78.9934 56.3912 78.9867 56.4445 79.0001C56.5112 79.0134 56.5512 79.0467 56.5645 79.1001C56.6579 79.1934 56.6445 79.2867 56.5245 79.3801C56.4045 79.4334 56.2912 79.5001 56.1845 79.5801C56.0779 79.6601 55.9712 79.7334 55.8645 79.8001C55.3579 80.1334 54.8645 80.4534 54.3845 80.7601C53.9045 81.0667 53.4512 81.3334 53.0245 81.5601C52.2112 81.9867 51.5912 82.2001 51.1645 82.2001Z" fill="#0F2F60"/>
<path d="M39.6 82.1599C39.5067 82.1599 39.4267 82.1533 39.36 82.1399C39.2934 82.1266 39.22 82.1133 39.14 82.0999C39.02 82.0733 38.94 81.9999 38.9 81.8799C38.82 81.6933 38.84 81.4333 38.96 81.0999C39.08 80.7666 39.2667 80.3333 39.52 79.7999C39.6134 79.6399 39.6934 79.4799 39.76 79.3199C39.8267 79.1599 39.8867 79.0133 39.94 78.8799C40.0067 78.7333 40.0467 78.6266 40.06 78.5599C40.0734 78.4933 40.0867 78.4399 40.1 78.3999C39.8067 78.3333 39.4867 78.4066 39.14 78.6199C38.8067 78.8199 38.4667 79.0666 38.12 79.3599C38.0267 79.4266 37.9334 79.4133 37.84 79.3199C37.8134 79.2933 37.8 79.2533 37.8 79.1999C37.8 79.1333 37.8267 79.0866 37.88 79.0599C38.28 78.7266 38.6734 78.4466 39.06 78.2199C39.4467 77.9799 39.84 77.9133 40.24 78.0199C40.3334 78.0733 40.4 78.1333 40.44 78.1999C40.5067 78.3466 40.4867 78.5666 40.38 78.8599C40.2867 79.1399 40.1267 79.5133 39.9 79.9799C39.8067 80.1799 39.7134 80.3799 39.62 80.5799C39.54 80.7666 39.4667 80.9466 39.4 81.1199C39.3067 81.3333 39.26 81.4799 39.26 81.5599C39.26 81.6399 39.2667 81.6866 39.28 81.6999C39.4667 81.7533 39.7267 81.7466 40.06 81.6799C40.4067 81.6133 40.8534 81.4333 41.4 81.1399C41.9467 80.8466 42.6134 80.3866 43.4 79.7599C43.8934 79.3733 44.34 78.9999 44.74 78.6399C45.1534 78.2666 45.48 77.9599 45.72 77.7199C45.96 77.4666 46.08 77.3333 46.08 77.3199C46.1334 77.2666 46.2 77.2533 46.28 77.2799C46.3067 77.2933 46.3334 77.3133 46.36 77.3399C46.4 77.3533 46.4267 77.3733 46.44 77.3999C46.4934 77.4933 46.48 77.6533 46.4 77.8799C46.3334 78.0933 46.2 78.4333 46 78.8999C45.9067 79.0999 45.82 79.2999 45.74 79.4999C45.66 79.6866 45.5867 79.8733 45.52 80.0599C45.4667 80.2733 45.4334 80.4266 45.42 80.5199C45.4067 80.5999 45.4 80.6533 45.4 80.6799C45.7734 80.7733 46.2467 80.6533 46.82 80.3199C47.1 80.1733 47.38 79.9866 47.66 79.7599C47.94 79.5199 48.22 79.2866 48.5 79.0599C48.5934 78.9666 48.6867 78.9733 48.78 79.0799C48.86 79.1866 48.8467 79.2799 48.74 79.3599C48.3667 79.6933 47.98 80.0133 47.58 80.3199C47.1934 80.6133 46.8067 80.8333 46.42 80.9799C46.0334 81.1266 45.6534 81.1533 45.28 81.0599C45.1867 81.0199 45.1067 80.9599 45.04 80.8799C44.96 80.6933 44.9734 80.4266 45.08 80.0799C45.2 79.7199 45.38 79.2666 45.62 78.7199C45.6734 78.6133 45.72 78.5066 45.76 78.3999C45.8134 78.2799 45.8667 78.1666 45.92 78.0599C45.6667 78.2866 45.34 78.5866 44.94 78.9599C44.5534 79.3199 44.12 79.6866 43.64 80.0599C41.92 81.4599 40.5734 82.1599 39.6 82.1599Z" fill="#0F2F60"/>
</svg>
