<svg width="258" height="247" viewBox="0 0 258 247" fill="none" xmlns="http://www.w3.org/2000/svg">
<path d="M256.082 136.184L156.639 245.379C155.035 247.14 152.313 247.264 150.558 245.655L16.4524 122.776L118.799 10.394C120.72 8.28424 123.982 8.1364 126.085 10.0629L255.753 128.876C257.855 130.803 258.003 134.075 256.082 136.184Z" fill="#E3E3E3"/>
<path d="M246.404 136.184L146.961 245.379C145.358 247.14 142.635 247.264 140.88 245.655L6.77466 122.776L109.121 10.394C111.043 8.28424 114.304 8.1364 116.407 10.0629L246.075 128.876C248.178 130.803 248.325 134.075 246.404 136.184Z" fill="#F0BA37"/>
<path d="M241.562 135.358L146.129 239.192C145.187 240.218 143.588 240.289 142.557 239.353L6.77466 116.073L103.913 10.3828C105.839 8.28746 109.109 8.13983 111.218 10.0546L241.231 128.097C243.339 130.011 243.488 133.262 241.562 135.358Z" fill="white"/>
<path d="M242.526 128.038L137.901 242.915L0 116.567L104.626 1.69151C106.555 -0.426804 109.832 -0.57608 111.945 1.35971L242.196 120.698C244.308 122.633 244.456 125.92 242.526 128.038Z" fill="#FFD45B"/>
<path d="M148.071 230.681L145.721 233.236L7.74219 108.045L10.0934 105.488L148.071 230.681Z" fill="#F0BA37"/>
<path d="M119.038 143.641L100.107 165.491L99.6821 165.081L118.612 143.232L119.038 143.641Z" fill="white"/>
<path d="M121.941 145.578L101.118 167.427L100.65 167.017L121.473 145.168L121.941 145.578Z" fill="white"/>
<path d="M122.909 146.545L102.085 168.395L101.618 167.985L122.442 146.135L122.909 146.545Z" fill="white"/>
<path d="M51.2927 95.2677L39.1492 109.359L38.7114 108.935L50.8548 94.8426L51.2927 95.2677Z" fill="white"/>
<path d="M53.2285 96.2354L40.1526 110.327L39.6794 109.903L52.7561 95.8103L53.2285 96.2354Z" fill="white"/>
<path d="M54.1962 97.203L42.9877 111.295L42.5828 110.871L53.792 96.7786L54.1962 97.203Z" fill="white"/>
<path d="M205.171 124.301L193.027 138.393L192.589 137.969L204.732 123.876L205.171 124.301Z" fill="#F0BA37"/>
<path d="M207.107 125.269L194.031 139.361L193.558 138.937L206.634 124.845L207.107 125.269Z" fill="#F0BA37"/>
<path d="M209.042 126.236L196.899 140.329L196.461 139.904L208.603 125.812L209.042 126.236Z" fill="#F0BA37"/>
<path d="M200.332 118.494L187.255 132.587L186.783 132.162L199.86 118.07L200.332 118.494Z" fill="#F0BA37"/>
<path d="M201.3 120.43L188.222 134.522L187.751 134.097L200.827 120.005L201.3 120.43Z" fill="#F0BA37"/>
<path d="M202.268 121.396L190.125 135.49L189.686 135.065L201.829 120.973L202.268 121.396Z" fill="#F0BA37"/>
<path d="M147.598 64.9142C150.72 83.8909 138.082 101.841 119.369 105.008C100.656 108.174 82.9542 95.3576 79.8327 76.3817C76.7095 57.4058 89.3481 39.4552 108.061 36.2881C126.774 33.1218 144.475 45.9383 147.598 64.9142Z" fill="#F0BA37"/>
<path d="M143.628 72.2188C142.742 73.1684 141.788 73.8064 140.764 74.1328C139.74 74.4514 138.702 74.4643 137.649 74.1715C136.592 73.8749 135.576 73.2726 134.603 72.3645C133.653 71.4789 132.992 70.5173 132.618 69.4797C132.245 68.4422 132.17 67.4021 132.393 66.3593C132.621 65.3124 133.156 64.3363 134.001 63.4308C134.569 62.8218 135.196 62.3464 135.882 62.0047C136.567 61.6552 137.288 61.4653 138.042 61.4352C138.801 61.401 139.578 61.5484 140.372 61.8773C141.163 62.2026 141.951 62.7314 142.736 63.4639L143.439 64.1197L136.169 71.9146L134.582 70.4347L139.605 65.0498C139.236 64.706 138.835 64.4816 138.401 64.3766C137.967 64.2715 137.537 64.2865 137.111 64.4215C136.686 64.5487 136.299 64.7986 135.951 65.1713C135.589 65.5599 135.358 65.9885 135.258 66.4572C135.157 66.9181 135.179 67.3729 135.323 67.8214C135.462 68.2662 135.712 68.6607 136.073 69.0047L137.582 70.4117C138.039 70.8377 138.512 71.1216 139.001 71.2635C139.494 71.4014 139.977 71.3982 140.449 71.2538C140.92 71.1095 141.356 70.8229 141.756 70.3942C142.021 70.1098 142.224 69.812 142.365 69.5008C142.505 69.1897 142.573 68.8753 142.57 68.5575C142.567 68.2397 142.49 67.9284 142.34 67.6235L144.705 65.4014C145.162 66.0522 145.429 66.762 145.506 67.5307C145.583 68.2917 145.466 69.0749 145.157 69.8804C144.848 70.6781 144.338 71.4576 143.628 72.2188Z" fill="white"/>
<path d="M134.33 82.1875C133.448 83.1331 132.489 83.7596 131.453 84.067C130.417 84.3667 129.37 84.3644 128.313 84.0601C127.259 83.7517 126.266 83.1622 125.332 82.2915C124.387 81.4096 123.727 80.4537 123.354 79.424C122.981 78.3864 122.91 77.3423 123.14 76.2915C123.367 75.2369 123.916 74.2429 124.787 73.3093C125.538 72.504 126.342 71.9352 127.199 71.603C128.055 71.2708 128.913 71.1751 129.77 71.3158C130.628 71.4565 131.43 71.8414 132.177 72.4705L129.924 74.8865C129.399 74.5248 128.861 74.3595 128.307 74.3904C127.754 74.4135 127.259 74.6595 126.821 75.1283C126.451 75.5249 126.236 75.9724 126.176 76.4707C126.116 76.9612 126.213 77.4792 126.469 78.0246C126.724 78.5701 127.142 79.1137 127.723 79.6556C128.312 80.2049 128.888 80.5919 129.45 80.8165C130.016 81.0372 130.545 81.1001 131.038 81.0054C131.531 80.9108 131.962 80.6651 132.332 80.2684C132.605 79.9759 132.79 79.6574 132.886 79.313C132.987 78.9645 132.994 78.6076 132.907 78.2423C132.821 77.8693 132.637 77.5074 132.358 77.1567L134.611 74.7407C135.279 75.4384 135.721 76.21 135.936 77.0553C136.151 77.8929 136.129 78.7523 135.869 79.6336C135.609 80.5148 135.096 81.3661 134.33 82.1875Z" fill="white"/>
<path d="M117.491 89.1798L122.828 94.1574L120.44 96.7176L111.209 88.1077L113.485 85.6677L115.113 87.1867L115.214 87.0786C114.868 86.3735 114.763 85.6348 114.899 84.8625C115.031 84.0865 115.416 83.3559 116.055 82.6708C116.653 82.0297 117.314 81.6016 118.04 81.3864C118.765 81.1712 119.511 81.1743 120.279 81.3957C121.042 81.6133 121.782 82.0566 122.5 82.7255L128.377 88.2076L125.989 90.7678L120.568 85.7117C120.007 85.1808 119.432 84.914 118.843 84.9112C118.249 84.9048 117.714 85.158 117.235 85.6708C116.914 86.0154 116.704 86.389 116.606 86.7917C116.511 87.1904 116.537 87.5965 116.683 88.0101C116.829 88.4159 117.098 88.8058 117.491 89.1798Z" fill="white"/>
<path d="M113.913 104.066C113.364 104.655 112.772 105.084 112.138 105.354C111.5 105.621 110.853 105.699 110.198 105.591C109.543 105.474 108.911 105.131 108.302 104.563C107.789 104.085 107.446 103.589 107.273 103.076C107.1 102.562 107.059 102.044 107.149 101.522C107.24 100.999 107.423 100.481 107.7 99.9675C107.98 99.4499 108.311 98.9422 108.693 98.4443C109.138 97.8551 109.49 97.3738 109.748 97.0004C110.002 96.6233 110.148 96.3139 110.187 96.0722C110.225 95.8306 110.146 95.6182 109.949 95.4351L109.913 95.4014C109.533 95.0464 109.126 94.892 108.693 94.938C108.265 94.9801 107.846 95.2195 107.439 95.6562C107.009 96.117 106.77 96.5789 106.72 97.0419C106.666 97.5012 106.75 97.9169 106.973 98.2891L104.572 100.478C104.123 99.8343 103.859 99.1457 103.779 98.4119C103.695 97.6745 103.803 96.9245 104.102 96.162C104.4 95.3918 104.894 94.6381 105.581 93.9009C106.06 93.3881 106.577 92.9533 107.135 92.5966C107.696 92.236 108.273 91.991 108.865 91.8619C109.462 91.7287 110.057 91.7409 110.652 91.8985C111.242 92.0524 111.812 92.3853 112.361 92.8972L118.587 98.7045L116.323 101.132L115.043 99.9385L114.975 100.011C115.126 100.428 115.195 100.864 115.184 101.318C115.168 101.768 115.06 102.225 114.859 102.689C114.655 103.15 114.339 103.609 113.913 104.066ZM112.83 101.684C113.181 101.308 113.417 100.906 113.538 100.479C113.655 100.049 113.662 99.6319 113.559 99.2285C113.455 98.825 113.241 98.472 112.917 98.1693L111.937 97.2556C111.915 97.3843 111.86 97.5393 111.773 97.7207C111.686 97.8943 111.58 98.084 111.456 98.2899C111.327 98.4921 111.197 98.6924 111.064 98.8909C110.927 99.0856 110.804 99.2624 110.693 99.4213C110.457 99.7629 110.282 100.091 110.169 100.405C110.056 100.719 110.023 101.015 110.072 101.292C110.116 101.566 110.259 101.815 110.499 102.039C110.848 102.364 111.232 102.486 111.651 102.406C112.071 102.318 112.464 102.077 112.83 101.684Z" fill="white"/>
<path d="M96.8859 121.972L87.6546 113.362L89.9304 110.922L91.5591 112.441L91.66 112.332C91.2985 111.636 91.1707 110.917 91.2768 110.177C91.3828 109.437 91.7273 108.754 92.3102 108.129C92.9007 107.496 93.5616 107.105 94.2929 106.955C95.0202 106.802 95.7214 106.902 96.3966 107.254L96.4863 107.158C96.133 106.476 96.028 105.742 96.1711 104.953C96.3139 104.158 96.7011 103.421 97.3327 102.744C98.1361 101.883 99.0627 101.44 100.112 101.415C101.162 101.382 102.187 101.833 103.189 102.767L109.397 108.557L107.015 111.112L101.311 105.792C100.799 105.314 100.287 105.091 99.7764 105.124C99.2658 105.158 98.82 105.379 98.4388 105.787C98.0053 106.252 97.8154 106.753 97.869 107.29C97.9185 107.823 98.1837 108.314 98.6645 108.763L104.302 114.02L101.987 116.502L96.2293 111.133C95.7765 110.71 95.2945 110.504 94.7831 110.514C94.2755 110.52 93.8255 110.734 93.4332 111.154C93.1678 111.439 93.0008 111.762 92.932 112.125C92.863 112.481 92.895 112.844 93.0281 113.215C93.1572 113.583 93.3921 113.925 93.7326 114.243L99.2738 119.411L96.8859 121.972Z" fill="white"/>
<path d="M91.2763 128.348C90.4056 129.282 89.4543 129.904 88.4223 130.215C87.3901 130.519 86.3455 130.522 85.2885 130.225C84.2276 129.925 83.2243 129.334 82.2787 128.452C81.3251 127.563 80.6637 126.601 80.2943 125.567C79.9209 124.53 79.8517 123.488 80.0865 122.44C80.3212 121.386 80.8738 120.391 81.7445 119.458C82.6152 118.524 83.5667 117.906 84.5989 117.603C85.6308 117.291 86.6773 117.286 87.7383 117.586C88.7953 117.883 89.8005 118.476 90.7541 119.365C91.6997 120.247 92.3591 121.207 92.7325 122.244C93.1019 123.278 93.1693 124.322 92.9347 125.377C92.6998 126.424 92.147 127.415 91.2763 128.348ZM89.3042 126.486C89.7003 126.062 89.9109 125.595 89.9358 125.086C89.9567 124.574 89.8241 124.049 89.5379 123.513C89.2555 122.972 88.8458 122.451 88.3089 121.951C87.772 121.45 87.2241 121.077 86.6652 120.833C86.1099 120.585 85.5775 120.489 85.0677 120.546C84.558 120.602 84.1051 120.843 83.709 121.268C83.3091 121.696 83.095 122.171 83.0666 122.691C83.0419 123.208 83.1708 123.736 83.4533 124.277C83.7394 124.814 84.1509 125.332 84.6878 125.833C85.2247 126.334 85.7708 126.708 86.326 126.956C86.885 127.201 87.4212 127.292 87.9346 127.232C88.4478 127.164 88.9044 126.915 89.3042 126.486Z" fill="white"/>
<path d="M77.0303 143.26L64.7219 131.78L69.2511 126.924C70.1181 125.995 71.0243 125.356 71.9697 125.01C72.9148 124.655 73.8506 124.587 74.7769 124.807C75.703 125.019 76.5728 125.504 77.3861 126.263C78.2035 127.025 78.7422 127.857 79.0023 128.759C79.2584 129.658 79.2307 130.587 78.9192 131.547C78.6114 132.504 78.0165 133.455 77.1346 134.401L74.102 137.652L72.0106 135.701L74.6507 132.871C75.1141 132.374 75.4309 131.898 75.6011 131.442C75.7713 130.986 75.7949 130.552 75.672 130.137C75.5527 129.719 75.2908 129.321 74.8861 128.943C74.4774 128.562 74.0563 128.323 73.6226 128.226C73.1926 128.124 72.7505 128.173 72.2961 128.371C71.8414 128.561 71.3805 128.907 70.9134 129.407L69.2766 131.162L79.4574 140.658L77.0303 143.26ZM77.6286 131.389L86.083 133.554L83.4036 136.427L75.0109 134.196L77.6286 131.389Z" fill="white"/>
<path d="M126.534 109.108L131.871 114.086L129.483 116.646L120.252 108.036L122.527 105.596L124.156 107.115L124.257 107.007C123.911 106.302 123.805 105.563 123.941 104.791C124.073 104.015 124.459 103.284 125.098 102.599C125.696 101.958 126.357 101.53 127.082 101.315C127.808 101.099 128.554 101.103 129.321 101.324C130.085 101.542 130.825 101.985 131.542 102.654L137.42 108.136L135.032 110.696L129.611 105.64C129.05 105.109 128.475 104.842 127.885 104.839C127.292 104.833 126.756 105.086 126.278 105.599C125.957 105.944 125.747 106.317 125.648 106.72C125.554 107.119 125.579 107.525 125.726 107.938C125.872 108.344 126.141 108.734 126.534 109.108Z" fill="white"/>
<path d="M117.754 129.221L106.18 123.123L108.596 120.533L116.132 124.887L116.211 124.803L111.399 117.528L113.77 114.986L121.349 119.222L121.422 119.144L116.567 111.987L118.977 109.402L125.871 120.518L123.343 123.229L116.058 119.401L115.951 119.515L120.277 126.516L117.754 129.221Z" fill="white"/>
<path d="M109.529 138.39C108.98 138.979 108.388 139.408 107.754 139.679C107.116 139.945 106.469 140.024 105.814 139.915C105.159 139.798 104.527 139.456 103.918 138.888C103.405 138.409 103.062 137.913 102.889 137.4C102.716 136.887 102.675 136.369 102.765 135.846C102.856 135.323 103.039 134.805 103.316 134.292C103.596 133.774 103.928 133.266 104.31 132.769C104.754 132.179 105.106 131.698 105.364 131.325C105.618 130.948 105.765 130.638 105.803 130.396C105.841 130.155 105.762 129.942 105.565 129.759L105.529 129.726C105.149 129.371 104.742 129.216 104.31 129.262C103.881 129.304 103.463 129.544 103.055 129.98C102.626 130.441 102.386 130.903 102.336 131.366C102.282 131.825 102.367 132.241 102.589 132.613L100.188 134.802C99.7392 134.158 99.4749 133.47 99.395 132.736C99.3112 131.999 99.4188 131.249 99.7179 130.486C100.017 129.716 100.51 128.962 101.197 128.225C101.676 127.712 102.194 127.278 102.751 126.921C103.312 126.56 103.889 126.315 104.482 126.186C105.078 126.053 105.673 126.065 106.268 126.223C106.859 126.377 107.428 126.71 107.977 127.221L114.204 133.029L111.939 135.457L110.659 134.263L110.592 134.335C110.742 134.752 110.811 135.188 110.8 135.642C110.785 136.092 110.677 136.549 110.476 137.014C110.271 137.474 109.955 137.933 109.529 138.39ZM108.446 136.009C108.797 135.632 109.034 135.23 109.154 134.804C109.271 134.373 109.278 133.956 109.175 133.553C109.072 133.149 108.858 132.796 108.533 132.494L107.554 131.58C107.531 131.709 107.476 131.864 107.389 132.045C107.302 132.218 107.197 132.408 107.072 132.614C106.943 132.816 106.813 133.017 106.68 133.215C106.543 133.41 106.42 133.587 106.309 133.746C106.073 134.087 105.898 134.415 105.785 134.729C105.672 135.043 105.64 135.339 105.688 135.616C105.732 135.89 105.875 136.139 106.115 136.363C106.464 136.688 106.848 136.811 107.268 136.73C107.687 136.642 108.08 136.401 108.446 136.009Z" fill="white"/>
<path d="M99.53 148.76L95.4604 153.123L83.1521 141.644L87.2553 137.244C88.41 136.006 89.6504 135.17 90.9766 134.736C92.2987 134.299 93.6428 134.268 95.0087 134.643C96.3784 135.014 97.7023 135.795 98.9804 136.987C100.263 138.183 101.138 139.453 101.608 140.797C102.081 142.138 102.143 143.488 101.795 144.849C101.451 146.207 100.696 147.51 99.53 148.76ZM95.6579 148.442L97.1994 146.789C97.9169 146.02 98.3842 145.245 98.6013 144.466C98.8181 143.68 98.7613 142.885 98.431 142.083C98.1004 141.272 97.4764 140.439 96.5589 139.583C95.6494 138.735 94.7809 138.176 93.9536 137.906C93.13 137.633 92.3372 137.631 91.5752 137.902C90.8133 138.173 90.0735 138.693 89.356 139.462L87.8089 141.121L95.6579 148.442Z" fill="white"/>
</svg>
