<svg width="237" height="236" viewBox="0 0 237 236" fill="none" xmlns="http://www.w3.org/2000/svg">
<path d="M129.45 223.261L28.4374 169.34L14.6462 161.976L2.88936 155.701C1.98709 155.22 1.29322 154.508 0.800637 153.687C-0.157295 152.091 -0.30294 150.053 0.621837 148.282L3.92189 141.971C4.36356 142.508 4.91417 142.969 5.56306 143.316L17.3211 149.592L131.667 210.632L129.45 223.261Z" fill="#E3E3E3"/>
<path d="M136.181 226.696L129.377 223.28L131.732 210.667L138.536 214.082L136.181 226.696Z" fill="#E3E3E3"/>
<path d="M157.583 235.855C156.291 235.855 154.978 235.551 153.756 234.907L150.767 233.336L153.001 220.802L156.452 222.615C157.674 223.258 158.986 223.562 160.279 223.562C163.224 223.562 166.073 221.98 167.544 219.21L215.246 129.377V136.593L177.368 207.925L188.175 213.607L183.208 215.585L184.366 220.784L173.556 215.102L164.847 231.502C163.376 234.273 160.529 235.855 157.583 235.855ZM136.248 225.704H136.246L138.481 213.169H138.482L136.248 225.704Z" fill="#E3E3E3"/>
<path d="M151.13 233.565L150.139 233.075L136.246 226.2L138.537 214.102L153.42 221.468L151.13 233.565Z" fill="#E3E3E3"/>
<path d="M236.532 87.8129L167.083 220.031C164.979 224.038 160.041 225.571 156.055 223.454L17.1738 149.652L90.4344 10.1765C91.4739 8.1963 93.9138 7.43835 95.8836 8.48514L234.85 82.3331C236.819 83.3786 237.573 85.8327 236.532 87.8129Z" fill="#1591A9"/>
<path d="M226.226 82.247L152.623 220.971L5.20478 143.418C2.53421 142.012 1.51365 138.717 2.92405 136.055L73.9721 2.15076C75.0165 0.180069 77.4677 -0.572586 79.4456 0.468552L224.537 76.798C226.514 77.838 227.27 80.2775 226.226 82.247Z" fill="#24B7D2"/>
<path d="M204.777 82.1157L205.054 81.5921L85.1023 18.3186L84.8258 18.8435C83.7282 20.9168 81.6077 22.0992 79.4101 22.0992C78.4465 22.0992 77.4699 21.8717 76.5574 21.3907L76.0329 21.1135L27.4783 112.872L28.0028 113.149C30.0805 114.244 31.2636 116.364 31.2648 118.557C31.2648 119.519 31.037 120.493 30.554 121.405L30.2775 121.929L150.753 185.478L151.029 184.954C152.127 182.88 154.249 181.699 156.446 181.697C157.41 181.697 158.385 181.925 159.299 182.406L159.823 182.683L208.377 90.9245L207.852 90.6472C205.776 89.5525 204.591 87.4342 204.591 85.2411C204.591 84.2779 204.819 83.3041 205.301 82.393L205.579 81.8693L205.054 81.5921L204.777 82.1157L204.252 81.8385C203.678 82.9237 203.405 84.0919 203.405 85.2411C203.404 87.8571 204.82 90.3878 207.298 91.6957L207.576 91.1721L207.051 90.8948L159.051 181.605L159.577 181.882L159.853 181.359C158.766 180.785 157.596 180.513 156.446 180.513C153.825 180.512 151.29 181.926 149.98 184.401L150.505 184.677L150.782 184.153L31.3562 121.157L31.0785 121.682L31.603 121.958C32.1785 120.874 32.4514 119.706 32.4514 118.557C32.4526 115.941 31.0358 113.409 28.5581 112.102L28.2804 112.626L28.8049 112.903L76.8042 22.1916L76.2797 21.9144L76.0032 22.438C77.089 23.0115 78.259 23.284 79.4101 23.284C82.0302 23.2852 84.5648 21.8705 85.8748 19.3968L85.3503 19.1195L85.0727 19.6432L204.5 82.6394L204.777 82.1157Z" fill="white"/>
<path d="M99.3715 73.9629L98.3623 73.4297L102.085 66.3837L103.094 66.9168L101.533 69.871L109.919 74.3013L109.318 75.4389L100.932 71.0087L99.3715 73.9629Z" fill="white"/>
<path d="M103.663 86.1421L94.2683 81.1787L95.9454 78.0043C96.3332 77.2704 96.7768 76.7342 97.2764 76.3957C97.773 76.0556 98.2981 75.8871 98.8519 75.8902C99.4058 75.8934 99.9594 76.0411 100.513 76.3336C101.067 76.626 101.498 76.9985 101.806 77.451C102.115 77.9035 102.268 78.4283 102.265 79.0255C102.26 79.621 102.065 80.2827 101.68 81.0106L100.323 83.5794L99.2953 83.0365L100.633 80.5044C100.898 80.0028 101.038 79.5604 101.053 79.177C101.069 78.7906 100.979 78.4575 100.783 78.1777C100.585 77.8932 100.298 77.6516 99.9216 77.4529C99.5455 77.2541 99.1796 77.1508 98.8239 77.1428C98.4682 77.1349 98.1323 77.2449 97.8162 77.473C97.4971 77.6995 97.2034 78.0666 96.9352 78.5742L95.8785 80.5743L104.264 85.0045L103.663 86.1421ZM101.779 79.4903L107.221 79.408L106.523 80.7292L101.1 80.7748L101.779 79.4903Z" fill="white"/>
<path d="M97.9551 85.5732C98.946 86.0967 99.7077 86.728 100.24 87.4671C100.773 88.2062 101.07 88.9911 101.132 89.8217C101.194 90.6524 101.013 91.4684 100.59 92.2696C100.167 93.0709 99.5945 93.68 98.8735 94.0971C98.1524 94.5141 97.3365 94.7109 96.4258 94.6874C95.515 94.6639 94.5642 94.3904 93.5734 93.8669C92.5825 93.3435 91.8207 92.7122 91.288 91.9731C90.7553 91.2339 90.4581 90.4491 90.3962 89.6184C90.3344 88.7877 90.5151 87.9717 90.9384 87.1705C91.3617 86.3693 91.9339 85.7601 92.655 85.3431C93.376 84.926 94.1919 84.7292 95.1027 84.7527C96.0135 84.7762 96.9643 85.0497 97.9551 85.5732ZM97.3735 86.6741C96.56 86.2444 95.8015 86.0177 95.0981 85.9942C94.3963 85.9677 93.7796 86.1093 93.2482 86.4193C92.7184 86.7261 92.3032 87.1639 92.0027 87.7328C91.7022 88.3016 91.5736 88.8928 91.6171 89.5065C91.6623 90.1171 91.8927 90.7063 92.3086 91.2742C92.7261 91.8389 93.3415 92.3362 94.155 92.766C94.9685 93.1958 95.7261 93.4239 96.4279 93.4505C97.1314 93.474 97.748 93.3323 98.2778 93.0255C98.8093 92.7155 99.2253 92.2762 99.5258 91.7074C99.8263 91.1385 99.954 90.5488 99.9089 89.9382C99.8654 89.3246 99.6349 88.7353 99.2174 88.1706C98.8016 87.6027 98.1869 87.1039 97.3735 86.6741Z" fill="white"/>
<path d="M93.4128 105.544L84.0181 100.581L84.6191 99.4429L88.8027 101.653L91.4492 96.6439L87.2656 94.4336L87.8666 93.296L97.2613 98.2594L96.6603 99.397L92.4584 97.1771L89.8119 102.186L94.0138 104.406L93.4128 105.544Z" fill="white"/>
<path d="M84.729 104.921C84.235 104.731 83.7562 104.763 83.2925 105.019C82.8288 105.275 82.4467 105.687 82.1462 106.256C81.9265 106.672 81.8015 107.071 81.7713 107.454C81.7426 107.834 81.8 108.173 81.9434 108.472C82.0884 108.768 82.3107 108.995 82.6104 109.153C82.8612 109.286 83.1083 109.34 83.3518 109.316C83.5938 109.287 83.8245 109.21 84.0439 109.083C84.2603 108.955 84.4617 108.807 84.648 108.639C84.8313 108.47 84.9919 108.311 85.1298 108.161L85.8908 107.342C86.0843 107.131 86.3168 106.906 86.5883 106.666C86.8614 106.423 87.1685 106.216 87.5096 106.044C87.8493 105.867 88.2182 105.769 88.6163 105.749C89.0144 105.728 89.4336 105.834 89.874 106.067C90.3816 106.335 90.7701 106.71 91.0393 107.193C91.3102 107.672 91.4323 108.23 91.4057 108.865C91.3807 109.497 91.1775 110.174 90.7962 110.896C90.4408 111.569 90.0244 112.094 89.5472 112.472C89.0715 112.846 88.5652 113.072 88.0282 113.148C87.4927 113.221 86.9585 113.14 86.4253 112.905L87.0457 111.731C87.4166 111.888 87.7732 111.924 88.1155 111.839C88.4564 111.749 88.7682 111.573 89.051 111.312C89.3323 111.046 89.5716 110.726 89.7687 110.353C89.9981 109.919 90.1338 109.492 90.1757 109.072C90.2145 108.65 90.1603 108.272 90.0131 107.936C89.8629 107.598 89.6165 107.339 89.274 107.158C88.9621 106.993 88.6622 106.946 88.3744 107.017C88.0865 107.088 87.8063 107.233 87.5338 107.453C87.2612 107.673 86.9918 107.924 86.7255 108.206L85.7845 109.187C85.1857 109.81 84.5775 110.232 83.9599 110.453C83.3422 110.674 82.7169 110.618 82.0838 110.283C81.5578 110.005 81.1742 109.621 80.9331 109.13C80.6904 108.634 80.5882 108.087 80.6263 107.489C80.663 106.886 80.8397 106.285 81.1564 105.686C81.4763 105.08 81.8692 104.599 82.3352 104.243C82.7981 103.885 83.2888 103.667 83.8073 103.589C84.3274 103.508 84.8285 103.585 85.3106 103.82L84.729 104.921Z" fill="white"/>
<path d="M119.047 122.4L118.038 121.867L121.761 114.821L122.77 115.354L121.209 118.309L129.595 122.739L128.994 123.876L120.608 119.446L119.047 122.4Z" fill="white"/>
<path d="M140.1 102.855L130.706 97.8911L133.701 92.2213L134.71 92.7544L132.316 97.2867L135.49 98.9637L137.73 94.7251L138.739 95.2583L136.499 99.4969L139.692 101.184L142.125 96.5781L143.135 97.1113L140.1 102.855Z" fill="white"/>
<path d="M136.262 110.121L126.867 105.157L127.468 104.02L135.853 108.45L138.161 104.083L139.17 104.616L136.262 110.121Z" fill="white"/>
<path d="M131.853 118.465L131.223 119.658L123.651 111.245L124.271 110.07L135.488 111.584L134.858 112.777L125.467 111.406L125.428 111.479L131.853 118.465ZM128.416 116.086L130.956 111.278L131.965 111.812L129.425 116.619L128.416 116.086Z" fill="white"/>
<path d="M111.304 79.6523L112.489 77.4097L122.408 76.9129L122.508 76.7233L117.328 68.2497L118.513 66.0071L124.933 76.8736L131.598 80.3947L130.563 82.353L123.899 78.8319L111.304 79.6523Z" fill="white"/>
<path d="M120.982 100.488L104.81 91.9438L107.697 86.4794C108.365 85.216 109.129 84.293 109.989 83.7103C110.843 83.1249 111.747 82.8349 112.701 82.8402C113.654 82.8456 114.607 83.1 115.56 83.6034C116.513 84.1068 117.255 84.748 117.786 85.527C118.317 86.3059 118.581 87.2093 118.576 88.2373C118.567 89.2625 118.231 90.4015 117.569 91.6544L115.233 96.0765L113.464 95.142L115.767 90.7831C116.223 89.9197 116.464 89.1581 116.489 88.4981C116.517 87.8329 116.362 87.2595 116.024 86.7779C115.684 86.2882 115.19 85.8723 114.542 85.5302C113.894 85.1881 113.265 85.0102 112.652 84.9965C112.04 84.9827 111.462 85.1722 110.918 85.5648C110.368 85.9547 109.863 86.5866 109.401 87.4604L107.582 90.9033L122.017 98.5296L120.982 100.488ZM117.739 89.0375L127.107 88.8958L125.905 91.17L116.571 91.2485L117.739 89.0375Z" fill="white"/>
<path d="M102.736 95.8698L118.908 104.414L117.873 106.372L101.701 97.8281L102.736 95.8698Z" fill="white"/>
<path d="M110.284 120.736L109.2 122.789L96.1649 108.307L97.2329 106.285L116.542 108.891L115.458 110.944L99.2907 108.585L99.224 108.711L110.284 120.736ZM104.368 116.641L108.74 108.365L110.477 109.283L106.105 117.558L104.368 116.641Z" fill="white"/>
<path d="M104.106 132.431L87.9338 123.887L93.057 114.19L94.7942 115.108L90.7057 122.847L96.1701 125.734L99.8748 118.722L101.612 119.639L97.9074 126.651L105.141 130.473L104.106 132.431Z" fill="white"/>
<path d="M230.785 91.1835L165.177 215.118C164.004 217.333 161.253 218.18 159.033 217.01L155.71 215.259L225.418 83.5796L229.022 85.4812C231.086 86.5688 231.876 89.1225 230.785 91.1835Z" fill="#D7F1FC"/>
<path d="M152.873 220.971L5.21078 143.559C2.53458 142.156 1.51233 138.866 2.92507 136.209L7.7831 127.087L160.29 207.04L152.873 220.971Z" fill="#0E99C4"/>
<path d="M157.463 216.391L155.71 215.468L215.246 103.043V107.276L157.463 216.391Z" fill="#93C8EE"/>
<path d="M160.378 217.536C159.966 217.536 159.551 217.481 159.145 217.366L215.246 112.203V115.47L160.808 217.516C160.665 217.529 160.521 217.536 160.378 217.536Z" fill="#93C8EE"/>
<path d="M191.203 201.462L186.24 203.369L187.397 208.377L167.159 198.118L170.967 191.203L191.203 201.462Z" fill="#24B7D2"/>
</svg>
