<svg width="24" height="24" viewBox="0 0 24 24" fill="none" xmlns="http://www.w3.org/2000/svg">
<g clip-path="url(#clip0_894_15585)">
<path d="M12 0C5.37281 0 0 5.37281 0 12C0 18.6272 5.37281 24 12 24C18.6272 24 24 18.6272 24 12C24 5.37281 18.6272 0 12 0Z" fill="#0F2F60"/>
<path d="M13.3127 10.9138L18.4498 4.94238H17.2325L12.772 10.1273L9.20937 4.94238H5.10034L10.4877 12.7829L5.10034 19.0448H6.31773L11.0281 13.5694L14.7905 19.0448H18.8995L13.3124 10.9138H13.3127ZM6.75636 5.85882H8.62619L17.233 18.17H15.3632L6.75636 5.85882Z" fill="white"/>
</g>
<defs>
<clipPath id="clip0_894_15585">
<rect width="24" height="24" fill="white"/>
</clipPath>
</defs>
</svg>
